G04 #@! TF.GenerationSoftware,KiCad,Pcbnew,5.0.2+dfsg1-1*
G04 #@! TF.CreationDate,2020-05-31T01:45:13+07:00*
G04 #@! TF.ProjectId,GatiHomeLampController,47617469-486f-46d6-954c-616d70436f6e,rev?*
G04 #@! TF.SameCoordinates,Original*
G04 #@! TF.FileFunction,Soldermask,Bot*
G04 #@! TF.FilePolarity,Negative*
%FSLAX46Y46*%
G04 Gerber Fmt 4.6, Leading zero omitted, Abs format (unit mm)*
G04 Created by KiCad (PCBNEW 5.0.2+dfsg1-1) date Sun 31 May 2020 01:45:13 AM WIB*
%MOMM*%
%LPD*%
G01*
G04 APERTURE LIST*
%ADD10C,0.100000*%
G04 APERTURE END LIST*
D10*
G36*
X121289694Y-129828633D02*
X121462094Y-129880931D01*
X121462096Y-129880932D01*
X121620983Y-129965859D01*
X121620985Y-129965860D01*
X121620984Y-129965860D01*
X121760249Y-130080151D01*
X121874540Y-130219416D01*
X121959469Y-130378306D01*
X122011767Y-130550706D01*
X122029425Y-130730000D01*
X122011767Y-130909294D01*
X121959469Y-131081694D01*
X121959468Y-131081696D01*
X121874541Y-131240583D01*
X121760249Y-131379849D01*
X121620983Y-131494141D01*
X121462096Y-131579068D01*
X121462094Y-131579069D01*
X121289694Y-131631367D01*
X121155331Y-131644600D01*
X119744669Y-131644600D01*
X119610306Y-131631367D01*
X119437906Y-131579069D01*
X119437904Y-131579068D01*
X119279017Y-131494141D01*
X119139751Y-131379849D01*
X119025459Y-131240583D01*
X118940532Y-131081696D01*
X118940531Y-131081694D01*
X118888233Y-130909294D01*
X118870575Y-130730000D01*
X118888233Y-130550706D01*
X118940531Y-130378306D01*
X119025460Y-130219416D01*
X119139751Y-130080151D01*
X119279016Y-129965860D01*
X119279015Y-129965860D01*
X119279017Y-129965859D01*
X119437904Y-129880932D01*
X119437906Y-129880931D01*
X119610306Y-129828633D01*
X119744669Y-129815400D01*
X121155331Y-129815400D01*
X121289694Y-129828633D01*
X121289694Y-129828633D01*
G37*
G36*
X108789694Y-129828633D02*
X108962094Y-129880931D01*
X108962096Y-129880932D01*
X109120983Y-129965859D01*
X109120985Y-129965860D01*
X109120984Y-129965860D01*
X109260249Y-130080151D01*
X109374540Y-130219416D01*
X109459469Y-130378306D01*
X109511767Y-130550706D01*
X109529425Y-130730000D01*
X109511767Y-130909294D01*
X109459469Y-131081694D01*
X109459468Y-131081696D01*
X109374541Y-131240583D01*
X109260249Y-131379849D01*
X109120983Y-131494141D01*
X108962096Y-131579068D01*
X108962094Y-131579069D01*
X108789694Y-131631367D01*
X108655331Y-131644600D01*
X107244669Y-131644600D01*
X107110306Y-131631367D01*
X106937906Y-131579069D01*
X106937904Y-131579068D01*
X106779017Y-131494141D01*
X106639751Y-131379849D01*
X106525459Y-131240583D01*
X106440532Y-131081696D01*
X106440531Y-131081694D01*
X106388233Y-130909294D01*
X106370575Y-130730000D01*
X106388233Y-130550706D01*
X106440531Y-130378306D01*
X106525460Y-130219416D01*
X106639751Y-130080151D01*
X106779016Y-129965860D01*
X106779015Y-129965860D01*
X106779017Y-129965859D01*
X106937904Y-129880932D01*
X106937906Y-129880931D01*
X107110306Y-129828633D01*
X107244669Y-129815400D01*
X108655331Y-129815400D01*
X108789694Y-129828633D01*
X108789694Y-129828633D01*
G37*
G36*
X108789694Y-124828633D02*
X108962094Y-124880931D01*
X108962096Y-124880932D01*
X109120983Y-124965859D01*
X109120985Y-124965860D01*
X109120984Y-124965860D01*
X109260249Y-125080151D01*
X109374540Y-125219416D01*
X109459469Y-125378306D01*
X109511767Y-125550706D01*
X109529425Y-125730000D01*
X109511767Y-125909294D01*
X109459469Y-126081694D01*
X109459468Y-126081696D01*
X109374541Y-126240583D01*
X109260249Y-126379849D01*
X109120983Y-126494141D01*
X108962096Y-126579068D01*
X108962094Y-126579069D01*
X108789694Y-126631367D01*
X108655331Y-126644600D01*
X107244669Y-126644600D01*
X107110306Y-126631367D01*
X106937906Y-126579069D01*
X106937904Y-126579068D01*
X106779017Y-126494141D01*
X106639751Y-126379849D01*
X106525459Y-126240583D01*
X106440532Y-126081696D01*
X106440531Y-126081694D01*
X106388233Y-125909294D01*
X106370575Y-125730000D01*
X106388233Y-125550706D01*
X106440531Y-125378306D01*
X106525460Y-125219416D01*
X106639751Y-125080151D01*
X106779016Y-124965860D01*
X106779015Y-124965860D01*
X106779017Y-124965859D01*
X106937904Y-124880932D01*
X106937906Y-124880931D01*
X107110306Y-124828633D01*
X107244669Y-124815400D01*
X108655331Y-124815400D01*
X108789694Y-124828633D01*
X108789694Y-124828633D01*
G37*
G36*
X121289694Y-124828633D02*
X121462094Y-124880931D01*
X121462096Y-124880932D01*
X121620983Y-124965859D01*
X121620985Y-124965860D01*
X121620984Y-124965860D01*
X121760249Y-125080151D01*
X121874540Y-125219416D01*
X121959469Y-125378306D01*
X122011767Y-125550706D01*
X122029425Y-125730000D01*
X122011767Y-125909294D01*
X121959469Y-126081694D01*
X121959468Y-126081696D01*
X121874541Y-126240583D01*
X121760249Y-126379849D01*
X121620983Y-126494141D01*
X121462096Y-126579068D01*
X121462094Y-126579069D01*
X121289694Y-126631367D01*
X121155331Y-126644600D01*
X119744669Y-126644600D01*
X119610306Y-126631367D01*
X119437906Y-126579069D01*
X119437904Y-126579068D01*
X119279017Y-126494141D01*
X119139751Y-126379849D01*
X119025459Y-126240583D01*
X118940532Y-126081696D01*
X118940531Y-126081694D01*
X118888233Y-125909294D01*
X118870575Y-125730000D01*
X118888233Y-125550706D01*
X118940531Y-125378306D01*
X119025460Y-125219416D01*
X119139751Y-125080151D01*
X119279016Y-124965860D01*
X119279015Y-124965860D01*
X119279017Y-124965859D01*
X119437904Y-124880932D01*
X119437906Y-124880931D01*
X119610306Y-124828633D01*
X119744669Y-124815400D01*
X121155331Y-124815400D01*
X121289694Y-124828633D01*
X121289694Y-124828633D01*
G37*
G36*
X102239694Y-113318633D02*
X102412094Y-113370931D01*
X102412096Y-113370932D01*
X102570983Y-113455859D01*
X102570985Y-113455860D01*
X102570984Y-113455860D01*
X102710249Y-113570151D01*
X102824540Y-113709416D01*
X102909469Y-113868306D01*
X102961767Y-114040706D01*
X102979425Y-114220000D01*
X102961767Y-114399294D01*
X102909469Y-114571694D01*
X102909468Y-114571696D01*
X102824541Y-114730583D01*
X102710249Y-114869849D01*
X102570983Y-114984141D01*
X102412096Y-115069068D01*
X102412094Y-115069069D01*
X102239694Y-115121367D01*
X102105331Y-115134600D01*
X100694669Y-115134600D01*
X100560306Y-115121367D01*
X100387906Y-115069069D01*
X100387904Y-115069068D01*
X100229017Y-114984141D01*
X100089751Y-114869849D01*
X99975459Y-114730583D01*
X99890532Y-114571696D01*
X99890531Y-114571694D01*
X99838233Y-114399294D01*
X99820575Y-114220000D01*
X99838233Y-114040706D01*
X99890531Y-113868306D01*
X99975460Y-113709416D01*
X100089751Y-113570151D01*
X100229016Y-113455860D01*
X100229015Y-113455860D01*
X100229017Y-113455859D01*
X100387904Y-113370932D01*
X100387906Y-113370931D01*
X100560306Y-113318633D01*
X100694669Y-113305400D01*
X102105331Y-113305400D01*
X102239694Y-113318633D01*
X102239694Y-113318633D01*
G37*
G36*
X89739694Y-113318633D02*
X89912094Y-113370931D01*
X89912096Y-113370932D01*
X90070983Y-113455859D01*
X90070985Y-113455860D01*
X90070984Y-113455860D01*
X90210249Y-113570151D01*
X90324540Y-113709416D01*
X90409469Y-113868306D01*
X90461767Y-114040706D01*
X90479425Y-114220000D01*
X90461767Y-114399294D01*
X90409469Y-114571694D01*
X90409468Y-114571696D01*
X90324541Y-114730583D01*
X90210249Y-114869849D01*
X90070983Y-114984141D01*
X89912096Y-115069068D01*
X89912094Y-115069069D01*
X89739694Y-115121367D01*
X89605331Y-115134600D01*
X88194669Y-115134600D01*
X88060306Y-115121367D01*
X87887906Y-115069069D01*
X87887904Y-115069068D01*
X87729017Y-114984141D01*
X87589751Y-114869849D01*
X87475459Y-114730583D01*
X87390532Y-114571696D01*
X87390531Y-114571694D01*
X87338233Y-114399294D01*
X87320575Y-114220000D01*
X87338233Y-114040706D01*
X87390531Y-113868306D01*
X87475460Y-113709416D01*
X87589751Y-113570151D01*
X87729016Y-113455860D01*
X87729015Y-113455860D01*
X87729017Y-113455859D01*
X87887904Y-113370932D01*
X87887906Y-113370931D01*
X88060306Y-113318633D01*
X88194669Y-113305400D01*
X89605331Y-113305400D01*
X89739694Y-113318633D01*
X89739694Y-113318633D01*
G37*
G36*
X108789694Y-113318633D02*
X108962094Y-113370931D01*
X108962096Y-113370932D01*
X109120983Y-113455859D01*
X109120985Y-113455860D01*
X109120984Y-113455860D01*
X109260249Y-113570151D01*
X109374540Y-113709416D01*
X109459469Y-113868306D01*
X109511767Y-114040706D01*
X109529425Y-114220000D01*
X109511767Y-114399294D01*
X109459469Y-114571694D01*
X109459468Y-114571696D01*
X109374541Y-114730583D01*
X109260249Y-114869849D01*
X109120983Y-114984141D01*
X108962096Y-115069068D01*
X108962094Y-115069069D01*
X108789694Y-115121367D01*
X108655331Y-115134600D01*
X107244669Y-115134600D01*
X107110306Y-115121367D01*
X106937906Y-115069069D01*
X106937904Y-115069068D01*
X106779017Y-114984141D01*
X106639751Y-114869849D01*
X106525459Y-114730583D01*
X106440532Y-114571696D01*
X106440531Y-114571694D01*
X106388233Y-114399294D01*
X106370575Y-114220000D01*
X106388233Y-114040706D01*
X106440531Y-113868306D01*
X106525460Y-113709416D01*
X106639751Y-113570151D01*
X106779016Y-113455860D01*
X106779015Y-113455860D01*
X106779017Y-113455859D01*
X106937904Y-113370932D01*
X106937906Y-113370931D01*
X107110306Y-113318633D01*
X107244669Y-113305400D01*
X108655331Y-113305400D01*
X108789694Y-113318633D01*
X108789694Y-113318633D01*
G37*
G36*
X121289694Y-113318633D02*
X121462094Y-113370931D01*
X121462096Y-113370932D01*
X121620983Y-113455859D01*
X121620985Y-113455860D01*
X121620984Y-113455860D01*
X121760249Y-113570151D01*
X121874540Y-113709416D01*
X121959469Y-113868306D01*
X122011767Y-114040706D01*
X122029425Y-114220000D01*
X122011767Y-114399294D01*
X121959469Y-114571694D01*
X121959468Y-114571696D01*
X121874541Y-114730583D01*
X121760249Y-114869849D01*
X121620983Y-114984141D01*
X121462096Y-115069068D01*
X121462094Y-115069069D01*
X121289694Y-115121367D01*
X121155331Y-115134600D01*
X119744669Y-115134600D01*
X119610306Y-115121367D01*
X119437906Y-115069069D01*
X119437904Y-115069068D01*
X119279017Y-114984141D01*
X119139751Y-114869849D01*
X119025459Y-114730583D01*
X118940532Y-114571696D01*
X118940531Y-114571694D01*
X118888233Y-114399294D01*
X118870575Y-114220000D01*
X118888233Y-114040706D01*
X118940531Y-113868306D01*
X119025460Y-113709416D01*
X119139751Y-113570151D01*
X119279016Y-113455860D01*
X119279015Y-113455860D01*
X119279017Y-113455859D01*
X119437904Y-113370932D01*
X119437906Y-113370931D01*
X119610306Y-113318633D01*
X119744669Y-113305400D01*
X121155331Y-113305400D01*
X121289694Y-113318633D01*
X121289694Y-113318633D01*
G37*
G36*
X140339694Y-113318633D02*
X140512094Y-113370931D01*
X140512096Y-113370932D01*
X140670983Y-113455859D01*
X140670985Y-113455860D01*
X140670984Y-113455860D01*
X140810249Y-113570151D01*
X140924540Y-113709416D01*
X141009469Y-113868306D01*
X141061767Y-114040706D01*
X141079425Y-114220000D01*
X141061767Y-114399294D01*
X141009469Y-114571694D01*
X141009468Y-114571696D01*
X140924541Y-114730583D01*
X140810249Y-114869849D01*
X140670983Y-114984141D01*
X140512096Y-115069068D01*
X140512094Y-115069069D01*
X140339694Y-115121367D01*
X140205331Y-115134600D01*
X138794669Y-115134600D01*
X138660306Y-115121367D01*
X138487906Y-115069069D01*
X138487904Y-115069068D01*
X138329017Y-114984141D01*
X138189751Y-114869849D01*
X138075459Y-114730583D01*
X137990532Y-114571696D01*
X137990531Y-114571694D01*
X137938233Y-114399294D01*
X137920575Y-114220000D01*
X137938233Y-114040706D01*
X137990531Y-113868306D01*
X138075460Y-113709416D01*
X138189751Y-113570151D01*
X138329016Y-113455860D01*
X138329015Y-113455860D01*
X138329017Y-113455859D01*
X138487904Y-113370932D01*
X138487906Y-113370931D01*
X138660306Y-113318633D01*
X138794669Y-113305400D01*
X140205331Y-113305400D01*
X140339694Y-113318633D01*
X140339694Y-113318633D01*
G37*
G36*
X127839694Y-113318633D02*
X128012094Y-113370931D01*
X128012096Y-113370932D01*
X128170983Y-113455859D01*
X128170985Y-113455860D01*
X128170984Y-113455860D01*
X128310249Y-113570151D01*
X128424540Y-113709416D01*
X128509469Y-113868306D01*
X128561767Y-114040706D01*
X128579425Y-114220000D01*
X128561767Y-114399294D01*
X128509469Y-114571694D01*
X128509468Y-114571696D01*
X128424541Y-114730583D01*
X128310249Y-114869849D01*
X128170983Y-114984141D01*
X128012096Y-115069068D01*
X128012094Y-115069069D01*
X127839694Y-115121367D01*
X127705331Y-115134600D01*
X126294669Y-115134600D01*
X126160306Y-115121367D01*
X125987906Y-115069069D01*
X125987904Y-115069068D01*
X125829017Y-114984141D01*
X125689751Y-114869849D01*
X125575459Y-114730583D01*
X125490532Y-114571696D01*
X125490531Y-114571694D01*
X125438233Y-114399294D01*
X125420575Y-114220000D01*
X125438233Y-114040706D01*
X125490531Y-113868306D01*
X125575460Y-113709416D01*
X125689751Y-113570151D01*
X125829016Y-113455860D01*
X125829015Y-113455860D01*
X125829017Y-113455859D01*
X125987904Y-113370932D01*
X125987906Y-113370931D01*
X126160306Y-113318633D01*
X126294669Y-113305400D01*
X127705331Y-113305400D01*
X127839694Y-113318633D01*
X127839694Y-113318633D01*
G37*
G36*
X175792527Y-108678736D02*
X175892410Y-108698604D01*
X176174674Y-108815521D01*
X176428705Y-108985259D01*
X176644741Y-109201295D01*
X176814479Y-109455326D01*
X176931396Y-109737590D01*
X176991000Y-110037240D01*
X176991000Y-110342760D01*
X176931396Y-110642410D01*
X176814479Y-110924674D01*
X176644741Y-111178705D01*
X176428705Y-111394741D01*
X176174674Y-111564479D01*
X175892410Y-111681396D01*
X175792527Y-111701264D01*
X175592762Y-111741000D01*
X175287238Y-111741000D01*
X175087473Y-111701264D01*
X174987590Y-111681396D01*
X174705326Y-111564479D01*
X174451295Y-111394741D01*
X174235259Y-111178705D01*
X174065521Y-110924674D01*
X173948604Y-110642410D01*
X173889000Y-110342760D01*
X173889000Y-110037240D01*
X173948604Y-109737590D01*
X174065521Y-109455326D01*
X174235259Y-109201295D01*
X174451295Y-108985259D01*
X174705326Y-108815521D01*
X174987590Y-108698604D01*
X175087473Y-108678736D01*
X175287238Y-108639000D01*
X175592762Y-108639000D01*
X175792527Y-108678736D01*
X175792527Y-108678736D01*
G37*
G36*
X163619485Y-108938996D02*
X163619487Y-108938997D01*
X163619488Y-108938997D01*
X163856255Y-109037069D01*
X164069342Y-109179449D01*
X164250551Y-109360658D01*
X164392931Y-109573745D01*
X164491004Y-109810515D01*
X164541000Y-110061861D01*
X164541000Y-110318139D01*
X164491004Y-110569485D01*
X164392931Y-110806255D01*
X164250551Y-111019342D01*
X164069342Y-111200551D01*
X164069339Y-111200553D01*
X163856255Y-111342931D01*
X163619488Y-111441003D01*
X163619487Y-111441003D01*
X163619485Y-111441004D01*
X163368139Y-111491000D01*
X163111861Y-111491000D01*
X162860515Y-111441004D01*
X162860513Y-111441003D01*
X162860512Y-111441003D01*
X162623745Y-111342931D01*
X162410661Y-111200553D01*
X162410658Y-111200551D01*
X162229449Y-111019342D01*
X162087069Y-110806255D01*
X161988996Y-110569485D01*
X161939000Y-110318139D01*
X161939000Y-110061861D01*
X161988996Y-109810515D01*
X162087069Y-109573745D01*
X162229449Y-109360658D01*
X162410658Y-109179449D01*
X162623745Y-109037069D01*
X162860512Y-108938997D01*
X162860513Y-108938997D01*
X162860515Y-108938996D01*
X163111861Y-108889000D01*
X163368139Y-108889000D01*
X163619485Y-108938996D01*
X163619485Y-108938996D01*
G37*
G36*
X189356000Y-110261000D02*
X185294000Y-110261000D01*
X185294000Y-108179000D01*
X189356000Y-108179000D01*
X189356000Y-110261000D01*
X189356000Y-110261000D01*
G37*
G36*
X89739694Y-108318633D02*
X89912094Y-108370931D01*
X89912096Y-108370932D01*
X90070983Y-108455859D01*
X90070985Y-108455860D01*
X90070984Y-108455860D01*
X90210249Y-108570151D01*
X90324540Y-108709416D01*
X90409469Y-108868306D01*
X90461767Y-109040706D01*
X90479425Y-109220000D01*
X90461767Y-109399294D01*
X90409469Y-109571694D01*
X90409468Y-109571696D01*
X90324541Y-109730583D01*
X90210249Y-109869849D01*
X90070983Y-109984141D01*
X89912096Y-110069068D01*
X89912094Y-110069069D01*
X89739694Y-110121367D01*
X89605331Y-110134600D01*
X88194669Y-110134600D01*
X88060306Y-110121367D01*
X87887906Y-110069069D01*
X87887904Y-110069068D01*
X87729017Y-109984141D01*
X87589751Y-109869849D01*
X87475459Y-109730583D01*
X87390532Y-109571696D01*
X87390531Y-109571694D01*
X87338233Y-109399294D01*
X87320575Y-109220000D01*
X87338233Y-109040706D01*
X87390531Y-108868306D01*
X87475460Y-108709416D01*
X87589751Y-108570151D01*
X87729016Y-108455860D01*
X87729015Y-108455860D01*
X87729017Y-108455859D01*
X87887904Y-108370932D01*
X87887906Y-108370931D01*
X88060306Y-108318633D01*
X88194669Y-108305400D01*
X89605331Y-108305400D01*
X89739694Y-108318633D01*
X89739694Y-108318633D01*
G37*
G36*
X140339694Y-108318633D02*
X140512094Y-108370931D01*
X140512096Y-108370932D01*
X140670983Y-108455859D01*
X140670985Y-108455860D01*
X140670984Y-108455860D01*
X140810249Y-108570151D01*
X140924540Y-108709416D01*
X141009469Y-108868306D01*
X141061767Y-109040706D01*
X141079425Y-109220000D01*
X141061767Y-109399294D01*
X141009469Y-109571694D01*
X141009468Y-109571696D01*
X140924541Y-109730583D01*
X140810249Y-109869849D01*
X140670983Y-109984141D01*
X140512096Y-110069068D01*
X140512094Y-110069069D01*
X140339694Y-110121367D01*
X140205331Y-110134600D01*
X138794669Y-110134600D01*
X138660306Y-110121367D01*
X138487906Y-110069069D01*
X138487904Y-110069068D01*
X138329017Y-109984141D01*
X138189751Y-109869849D01*
X138075459Y-109730583D01*
X137990532Y-109571696D01*
X137990531Y-109571694D01*
X137938233Y-109399294D01*
X137920575Y-109220000D01*
X137938233Y-109040706D01*
X137990531Y-108868306D01*
X138075460Y-108709416D01*
X138189751Y-108570151D01*
X138329016Y-108455860D01*
X138329015Y-108455860D01*
X138329017Y-108455859D01*
X138487904Y-108370932D01*
X138487906Y-108370931D01*
X138660306Y-108318633D01*
X138794669Y-108305400D01*
X140205331Y-108305400D01*
X140339694Y-108318633D01*
X140339694Y-108318633D01*
G37*
G36*
X127839694Y-108318633D02*
X128012094Y-108370931D01*
X128012096Y-108370932D01*
X128170983Y-108455859D01*
X128170985Y-108455860D01*
X128170984Y-108455860D01*
X128310249Y-108570151D01*
X128424540Y-108709416D01*
X128509469Y-108868306D01*
X128561767Y-109040706D01*
X128579425Y-109220000D01*
X128561767Y-109399294D01*
X128509469Y-109571694D01*
X128509468Y-109571696D01*
X128424541Y-109730583D01*
X128310249Y-109869849D01*
X128170983Y-109984141D01*
X128012096Y-110069068D01*
X128012094Y-110069069D01*
X127839694Y-110121367D01*
X127705331Y-110134600D01*
X126294669Y-110134600D01*
X126160306Y-110121367D01*
X125987906Y-110069069D01*
X125987904Y-110069068D01*
X125829017Y-109984141D01*
X125689751Y-109869849D01*
X125575459Y-109730583D01*
X125490532Y-109571696D01*
X125490531Y-109571694D01*
X125438233Y-109399294D01*
X125420575Y-109220000D01*
X125438233Y-109040706D01*
X125490531Y-108868306D01*
X125575460Y-108709416D01*
X125689751Y-108570151D01*
X125829016Y-108455860D01*
X125829015Y-108455860D01*
X125829017Y-108455859D01*
X125987904Y-108370932D01*
X125987906Y-108370931D01*
X126160306Y-108318633D01*
X126294669Y-108305400D01*
X127705331Y-108305400D01*
X127839694Y-108318633D01*
X127839694Y-108318633D01*
G37*
G36*
X121289694Y-108318633D02*
X121462094Y-108370931D01*
X121462096Y-108370932D01*
X121620983Y-108455859D01*
X121620985Y-108455860D01*
X121620984Y-108455860D01*
X121760249Y-108570151D01*
X121874540Y-108709416D01*
X121959469Y-108868306D01*
X122011767Y-109040706D01*
X122029425Y-109220000D01*
X122011767Y-109399294D01*
X121959469Y-109571694D01*
X121959468Y-109571696D01*
X121874541Y-109730583D01*
X121760249Y-109869849D01*
X121620983Y-109984141D01*
X121462096Y-110069068D01*
X121462094Y-110069069D01*
X121289694Y-110121367D01*
X121155331Y-110134600D01*
X119744669Y-110134600D01*
X119610306Y-110121367D01*
X119437906Y-110069069D01*
X119437904Y-110069068D01*
X119279017Y-109984141D01*
X119139751Y-109869849D01*
X119025459Y-109730583D01*
X118940532Y-109571696D01*
X118940531Y-109571694D01*
X118888233Y-109399294D01*
X118870575Y-109220000D01*
X118888233Y-109040706D01*
X118940531Y-108868306D01*
X119025460Y-108709416D01*
X119139751Y-108570151D01*
X119279016Y-108455860D01*
X119279015Y-108455860D01*
X119279017Y-108455859D01*
X119437904Y-108370932D01*
X119437906Y-108370931D01*
X119610306Y-108318633D01*
X119744669Y-108305400D01*
X121155331Y-108305400D01*
X121289694Y-108318633D01*
X121289694Y-108318633D01*
G37*
G36*
X108789694Y-108318633D02*
X108962094Y-108370931D01*
X108962096Y-108370932D01*
X109120983Y-108455859D01*
X109120985Y-108455860D01*
X109120984Y-108455860D01*
X109260249Y-108570151D01*
X109374540Y-108709416D01*
X109459469Y-108868306D01*
X109511767Y-109040706D01*
X109529425Y-109220000D01*
X109511767Y-109399294D01*
X109459469Y-109571694D01*
X109459468Y-109571696D01*
X109374541Y-109730583D01*
X109260249Y-109869849D01*
X109120983Y-109984141D01*
X108962096Y-110069068D01*
X108962094Y-110069069D01*
X108789694Y-110121367D01*
X108655331Y-110134600D01*
X107244669Y-110134600D01*
X107110306Y-110121367D01*
X106937906Y-110069069D01*
X106937904Y-110069068D01*
X106779017Y-109984141D01*
X106639751Y-109869849D01*
X106525459Y-109730583D01*
X106440532Y-109571696D01*
X106440531Y-109571694D01*
X106388233Y-109399294D01*
X106370575Y-109220000D01*
X106388233Y-109040706D01*
X106440531Y-108868306D01*
X106525460Y-108709416D01*
X106639751Y-108570151D01*
X106779016Y-108455860D01*
X106779015Y-108455860D01*
X106779017Y-108455859D01*
X106937904Y-108370932D01*
X106937906Y-108370931D01*
X107110306Y-108318633D01*
X107244669Y-108305400D01*
X108655331Y-108305400D01*
X108789694Y-108318633D01*
X108789694Y-108318633D01*
G37*
G36*
X102239694Y-108318633D02*
X102412094Y-108370931D01*
X102412096Y-108370932D01*
X102570983Y-108455859D01*
X102570985Y-108455860D01*
X102570984Y-108455860D01*
X102710249Y-108570151D01*
X102824540Y-108709416D01*
X102909469Y-108868306D01*
X102961767Y-109040706D01*
X102979425Y-109220000D01*
X102961767Y-109399294D01*
X102909469Y-109571694D01*
X102909468Y-109571696D01*
X102824541Y-109730583D01*
X102710249Y-109869849D01*
X102570983Y-109984141D01*
X102412096Y-110069068D01*
X102412094Y-110069069D01*
X102239694Y-110121367D01*
X102105331Y-110134600D01*
X100694669Y-110134600D01*
X100560306Y-110121367D01*
X100387906Y-110069069D01*
X100387904Y-110069068D01*
X100229017Y-109984141D01*
X100089751Y-109869849D01*
X99975459Y-109730583D01*
X99890532Y-109571696D01*
X99890531Y-109571694D01*
X99838233Y-109399294D01*
X99820575Y-109220000D01*
X99838233Y-109040706D01*
X99890531Y-108868306D01*
X99975460Y-108709416D01*
X100089751Y-108570151D01*
X100229016Y-108455860D01*
X100229015Y-108455860D01*
X100229017Y-108455859D01*
X100387904Y-108370932D01*
X100387906Y-108370931D01*
X100560306Y-108318633D01*
X100694669Y-108305400D01*
X102105331Y-108305400D01*
X102239694Y-108318633D01*
X102239694Y-108318633D01*
G37*
G36*
X161642527Y-102628736D02*
X161742410Y-102648604D01*
X162024674Y-102765521D01*
X162278705Y-102935259D01*
X162494741Y-103151295D01*
X162664479Y-103405326D01*
X162761208Y-103638852D01*
X162781396Y-103687591D01*
X162841000Y-103987238D01*
X162841000Y-104292762D01*
X162801264Y-104492527D01*
X162781396Y-104592410D01*
X162664479Y-104874674D01*
X162494741Y-105128705D01*
X162278705Y-105344741D01*
X162024674Y-105514479D01*
X161742410Y-105631396D01*
X161642527Y-105651264D01*
X161442762Y-105691000D01*
X161137238Y-105691000D01*
X160937473Y-105651264D01*
X160837590Y-105631396D01*
X160555326Y-105514479D01*
X160301295Y-105344741D01*
X160085259Y-105128705D01*
X159915521Y-104874674D01*
X159798604Y-104592410D01*
X159778736Y-104492527D01*
X159739000Y-104292762D01*
X159739000Y-103987238D01*
X159798604Y-103687591D01*
X159818792Y-103638852D01*
X159915521Y-103405326D01*
X160085259Y-103151295D01*
X160301295Y-102935259D01*
X160555326Y-102765521D01*
X160837590Y-102648604D01*
X160937473Y-102628736D01*
X161137238Y-102589000D01*
X161442762Y-102589000D01*
X161642527Y-102628736D01*
X161642527Y-102628736D01*
G37*
G36*
X188417112Y-103184021D02*
X188519072Y-103194063D01*
X188649891Y-103233747D01*
X188715302Y-103253589D01*
X188896148Y-103350254D01*
X189054659Y-103480341D01*
X189184746Y-103638852D01*
X189281411Y-103819698D01*
X189281411Y-103819699D01*
X189340937Y-104015928D01*
X189361036Y-104220000D01*
X189340937Y-104424072D01*
X189301253Y-104554891D01*
X189281411Y-104620302D01*
X189184746Y-104801148D01*
X189054659Y-104959659D01*
X188896148Y-105089746D01*
X188715302Y-105186411D01*
X188649891Y-105206253D01*
X188519072Y-105245937D01*
X188417112Y-105255979D01*
X188366133Y-105261000D01*
X186283867Y-105261000D01*
X186232888Y-105255979D01*
X186130928Y-105245937D01*
X186000109Y-105206253D01*
X185934698Y-105186411D01*
X185753852Y-105089746D01*
X185595341Y-104959659D01*
X185465254Y-104801148D01*
X185368589Y-104620302D01*
X185348747Y-104554891D01*
X185309063Y-104424072D01*
X185288964Y-104220000D01*
X185309063Y-104015928D01*
X185368589Y-103819699D01*
X185368589Y-103819698D01*
X185465254Y-103638852D01*
X185595341Y-103480341D01*
X185753852Y-103350254D01*
X185934698Y-103253589D01*
X186000109Y-103233747D01*
X186130928Y-103194063D01*
X186232888Y-103184021D01*
X186283867Y-103179000D01*
X188366133Y-103179000D01*
X188417112Y-103184021D01*
X188417112Y-103184021D01*
G37*
G36*
X146216821Y-99491313D02*
X146216824Y-99491314D01*
X146216825Y-99491314D01*
X146377239Y-99539975D01*
X146377241Y-99539976D01*
X146377244Y-99539977D01*
X146525078Y-99618995D01*
X146654659Y-99725341D01*
X146761005Y-99854922D01*
X146840023Y-100002756D01*
X146840024Y-100002759D01*
X146840025Y-100002761D01*
X146866412Y-100089747D01*
X146888687Y-100163179D01*
X146905117Y-100330000D01*
X146888687Y-100496821D01*
X146840023Y-100657244D01*
X146761005Y-100805078D01*
X146654659Y-100934659D01*
X146525078Y-101041005D01*
X146377244Y-101120023D01*
X146377241Y-101120024D01*
X146377239Y-101120025D01*
X146216825Y-101168686D01*
X146216824Y-101168686D01*
X146216821Y-101168687D01*
X146091804Y-101181000D01*
X146008196Y-101181000D01*
X145883179Y-101168687D01*
X145883176Y-101168686D01*
X145883175Y-101168686D01*
X145722761Y-101120025D01*
X145722759Y-101120024D01*
X145722756Y-101120023D01*
X145574922Y-101041005D01*
X145445341Y-100934659D01*
X145338995Y-100805078D01*
X145259977Y-100657244D01*
X145211313Y-100496821D01*
X145194883Y-100330000D01*
X145211313Y-100163179D01*
X145233588Y-100089747D01*
X145259975Y-100002761D01*
X145259976Y-100002759D01*
X145259977Y-100002756D01*
X145338995Y-99854922D01*
X145445341Y-99725341D01*
X145574922Y-99618995D01*
X145722756Y-99539977D01*
X145722759Y-99539976D01*
X145722761Y-99539975D01*
X145883175Y-99491314D01*
X145883176Y-99491314D01*
X145883179Y-99491313D01*
X146008196Y-99479000D01*
X146091804Y-99479000D01*
X146216821Y-99491313D01*
X146216821Y-99491313D01*
G37*
G36*
X153836821Y-99491313D02*
X153836824Y-99491314D01*
X153836825Y-99491314D01*
X153997239Y-99539975D01*
X153997241Y-99539976D01*
X153997244Y-99539977D01*
X154145078Y-99618995D01*
X154274659Y-99725341D01*
X154381005Y-99854922D01*
X154460023Y-100002756D01*
X154460024Y-100002759D01*
X154460025Y-100002761D01*
X154486412Y-100089747D01*
X154508687Y-100163179D01*
X154525117Y-100330000D01*
X154508687Y-100496821D01*
X154460023Y-100657244D01*
X154381005Y-100805078D01*
X154274659Y-100934659D01*
X154145078Y-101041005D01*
X153997244Y-101120023D01*
X153997241Y-101120024D01*
X153997239Y-101120025D01*
X153836825Y-101168686D01*
X153836824Y-101168686D01*
X153836821Y-101168687D01*
X153711804Y-101181000D01*
X153628196Y-101181000D01*
X153503179Y-101168687D01*
X153503176Y-101168686D01*
X153503175Y-101168686D01*
X153342761Y-101120025D01*
X153342759Y-101120024D01*
X153342756Y-101120023D01*
X153194922Y-101041005D01*
X153065341Y-100934659D01*
X152958995Y-100805078D01*
X152879977Y-100657244D01*
X152831313Y-100496821D01*
X152814883Y-100330000D01*
X152831313Y-100163179D01*
X152853588Y-100089747D01*
X152879975Y-100002761D01*
X152879976Y-100002759D01*
X152879977Y-100002756D01*
X152958995Y-99854922D01*
X153065341Y-99725341D01*
X153194922Y-99618995D01*
X153342756Y-99539977D01*
X153342759Y-99539976D01*
X153342761Y-99539975D01*
X153503175Y-99491314D01*
X153503176Y-99491314D01*
X153503179Y-99491313D01*
X153628196Y-99479000D01*
X153711804Y-99479000D01*
X153836821Y-99491313D01*
X153836821Y-99491313D01*
G37*
G36*
X188417112Y-98184021D02*
X188519072Y-98194063D01*
X188649891Y-98233747D01*
X188715302Y-98253589D01*
X188896148Y-98350254D01*
X189054659Y-98480341D01*
X189184746Y-98638852D01*
X189281411Y-98819698D01*
X189281411Y-98819699D01*
X189340937Y-99015928D01*
X189361036Y-99220000D01*
X189340937Y-99424072D01*
X189320634Y-99491000D01*
X189281411Y-99620302D01*
X189184746Y-99801148D01*
X189054659Y-99959659D01*
X188896148Y-100089746D01*
X188715302Y-100186411D01*
X188649891Y-100206253D01*
X188519072Y-100245937D01*
X188417112Y-100255979D01*
X188366133Y-100261000D01*
X186283867Y-100261000D01*
X186232888Y-100255979D01*
X186130928Y-100245937D01*
X186000109Y-100206253D01*
X185934698Y-100186411D01*
X185753852Y-100089746D01*
X185595341Y-99959659D01*
X185465254Y-99801148D01*
X185368589Y-99620302D01*
X185329366Y-99491000D01*
X185309063Y-99424072D01*
X185288964Y-99220000D01*
X185309063Y-99015928D01*
X185368589Y-98819699D01*
X185368589Y-98819698D01*
X185465254Y-98638852D01*
X185595341Y-98480341D01*
X185753852Y-98350254D01*
X185934698Y-98253589D01*
X186000109Y-98233747D01*
X186130928Y-98194063D01*
X186232888Y-98184021D01*
X186283867Y-98179000D01*
X188366133Y-98179000D01*
X188417112Y-98184021D01*
X188417112Y-98184021D01*
G37*
G36*
X175842527Y-96628736D02*
X175942410Y-96648604D01*
X176224674Y-96765521D01*
X176478705Y-96935259D01*
X176694741Y-97151295D01*
X176864479Y-97405326D01*
X176954716Y-97623179D01*
X176981396Y-97687591D01*
X177041000Y-97987238D01*
X177041000Y-98292762D01*
X177035952Y-98318139D01*
X176981396Y-98592410D01*
X176864479Y-98874674D01*
X176694741Y-99128705D01*
X176478705Y-99344741D01*
X176224674Y-99514479D01*
X175942410Y-99631396D01*
X175842527Y-99651264D01*
X175642762Y-99691000D01*
X175337238Y-99691000D01*
X175137473Y-99651264D01*
X175037590Y-99631396D01*
X174755326Y-99514479D01*
X174501295Y-99344741D01*
X174285259Y-99128705D01*
X174115521Y-98874674D01*
X173998604Y-98592410D01*
X173944048Y-98318139D01*
X173939000Y-98292762D01*
X173939000Y-97987238D01*
X173998604Y-97687591D01*
X174025284Y-97623179D01*
X174115521Y-97405326D01*
X174285259Y-97151295D01*
X174501295Y-96935259D01*
X174755326Y-96765521D01*
X175037590Y-96648604D01*
X175137473Y-96628736D01*
X175337238Y-96589000D01*
X175642762Y-96589000D01*
X175842527Y-96628736D01*
X175842527Y-96628736D01*
G37*
G36*
X163619485Y-96938996D02*
X163619487Y-96938997D01*
X163619488Y-96938997D01*
X163766702Y-96999975D01*
X163856255Y-97037069D01*
X164069342Y-97179449D01*
X164250551Y-97360658D01*
X164318771Y-97462756D01*
X164392931Y-97573745D01*
X164482507Y-97790000D01*
X164491004Y-97810515D01*
X164541000Y-98061861D01*
X164541000Y-98318139D01*
X164504626Y-98501005D01*
X164491003Y-98569488D01*
X164462271Y-98638854D01*
X164392931Y-98806255D01*
X164250551Y-99019342D01*
X164069342Y-99200551D01*
X164069339Y-99200553D01*
X163856255Y-99342931D01*
X163619488Y-99441003D01*
X163619487Y-99441003D01*
X163619485Y-99441004D01*
X163368139Y-99491000D01*
X163111861Y-99491000D01*
X162860515Y-99441004D01*
X162860513Y-99441003D01*
X162860512Y-99441003D01*
X162623745Y-99342931D01*
X162410661Y-99200553D01*
X162410658Y-99200551D01*
X162229449Y-99019342D01*
X162087069Y-98806255D01*
X162017729Y-98638854D01*
X161988997Y-98569488D01*
X161975375Y-98501005D01*
X161939000Y-98318139D01*
X161939000Y-98061861D01*
X161988996Y-97810515D01*
X161997494Y-97790000D01*
X162087069Y-97573745D01*
X162161229Y-97462756D01*
X162229449Y-97360658D01*
X162410658Y-97179449D01*
X162623745Y-97037069D01*
X162713298Y-96999975D01*
X162860512Y-96938997D01*
X162860513Y-96938997D01*
X162860515Y-96938996D01*
X163111861Y-96889000D01*
X163368139Y-96889000D01*
X163619485Y-96938996D01*
X163619485Y-96938996D01*
G37*
G36*
X153836821Y-96951313D02*
X153836824Y-96951314D01*
X153836825Y-96951314D01*
X153997239Y-96999975D01*
X153997241Y-96999976D01*
X153997244Y-96999977D01*
X154145078Y-97078995D01*
X154274659Y-97185341D01*
X154381005Y-97314922D01*
X154460023Y-97462756D01*
X154460024Y-97462759D01*
X154460025Y-97462761D01*
X154508686Y-97623175D01*
X154508687Y-97623179D01*
X154525117Y-97790000D01*
X154508687Y-97956821D01*
X154508686Y-97956824D01*
X154508686Y-97956825D01*
X154476824Y-98061861D01*
X154460023Y-98117244D01*
X154381005Y-98265078D01*
X154274659Y-98394659D01*
X154145078Y-98501005D01*
X153997244Y-98580023D01*
X153997241Y-98580024D01*
X153997239Y-98580025D01*
X153836825Y-98628686D01*
X153836824Y-98628686D01*
X153836821Y-98628687D01*
X153711804Y-98641000D01*
X153628196Y-98641000D01*
X153503179Y-98628687D01*
X153503176Y-98628686D01*
X153503175Y-98628686D01*
X153342761Y-98580025D01*
X153342759Y-98580024D01*
X153342756Y-98580023D01*
X153194922Y-98501005D01*
X153065341Y-98394659D01*
X152958995Y-98265078D01*
X152879977Y-98117244D01*
X152863177Y-98061861D01*
X152831314Y-97956825D01*
X152831314Y-97956824D01*
X152831313Y-97956821D01*
X152814883Y-97790000D01*
X152831313Y-97623179D01*
X152831314Y-97623175D01*
X152879975Y-97462761D01*
X152879976Y-97462759D01*
X152879977Y-97462756D01*
X152958995Y-97314922D01*
X153065341Y-97185341D01*
X153194922Y-97078995D01*
X153342756Y-96999977D01*
X153342759Y-96999976D01*
X153342761Y-96999975D01*
X153503175Y-96951314D01*
X153503176Y-96951314D01*
X153503179Y-96951313D01*
X153628196Y-96939000D01*
X153711804Y-96939000D01*
X153836821Y-96951313D01*
X153836821Y-96951313D01*
G37*
G36*
X146901000Y-98641000D02*
X145199000Y-98641000D01*
X145199000Y-96939000D01*
X146901000Y-96939000D01*
X146901000Y-98641000D01*
X146901000Y-98641000D01*
G37*
G36*
X175792527Y-92168736D02*
X175892410Y-92188604D01*
X176174674Y-92305521D01*
X176428705Y-92475259D01*
X176644741Y-92691295D01*
X176814479Y-92945326D01*
X176931396Y-93227590D01*
X176991000Y-93527240D01*
X176991000Y-93832760D01*
X176931396Y-94132410D01*
X176814479Y-94414674D01*
X176644741Y-94668705D01*
X176428705Y-94884741D01*
X176174674Y-95054479D01*
X175892410Y-95171396D01*
X175792527Y-95191264D01*
X175592762Y-95231000D01*
X175287238Y-95231000D01*
X175087473Y-95191264D01*
X174987590Y-95171396D01*
X174705326Y-95054479D01*
X174451295Y-94884741D01*
X174235259Y-94668705D01*
X174065521Y-94414674D01*
X173948604Y-94132410D01*
X173889000Y-93832760D01*
X173889000Y-93527240D01*
X173948604Y-93227590D01*
X174065521Y-92945326D01*
X174235259Y-92691295D01*
X174451295Y-92475259D01*
X174705326Y-92305521D01*
X174987590Y-92188604D01*
X175087473Y-92168736D01*
X175287238Y-92129000D01*
X175592762Y-92129000D01*
X175792527Y-92168736D01*
X175792527Y-92168736D01*
G37*
G36*
X163619485Y-92428996D02*
X163619487Y-92428997D01*
X163619488Y-92428997D01*
X163856255Y-92527069D01*
X164069342Y-92669449D01*
X164250551Y-92850658D01*
X164392931Y-93063745D01*
X164491004Y-93300515D01*
X164541000Y-93551861D01*
X164541000Y-93808139D01*
X164491004Y-94059485D01*
X164392931Y-94296255D01*
X164250551Y-94509342D01*
X164069342Y-94690551D01*
X164069339Y-94690553D01*
X163856255Y-94832931D01*
X163619488Y-94931003D01*
X163619487Y-94931003D01*
X163619485Y-94931004D01*
X163368139Y-94981000D01*
X163111861Y-94981000D01*
X162860515Y-94931004D01*
X162860513Y-94931003D01*
X162860512Y-94931003D01*
X162623745Y-94832931D01*
X162410661Y-94690553D01*
X162410658Y-94690551D01*
X162229449Y-94509342D01*
X162087069Y-94296255D01*
X161988996Y-94059485D01*
X161939000Y-93808139D01*
X161939000Y-93551861D01*
X161988996Y-93300515D01*
X162087069Y-93063745D01*
X162229449Y-92850658D01*
X162410658Y-92669449D01*
X162623745Y-92527069D01*
X162860512Y-92428997D01*
X162860513Y-92428997D01*
X162860515Y-92428996D01*
X163111861Y-92379000D01*
X163368139Y-92379000D01*
X163619485Y-92428996D01*
X163619485Y-92428996D01*
G37*
G36*
X189356000Y-93751000D02*
X185294000Y-93751000D01*
X185294000Y-91669000D01*
X189356000Y-91669000D01*
X189356000Y-93751000D01*
X189356000Y-93751000D01*
G37*
G36*
X161642527Y-86118736D02*
X161742410Y-86138604D01*
X162024674Y-86255521D01*
X162278705Y-86425259D01*
X162494741Y-86641295D01*
X162664479Y-86895326D01*
X162761208Y-87128852D01*
X162781396Y-87177591D01*
X162841000Y-87477238D01*
X162841000Y-87782762D01*
X162801264Y-87982527D01*
X162781396Y-88082410D01*
X162664479Y-88364674D01*
X162494741Y-88618705D01*
X162278705Y-88834741D01*
X162024674Y-89004479D01*
X161742410Y-89121396D01*
X161642527Y-89141264D01*
X161442762Y-89181000D01*
X161137238Y-89181000D01*
X160937473Y-89141264D01*
X160837590Y-89121396D01*
X160555326Y-89004479D01*
X160301295Y-88834741D01*
X160085259Y-88618705D01*
X159915521Y-88364674D01*
X159798604Y-88082410D01*
X159778736Y-87982527D01*
X159739000Y-87782762D01*
X159739000Y-87477238D01*
X159798604Y-87177591D01*
X159818792Y-87128852D01*
X159915521Y-86895326D01*
X160085259Y-86641295D01*
X160301295Y-86425259D01*
X160555326Y-86255521D01*
X160837590Y-86138604D01*
X160937473Y-86118736D01*
X161137238Y-86079000D01*
X161442762Y-86079000D01*
X161642527Y-86118736D01*
X161642527Y-86118736D01*
G37*
G36*
X188417112Y-86674021D02*
X188519072Y-86684063D01*
X188649891Y-86723747D01*
X188715302Y-86743589D01*
X188896148Y-86840254D01*
X189054659Y-86970341D01*
X189184746Y-87128852D01*
X189281411Y-87309698D01*
X189281411Y-87309699D01*
X189340937Y-87505928D01*
X189361036Y-87710000D01*
X189340937Y-87914072D01*
X189301253Y-88044891D01*
X189281411Y-88110302D01*
X189184746Y-88291148D01*
X189054659Y-88449659D01*
X188896148Y-88579746D01*
X188715302Y-88676411D01*
X188649891Y-88696253D01*
X188519072Y-88735937D01*
X188417112Y-88745979D01*
X188366133Y-88751000D01*
X186283867Y-88751000D01*
X186232888Y-88745979D01*
X186130928Y-88735937D01*
X186000109Y-88696253D01*
X185934698Y-88676411D01*
X185753852Y-88579746D01*
X185595341Y-88449659D01*
X185465254Y-88291148D01*
X185368589Y-88110302D01*
X185348747Y-88044891D01*
X185309063Y-87914072D01*
X185288964Y-87710000D01*
X185309063Y-87505928D01*
X185368589Y-87309699D01*
X185368589Y-87309698D01*
X185465254Y-87128852D01*
X185595341Y-86970341D01*
X185753852Y-86840254D01*
X185934698Y-86743589D01*
X186000109Y-86723747D01*
X186130928Y-86684063D01*
X186232888Y-86674021D01*
X186283867Y-86669000D01*
X188366133Y-86669000D01*
X188417112Y-86674021D01*
X188417112Y-86674021D01*
G37*
G36*
X153836821Y-82981313D02*
X153836824Y-82981314D01*
X153836825Y-82981314D01*
X153997239Y-83029975D01*
X153997241Y-83029976D01*
X153997244Y-83029977D01*
X154145078Y-83108995D01*
X154274659Y-83215341D01*
X154381005Y-83344922D01*
X154460023Y-83492756D01*
X154460024Y-83492759D01*
X154460025Y-83492761D01*
X154486412Y-83579747D01*
X154508687Y-83653179D01*
X154525117Y-83820000D01*
X154508687Y-83986821D01*
X154460023Y-84147244D01*
X154381005Y-84295078D01*
X154274659Y-84424659D01*
X154145078Y-84531005D01*
X153997244Y-84610023D01*
X153997241Y-84610024D01*
X153997239Y-84610025D01*
X153836825Y-84658686D01*
X153836824Y-84658686D01*
X153836821Y-84658687D01*
X153711804Y-84671000D01*
X153628196Y-84671000D01*
X153503179Y-84658687D01*
X153503176Y-84658686D01*
X153503175Y-84658686D01*
X153342761Y-84610025D01*
X153342759Y-84610024D01*
X153342756Y-84610023D01*
X153194922Y-84531005D01*
X153065341Y-84424659D01*
X152958995Y-84295078D01*
X152879977Y-84147244D01*
X152831313Y-83986821D01*
X152814883Y-83820000D01*
X152831313Y-83653179D01*
X152853588Y-83579747D01*
X152879975Y-83492761D01*
X152879976Y-83492759D01*
X152879977Y-83492756D01*
X152958995Y-83344922D01*
X153065341Y-83215341D01*
X153194922Y-83108995D01*
X153342756Y-83029977D01*
X153342759Y-83029976D01*
X153342761Y-83029975D01*
X153503175Y-82981314D01*
X153503176Y-82981314D01*
X153503179Y-82981313D01*
X153628196Y-82969000D01*
X153711804Y-82969000D01*
X153836821Y-82981313D01*
X153836821Y-82981313D01*
G37*
G36*
X146216821Y-82981313D02*
X146216824Y-82981314D01*
X146216825Y-82981314D01*
X146377239Y-83029975D01*
X146377241Y-83029976D01*
X146377244Y-83029977D01*
X146525078Y-83108995D01*
X146654659Y-83215341D01*
X146761005Y-83344922D01*
X146840023Y-83492756D01*
X146840024Y-83492759D01*
X146840025Y-83492761D01*
X146866412Y-83579747D01*
X146888687Y-83653179D01*
X146905117Y-83820000D01*
X146888687Y-83986821D01*
X146840023Y-84147244D01*
X146761005Y-84295078D01*
X146654659Y-84424659D01*
X146525078Y-84531005D01*
X146377244Y-84610023D01*
X146377241Y-84610024D01*
X146377239Y-84610025D01*
X146216825Y-84658686D01*
X146216824Y-84658686D01*
X146216821Y-84658687D01*
X146091804Y-84671000D01*
X146008196Y-84671000D01*
X145883179Y-84658687D01*
X145883176Y-84658686D01*
X145883175Y-84658686D01*
X145722761Y-84610025D01*
X145722759Y-84610024D01*
X145722756Y-84610023D01*
X145574922Y-84531005D01*
X145445341Y-84424659D01*
X145338995Y-84295078D01*
X145259977Y-84147244D01*
X145211313Y-83986821D01*
X145194883Y-83820000D01*
X145211313Y-83653179D01*
X145233588Y-83579747D01*
X145259975Y-83492761D01*
X145259976Y-83492759D01*
X145259977Y-83492756D01*
X145338995Y-83344922D01*
X145445341Y-83215341D01*
X145574922Y-83108995D01*
X145722756Y-83029977D01*
X145722759Y-83029976D01*
X145722761Y-83029975D01*
X145883175Y-82981314D01*
X145883176Y-82981314D01*
X145883179Y-82981313D01*
X146008196Y-82969000D01*
X146091804Y-82969000D01*
X146216821Y-82981313D01*
X146216821Y-82981313D01*
G37*
G36*
X188417112Y-81674021D02*
X188519072Y-81684063D01*
X188649891Y-81723747D01*
X188715302Y-81743589D01*
X188896148Y-81840254D01*
X189054659Y-81970341D01*
X189184746Y-82128852D01*
X189281411Y-82309698D01*
X189281411Y-82309699D01*
X189340937Y-82505928D01*
X189361036Y-82710000D01*
X189340937Y-82914072D01*
X189320634Y-82981000D01*
X189281411Y-83110302D01*
X189184746Y-83291148D01*
X189054659Y-83449659D01*
X188896148Y-83579746D01*
X188715302Y-83676411D01*
X188649891Y-83696253D01*
X188519072Y-83735937D01*
X188417112Y-83745979D01*
X188366133Y-83751000D01*
X186283867Y-83751000D01*
X186232888Y-83745979D01*
X186130928Y-83735937D01*
X186000109Y-83696253D01*
X185934698Y-83676411D01*
X185753852Y-83579746D01*
X185595341Y-83449659D01*
X185465254Y-83291148D01*
X185368589Y-83110302D01*
X185329366Y-82981000D01*
X185309063Y-82914072D01*
X185288964Y-82710000D01*
X185309063Y-82505928D01*
X185368589Y-82309699D01*
X185368589Y-82309698D01*
X185465254Y-82128852D01*
X185595341Y-81970341D01*
X185753852Y-81840254D01*
X185934698Y-81743589D01*
X186000109Y-81723747D01*
X186130928Y-81684063D01*
X186232888Y-81674021D01*
X186283867Y-81669000D01*
X188366133Y-81669000D01*
X188417112Y-81674021D01*
X188417112Y-81674021D01*
G37*
G36*
X175842527Y-80118736D02*
X175942410Y-80138604D01*
X176224674Y-80255521D01*
X176478705Y-80425259D01*
X176694741Y-80641295D01*
X176864479Y-80895326D01*
X176954716Y-81113179D01*
X176981396Y-81177591D01*
X177041000Y-81477238D01*
X177041000Y-81782762D01*
X177035952Y-81808139D01*
X176981396Y-82082410D01*
X176864479Y-82364674D01*
X176694741Y-82618705D01*
X176478705Y-82834741D01*
X176224674Y-83004479D01*
X175942410Y-83121396D01*
X175842527Y-83141264D01*
X175642762Y-83181000D01*
X175337238Y-83181000D01*
X175137473Y-83141264D01*
X175037590Y-83121396D01*
X174755326Y-83004479D01*
X174501295Y-82834741D01*
X174285259Y-82618705D01*
X174115521Y-82364674D01*
X173998604Y-82082410D01*
X173944048Y-81808139D01*
X173939000Y-81782762D01*
X173939000Y-81477238D01*
X173998604Y-81177591D01*
X174025284Y-81113179D01*
X174115521Y-80895326D01*
X174285259Y-80641295D01*
X174501295Y-80425259D01*
X174755326Y-80255521D01*
X175037590Y-80138604D01*
X175137473Y-80118736D01*
X175337238Y-80079000D01*
X175642762Y-80079000D01*
X175842527Y-80118736D01*
X175842527Y-80118736D01*
G37*
G36*
X163619485Y-80428996D02*
X163619487Y-80428997D01*
X163619488Y-80428997D01*
X163766702Y-80489975D01*
X163856255Y-80527069D01*
X164069342Y-80669449D01*
X164250551Y-80850658D01*
X164282159Y-80897963D01*
X164392931Y-81063745D01*
X164482507Y-81280000D01*
X164491004Y-81300515D01*
X164541000Y-81551861D01*
X164541000Y-81808139D01*
X164504626Y-81991005D01*
X164491003Y-82059488D01*
X164462271Y-82128854D01*
X164392931Y-82296255D01*
X164250551Y-82509342D01*
X164069342Y-82690551D01*
X164069339Y-82690553D01*
X163856255Y-82832931D01*
X163619488Y-82931003D01*
X163619487Y-82931003D01*
X163619485Y-82931004D01*
X163368139Y-82981000D01*
X163111861Y-82981000D01*
X162860515Y-82931004D01*
X162860513Y-82931003D01*
X162860512Y-82931003D01*
X162623745Y-82832931D01*
X162410661Y-82690553D01*
X162410658Y-82690551D01*
X162229449Y-82509342D01*
X162087069Y-82296255D01*
X162017729Y-82128854D01*
X161988997Y-82059488D01*
X161975375Y-81991005D01*
X161939000Y-81808139D01*
X161939000Y-81551861D01*
X161988996Y-81300515D01*
X161997494Y-81280000D01*
X162087069Y-81063745D01*
X162197841Y-80897963D01*
X162229449Y-80850658D01*
X162410658Y-80669449D01*
X162623745Y-80527069D01*
X162713298Y-80489975D01*
X162860512Y-80428997D01*
X162860513Y-80428997D01*
X162860515Y-80428996D01*
X163111861Y-80379000D01*
X163368139Y-80379000D01*
X163619485Y-80428996D01*
X163619485Y-80428996D01*
G37*
G36*
X153836821Y-80441313D02*
X153836824Y-80441314D01*
X153836825Y-80441314D01*
X153997239Y-80489975D01*
X153997241Y-80489976D01*
X153997244Y-80489977D01*
X154145078Y-80568995D01*
X154274659Y-80675341D01*
X154381005Y-80804922D01*
X154460023Y-80952756D01*
X154460024Y-80952759D01*
X154460025Y-80952761D01*
X154508686Y-81113175D01*
X154508687Y-81113179D01*
X154525117Y-81280000D01*
X154508687Y-81446821D01*
X154508686Y-81446824D01*
X154508686Y-81446825D01*
X154476824Y-81551861D01*
X154460023Y-81607244D01*
X154381005Y-81755078D01*
X154274659Y-81884659D01*
X154145078Y-81991005D01*
X153997244Y-82070023D01*
X153997241Y-82070024D01*
X153997239Y-82070025D01*
X153836825Y-82118686D01*
X153836824Y-82118686D01*
X153836821Y-82118687D01*
X153711804Y-82131000D01*
X153628196Y-82131000D01*
X153503179Y-82118687D01*
X153503176Y-82118686D01*
X153503175Y-82118686D01*
X153342761Y-82070025D01*
X153342759Y-82070024D01*
X153342756Y-82070023D01*
X153194922Y-81991005D01*
X153065341Y-81884659D01*
X152958995Y-81755078D01*
X152879977Y-81607244D01*
X152863177Y-81551861D01*
X152831314Y-81446825D01*
X152831314Y-81446824D01*
X152831313Y-81446821D01*
X152814883Y-81280000D01*
X152831313Y-81113179D01*
X152831314Y-81113175D01*
X152879975Y-80952761D01*
X152879976Y-80952759D01*
X152879977Y-80952756D01*
X152958995Y-80804922D01*
X153065341Y-80675341D01*
X153194922Y-80568995D01*
X153342756Y-80489977D01*
X153342759Y-80489976D01*
X153342761Y-80489975D01*
X153503175Y-80441314D01*
X153503176Y-80441314D01*
X153503179Y-80441313D01*
X153628196Y-80429000D01*
X153711804Y-80429000D01*
X153836821Y-80441313D01*
X153836821Y-80441313D01*
G37*
G36*
X146901000Y-82131000D02*
X145199000Y-82131000D01*
X145199000Y-80429000D01*
X146901000Y-80429000D01*
X146901000Y-82131000D01*
X146901000Y-82131000D01*
G37*
G36*
X136000443Y-79115519D02*
X136066627Y-79122037D01*
X136179853Y-79156384D01*
X136236467Y-79173557D01*
X136375087Y-79247652D01*
X136392991Y-79257222D01*
X136428729Y-79286552D01*
X136530186Y-79369814D01*
X136613448Y-79471271D01*
X136642778Y-79507009D01*
X136642779Y-79507011D01*
X136726443Y-79663533D01*
X136726443Y-79663534D01*
X136777963Y-79833373D01*
X136795359Y-80010000D01*
X136777963Y-80186627D01*
X136757064Y-80255521D01*
X136726443Y-80356467D01*
X136655080Y-80489975D01*
X136642778Y-80512991D01*
X136631224Y-80527069D01*
X136530186Y-80650186D01*
X136428729Y-80733448D01*
X136392991Y-80762778D01*
X136392989Y-80762779D01*
X136236467Y-80846443D01*
X136179853Y-80863616D01*
X136066627Y-80897963D01*
X136000442Y-80904482D01*
X135934260Y-80911000D01*
X135845740Y-80911000D01*
X135779558Y-80904482D01*
X135713373Y-80897963D01*
X135600147Y-80863616D01*
X135543533Y-80846443D01*
X135387011Y-80762779D01*
X135387009Y-80762778D01*
X135351271Y-80733448D01*
X135249814Y-80650186D01*
X135148776Y-80527069D01*
X135137222Y-80512991D01*
X135124920Y-80489975D01*
X135053557Y-80356467D01*
X135022936Y-80255521D01*
X135002037Y-80186627D01*
X134984641Y-80010000D01*
X135002037Y-79833373D01*
X135053557Y-79663534D01*
X135053557Y-79663533D01*
X135137221Y-79507011D01*
X135137222Y-79507009D01*
X135166552Y-79471271D01*
X135249814Y-79369814D01*
X135351271Y-79286552D01*
X135387009Y-79257222D01*
X135404913Y-79247652D01*
X135543533Y-79173557D01*
X135600147Y-79156384D01*
X135713373Y-79122037D01*
X135779557Y-79115519D01*
X135845740Y-79109000D01*
X135934260Y-79109000D01*
X136000443Y-79115519D01*
X136000443Y-79115519D01*
G37*
G36*
X175792527Y-75658736D02*
X175892410Y-75678604D01*
X176174674Y-75795521D01*
X176428705Y-75965259D01*
X176644741Y-76181295D01*
X176814479Y-76435326D01*
X176931396Y-76717590D01*
X176931396Y-76717591D01*
X176981009Y-76967009D01*
X176991000Y-77017240D01*
X176991000Y-77322760D01*
X176931396Y-77622410D01*
X176814479Y-77904674D01*
X176644741Y-78158705D01*
X176428705Y-78374741D01*
X176174674Y-78544479D01*
X175892410Y-78661396D01*
X175792527Y-78681264D01*
X175592762Y-78721000D01*
X175287238Y-78721000D01*
X175087473Y-78681264D01*
X174987590Y-78661396D01*
X174705326Y-78544479D01*
X174451295Y-78374741D01*
X174235259Y-78158705D01*
X174065521Y-77904674D01*
X173948604Y-77622410D01*
X173889000Y-77322760D01*
X173889000Y-77017240D01*
X173898992Y-76967009D01*
X173948604Y-76717591D01*
X173948604Y-76717590D01*
X174065521Y-76435326D01*
X174235259Y-76181295D01*
X174451295Y-75965259D01*
X174705326Y-75795521D01*
X174987590Y-75678604D01*
X175087473Y-75658736D01*
X175287238Y-75619000D01*
X175592762Y-75619000D01*
X175792527Y-75658736D01*
X175792527Y-75658736D01*
G37*
G36*
X163619485Y-75918996D02*
X163619487Y-75918997D01*
X163619488Y-75918997D01*
X163856255Y-76017069D01*
X164069342Y-76159449D01*
X164250551Y-76340658D01*
X164392931Y-76553745D01*
X164491004Y-76790515D01*
X164541000Y-77041861D01*
X164541000Y-77298139D01*
X164506815Y-77470000D01*
X164491003Y-77549488D01*
X164450767Y-77646627D01*
X164392931Y-77786255D01*
X164250551Y-77999342D01*
X164069342Y-78180551D01*
X164069339Y-78180553D01*
X163856255Y-78322931D01*
X163619488Y-78421003D01*
X163619487Y-78421003D01*
X163619485Y-78421004D01*
X163368139Y-78471000D01*
X163111861Y-78471000D01*
X162860515Y-78421004D01*
X162860513Y-78421003D01*
X162860512Y-78421003D01*
X162623745Y-78322931D01*
X162410661Y-78180553D01*
X162410658Y-78180551D01*
X162229449Y-77999342D01*
X162087069Y-77786255D01*
X162029233Y-77646627D01*
X161988997Y-77549488D01*
X161973186Y-77470000D01*
X161939000Y-77298139D01*
X161939000Y-77041861D01*
X161988996Y-76790515D01*
X162087069Y-76553745D01*
X162229449Y-76340658D01*
X162410658Y-76159449D01*
X162623745Y-76017069D01*
X162860512Y-75918997D01*
X162860513Y-75918997D01*
X162860515Y-75918996D01*
X163111861Y-75869000D01*
X163368139Y-75869000D01*
X163619485Y-75918996D01*
X163619485Y-75918996D01*
G37*
G36*
X136000443Y-76575519D02*
X136066627Y-76582037D01*
X136179853Y-76616384D01*
X136236467Y-76633557D01*
X136375087Y-76707652D01*
X136392991Y-76717222D01*
X136428729Y-76746552D01*
X136530186Y-76829814D01*
X136613448Y-76931271D01*
X136642778Y-76967009D01*
X136642779Y-76967011D01*
X136726443Y-77123533D01*
X136726443Y-77123534D01*
X136777963Y-77293373D01*
X136795359Y-77470000D01*
X136777963Y-77646627D01*
X136743616Y-77759853D01*
X136726443Y-77816467D01*
X136652348Y-77955087D01*
X136642778Y-77972991D01*
X136621152Y-77999342D01*
X136530186Y-78110186D01*
X136444442Y-78180553D01*
X136392991Y-78222778D01*
X136392989Y-78222779D01*
X136236467Y-78306443D01*
X136182112Y-78322931D01*
X136066627Y-78357963D01*
X136000443Y-78364481D01*
X135934260Y-78371000D01*
X135845740Y-78371000D01*
X135779557Y-78364481D01*
X135713373Y-78357963D01*
X135597888Y-78322931D01*
X135543533Y-78306443D01*
X135387011Y-78222779D01*
X135387009Y-78222778D01*
X135335558Y-78180553D01*
X135249814Y-78110186D01*
X135158848Y-77999342D01*
X135137222Y-77972991D01*
X135127652Y-77955087D01*
X135053557Y-77816467D01*
X135036384Y-77759853D01*
X135002037Y-77646627D01*
X134984641Y-77470000D01*
X135002037Y-77293373D01*
X135053557Y-77123534D01*
X135053557Y-77123533D01*
X135137221Y-76967011D01*
X135137222Y-76967009D01*
X135166552Y-76931271D01*
X135249814Y-76829814D01*
X135351271Y-76746552D01*
X135387009Y-76717222D01*
X135404913Y-76707652D01*
X135543533Y-76633557D01*
X135600147Y-76616384D01*
X135713373Y-76582037D01*
X135779557Y-76575519D01*
X135845740Y-76569000D01*
X135934260Y-76569000D01*
X136000443Y-76575519D01*
X136000443Y-76575519D01*
G37*
G36*
X189356000Y-77161000D02*
X185294000Y-77161000D01*
X185294000Y-75079000D01*
X189356000Y-75079000D01*
X189356000Y-77161000D01*
X189356000Y-77161000D01*
G37*
G36*
X136000442Y-74035518D02*
X136066627Y-74042037D01*
X136179853Y-74076384D01*
X136236467Y-74093557D01*
X136375087Y-74167652D01*
X136392991Y-74177222D01*
X136428729Y-74206552D01*
X136530186Y-74289814D01*
X136613448Y-74391271D01*
X136642778Y-74427009D01*
X136642779Y-74427011D01*
X136726443Y-74583533D01*
X136726443Y-74583534D01*
X136777963Y-74753373D01*
X136795359Y-74930000D01*
X136777963Y-75106627D01*
X136743616Y-75219853D01*
X136726443Y-75276467D01*
X136652348Y-75415087D01*
X136642778Y-75432991D01*
X136613448Y-75468729D01*
X136530186Y-75570186D01*
X136428729Y-75653448D01*
X136392991Y-75682778D01*
X136392989Y-75682779D01*
X136236467Y-75766443D01*
X136179853Y-75783616D01*
X136066627Y-75817963D01*
X136000442Y-75824482D01*
X135934260Y-75831000D01*
X135845740Y-75831000D01*
X135779558Y-75824482D01*
X135713373Y-75817963D01*
X135600147Y-75783616D01*
X135543533Y-75766443D01*
X135387011Y-75682779D01*
X135387009Y-75682778D01*
X135351271Y-75653448D01*
X135249814Y-75570186D01*
X135166552Y-75468729D01*
X135137222Y-75432991D01*
X135127652Y-75415087D01*
X135053557Y-75276467D01*
X135036384Y-75219853D01*
X135002037Y-75106627D01*
X134984641Y-74930000D01*
X135002037Y-74753373D01*
X135053557Y-74583534D01*
X135053557Y-74583533D01*
X135137221Y-74427011D01*
X135137222Y-74427009D01*
X135166552Y-74391271D01*
X135249814Y-74289814D01*
X135351271Y-74206552D01*
X135387009Y-74177222D01*
X135404913Y-74167652D01*
X135543533Y-74093557D01*
X135600147Y-74076384D01*
X135713373Y-74042037D01*
X135779558Y-74035518D01*
X135845740Y-74029000D01*
X135934260Y-74029000D01*
X136000442Y-74035518D01*
X136000442Y-74035518D01*
G37*
G36*
X136791000Y-73291000D02*
X134989000Y-73291000D01*
X134989000Y-71489000D01*
X136791000Y-71489000D01*
X136791000Y-73291000D01*
X136791000Y-73291000D01*
G37*
G36*
X161642527Y-69608736D02*
X161742410Y-69628604D01*
X162024674Y-69745521D01*
X162278705Y-69915259D01*
X162494741Y-70131295D01*
X162664479Y-70385326D01*
X162781396Y-70667590D01*
X162781396Y-70667591D01*
X162841000Y-70967238D01*
X162841000Y-71272762D01*
X162801264Y-71472527D01*
X162781396Y-71572410D01*
X162664479Y-71854674D01*
X162494741Y-72108705D01*
X162278705Y-72324741D01*
X162024674Y-72494479D01*
X161742410Y-72611396D01*
X161642527Y-72631264D01*
X161442762Y-72671000D01*
X161137238Y-72671000D01*
X160937473Y-72631264D01*
X160837590Y-72611396D01*
X160555326Y-72494479D01*
X160301295Y-72324741D01*
X160085259Y-72108705D01*
X159915521Y-71854674D01*
X159798604Y-71572410D01*
X159778736Y-71472527D01*
X159739000Y-71272762D01*
X159739000Y-70967238D01*
X159798604Y-70667591D01*
X159798604Y-70667590D01*
X159915521Y-70385326D01*
X160085259Y-70131295D01*
X160301295Y-69915259D01*
X160555326Y-69745521D01*
X160837590Y-69628604D01*
X160937473Y-69608736D01*
X161137238Y-69569000D01*
X161442762Y-69569000D01*
X161642527Y-69608736D01*
X161642527Y-69608736D01*
G37*
G36*
X188417112Y-70084021D02*
X188519072Y-70094063D01*
X188641802Y-70131293D01*
X188715302Y-70153589D01*
X188896148Y-70250254D01*
X189054659Y-70380341D01*
X189184746Y-70538852D01*
X189281411Y-70719698D01*
X189281411Y-70719699D01*
X189340937Y-70915928D01*
X189361036Y-71120000D01*
X189340937Y-71324072D01*
X189301253Y-71454891D01*
X189281411Y-71520302D01*
X189184746Y-71701148D01*
X189054659Y-71859659D01*
X188896148Y-71989746D01*
X188715302Y-72086411D01*
X188649891Y-72106253D01*
X188519072Y-72145937D01*
X188417112Y-72155979D01*
X188366133Y-72161000D01*
X186283867Y-72161000D01*
X186232888Y-72155979D01*
X186130928Y-72145937D01*
X186000109Y-72106253D01*
X185934698Y-72086411D01*
X185753852Y-71989746D01*
X185595341Y-71859659D01*
X185465254Y-71701148D01*
X185368589Y-71520302D01*
X185348747Y-71454891D01*
X185309063Y-71324072D01*
X185288964Y-71120000D01*
X185309063Y-70915928D01*
X185368589Y-70719699D01*
X185368589Y-70719698D01*
X185465254Y-70538852D01*
X185595341Y-70380341D01*
X185753852Y-70250254D01*
X185934698Y-70153589D01*
X186008198Y-70131293D01*
X186130928Y-70094063D01*
X186232888Y-70084021D01*
X186283867Y-70079000D01*
X188366133Y-70079000D01*
X188417112Y-70084021D01*
X188417112Y-70084021D01*
G37*
G36*
X153836821Y-66471313D02*
X153836824Y-66471314D01*
X153836825Y-66471314D01*
X153997239Y-66519975D01*
X153997241Y-66519976D01*
X153997244Y-66519977D01*
X154145078Y-66598995D01*
X154274659Y-66705341D01*
X154381005Y-66834922D01*
X154460023Y-66982756D01*
X154460024Y-66982759D01*
X154460025Y-66982761D01*
X154462144Y-66989747D01*
X154508687Y-67143179D01*
X154525117Y-67310000D01*
X154508687Y-67476821D01*
X154460023Y-67637244D01*
X154381005Y-67785078D01*
X154274659Y-67914659D01*
X154145078Y-68021005D01*
X153997244Y-68100023D01*
X153997241Y-68100024D01*
X153997239Y-68100025D01*
X153836825Y-68148686D01*
X153836824Y-68148686D01*
X153836821Y-68148687D01*
X153711804Y-68161000D01*
X153628196Y-68161000D01*
X153503179Y-68148687D01*
X153503176Y-68148686D01*
X153503175Y-68148686D01*
X153342761Y-68100025D01*
X153342759Y-68100024D01*
X153342756Y-68100023D01*
X153194922Y-68021005D01*
X153065341Y-67914659D01*
X152958995Y-67785078D01*
X152879977Y-67637244D01*
X152831313Y-67476821D01*
X152814883Y-67310000D01*
X152831313Y-67143179D01*
X152877856Y-66989747D01*
X152879975Y-66982761D01*
X152879976Y-66982759D01*
X152879977Y-66982756D01*
X152958995Y-66834922D01*
X153065341Y-66705341D01*
X153194922Y-66598995D01*
X153342756Y-66519977D01*
X153342759Y-66519976D01*
X153342761Y-66519975D01*
X153503175Y-66471314D01*
X153503176Y-66471314D01*
X153503179Y-66471313D01*
X153628196Y-66459000D01*
X153711804Y-66459000D01*
X153836821Y-66471313D01*
X153836821Y-66471313D01*
G37*
G36*
X146216821Y-66471313D02*
X146216824Y-66471314D01*
X146216825Y-66471314D01*
X146377239Y-66519975D01*
X146377241Y-66519976D01*
X146377244Y-66519977D01*
X146525078Y-66598995D01*
X146654659Y-66705341D01*
X146761005Y-66834922D01*
X146840023Y-66982756D01*
X146840024Y-66982759D01*
X146840025Y-66982761D01*
X146842144Y-66989747D01*
X146888687Y-67143179D01*
X146905117Y-67310000D01*
X146888687Y-67476821D01*
X146840023Y-67637244D01*
X146761005Y-67785078D01*
X146654659Y-67914659D01*
X146525078Y-68021005D01*
X146377244Y-68100023D01*
X146377241Y-68100024D01*
X146377239Y-68100025D01*
X146216825Y-68148686D01*
X146216824Y-68148686D01*
X146216821Y-68148687D01*
X146091804Y-68161000D01*
X146008196Y-68161000D01*
X145883179Y-68148687D01*
X145883176Y-68148686D01*
X145883175Y-68148686D01*
X145722761Y-68100025D01*
X145722759Y-68100024D01*
X145722756Y-68100023D01*
X145574922Y-68021005D01*
X145445341Y-67914659D01*
X145338995Y-67785078D01*
X145259977Y-67637244D01*
X145211313Y-67476821D01*
X145194883Y-67310000D01*
X145211313Y-67143179D01*
X145257856Y-66989747D01*
X145259975Y-66982761D01*
X145259976Y-66982759D01*
X145259977Y-66982756D01*
X145338995Y-66834922D01*
X145445341Y-66705341D01*
X145574922Y-66598995D01*
X145722756Y-66519977D01*
X145722759Y-66519976D01*
X145722761Y-66519975D01*
X145883175Y-66471314D01*
X145883176Y-66471314D01*
X145883179Y-66471313D01*
X146008196Y-66459000D01*
X146091804Y-66459000D01*
X146216821Y-66471313D01*
X146216821Y-66471313D01*
G37*
G36*
X188417112Y-65084021D02*
X188519072Y-65094063D01*
X188649891Y-65133747D01*
X188715302Y-65153589D01*
X188896148Y-65250254D01*
X189054659Y-65380341D01*
X189184746Y-65538852D01*
X189281411Y-65719698D01*
X189281411Y-65719699D01*
X189340937Y-65915928D01*
X189361036Y-66120000D01*
X189340937Y-66324072D01*
X189311533Y-66421003D01*
X189281411Y-66520302D01*
X189184746Y-66701148D01*
X189054659Y-66859659D01*
X188896148Y-66989746D01*
X188715302Y-67086411D01*
X188649891Y-67106253D01*
X188519072Y-67145937D01*
X188417112Y-67155979D01*
X188366133Y-67161000D01*
X186283867Y-67161000D01*
X186232888Y-67155979D01*
X186130928Y-67145937D01*
X186000109Y-67106253D01*
X185934698Y-67086411D01*
X185753852Y-66989746D01*
X185595341Y-66859659D01*
X185465254Y-66701148D01*
X185368589Y-66520302D01*
X185338467Y-66421003D01*
X185309063Y-66324072D01*
X185288964Y-66120000D01*
X185309063Y-65915928D01*
X185368589Y-65719699D01*
X185368589Y-65719698D01*
X185465254Y-65538852D01*
X185595341Y-65380341D01*
X185753852Y-65250254D01*
X185934698Y-65153589D01*
X186000109Y-65133747D01*
X186130928Y-65094063D01*
X186232888Y-65084021D01*
X186283867Y-65079000D01*
X188366133Y-65079000D01*
X188417112Y-65084021D01*
X188417112Y-65084021D01*
G37*
G36*
X175842527Y-63608736D02*
X175942410Y-63628604D01*
X176224674Y-63745521D01*
X176478705Y-63915259D01*
X176694741Y-64131295D01*
X176864479Y-64385326D01*
X176954716Y-64603179D01*
X176981396Y-64667591D01*
X177041000Y-64967238D01*
X177041000Y-65272762D01*
X177035952Y-65298139D01*
X176981396Y-65572410D01*
X176864479Y-65854674D01*
X176694741Y-66108705D01*
X176478705Y-66324741D01*
X176224674Y-66494479D01*
X175942410Y-66611396D01*
X175842527Y-66631264D01*
X175642762Y-66671000D01*
X175337238Y-66671000D01*
X175137473Y-66631264D01*
X175037590Y-66611396D01*
X174755326Y-66494479D01*
X174501295Y-66324741D01*
X174285259Y-66108705D01*
X174115521Y-65854674D01*
X173998604Y-65572410D01*
X173944048Y-65298139D01*
X173939000Y-65272762D01*
X173939000Y-64967238D01*
X173998604Y-64667591D01*
X174025284Y-64603179D01*
X174115521Y-64385326D01*
X174285259Y-64131295D01*
X174501295Y-63915259D01*
X174755326Y-63745521D01*
X175037590Y-63628604D01*
X175137473Y-63608736D01*
X175337238Y-63569000D01*
X175642762Y-63569000D01*
X175842527Y-63608736D01*
X175842527Y-63608736D01*
G37*
G36*
X163619485Y-63918996D02*
X163619487Y-63918997D01*
X163619488Y-63918997D01*
X163766702Y-63979975D01*
X163856255Y-64017069D01*
X164069342Y-64159449D01*
X164250551Y-64340658D01*
X164318771Y-64442756D01*
X164392931Y-64553745D01*
X164482507Y-64770000D01*
X164491004Y-64790515D01*
X164541000Y-65041861D01*
X164541000Y-65298139D01*
X164491004Y-65549485D01*
X164392931Y-65786255D01*
X164250551Y-65999342D01*
X164069342Y-66180551D01*
X164069339Y-66180553D01*
X163856255Y-66322931D01*
X163619488Y-66421003D01*
X163619487Y-66421003D01*
X163619485Y-66421004D01*
X163368139Y-66471000D01*
X163111861Y-66471000D01*
X162860515Y-66421004D01*
X162860513Y-66421003D01*
X162860512Y-66421003D01*
X162623745Y-66322931D01*
X162410661Y-66180553D01*
X162410658Y-66180551D01*
X162229449Y-65999342D01*
X162087069Y-65786255D01*
X161988996Y-65549485D01*
X161939000Y-65298139D01*
X161939000Y-65041861D01*
X161988996Y-64790515D01*
X161997494Y-64770000D01*
X162087069Y-64553745D01*
X162161229Y-64442756D01*
X162229449Y-64340658D01*
X162410658Y-64159449D01*
X162623745Y-64017069D01*
X162713298Y-63979975D01*
X162860512Y-63918997D01*
X162860513Y-63918997D01*
X162860515Y-63918996D01*
X163111861Y-63869000D01*
X163368139Y-63869000D01*
X163619485Y-63918996D01*
X163619485Y-63918996D01*
G37*
G36*
X146901000Y-65621000D02*
X145199000Y-65621000D01*
X145199000Y-63919000D01*
X146901000Y-63919000D01*
X146901000Y-65621000D01*
X146901000Y-65621000D01*
G37*
G36*
X153836821Y-63931313D02*
X153836824Y-63931314D01*
X153836825Y-63931314D01*
X153997239Y-63979975D01*
X153997241Y-63979976D01*
X153997244Y-63979977D01*
X154145078Y-64058995D01*
X154274659Y-64165341D01*
X154381005Y-64294922D01*
X154460023Y-64442756D01*
X154460024Y-64442759D01*
X154460025Y-64442761D01*
X154508686Y-64603175D01*
X154508687Y-64603179D01*
X154525117Y-64770000D01*
X154508687Y-64936821D01*
X154508686Y-64936824D01*
X154508686Y-64936825D01*
X154465558Y-65079000D01*
X154460023Y-65097244D01*
X154381005Y-65245078D01*
X154274659Y-65374659D01*
X154145078Y-65481005D01*
X153997244Y-65560023D01*
X153997241Y-65560024D01*
X153997239Y-65560025D01*
X153836825Y-65608686D01*
X153836824Y-65608686D01*
X153836821Y-65608687D01*
X153711804Y-65621000D01*
X153628196Y-65621000D01*
X153503179Y-65608687D01*
X153503176Y-65608686D01*
X153503175Y-65608686D01*
X153342761Y-65560025D01*
X153342759Y-65560024D01*
X153342756Y-65560023D01*
X153194922Y-65481005D01*
X153065341Y-65374659D01*
X152958995Y-65245078D01*
X152879977Y-65097244D01*
X152874443Y-65079000D01*
X152831314Y-64936825D01*
X152831314Y-64936824D01*
X152831313Y-64936821D01*
X152814883Y-64770000D01*
X152831313Y-64603179D01*
X152831314Y-64603175D01*
X152879975Y-64442761D01*
X152879976Y-64442759D01*
X152879977Y-64442756D01*
X152958995Y-64294922D01*
X153065341Y-64165341D01*
X153194922Y-64058995D01*
X153342756Y-63979977D01*
X153342759Y-63979976D01*
X153342761Y-63979975D01*
X153503175Y-63931314D01*
X153503176Y-63931314D01*
X153503179Y-63931313D01*
X153628196Y-63919000D01*
X153711804Y-63919000D01*
X153836821Y-63931313D01*
X153836821Y-63931313D01*
G37*
G36*
X175792527Y-59148736D02*
X175892410Y-59168604D01*
X176174674Y-59285521D01*
X176428705Y-59455259D01*
X176644741Y-59671295D01*
X176814479Y-59925326D01*
X176931396Y-60207590D01*
X176991000Y-60507240D01*
X176991000Y-60812760D01*
X176931396Y-61112410D01*
X176814479Y-61394674D01*
X176644741Y-61648705D01*
X176428705Y-61864741D01*
X176174674Y-62034479D01*
X175892410Y-62151396D01*
X175792527Y-62171264D01*
X175592762Y-62211000D01*
X175287238Y-62211000D01*
X175087473Y-62171264D01*
X174987590Y-62151396D01*
X174705326Y-62034479D01*
X174451295Y-61864741D01*
X174235259Y-61648705D01*
X174065521Y-61394674D01*
X173948604Y-61112410D01*
X173889000Y-60812760D01*
X173889000Y-60507240D01*
X173948604Y-60207590D01*
X174065521Y-59925326D01*
X174235259Y-59671295D01*
X174451295Y-59455259D01*
X174705326Y-59285521D01*
X174987590Y-59168604D01*
X175087473Y-59148736D01*
X175287238Y-59109000D01*
X175592762Y-59109000D01*
X175792527Y-59148736D01*
X175792527Y-59148736D01*
G37*
G36*
X163619485Y-59408996D02*
X163619487Y-59408997D01*
X163619488Y-59408997D01*
X163856255Y-59507069D01*
X164069342Y-59649449D01*
X164250551Y-59830658D01*
X164392931Y-60043745D01*
X164491004Y-60280515D01*
X164541000Y-60531861D01*
X164541000Y-60788139D01*
X164491004Y-61039485D01*
X164392931Y-61276255D01*
X164250551Y-61489342D01*
X164069342Y-61670551D01*
X164069339Y-61670553D01*
X163856255Y-61812931D01*
X163619488Y-61911003D01*
X163619487Y-61911003D01*
X163619485Y-61911004D01*
X163368139Y-61961000D01*
X163111861Y-61961000D01*
X162860515Y-61911004D01*
X162860513Y-61911003D01*
X162860512Y-61911003D01*
X162623745Y-61812931D01*
X162410661Y-61670553D01*
X162410658Y-61670551D01*
X162229449Y-61489342D01*
X162087069Y-61276255D01*
X161988996Y-61039485D01*
X161939000Y-60788139D01*
X161939000Y-60531861D01*
X161988996Y-60280515D01*
X162087069Y-60043745D01*
X162229449Y-59830658D01*
X162410658Y-59649449D01*
X162623745Y-59507069D01*
X162860512Y-59408997D01*
X162860513Y-59408997D01*
X162860515Y-59408996D01*
X163111861Y-59359000D01*
X163368139Y-59359000D01*
X163619485Y-59408996D01*
X163619485Y-59408996D01*
G37*
G36*
X189356000Y-60651000D02*
X185294000Y-60651000D01*
X185294000Y-58569000D01*
X189356000Y-58569000D01*
X189356000Y-60651000D01*
X189356000Y-60651000D01*
G37*
G36*
X161642527Y-53098736D02*
X161742410Y-53118604D01*
X162024674Y-53235521D01*
X162278705Y-53405259D01*
X162494741Y-53621295D01*
X162664479Y-53875326D01*
X162781396Y-54157590D01*
X162781396Y-54157591D01*
X162841000Y-54457238D01*
X162841000Y-54762762D01*
X162801264Y-54962527D01*
X162781396Y-55062410D01*
X162664479Y-55344674D01*
X162494741Y-55598705D01*
X162278705Y-55814741D01*
X162024674Y-55984479D01*
X161742410Y-56101396D01*
X161642527Y-56121264D01*
X161442762Y-56161000D01*
X161137238Y-56161000D01*
X160937473Y-56121264D01*
X160837590Y-56101396D01*
X160555326Y-55984479D01*
X160301295Y-55814741D01*
X160085259Y-55598705D01*
X159915521Y-55344674D01*
X159798604Y-55062410D01*
X159778736Y-54962527D01*
X159739000Y-54762762D01*
X159739000Y-54457238D01*
X159798604Y-54157591D01*
X159798604Y-54157590D01*
X159915521Y-53875326D01*
X160085259Y-53621295D01*
X160301295Y-53405259D01*
X160555326Y-53235521D01*
X160837590Y-53118604D01*
X160937473Y-53098736D01*
X161137238Y-53059000D01*
X161442762Y-53059000D01*
X161642527Y-53098736D01*
X161642527Y-53098736D01*
G37*
G36*
X188417112Y-53574021D02*
X188519072Y-53584063D01*
X188641802Y-53621293D01*
X188715302Y-53643589D01*
X188896148Y-53740254D01*
X189054659Y-53870341D01*
X189184746Y-54028852D01*
X189281411Y-54209698D01*
X189281411Y-54209699D01*
X189340937Y-54405928D01*
X189361036Y-54610000D01*
X189340937Y-54814072D01*
X189301253Y-54944891D01*
X189281411Y-55010302D01*
X189184746Y-55191148D01*
X189054659Y-55349659D01*
X188896148Y-55479746D01*
X188715302Y-55576411D01*
X188649891Y-55596253D01*
X188519072Y-55635937D01*
X188417112Y-55645979D01*
X188366133Y-55651000D01*
X186283867Y-55651000D01*
X186232888Y-55645979D01*
X186130928Y-55635937D01*
X186000109Y-55596253D01*
X185934698Y-55576411D01*
X185753852Y-55479746D01*
X185595341Y-55349659D01*
X185465254Y-55191148D01*
X185368589Y-55010302D01*
X185348747Y-54944891D01*
X185309063Y-54814072D01*
X185288964Y-54610000D01*
X185309063Y-54405928D01*
X185368589Y-54209699D01*
X185368589Y-54209698D01*
X185465254Y-54028852D01*
X185595341Y-53870341D01*
X185753852Y-53740254D01*
X185934698Y-53643589D01*
X186008198Y-53621293D01*
X186130928Y-53584063D01*
X186232888Y-53574021D01*
X186283867Y-53569000D01*
X188366133Y-53569000D01*
X188417112Y-53574021D01*
X188417112Y-53574021D01*
G37*
G36*
X153836821Y-49961313D02*
X153836824Y-49961314D01*
X153836825Y-49961314D01*
X153997239Y-50009975D01*
X153997241Y-50009976D01*
X153997244Y-50009977D01*
X154145078Y-50088995D01*
X154274659Y-50195341D01*
X154381005Y-50324922D01*
X154460023Y-50472756D01*
X154460024Y-50472759D01*
X154460025Y-50472761D01*
X154462144Y-50479747D01*
X154508687Y-50633179D01*
X154525117Y-50800000D01*
X154508687Y-50966821D01*
X154460023Y-51127244D01*
X154381005Y-51275078D01*
X154274659Y-51404659D01*
X154145078Y-51511005D01*
X153997244Y-51590023D01*
X153997241Y-51590024D01*
X153997239Y-51590025D01*
X153836825Y-51638686D01*
X153836824Y-51638686D01*
X153836821Y-51638687D01*
X153711804Y-51651000D01*
X153628196Y-51651000D01*
X153503179Y-51638687D01*
X153503176Y-51638686D01*
X153503175Y-51638686D01*
X153342761Y-51590025D01*
X153342759Y-51590024D01*
X153342756Y-51590023D01*
X153194922Y-51511005D01*
X153065341Y-51404659D01*
X152958995Y-51275078D01*
X152879977Y-51127244D01*
X152831313Y-50966821D01*
X152814883Y-50800000D01*
X152831313Y-50633179D01*
X152877856Y-50479747D01*
X152879975Y-50472761D01*
X152879976Y-50472759D01*
X152879977Y-50472756D01*
X152958995Y-50324922D01*
X153065341Y-50195341D01*
X153194922Y-50088995D01*
X153342756Y-50009977D01*
X153342759Y-50009976D01*
X153342761Y-50009975D01*
X153503175Y-49961314D01*
X153503176Y-49961314D01*
X153503179Y-49961313D01*
X153628196Y-49949000D01*
X153711804Y-49949000D01*
X153836821Y-49961313D01*
X153836821Y-49961313D01*
G37*
G36*
X146216821Y-49961313D02*
X146216824Y-49961314D01*
X146216825Y-49961314D01*
X146377239Y-50009975D01*
X146377241Y-50009976D01*
X146377244Y-50009977D01*
X146525078Y-50088995D01*
X146654659Y-50195341D01*
X146761005Y-50324922D01*
X146840023Y-50472756D01*
X146840024Y-50472759D01*
X146840025Y-50472761D01*
X146842144Y-50479747D01*
X146888687Y-50633179D01*
X146905117Y-50800000D01*
X146888687Y-50966821D01*
X146840023Y-51127244D01*
X146761005Y-51275078D01*
X146654659Y-51404659D01*
X146525078Y-51511005D01*
X146377244Y-51590023D01*
X146377241Y-51590024D01*
X146377239Y-51590025D01*
X146216825Y-51638686D01*
X146216824Y-51638686D01*
X146216821Y-51638687D01*
X146091804Y-51651000D01*
X146008196Y-51651000D01*
X145883179Y-51638687D01*
X145883176Y-51638686D01*
X145883175Y-51638686D01*
X145722761Y-51590025D01*
X145722759Y-51590024D01*
X145722756Y-51590023D01*
X145574922Y-51511005D01*
X145445341Y-51404659D01*
X145338995Y-51275078D01*
X145259977Y-51127244D01*
X145211313Y-50966821D01*
X145194883Y-50800000D01*
X145211313Y-50633179D01*
X145257856Y-50479747D01*
X145259975Y-50472761D01*
X145259976Y-50472759D01*
X145259977Y-50472756D01*
X145338995Y-50324922D01*
X145445341Y-50195341D01*
X145574922Y-50088995D01*
X145722756Y-50009977D01*
X145722759Y-50009976D01*
X145722761Y-50009975D01*
X145883175Y-49961314D01*
X145883176Y-49961314D01*
X145883179Y-49961313D01*
X146008196Y-49949000D01*
X146091804Y-49949000D01*
X146216821Y-49961313D01*
X146216821Y-49961313D01*
G37*
G36*
X188417112Y-48574021D02*
X188519072Y-48584063D01*
X188649891Y-48623747D01*
X188715302Y-48643589D01*
X188896148Y-48740254D01*
X189054659Y-48870341D01*
X189184746Y-49028852D01*
X189281411Y-49209698D01*
X189281411Y-49209699D01*
X189340937Y-49405928D01*
X189361036Y-49610000D01*
X189340937Y-49814072D01*
X189311533Y-49911003D01*
X189281411Y-50010302D01*
X189184746Y-50191148D01*
X189054659Y-50349659D01*
X188896148Y-50479746D01*
X188715302Y-50576411D01*
X188649891Y-50596253D01*
X188519072Y-50635937D01*
X188417112Y-50645979D01*
X188366133Y-50651000D01*
X186283867Y-50651000D01*
X186232888Y-50645979D01*
X186130928Y-50635937D01*
X186000109Y-50596253D01*
X185934698Y-50576411D01*
X185753852Y-50479746D01*
X185595341Y-50349659D01*
X185465254Y-50191148D01*
X185368589Y-50010302D01*
X185338467Y-49911003D01*
X185309063Y-49814072D01*
X185288964Y-49610000D01*
X185309063Y-49405928D01*
X185368589Y-49209699D01*
X185368589Y-49209698D01*
X185465254Y-49028852D01*
X185595341Y-48870341D01*
X185753852Y-48740254D01*
X185934698Y-48643589D01*
X186000109Y-48623747D01*
X186130928Y-48584063D01*
X186232888Y-48574021D01*
X186283867Y-48569000D01*
X188366133Y-48569000D01*
X188417112Y-48574021D01*
X188417112Y-48574021D01*
G37*
G36*
X175842527Y-47098736D02*
X175942410Y-47118604D01*
X176224674Y-47235521D01*
X176478705Y-47405259D01*
X176694741Y-47621295D01*
X176864479Y-47875326D01*
X176954716Y-48093179D01*
X176981396Y-48157591D01*
X177041000Y-48457238D01*
X177041000Y-48762762D01*
X177035952Y-48788139D01*
X176981396Y-49062410D01*
X176864479Y-49344674D01*
X176694741Y-49598705D01*
X176478705Y-49814741D01*
X176224674Y-49984479D01*
X175942410Y-50101396D01*
X175842527Y-50121264D01*
X175642762Y-50161000D01*
X175337238Y-50161000D01*
X175137473Y-50121264D01*
X175037590Y-50101396D01*
X174755326Y-49984479D01*
X174501295Y-49814741D01*
X174285259Y-49598705D01*
X174115521Y-49344674D01*
X173998604Y-49062410D01*
X173944048Y-48788139D01*
X173939000Y-48762762D01*
X173939000Y-48457238D01*
X173998604Y-48157591D01*
X174025284Y-48093179D01*
X174115521Y-47875326D01*
X174285259Y-47621295D01*
X174501295Y-47405259D01*
X174755326Y-47235521D01*
X175037590Y-47118604D01*
X175137473Y-47098736D01*
X175337238Y-47059000D01*
X175642762Y-47059000D01*
X175842527Y-47098736D01*
X175842527Y-47098736D01*
G37*
G36*
X163619485Y-47408996D02*
X163619487Y-47408997D01*
X163619488Y-47408997D01*
X163766702Y-47469975D01*
X163856255Y-47507069D01*
X164069342Y-47649449D01*
X164250551Y-47830658D01*
X164282159Y-47877963D01*
X164392931Y-48043745D01*
X164482507Y-48260000D01*
X164491004Y-48280515D01*
X164541000Y-48531861D01*
X164541000Y-48788139D01*
X164491004Y-49039485D01*
X164392931Y-49276255D01*
X164250551Y-49489342D01*
X164069342Y-49670551D01*
X164069339Y-49670553D01*
X163856255Y-49812931D01*
X163619488Y-49911003D01*
X163619487Y-49911003D01*
X163619485Y-49911004D01*
X163368139Y-49961000D01*
X163111861Y-49961000D01*
X162860515Y-49911004D01*
X162860513Y-49911003D01*
X162860512Y-49911003D01*
X162623745Y-49812931D01*
X162410661Y-49670553D01*
X162410658Y-49670551D01*
X162229449Y-49489342D01*
X162087069Y-49276255D01*
X161988996Y-49039485D01*
X161939000Y-48788139D01*
X161939000Y-48531861D01*
X161988996Y-48280515D01*
X161997494Y-48260000D01*
X162087069Y-48043745D01*
X162197841Y-47877963D01*
X162229449Y-47830658D01*
X162410658Y-47649449D01*
X162623745Y-47507069D01*
X162713298Y-47469975D01*
X162860512Y-47408997D01*
X162860513Y-47408997D01*
X162860515Y-47408996D01*
X163111861Y-47359000D01*
X163368139Y-47359000D01*
X163619485Y-47408996D01*
X163619485Y-47408996D01*
G37*
G36*
X146901000Y-49111000D02*
X145199000Y-49111000D01*
X145199000Y-47409000D01*
X146901000Y-47409000D01*
X146901000Y-49111000D01*
X146901000Y-49111000D01*
G37*
G36*
X153836821Y-47421313D02*
X153836824Y-47421314D01*
X153836825Y-47421314D01*
X153997239Y-47469975D01*
X153997241Y-47469976D01*
X153997244Y-47469977D01*
X154145078Y-47548995D01*
X154274659Y-47655341D01*
X154381005Y-47784922D01*
X154460023Y-47932756D01*
X154460024Y-47932759D01*
X154460025Y-47932761D01*
X154508686Y-48093175D01*
X154508687Y-48093179D01*
X154525117Y-48260000D01*
X154508687Y-48426821D01*
X154508686Y-48426824D01*
X154508686Y-48426825D01*
X154465558Y-48569000D01*
X154460023Y-48587244D01*
X154381005Y-48735078D01*
X154274659Y-48864659D01*
X154145078Y-48971005D01*
X153997244Y-49050023D01*
X153997241Y-49050024D01*
X153997239Y-49050025D01*
X153836825Y-49098686D01*
X153836824Y-49098686D01*
X153836821Y-49098687D01*
X153711804Y-49111000D01*
X153628196Y-49111000D01*
X153503179Y-49098687D01*
X153503176Y-49098686D01*
X153503175Y-49098686D01*
X153342761Y-49050025D01*
X153342759Y-49050024D01*
X153342756Y-49050023D01*
X153194922Y-48971005D01*
X153065341Y-48864659D01*
X152958995Y-48735078D01*
X152879977Y-48587244D01*
X152874443Y-48569000D01*
X152831314Y-48426825D01*
X152831314Y-48426824D01*
X152831313Y-48426821D01*
X152814883Y-48260000D01*
X152831313Y-48093179D01*
X152831314Y-48093175D01*
X152879975Y-47932761D01*
X152879976Y-47932759D01*
X152879977Y-47932756D01*
X152958995Y-47784922D01*
X153065341Y-47655341D01*
X153194922Y-47548995D01*
X153342756Y-47469977D01*
X153342759Y-47469976D01*
X153342761Y-47469975D01*
X153503175Y-47421314D01*
X153503176Y-47421314D01*
X153503179Y-47421313D01*
X153628196Y-47409000D01*
X153711804Y-47409000D01*
X153836821Y-47421313D01*
X153836821Y-47421313D01*
G37*
G36*
X132981000Y-47891000D02*
X131179000Y-47891000D01*
X131179000Y-46089000D01*
X132981000Y-46089000D01*
X132981000Y-47891000D01*
X132981000Y-47891000D01*
G37*
G36*
X124570442Y-46095518D02*
X124636627Y-46102037D01*
X124749853Y-46136384D01*
X124806467Y-46153557D01*
X124945087Y-46227652D01*
X124962991Y-46237222D01*
X124998729Y-46266552D01*
X125100186Y-46349814D01*
X125183448Y-46451271D01*
X125212778Y-46487009D01*
X125212779Y-46487011D01*
X125296443Y-46643533D01*
X125296443Y-46643534D01*
X125347963Y-46813373D01*
X125365359Y-46990000D01*
X125347963Y-47166627D01*
X125327064Y-47235521D01*
X125296443Y-47336467D01*
X125225080Y-47469975D01*
X125212778Y-47492991D01*
X125201224Y-47507069D01*
X125100186Y-47630186D01*
X124998729Y-47713448D01*
X124962991Y-47742778D01*
X124962989Y-47742779D01*
X124806467Y-47826443D01*
X124749853Y-47843616D01*
X124636627Y-47877963D01*
X124570443Y-47884481D01*
X124504260Y-47891000D01*
X124415740Y-47891000D01*
X124349557Y-47884481D01*
X124283373Y-47877963D01*
X124170147Y-47843616D01*
X124113533Y-47826443D01*
X123957011Y-47742779D01*
X123957009Y-47742778D01*
X123921271Y-47713448D01*
X123819814Y-47630186D01*
X123718776Y-47507069D01*
X123707222Y-47492991D01*
X123694920Y-47469975D01*
X123623557Y-47336467D01*
X123592936Y-47235521D01*
X123572037Y-47166627D01*
X123554641Y-46990000D01*
X123572037Y-46813373D01*
X123623557Y-46643534D01*
X123623557Y-46643533D01*
X123707221Y-46487011D01*
X123707222Y-46487009D01*
X123736552Y-46451271D01*
X123819814Y-46349814D01*
X123921271Y-46266552D01*
X123957009Y-46237222D01*
X123974913Y-46227652D01*
X124113533Y-46153557D01*
X124170147Y-46136384D01*
X124283373Y-46102037D01*
X124349558Y-46095518D01*
X124415740Y-46089000D01*
X124504260Y-46089000D01*
X124570442Y-46095518D01*
X124570442Y-46095518D01*
G37*
G36*
X127110442Y-46095518D02*
X127176627Y-46102037D01*
X127289853Y-46136384D01*
X127346467Y-46153557D01*
X127485087Y-46227652D01*
X127502991Y-46237222D01*
X127538729Y-46266552D01*
X127640186Y-46349814D01*
X127723448Y-46451271D01*
X127752778Y-46487009D01*
X127752779Y-46487011D01*
X127836443Y-46643533D01*
X127836443Y-46643534D01*
X127887963Y-46813373D01*
X127905359Y-46990000D01*
X127887963Y-47166627D01*
X127867064Y-47235521D01*
X127836443Y-47336467D01*
X127765080Y-47469975D01*
X127752778Y-47492991D01*
X127741224Y-47507069D01*
X127640186Y-47630186D01*
X127538729Y-47713448D01*
X127502991Y-47742778D01*
X127502989Y-47742779D01*
X127346467Y-47826443D01*
X127289853Y-47843616D01*
X127176627Y-47877963D01*
X127110443Y-47884481D01*
X127044260Y-47891000D01*
X126955740Y-47891000D01*
X126889557Y-47884481D01*
X126823373Y-47877963D01*
X126710147Y-47843616D01*
X126653533Y-47826443D01*
X126497011Y-47742779D01*
X126497009Y-47742778D01*
X126461271Y-47713448D01*
X126359814Y-47630186D01*
X126258776Y-47507069D01*
X126247222Y-47492991D01*
X126234920Y-47469975D01*
X126163557Y-47336467D01*
X126132936Y-47235521D01*
X126112037Y-47166627D01*
X126094641Y-46990000D01*
X126112037Y-46813373D01*
X126163557Y-46643534D01*
X126163557Y-46643533D01*
X126247221Y-46487011D01*
X126247222Y-46487009D01*
X126276552Y-46451271D01*
X126359814Y-46349814D01*
X126461271Y-46266552D01*
X126497009Y-46237222D01*
X126514913Y-46227652D01*
X126653533Y-46153557D01*
X126710147Y-46136384D01*
X126823373Y-46102037D01*
X126889558Y-46095518D01*
X126955740Y-46089000D01*
X127044260Y-46089000D01*
X127110442Y-46095518D01*
X127110442Y-46095518D01*
G37*
G36*
X129650442Y-46095518D02*
X129716627Y-46102037D01*
X129829853Y-46136384D01*
X129886467Y-46153557D01*
X130025087Y-46227652D01*
X130042991Y-46237222D01*
X130078729Y-46266552D01*
X130180186Y-46349814D01*
X130263448Y-46451271D01*
X130292778Y-46487009D01*
X130292779Y-46487011D01*
X130376443Y-46643533D01*
X130376443Y-46643534D01*
X130427963Y-46813373D01*
X130445359Y-46990000D01*
X130427963Y-47166627D01*
X130407064Y-47235521D01*
X130376443Y-47336467D01*
X130305080Y-47469975D01*
X130292778Y-47492991D01*
X130281224Y-47507069D01*
X130180186Y-47630186D01*
X130078729Y-47713448D01*
X130042991Y-47742778D01*
X130042989Y-47742779D01*
X129886467Y-47826443D01*
X129829853Y-47843616D01*
X129716627Y-47877963D01*
X129650443Y-47884481D01*
X129584260Y-47891000D01*
X129495740Y-47891000D01*
X129429557Y-47884481D01*
X129363373Y-47877963D01*
X129250147Y-47843616D01*
X129193533Y-47826443D01*
X129037011Y-47742779D01*
X129037009Y-47742778D01*
X129001271Y-47713448D01*
X128899814Y-47630186D01*
X128798776Y-47507069D01*
X128787222Y-47492991D01*
X128774920Y-47469975D01*
X128703557Y-47336467D01*
X128672936Y-47235521D01*
X128652037Y-47166627D01*
X128634641Y-46990000D01*
X128652037Y-46813373D01*
X128703557Y-46643534D01*
X128703557Y-46643533D01*
X128787221Y-46487011D01*
X128787222Y-46487009D01*
X128816552Y-46451271D01*
X128899814Y-46349814D01*
X129001271Y-46266552D01*
X129037009Y-46237222D01*
X129054913Y-46227652D01*
X129193533Y-46153557D01*
X129250147Y-46136384D01*
X129363373Y-46102037D01*
X129429558Y-46095518D01*
X129495740Y-46089000D01*
X129584260Y-46089000D01*
X129650442Y-46095518D01*
X129650442Y-46095518D01*
G37*
G36*
X153780443Y-43555519D02*
X153846627Y-43562037D01*
X153959853Y-43596384D01*
X154016467Y-43613557D01*
X154155087Y-43687652D01*
X154172991Y-43697222D01*
X154208729Y-43726552D01*
X154310186Y-43809814D01*
X154393448Y-43911271D01*
X154422778Y-43947009D01*
X154422779Y-43947011D01*
X154506443Y-44103533D01*
X154506443Y-44103534D01*
X154557963Y-44273373D01*
X154575359Y-44450000D01*
X154557963Y-44626627D01*
X154523616Y-44739853D01*
X154506443Y-44796467D01*
X154432348Y-44935087D01*
X154422778Y-44952991D01*
X154393448Y-44988729D01*
X154310186Y-45090186D01*
X154208729Y-45173448D01*
X154172991Y-45202778D01*
X154172989Y-45202779D01*
X154016467Y-45286443D01*
X153959853Y-45303616D01*
X153846627Y-45337963D01*
X153780442Y-45344482D01*
X153714260Y-45351000D01*
X153625740Y-45351000D01*
X153559558Y-45344482D01*
X153493373Y-45337963D01*
X153380147Y-45303616D01*
X153323533Y-45286443D01*
X153167011Y-45202779D01*
X153167009Y-45202778D01*
X153131271Y-45173448D01*
X153029814Y-45090186D01*
X152946552Y-44988729D01*
X152917222Y-44952991D01*
X152907652Y-44935087D01*
X152833557Y-44796467D01*
X152816384Y-44739853D01*
X152782037Y-44626627D01*
X152764641Y-44450000D01*
X152782037Y-44273373D01*
X152833557Y-44103534D01*
X152833557Y-44103533D01*
X152917221Y-43947011D01*
X152917222Y-43947009D01*
X152946552Y-43911271D01*
X153029814Y-43809814D01*
X153131271Y-43726552D01*
X153167009Y-43697222D01*
X153184913Y-43687652D01*
X153323533Y-43613557D01*
X153380147Y-43596384D01*
X153493373Y-43562037D01*
X153559558Y-43555518D01*
X153625740Y-43549000D01*
X153714260Y-43549000D01*
X153780443Y-43555519D01*
X153780443Y-43555519D01*
G37*
G36*
X152031000Y-45351000D02*
X150229000Y-45351000D01*
X150229000Y-43549000D01*
X152031000Y-43549000D01*
X152031000Y-45351000D01*
X152031000Y-45351000D01*
G37*
G36*
X176611000Y-35641000D02*
X173909000Y-35641000D01*
X173909000Y-32939000D01*
X176611000Y-32939000D01*
X176611000Y-35641000D01*
X176611000Y-35641000D01*
G37*
G36*
X181523567Y-32964959D02*
X181654072Y-32990918D01*
X181899939Y-33092759D01*
X182120464Y-33240110D01*
X182121215Y-33240612D01*
X182309388Y-33428785D01*
X182309390Y-33428788D01*
X182457241Y-33650061D01*
X182559082Y-33895928D01*
X182611000Y-34156938D01*
X182611000Y-34423062D01*
X182559082Y-34684072D01*
X182457241Y-34929939D01*
X182309890Y-35150464D01*
X182309388Y-35151215D01*
X182121215Y-35339388D01*
X182121212Y-35339390D01*
X181899939Y-35487241D01*
X181654072Y-35589082D01*
X181523567Y-35615041D01*
X181393063Y-35641000D01*
X181126937Y-35641000D01*
X180996433Y-35615041D01*
X180865928Y-35589082D01*
X180620061Y-35487241D01*
X180398788Y-35339390D01*
X180398785Y-35339388D01*
X180210612Y-35151215D01*
X180210110Y-35150464D01*
X180062759Y-34929939D01*
X179960918Y-34684072D01*
X179909000Y-34423062D01*
X179909000Y-34156938D01*
X179960918Y-33895928D01*
X180062759Y-33650061D01*
X180210610Y-33428788D01*
X180210612Y-33428785D01*
X180398785Y-33240612D01*
X180399536Y-33240110D01*
X180620061Y-33092759D01*
X180865928Y-32990918D01*
X180996433Y-32964959D01*
X181126937Y-32939000D01*
X181393063Y-32939000D01*
X181523567Y-32964959D01*
X181523567Y-32964959D01*
G37*
G36*
X178523567Y-28264959D02*
X178654072Y-28290918D01*
X178899939Y-28392759D01*
X179120464Y-28540110D01*
X179121215Y-28540612D01*
X179309388Y-28728785D01*
X179309390Y-28728788D01*
X179457241Y-28950061D01*
X179559082Y-29195928D01*
X179611000Y-29456938D01*
X179611000Y-29723062D01*
X179559082Y-29984072D01*
X179457241Y-30229939D01*
X179309890Y-30450464D01*
X179309388Y-30451215D01*
X179121215Y-30639388D01*
X179121212Y-30639390D01*
X178899939Y-30787241D01*
X178654072Y-30889082D01*
X178523567Y-30915041D01*
X178393063Y-30941000D01*
X178126937Y-30941000D01*
X177996433Y-30915041D01*
X177865928Y-30889082D01*
X177620061Y-30787241D01*
X177398788Y-30639390D01*
X177398785Y-30639388D01*
X177210612Y-30451215D01*
X177210110Y-30450464D01*
X177062759Y-30229939D01*
X176960918Y-29984072D01*
X176909000Y-29723062D01*
X176909000Y-29456938D01*
X176960918Y-29195928D01*
X177062759Y-28950061D01*
X177210610Y-28728788D01*
X177210612Y-28728785D01*
X177398785Y-28540612D01*
X177399536Y-28540110D01*
X177620061Y-28392759D01*
X177865928Y-28290918D01*
X177996433Y-28264959D01*
X178126937Y-28239000D01*
X178393063Y-28239000D01*
X178523567Y-28264959D01*
X178523567Y-28264959D01*
G37*
M02*
