G04 #@! TF.GenerationSoftware,KiCad,Pcbnew,5.0.2+dfsg1-1*
G04 #@! TF.CreationDate,2020-05-31T01:45:13+07:00*
G04 #@! TF.ProjectId,GatiHomeLampController,47617469-486f-46d6-954c-616d70436f6e,rev?*
G04 #@! TF.SameCoordinates,Original*
G04 #@! TF.FileFunction,Soldermask,Top*
G04 #@! TF.FilePolarity,Negative*
%FSLAX46Y46*%
G04 Gerber Fmt 4.6, Leading zero omitted, Abs format (unit mm)*
G04 Created by KiCad (PCBNEW 5.0.2+dfsg1-1) date Sun 31 May 2020 01:45:13 AM WIB*
%MOMM*%
%LPD*%
G01*
G04 APERTURE LIST*
%ADD10C,0.100000*%
G04 APERTURE END LIST*
D10*
G36*
X121289694Y-129828633D02*
X121462094Y-129880931D01*
X121462096Y-129880932D01*
X121620983Y-129965859D01*
X121620985Y-129965860D01*
X121620984Y-129965860D01*
X121760249Y-130080151D01*
X121874540Y-130219416D01*
X121959469Y-130378306D01*
X122011767Y-130550706D01*
X122029425Y-130730000D01*
X122011767Y-130909294D01*
X121959469Y-131081694D01*
X121959468Y-131081696D01*
X121874541Y-131240583D01*
X121760249Y-131379849D01*
X121620983Y-131494141D01*
X121462096Y-131579068D01*
X121462094Y-131579069D01*
X121289694Y-131631367D01*
X121155331Y-131644600D01*
X119744669Y-131644600D01*
X119610306Y-131631367D01*
X119437906Y-131579069D01*
X119437904Y-131579068D01*
X119279017Y-131494141D01*
X119139751Y-131379849D01*
X119025459Y-131240583D01*
X118940532Y-131081696D01*
X118940531Y-131081694D01*
X118888233Y-130909294D01*
X118870575Y-130730000D01*
X118888233Y-130550706D01*
X118940531Y-130378306D01*
X119025460Y-130219416D01*
X119139751Y-130080151D01*
X119279016Y-129965860D01*
X119279015Y-129965860D01*
X119279017Y-129965859D01*
X119437904Y-129880932D01*
X119437906Y-129880931D01*
X119610306Y-129828633D01*
X119744669Y-129815400D01*
X121155331Y-129815400D01*
X121289694Y-129828633D01*
X121289694Y-129828633D01*
G37*
G36*
X108789694Y-129828633D02*
X108962094Y-129880931D01*
X108962096Y-129880932D01*
X109120983Y-129965859D01*
X109120985Y-129965860D01*
X109120984Y-129965860D01*
X109260249Y-130080151D01*
X109374540Y-130219416D01*
X109459469Y-130378306D01*
X109511767Y-130550706D01*
X109529425Y-130730000D01*
X109511767Y-130909294D01*
X109459469Y-131081694D01*
X109459468Y-131081696D01*
X109374541Y-131240583D01*
X109260249Y-131379849D01*
X109120983Y-131494141D01*
X108962096Y-131579068D01*
X108962094Y-131579069D01*
X108789694Y-131631367D01*
X108655331Y-131644600D01*
X107244669Y-131644600D01*
X107110306Y-131631367D01*
X106937906Y-131579069D01*
X106937904Y-131579068D01*
X106779017Y-131494141D01*
X106639751Y-131379849D01*
X106525459Y-131240583D01*
X106440532Y-131081696D01*
X106440531Y-131081694D01*
X106388233Y-130909294D01*
X106370575Y-130730000D01*
X106388233Y-130550706D01*
X106440531Y-130378306D01*
X106525460Y-130219416D01*
X106639751Y-130080151D01*
X106779016Y-129965860D01*
X106779015Y-129965860D01*
X106779017Y-129965859D01*
X106937904Y-129880932D01*
X106937906Y-129880931D01*
X107110306Y-129828633D01*
X107244669Y-129815400D01*
X108655331Y-129815400D01*
X108789694Y-129828633D01*
X108789694Y-129828633D01*
G37*
G36*
X121289694Y-124828633D02*
X121462094Y-124880931D01*
X121462096Y-124880932D01*
X121620983Y-124965859D01*
X121620985Y-124965860D01*
X121620984Y-124965860D01*
X121760249Y-125080151D01*
X121874540Y-125219416D01*
X121959469Y-125378306D01*
X122011767Y-125550706D01*
X122029425Y-125730000D01*
X122011767Y-125909294D01*
X121959469Y-126081694D01*
X121959468Y-126081696D01*
X121874541Y-126240583D01*
X121760249Y-126379849D01*
X121620983Y-126494141D01*
X121462096Y-126579068D01*
X121462094Y-126579069D01*
X121289694Y-126631367D01*
X121155331Y-126644600D01*
X119744669Y-126644600D01*
X119610306Y-126631367D01*
X119437906Y-126579069D01*
X119437904Y-126579068D01*
X119279017Y-126494141D01*
X119139751Y-126379849D01*
X119025459Y-126240583D01*
X118940532Y-126081696D01*
X118940531Y-126081694D01*
X118888233Y-125909294D01*
X118870575Y-125730000D01*
X118888233Y-125550706D01*
X118940531Y-125378306D01*
X119025460Y-125219416D01*
X119139751Y-125080151D01*
X119279016Y-124965860D01*
X119279015Y-124965860D01*
X119279017Y-124965859D01*
X119437904Y-124880932D01*
X119437906Y-124880931D01*
X119610306Y-124828633D01*
X119744669Y-124815400D01*
X121155331Y-124815400D01*
X121289694Y-124828633D01*
X121289694Y-124828633D01*
G37*
G36*
X108789694Y-124828633D02*
X108962094Y-124880931D01*
X108962096Y-124880932D01*
X109120983Y-124965859D01*
X109120985Y-124965860D01*
X109120984Y-124965860D01*
X109260249Y-125080151D01*
X109374540Y-125219416D01*
X109459469Y-125378306D01*
X109511767Y-125550706D01*
X109529425Y-125730000D01*
X109511767Y-125909294D01*
X109459469Y-126081694D01*
X109459468Y-126081696D01*
X109374541Y-126240583D01*
X109260249Y-126379849D01*
X109120983Y-126494141D01*
X108962096Y-126579068D01*
X108962094Y-126579069D01*
X108789694Y-126631367D01*
X108655331Y-126644600D01*
X107244669Y-126644600D01*
X107110306Y-126631367D01*
X106937906Y-126579069D01*
X106937904Y-126579068D01*
X106779017Y-126494141D01*
X106639751Y-126379849D01*
X106525459Y-126240583D01*
X106440532Y-126081696D01*
X106440531Y-126081694D01*
X106388233Y-125909294D01*
X106370575Y-125730000D01*
X106388233Y-125550706D01*
X106440531Y-125378306D01*
X106525460Y-125219416D01*
X106639751Y-125080151D01*
X106779016Y-124965860D01*
X106779015Y-124965860D01*
X106779017Y-124965859D01*
X106937904Y-124880932D01*
X106937906Y-124880931D01*
X107110306Y-124828633D01*
X107244669Y-124815400D01*
X108655331Y-124815400D01*
X108789694Y-124828633D01*
X108789694Y-124828633D01*
G37*
G36*
X140339694Y-113318633D02*
X140512094Y-113370931D01*
X140512096Y-113370932D01*
X140670983Y-113455859D01*
X140670985Y-113455860D01*
X140670984Y-113455860D01*
X140810249Y-113570151D01*
X140924540Y-113709416D01*
X141009469Y-113868306D01*
X141061767Y-114040706D01*
X141079425Y-114220000D01*
X141061767Y-114399294D01*
X141009469Y-114571694D01*
X141009468Y-114571696D01*
X140924541Y-114730583D01*
X140810249Y-114869849D01*
X140670983Y-114984141D01*
X140512096Y-115069068D01*
X140512094Y-115069069D01*
X140339694Y-115121367D01*
X140205331Y-115134600D01*
X138794669Y-115134600D01*
X138660306Y-115121367D01*
X138487906Y-115069069D01*
X138487904Y-115069068D01*
X138329017Y-114984141D01*
X138189751Y-114869849D01*
X138075459Y-114730583D01*
X137990532Y-114571696D01*
X137990531Y-114571694D01*
X137938233Y-114399294D01*
X137920575Y-114220000D01*
X137938233Y-114040706D01*
X137990531Y-113868306D01*
X138075460Y-113709416D01*
X138189751Y-113570151D01*
X138329016Y-113455860D01*
X138329015Y-113455860D01*
X138329017Y-113455859D01*
X138487904Y-113370932D01*
X138487906Y-113370931D01*
X138660306Y-113318633D01*
X138794669Y-113305400D01*
X140205331Y-113305400D01*
X140339694Y-113318633D01*
X140339694Y-113318633D01*
G37*
G36*
X102239694Y-113318633D02*
X102412094Y-113370931D01*
X102412096Y-113370932D01*
X102570983Y-113455859D01*
X102570985Y-113455860D01*
X102570984Y-113455860D01*
X102710249Y-113570151D01*
X102824540Y-113709416D01*
X102909469Y-113868306D01*
X102961767Y-114040706D01*
X102979425Y-114220000D01*
X102961767Y-114399294D01*
X102909469Y-114571694D01*
X102909468Y-114571696D01*
X102824541Y-114730583D01*
X102710249Y-114869849D01*
X102570983Y-114984141D01*
X102412096Y-115069068D01*
X102412094Y-115069069D01*
X102239694Y-115121367D01*
X102105331Y-115134600D01*
X100694669Y-115134600D01*
X100560306Y-115121367D01*
X100387906Y-115069069D01*
X100387904Y-115069068D01*
X100229017Y-114984141D01*
X100089751Y-114869849D01*
X99975459Y-114730583D01*
X99890532Y-114571696D01*
X99890531Y-114571694D01*
X99838233Y-114399294D01*
X99820575Y-114220000D01*
X99838233Y-114040706D01*
X99890531Y-113868306D01*
X99975460Y-113709416D01*
X100089751Y-113570151D01*
X100229016Y-113455860D01*
X100229015Y-113455860D01*
X100229017Y-113455859D01*
X100387904Y-113370932D01*
X100387906Y-113370931D01*
X100560306Y-113318633D01*
X100694669Y-113305400D01*
X102105331Y-113305400D01*
X102239694Y-113318633D01*
X102239694Y-113318633D01*
G37*
G36*
X121289694Y-113318633D02*
X121462094Y-113370931D01*
X121462096Y-113370932D01*
X121620983Y-113455859D01*
X121620985Y-113455860D01*
X121620984Y-113455860D01*
X121760249Y-113570151D01*
X121874540Y-113709416D01*
X121959469Y-113868306D01*
X122011767Y-114040706D01*
X122029425Y-114220000D01*
X122011767Y-114399294D01*
X121959469Y-114571694D01*
X121959468Y-114571696D01*
X121874541Y-114730583D01*
X121760249Y-114869849D01*
X121620983Y-114984141D01*
X121462096Y-115069068D01*
X121462094Y-115069069D01*
X121289694Y-115121367D01*
X121155331Y-115134600D01*
X119744669Y-115134600D01*
X119610306Y-115121367D01*
X119437906Y-115069069D01*
X119437904Y-115069068D01*
X119279017Y-114984141D01*
X119139751Y-114869849D01*
X119025459Y-114730583D01*
X118940532Y-114571696D01*
X118940531Y-114571694D01*
X118888233Y-114399294D01*
X118870575Y-114220000D01*
X118888233Y-114040706D01*
X118940531Y-113868306D01*
X119025460Y-113709416D01*
X119139751Y-113570151D01*
X119279016Y-113455860D01*
X119279015Y-113455860D01*
X119279017Y-113455859D01*
X119437904Y-113370932D01*
X119437906Y-113370931D01*
X119610306Y-113318633D01*
X119744669Y-113305400D01*
X121155331Y-113305400D01*
X121289694Y-113318633D01*
X121289694Y-113318633D01*
G37*
G36*
X108789694Y-113318633D02*
X108962094Y-113370931D01*
X108962096Y-113370932D01*
X109120983Y-113455859D01*
X109120985Y-113455860D01*
X109120984Y-113455860D01*
X109260249Y-113570151D01*
X109374540Y-113709416D01*
X109459469Y-113868306D01*
X109511767Y-114040706D01*
X109529425Y-114220000D01*
X109511767Y-114399294D01*
X109459469Y-114571694D01*
X109459468Y-114571696D01*
X109374541Y-114730583D01*
X109260249Y-114869849D01*
X109120983Y-114984141D01*
X108962096Y-115069068D01*
X108962094Y-115069069D01*
X108789694Y-115121367D01*
X108655331Y-115134600D01*
X107244669Y-115134600D01*
X107110306Y-115121367D01*
X106937906Y-115069069D01*
X106937904Y-115069068D01*
X106779017Y-114984141D01*
X106639751Y-114869849D01*
X106525459Y-114730583D01*
X106440532Y-114571696D01*
X106440531Y-114571694D01*
X106388233Y-114399294D01*
X106370575Y-114220000D01*
X106388233Y-114040706D01*
X106440531Y-113868306D01*
X106525460Y-113709416D01*
X106639751Y-113570151D01*
X106779016Y-113455860D01*
X106779015Y-113455860D01*
X106779017Y-113455859D01*
X106937904Y-113370932D01*
X106937906Y-113370931D01*
X107110306Y-113318633D01*
X107244669Y-113305400D01*
X108655331Y-113305400D01*
X108789694Y-113318633D01*
X108789694Y-113318633D01*
G37*
G36*
X89739694Y-113318633D02*
X89912094Y-113370931D01*
X89912096Y-113370932D01*
X90070983Y-113455859D01*
X90070985Y-113455860D01*
X90070984Y-113455860D01*
X90210249Y-113570151D01*
X90324540Y-113709416D01*
X90409469Y-113868306D01*
X90461767Y-114040706D01*
X90479425Y-114220000D01*
X90461767Y-114399294D01*
X90409469Y-114571694D01*
X90409468Y-114571696D01*
X90324541Y-114730583D01*
X90210249Y-114869849D01*
X90070983Y-114984141D01*
X89912096Y-115069068D01*
X89912094Y-115069069D01*
X89739694Y-115121367D01*
X89605331Y-115134600D01*
X88194669Y-115134600D01*
X88060306Y-115121367D01*
X87887906Y-115069069D01*
X87887904Y-115069068D01*
X87729017Y-114984141D01*
X87589751Y-114869849D01*
X87475459Y-114730583D01*
X87390532Y-114571696D01*
X87390531Y-114571694D01*
X87338233Y-114399294D01*
X87320575Y-114220000D01*
X87338233Y-114040706D01*
X87390531Y-113868306D01*
X87475460Y-113709416D01*
X87589751Y-113570151D01*
X87729016Y-113455860D01*
X87729015Y-113455860D01*
X87729017Y-113455859D01*
X87887904Y-113370932D01*
X87887906Y-113370931D01*
X88060306Y-113318633D01*
X88194669Y-113305400D01*
X89605331Y-113305400D01*
X89739694Y-113318633D01*
X89739694Y-113318633D01*
G37*
G36*
X127839694Y-113318633D02*
X128012094Y-113370931D01*
X128012096Y-113370932D01*
X128170983Y-113455859D01*
X128170985Y-113455860D01*
X128170984Y-113455860D01*
X128310249Y-113570151D01*
X128424540Y-113709416D01*
X128509469Y-113868306D01*
X128561767Y-114040706D01*
X128579425Y-114220000D01*
X128561767Y-114399294D01*
X128509469Y-114571694D01*
X128509468Y-114571696D01*
X128424541Y-114730583D01*
X128310249Y-114869849D01*
X128170983Y-114984141D01*
X128012096Y-115069068D01*
X128012094Y-115069069D01*
X127839694Y-115121367D01*
X127705331Y-115134600D01*
X126294669Y-115134600D01*
X126160306Y-115121367D01*
X125987906Y-115069069D01*
X125987904Y-115069068D01*
X125829017Y-114984141D01*
X125689751Y-114869849D01*
X125575459Y-114730583D01*
X125490532Y-114571696D01*
X125490531Y-114571694D01*
X125438233Y-114399294D01*
X125420575Y-114220000D01*
X125438233Y-114040706D01*
X125490531Y-113868306D01*
X125575460Y-113709416D01*
X125689751Y-113570151D01*
X125829016Y-113455860D01*
X125829015Y-113455860D01*
X125829017Y-113455859D01*
X125987904Y-113370932D01*
X125987906Y-113370931D01*
X126160306Y-113318633D01*
X126294669Y-113305400D01*
X127705331Y-113305400D01*
X127839694Y-113318633D01*
X127839694Y-113318633D01*
G37*
G36*
X175792527Y-108678736D02*
X175892410Y-108698604D01*
X176174674Y-108815521D01*
X176428705Y-108985259D01*
X176644741Y-109201295D01*
X176814479Y-109455326D01*
X176931396Y-109737590D01*
X176991000Y-110037240D01*
X176991000Y-110342760D01*
X176931396Y-110642410D01*
X176814479Y-110924674D01*
X176644741Y-111178705D01*
X176428705Y-111394741D01*
X176174674Y-111564479D01*
X175892410Y-111681396D01*
X175792527Y-111701264D01*
X175592762Y-111741000D01*
X175287238Y-111741000D01*
X175087473Y-111701264D01*
X174987590Y-111681396D01*
X174705326Y-111564479D01*
X174451295Y-111394741D01*
X174235259Y-111178705D01*
X174065521Y-110924674D01*
X173948604Y-110642410D01*
X173889000Y-110342760D01*
X173889000Y-110037240D01*
X173948604Y-109737590D01*
X174065521Y-109455326D01*
X174235259Y-109201295D01*
X174451295Y-108985259D01*
X174705326Y-108815521D01*
X174987590Y-108698604D01*
X175087473Y-108678736D01*
X175287238Y-108639000D01*
X175592762Y-108639000D01*
X175792527Y-108678736D01*
X175792527Y-108678736D01*
G37*
G36*
X163619485Y-108938996D02*
X163619487Y-108938997D01*
X163619488Y-108938997D01*
X163856255Y-109037069D01*
X164069342Y-109179449D01*
X164250551Y-109360658D01*
X164250553Y-109360661D01*
X164392931Y-109573745D01*
X164453098Y-109719000D01*
X164491004Y-109810515D01*
X164541000Y-110061861D01*
X164541000Y-110318139D01*
X164491004Y-110569485D01*
X164392931Y-110806255D01*
X164250551Y-111019342D01*
X164069342Y-111200551D01*
X164069339Y-111200553D01*
X163856255Y-111342931D01*
X163619488Y-111441003D01*
X163619487Y-111441003D01*
X163619485Y-111441004D01*
X163368139Y-111491000D01*
X163111861Y-111491000D01*
X162860515Y-111441004D01*
X162860513Y-111441003D01*
X162860512Y-111441003D01*
X162623745Y-111342931D01*
X162410661Y-111200553D01*
X162410658Y-111200551D01*
X162229449Y-111019342D01*
X162087069Y-110806255D01*
X161988996Y-110569485D01*
X161939000Y-110318139D01*
X161939000Y-110061861D01*
X161988996Y-109810515D01*
X162026903Y-109719000D01*
X162087069Y-109573745D01*
X162229447Y-109360661D01*
X162229449Y-109360658D01*
X162410658Y-109179449D01*
X162623745Y-109037069D01*
X162860512Y-108938997D01*
X162860513Y-108938997D01*
X162860515Y-108938996D01*
X163111861Y-108889000D01*
X163368139Y-108889000D01*
X163619485Y-108938996D01*
X163619485Y-108938996D01*
G37*
G36*
X150631000Y-110621000D02*
X149629000Y-110621000D01*
X149629000Y-109719000D01*
X150631000Y-109719000D01*
X150631000Y-110621000D01*
X150631000Y-110621000D01*
G37*
G36*
X189356000Y-110261000D02*
X185294000Y-110261000D01*
X185294000Y-108179000D01*
X189356000Y-108179000D01*
X189356000Y-110261000D01*
X189356000Y-110261000D01*
G37*
G36*
X127839694Y-108318633D02*
X128012094Y-108370931D01*
X128012096Y-108370932D01*
X128170983Y-108455859D01*
X128170985Y-108455860D01*
X128170984Y-108455860D01*
X128310249Y-108570151D01*
X128424540Y-108709416D01*
X128509469Y-108868306D01*
X128561767Y-109040706D01*
X128579425Y-109220000D01*
X128561767Y-109399294D01*
X128509469Y-109571694D01*
X128509468Y-109571696D01*
X128424541Y-109730583D01*
X128310249Y-109869849D01*
X128170983Y-109984141D01*
X128012096Y-110069068D01*
X128012094Y-110069069D01*
X127839694Y-110121367D01*
X127705331Y-110134600D01*
X126294669Y-110134600D01*
X126160306Y-110121367D01*
X125987906Y-110069069D01*
X125987904Y-110069068D01*
X125829017Y-109984141D01*
X125689751Y-109869849D01*
X125575459Y-109730583D01*
X125490532Y-109571696D01*
X125490531Y-109571694D01*
X125438233Y-109399294D01*
X125420575Y-109220000D01*
X125438233Y-109040706D01*
X125490531Y-108868306D01*
X125575460Y-108709416D01*
X125689751Y-108570151D01*
X125829016Y-108455860D01*
X125829015Y-108455860D01*
X125829017Y-108455859D01*
X125987904Y-108370932D01*
X125987906Y-108370931D01*
X126160306Y-108318633D01*
X126294669Y-108305400D01*
X127705331Y-108305400D01*
X127839694Y-108318633D01*
X127839694Y-108318633D01*
G37*
G36*
X140339694Y-108318633D02*
X140512094Y-108370931D01*
X140512096Y-108370932D01*
X140670983Y-108455859D01*
X140670985Y-108455860D01*
X140670984Y-108455860D01*
X140810249Y-108570151D01*
X140924540Y-108709416D01*
X141009469Y-108868306D01*
X141061767Y-109040706D01*
X141079425Y-109220000D01*
X141061767Y-109399294D01*
X141009469Y-109571694D01*
X141009468Y-109571696D01*
X140924541Y-109730583D01*
X140810249Y-109869849D01*
X140670983Y-109984141D01*
X140512096Y-110069068D01*
X140512094Y-110069069D01*
X140339694Y-110121367D01*
X140205331Y-110134600D01*
X138794669Y-110134600D01*
X138660306Y-110121367D01*
X138487906Y-110069069D01*
X138487904Y-110069068D01*
X138329017Y-109984141D01*
X138189751Y-109869849D01*
X138075459Y-109730583D01*
X137990532Y-109571696D01*
X137990531Y-109571694D01*
X137938233Y-109399294D01*
X137920575Y-109220000D01*
X137938233Y-109040706D01*
X137990531Y-108868306D01*
X138075460Y-108709416D01*
X138189751Y-108570151D01*
X138329016Y-108455860D01*
X138329015Y-108455860D01*
X138329017Y-108455859D01*
X138487904Y-108370932D01*
X138487906Y-108370931D01*
X138660306Y-108318633D01*
X138794669Y-108305400D01*
X140205331Y-108305400D01*
X140339694Y-108318633D01*
X140339694Y-108318633D01*
G37*
G36*
X121289694Y-108318633D02*
X121462094Y-108370931D01*
X121462096Y-108370932D01*
X121620983Y-108455859D01*
X121620985Y-108455860D01*
X121620984Y-108455860D01*
X121760249Y-108570151D01*
X121874540Y-108709416D01*
X121959469Y-108868306D01*
X122011767Y-109040706D01*
X122029425Y-109220000D01*
X122011767Y-109399294D01*
X121959469Y-109571694D01*
X121959468Y-109571696D01*
X121874541Y-109730583D01*
X121760249Y-109869849D01*
X121620983Y-109984141D01*
X121462096Y-110069068D01*
X121462094Y-110069069D01*
X121289694Y-110121367D01*
X121155331Y-110134600D01*
X119744669Y-110134600D01*
X119610306Y-110121367D01*
X119437906Y-110069069D01*
X119437904Y-110069068D01*
X119279017Y-109984141D01*
X119139751Y-109869849D01*
X119025459Y-109730583D01*
X118940532Y-109571696D01*
X118940531Y-109571694D01*
X118888233Y-109399294D01*
X118870575Y-109220000D01*
X118888233Y-109040706D01*
X118940531Y-108868306D01*
X119025460Y-108709416D01*
X119139751Y-108570151D01*
X119279016Y-108455860D01*
X119279015Y-108455860D01*
X119279017Y-108455859D01*
X119437904Y-108370932D01*
X119437906Y-108370931D01*
X119610306Y-108318633D01*
X119744669Y-108305400D01*
X121155331Y-108305400D01*
X121289694Y-108318633D01*
X121289694Y-108318633D01*
G37*
G36*
X108789694Y-108318633D02*
X108962094Y-108370931D01*
X108962096Y-108370932D01*
X109120983Y-108455859D01*
X109120985Y-108455860D01*
X109120984Y-108455860D01*
X109260249Y-108570151D01*
X109374540Y-108709416D01*
X109459469Y-108868306D01*
X109511767Y-109040706D01*
X109529425Y-109220000D01*
X109511767Y-109399294D01*
X109459469Y-109571694D01*
X109459468Y-109571696D01*
X109374541Y-109730583D01*
X109260249Y-109869849D01*
X109120983Y-109984141D01*
X108962096Y-110069068D01*
X108962094Y-110069069D01*
X108789694Y-110121367D01*
X108655331Y-110134600D01*
X107244669Y-110134600D01*
X107110306Y-110121367D01*
X106937906Y-110069069D01*
X106937904Y-110069068D01*
X106779017Y-109984141D01*
X106639751Y-109869849D01*
X106525459Y-109730583D01*
X106440532Y-109571696D01*
X106440531Y-109571694D01*
X106388233Y-109399294D01*
X106370575Y-109220000D01*
X106388233Y-109040706D01*
X106440531Y-108868306D01*
X106525460Y-108709416D01*
X106639751Y-108570151D01*
X106779016Y-108455860D01*
X106779015Y-108455860D01*
X106779017Y-108455859D01*
X106937904Y-108370932D01*
X106937906Y-108370931D01*
X107110306Y-108318633D01*
X107244669Y-108305400D01*
X108655331Y-108305400D01*
X108789694Y-108318633D01*
X108789694Y-108318633D01*
G37*
G36*
X89739694Y-108318633D02*
X89912094Y-108370931D01*
X89912096Y-108370932D01*
X90070983Y-108455859D01*
X90070985Y-108455860D01*
X90070984Y-108455860D01*
X90210249Y-108570151D01*
X90324540Y-108709416D01*
X90409469Y-108868306D01*
X90461767Y-109040706D01*
X90479425Y-109220000D01*
X90461767Y-109399294D01*
X90409469Y-109571694D01*
X90409468Y-109571696D01*
X90324541Y-109730583D01*
X90210249Y-109869849D01*
X90070983Y-109984141D01*
X89912096Y-110069068D01*
X89912094Y-110069069D01*
X89739694Y-110121367D01*
X89605331Y-110134600D01*
X88194669Y-110134600D01*
X88060306Y-110121367D01*
X87887906Y-110069069D01*
X87887904Y-110069068D01*
X87729017Y-109984141D01*
X87589751Y-109869849D01*
X87475459Y-109730583D01*
X87390532Y-109571696D01*
X87390531Y-109571694D01*
X87338233Y-109399294D01*
X87320575Y-109220000D01*
X87338233Y-109040706D01*
X87390531Y-108868306D01*
X87475460Y-108709416D01*
X87589751Y-108570151D01*
X87729016Y-108455860D01*
X87729015Y-108455860D01*
X87729017Y-108455859D01*
X87887904Y-108370932D01*
X87887906Y-108370931D01*
X88060306Y-108318633D01*
X88194669Y-108305400D01*
X89605331Y-108305400D01*
X89739694Y-108318633D01*
X89739694Y-108318633D01*
G37*
G36*
X102239694Y-108318633D02*
X102412094Y-108370931D01*
X102412096Y-108370932D01*
X102570983Y-108455859D01*
X102570985Y-108455860D01*
X102570984Y-108455860D01*
X102710249Y-108570151D01*
X102824540Y-108709416D01*
X102909469Y-108868306D01*
X102961767Y-109040706D01*
X102979425Y-109220000D01*
X102961767Y-109399294D01*
X102909469Y-109571694D01*
X102909468Y-109571696D01*
X102824541Y-109730583D01*
X102710249Y-109869849D01*
X102570983Y-109984141D01*
X102412096Y-110069068D01*
X102412094Y-110069069D01*
X102239694Y-110121367D01*
X102105331Y-110134600D01*
X100694669Y-110134600D01*
X100560306Y-110121367D01*
X100387906Y-110069069D01*
X100387904Y-110069068D01*
X100229017Y-109984141D01*
X100089751Y-109869849D01*
X99975459Y-109730583D01*
X99890532Y-109571696D01*
X99890531Y-109571694D01*
X99838233Y-109399294D01*
X99820575Y-109220000D01*
X99838233Y-109040706D01*
X99890531Y-108868306D01*
X99975460Y-108709416D01*
X100089751Y-108570151D01*
X100229016Y-108455860D01*
X100229015Y-108455860D01*
X100229017Y-108455859D01*
X100387904Y-108370932D01*
X100387906Y-108370931D01*
X100560306Y-108318633D01*
X100694669Y-108305400D01*
X102105331Y-108305400D01*
X102239694Y-108318633D01*
X102239694Y-108318633D01*
G37*
G36*
X152631000Y-109671000D02*
X151629000Y-109671000D01*
X151629000Y-108769000D01*
X152631000Y-108769000D01*
X152631000Y-109671000D01*
X152631000Y-109671000D01*
G37*
G36*
X150631000Y-108721000D02*
X149629000Y-108721000D01*
X149629000Y-107819000D01*
X150631000Y-107819000D01*
X150631000Y-108721000D01*
X150631000Y-108721000D01*
G37*
G36*
X153178604Y-104488347D02*
X153215145Y-104499432D01*
X153248820Y-104517431D01*
X153278341Y-104541659D01*
X153302569Y-104571180D01*
X153320568Y-104604855D01*
X153331653Y-104641396D01*
X153336000Y-104685538D01*
X153336000Y-106134462D01*
X153331653Y-106178604D01*
X153320568Y-106215145D01*
X153302569Y-106248820D01*
X153278341Y-106278341D01*
X153248820Y-106302569D01*
X153215145Y-106320568D01*
X153178604Y-106331653D01*
X153134462Y-106336000D01*
X152185538Y-106336000D01*
X152141396Y-106331653D01*
X152104855Y-106320568D01*
X152071180Y-106302569D01*
X152041659Y-106278341D01*
X152017431Y-106248820D01*
X151999432Y-106215145D01*
X151988347Y-106178604D01*
X151984000Y-106134462D01*
X151984000Y-104685538D01*
X151988347Y-104641396D01*
X151999432Y-104604855D01*
X152017431Y-104571180D01*
X152041659Y-104541659D01*
X152071180Y-104517431D01*
X152104855Y-104499432D01*
X152141396Y-104488347D01*
X152185538Y-104484000D01*
X153134462Y-104484000D01*
X153178604Y-104488347D01*
X153178604Y-104488347D01*
G37*
G36*
X150378604Y-104488347D02*
X150415145Y-104499432D01*
X150448820Y-104517431D01*
X150478341Y-104541659D01*
X150502569Y-104571180D01*
X150520568Y-104604855D01*
X150531653Y-104641396D01*
X150536000Y-104685538D01*
X150536000Y-106134462D01*
X150531653Y-106178604D01*
X150520568Y-106215145D01*
X150502569Y-106248820D01*
X150478341Y-106278341D01*
X150448820Y-106302569D01*
X150415145Y-106320568D01*
X150378604Y-106331653D01*
X150334462Y-106336000D01*
X149385538Y-106336000D01*
X149341396Y-106331653D01*
X149304855Y-106320568D01*
X149271180Y-106302569D01*
X149241659Y-106278341D01*
X149217431Y-106248820D01*
X149199432Y-106215145D01*
X149188347Y-106178604D01*
X149184000Y-106134462D01*
X149184000Y-104685538D01*
X149188347Y-104641396D01*
X149199432Y-104604855D01*
X149217431Y-104571180D01*
X149241659Y-104541659D01*
X149271180Y-104517431D01*
X149304855Y-104499432D01*
X149341396Y-104488347D01*
X149385538Y-104484000D01*
X150334462Y-104484000D01*
X150378604Y-104488347D01*
X150378604Y-104488347D01*
G37*
G36*
X161642527Y-102628736D02*
X161742410Y-102648604D01*
X162024674Y-102765521D01*
X162278705Y-102935259D01*
X162494741Y-103151295D01*
X162664479Y-103405326D01*
X162781396Y-103687590D01*
X162787352Y-103717535D01*
X162841000Y-103987238D01*
X162841000Y-104292762D01*
X162802960Y-104484000D01*
X162781396Y-104592410D01*
X162664479Y-104874674D01*
X162494741Y-105128705D01*
X162278705Y-105344741D01*
X162024674Y-105514479D01*
X161742410Y-105631396D01*
X161642527Y-105651264D01*
X161442762Y-105691000D01*
X161137238Y-105691000D01*
X160937473Y-105651264D01*
X160837590Y-105631396D01*
X160555326Y-105514479D01*
X160301295Y-105344741D01*
X160085259Y-105128705D01*
X159915521Y-104874674D01*
X159798604Y-104592410D01*
X159777040Y-104484000D01*
X159739000Y-104292762D01*
X159739000Y-103987238D01*
X159792648Y-103717535D01*
X159798604Y-103687590D01*
X159915521Y-103405326D01*
X160085259Y-103151295D01*
X160301295Y-102935259D01*
X160555326Y-102765521D01*
X160837590Y-102648604D01*
X160937473Y-102628736D01*
X161137238Y-102589000D01*
X161442762Y-102589000D01*
X161642527Y-102628736D01*
X161642527Y-102628736D01*
G37*
G36*
X188417112Y-103184021D02*
X188519072Y-103194063D01*
X188649891Y-103233747D01*
X188715302Y-103253589D01*
X188896148Y-103350254D01*
X189054659Y-103480341D01*
X189184746Y-103638852D01*
X189281411Y-103819698D01*
X189281411Y-103819699D01*
X189340937Y-104015928D01*
X189361036Y-104220000D01*
X189340937Y-104424072D01*
X189308934Y-104529571D01*
X189281411Y-104620302D01*
X189184746Y-104801148D01*
X189054659Y-104959659D01*
X188896148Y-105089746D01*
X188715302Y-105186411D01*
X188649891Y-105206253D01*
X188519072Y-105245937D01*
X188417112Y-105255979D01*
X188366133Y-105261000D01*
X186283867Y-105261000D01*
X186232888Y-105255979D01*
X186130928Y-105245937D01*
X186000109Y-105206253D01*
X185934698Y-105186411D01*
X185753852Y-105089746D01*
X185595341Y-104959659D01*
X185465254Y-104801148D01*
X185368589Y-104620302D01*
X185341066Y-104529571D01*
X185309063Y-104424072D01*
X185288964Y-104220000D01*
X185309063Y-104015928D01*
X185368589Y-103819699D01*
X185368589Y-103819698D01*
X185465254Y-103638852D01*
X185595341Y-103480341D01*
X185753852Y-103350254D01*
X185934698Y-103253589D01*
X186000109Y-103233747D01*
X186130928Y-103194063D01*
X186232888Y-103184021D01*
X186283867Y-103179000D01*
X188366133Y-103179000D01*
X188417112Y-103184021D01*
X188417112Y-103184021D01*
G37*
G36*
X97038604Y-101948347D02*
X97075145Y-101959432D01*
X97108820Y-101977431D01*
X97138341Y-102001659D01*
X97162569Y-102031180D01*
X97180568Y-102064855D01*
X97191653Y-102101396D01*
X97196000Y-102145538D01*
X97196000Y-103594462D01*
X97191653Y-103638604D01*
X97180568Y-103675145D01*
X97162569Y-103708820D01*
X97138341Y-103738341D01*
X97108820Y-103762569D01*
X97075145Y-103780568D01*
X97038604Y-103791653D01*
X96994462Y-103796000D01*
X96045538Y-103796000D01*
X96001396Y-103791653D01*
X95964855Y-103780568D01*
X95931180Y-103762569D01*
X95901659Y-103738341D01*
X95877431Y-103708820D01*
X95859432Y-103675145D01*
X95848347Y-103638604D01*
X95844000Y-103594462D01*
X95844000Y-102145538D01*
X95848347Y-102101396D01*
X95859432Y-102064855D01*
X95877431Y-102031180D01*
X95901659Y-102001659D01*
X95931180Y-101977431D01*
X95964855Y-101959432D01*
X96001396Y-101948347D01*
X96045538Y-101944000D01*
X96994462Y-101944000D01*
X97038604Y-101948347D01*
X97038604Y-101948347D01*
G37*
G36*
X91835562Y-101948181D02*
X91870477Y-101958773D01*
X91902665Y-101975978D01*
X91930873Y-101999127D01*
X91954022Y-102027335D01*
X91971227Y-102059523D01*
X91981819Y-102094438D01*
X91986000Y-102136895D01*
X91986000Y-103603105D01*
X91981819Y-103645562D01*
X91971227Y-103680477D01*
X91954022Y-103712665D01*
X91930873Y-103740873D01*
X91902665Y-103764022D01*
X91870477Y-103781227D01*
X91835562Y-103791819D01*
X91793105Y-103796000D01*
X90651895Y-103796000D01*
X90609438Y-103791819D01*
X90574523Y-103781227D01*
X90542335Y-103764022D01*
X90514127Y-103740873D01*
X90490978Y-103712665D01*
X90473773Y-103680477D01*
X90463181Y-103645562D01*
X90459000Y-103603105D01*
X90459000Y-102136895D01*
X90463181Y-102094438D01*
X90473773Y-102059523D01*
X90490978Y-102027335D01*
X90514127Y-101999127D01*
X90542335Y-101975978D01*
X90574523Y-101958773D01*
X90609438Y-101948181D01*
X90651895Y-101944000D01*
X91793105Y-101944000D01*
X91835562Y-101948181D01*
X91835562Y-101948181D01*
G37*
G36*
X99838604Y-101948347D02*
X99875145Y-101959432D01*
X99908820Y-101977431D01*
X99938341Y-102001659D01*
X99962569Y-102031180D01*
X99980568Y-102064855D01*
X99991653Y-102101396D01*
X99996000Y-102145538D01*
X99996000Y-103594462D01*
X99991653Y-103638604D01*
X99980568Y-103675145D01*
X99962569Y-103708820D01*
X99938341Y-103738341D01*
X99908820Y-103762569D01*
X99875145Y-103780568D01*
X99838604Y-103791653D01*
X99794462Y-103796000D01*
X98845538Y-103796000D01*
X98801396Y-103791653D01*
X98764855Y-103780568D01*
X98731180Y-103762569D01*
X98701659Y-103738341D01*
X98677431Y-103708820D01*
X98659432Y-103675145D01*
X98648347Y-103638604D01*
X98644000Y-103594462D01*
X98644000Y-102145538D01*
X98648347Y-102101396D01*
X98659432Y-102064855D01*
X98677431Y-102031180D01*
X98701659Y-102001659D01*
X98731180Y-101977431D01*
X98764855Y-101959432D01*
X98801396Y-101948347D01*
X98845538Y-101944000D01*
X99794462Y-101944000D01*
X99838604Y-101948347D01*
X99838604Y-101948347D01*
G37*
G36*
X94810562Y-101948181D02*
X94845477Y-101958773D01*
X94877665Y-101975978D01*
X94905873Y-101999127D01*
X94929022Y-102027335D01*
X94946227Y-102059523D01*
X94956819Y-102094438D01*
X94961000Y-102136895D01*
X94961000Y-103603105D01*
X94956819Y-103645562D01*
X94946227Y-103680477D01*
X94929022Y-103712665D01*
X94905873Y-103740873D01*
X94877665Y-103764022D01*
X94845477Y-103781227D01*
X94810562Y-103791819D01*
X94768105Y-103796000D01*
X93626895Y-103796000D01*
X93584438Y-103791819D01*
X93549523Y-103781227D01*
X93517335Y-103764022D01*
X93489127Y-103740873D01*
X93465978Y-103712665D01*
X93448773Y-103680477D01*
X93438181Y-103645562D01*
X93434000Y-103603105D01*
X93434000Y-102136895D01*
X93438181Y-102094438D01*
X93448773Y-102059523D01*
X93465978Y-102027335D01*
X93489127Y-101999127D01*
X93517335Y-101975978D01*
X93549523Y-101958773D01*
X93584438Y-101948181D01*
X93626895Y-101944000D01*
X94768105Y-101944000D01*
X94810562Y-101948181D01*
X94810562Y-101948181D01*
G37*
G36*
X104261000Y-103521000D02*
X103259000Y-103521000D01*
X103259000Y-102219000D01*
X104261000Y-102219000D01*
X104261000Y-103521000D01*
X104261000Y-103521000D01*
G37*
G36*
X107561000Y-103521000D02*
X106559000Y-103521000D01*
X106559000Y-102219000D01*
X107561000Y-102219000D01*
X107561000Y-103521000D01*
X107561000Y-103521000D01*
G37*
G36*
X123368062Y-100678181D02*
X123402977Y-100688773D01*
X123435165Y-100705978D01*
X123463373Y-100729127D01*
X123486522Y-100757335D01*
X123503727Y-100789523D01*
X123514319Y-100824438D01*
X123518500Y-100866895D01*
X123518500Y-102333105D01*
X123514319Y-102375562D01*
X123503727Y-102410477D01*
X123486522Y-102442665D01*
X123463373Y-102470873D01*
X123435165Y-102494022D01*
X123402977Y-102511227D01*
X123368062Y-102521819D01*
X123325605Y-102526000D01*
X122184395Y-102526000D01*
X122141938Y-102521819D01*
X122107023Y-102511227D01*
X122074835Y-102494022D01*
X122046627Y-102470873D01*
X122023478Y-102442665D01*
X122006273Y-102410477D01*
X121995681Y-102375562D01*
X121991500Y-102333105D01*
X121991500Y-100866895D01*
X121995681Y-100824438D01*
X122006273Y-100789523D01*
X122023478Y-100757335D01*
X122046627Y-100729127D01*
X122074835Y-100705978D01*
X122107023Y-100688773D01*
X122141938Y-100678181D01*
X122184395Y-100674000D01*
X123325605Y-100674000D01*
X123368062Y-100678181D01*
X123368062Y-100678181D01*
G37*
G36*
X126343062Y-100678181D02*
X126377977Y-100688773D01*
X126410165Y-100705978D01*
X126438373Y-100729127D01*
X126461522Y-100757335D01*
X126478727Y-100789523D01*
X126489319Y-100824438D01*
X126493500Y-100866895D01*
X126493500Y-102333105D01*
X126489319Y-102375562D01*
X126478727Y-102410477D01*
X126461522Y-102442665D01*
X126438373Y-102470873D01*
X126410165Y-102494022D01*
X126377977Y-102511227D01*
X126343062Y-102521819D01*
X126300605Y-102526000D01*
X125159395Y-102526000D01*
X125116938Y-102521819D01*
X125082023Y-102511227D01*
X125049835Y-102494022D01*
X125021627Y-102470873D01*
X124998478Y-102442665D01*
X124981273Y-102410477D01*
X124970681Y-102375562D01*
X124966500Y-102333105D01*
X124966500Y-100866895D01*
X124970681Y-100824438D01*
X124981273Y-100789523D01*
X124998478Y-100757335D01*
X125021627Y-100729127D01*
X125049835Y-100705978D01*
X125082023Y-100688773D01*
X125116938Y-100678181D01*
X125159395Y-100674000D01*
X126300605Y-100674000D01*
X126343062Y-100678181D01*
X126343062Y-100678181D01*
G37*
G36*
X153836821Y-99491313D02*
X153836824Y-99491314D01*
X153836825Y-99491314D01*
X153997239Y-99539975D01*
X153997241Y-99539976D01*
X153997244Y-99539977D01*
X154145078Y-99618995D01*
X154274659Y-99725341D01*
X154381005Y-99854922D01*
X154460023Y-100002756D01*
X154460024Y-100002759D01*
X154460025Y-100002761D01*
X154486412Y-100089747D01*
X154508687Y-100163179D01*
X154525117Y-100330000D01*
X154508687Y-100496821D01*
X154460023Y-100657244D01*
X154381005Y-100805078D01*
X154274659Y-100934659D01*
X154145078Y-101041005D01*
X153997244Y-101120023D01*
X153997241Y-101120024D01*
X153997239Y-101120025D01*
X153836825Y-101168686D01*
X153836824Y-101168686D01*
X153836821Y-101168687D01*
X153711804Y-101181000D01*
X153628196Y-101181000D01*
X153503179Y-101168687D01*
X153503176Y-101168686D01*
X153503175Y-101168686D01*
X153342761Y-101120025D01*
X153342759Y-101120024D01*
X153342756Y-101120023D01*
X153194922Y-101041005D01*
X153065341Y-100934659D01*
X152958995Y-100805078D01*
X152879977Y-100657244D01*
X152831313Y-100496821D01*
X152814883Y-100330000D01*
X152831313Y-100163179D01*
X152853588Y-100089747D01*
X152879975Y-100002761D01*
X152879976Y-100002759D01*
X152879977Y-100002756D01*
X152958995Y-99854922D01*
X153065341Y-99725341D01*
X153194922Y-99618995D01*
X153342756Y-99539977D01*
X153342759Y-99539976D01*
X153342761Y-99539975D01*
X153503175Y-99491314D01*
X153503176Y-99491314D01*
X153503179Y-99491313D01*
X153628196Y-99479000D01*
X153711804Y-99479000D01*
X153836821Y-99491313D01*
X153836821Y-99491313D01*
G37*
G36*
X146216821Y-99491313D02*
X146216824Y-99491314D01*
X146216825Y-99491314D01*
X146377239Y-99539975D01*
X146377241Y-99539976D01*
X146377244Y-99539977D01*
X146525078Y-99618995D01*
X146654659Y-99725341D01*
X146761005Y-99854922D01*
X146840023Y-100002756D01*
X146840024Y-100002759D01*
X146840025Y-100002761D01*
X146866412Y-100089747D01*
X146888687Y-100163179D01*
X146905117Y-100330000D01*
X146888687Y-100496821D01*
X146840023Y-100657244D01*
X146761005Y-100805078D01*
X146654659Y-100934659D01*
X146525078Y-101041005D01*
X146377244Y-101120023D01*
X146377241Y-101120024D01*
X146377239Y-101120025D01*
X146216825Y-101168686D01*
X146216824Y-101168686D01*
X146216821Y-101168687D01*
X146091804Y-101181000D01*
X146008196Y-101181000D01*
X145883179Y-101168687D01*
X145883176Y-101168686D01*
X145883175Y-101168686D01*
X145722761Y-101120025D01*
X145722759Y-101120024D01*
X145722756Y-101120023D01*
X145574922Y-101041005D01*
X145445341Y-100934659D01*
X145338995Y-100805078D01*
X145259977Y-100657244D01*
X145211313Y-100496821D01*
X145194883Y-100330000D01*
X145211313Y-100163179D01*
X145233588Y-100089747D01*
X145259975Y-100002761D01*
X145259976Y-100002759D01*
X145259977Y-100002756D01*
X145338995Y-99854922D01*
X145445341Y-99725341D01*
X145574922Y-99618995D01*
X145722756Y-99539977D01*
X145722759Y-99539976D01*
X145722761Y-99539975D01*
X145883175Y-99491314D01*
X145883176Y-99491314D01*
X145883179Y-99491313D01*
X146008196Y-99479000D01*
X146091804Y-99479000D01*
X146216821Y-99491313D01*
X146216821Y-99491313D01*
G37*
G36*
X188371930Y-98179571D02*
X188519072Y-98194063D01*
X188649891Y-98233747D01*
X188715302Y-98253589D01*
X188896148Y-98350254D01*
X189054659Y-98480341D01*
X189184746Y-98638852D01*
X189281411Y-98819698D01*
X189281411Y-98819699D01*
X189340937Y-99015928D01*
X189361036Y-99220000D01*
X189340937Y-99424072D01*
X189320634Y-99491000D01*
X189281411Y-99620302D01*
X189184746Y-99801148D01*
X189054659Y-99959659D01*
X188896148Y-100089746D01*
X188715302Y-100186411D01*
X188649891Y-100206253D01*
X188519072Y-100245937D01*
X188417112Y-100255979D01*
X188366133Y-100261000D01*
X186283867Y-100261000D01*
X186232888Y-100255979D01*
X186130928Y-100245937D01*
X186000109Y-100206253D01*
X185934698Y-100186411D01*
X185753852Y-100089746D01*
X185595341Y-99959659D01*
X185465254Y-99801148D01*
X185368589Y-99620302D01*
X185329366Y-99491000D01*
X185309063Y-99424072D01*
X185288964Y-99220000D01*
X185309063Y-99015928D01*
X185368589Y-98819699D01*
X185368589Y-98819698D01*
X185465254Y-98638852D01*
X185595341Y-98480341D01*
X185753852Y-98350254D01*
X185934698Y-98253589D01*
X186000109Y-98233747D01*
X186130928Y-98194063D01*
X186278070Y-98179571D01*
X186283867Y-98179000D01*
X188366133Y-98179000D01*
X188371930Y-98179571D01*
X188371930Y-98179571D01*
G37*
G36*
X101561000Y-100046000D02*
X99959000Y-100046000D01*
X99959000Y-99344000D01*
X101561000Y-99344000D01*
X101561000Y-100046000D01*
X101561000Y-100046000D01*
G37*
G36*
X110861000Y-100046000D02*
X109259000Y-100046000D01*
X109259000Y-99344000D01*
X110861000Y-99344000D01*
X110861000Y-100046000D01*
X110861000Y-100046000D01*
G37*
G36*
X135398604Y-98138347D02*
X135435145Y-98149432D01*
X135468820Y-98167431D01*
X135498341Y-98191659D01*
X135522569Y-98221180D01*
X135540568Y-98254855D01*
X135551653Y-98291396D01*
X135556000Y-98335538D01*
X135556000Y-99784462D01*
X135551653Y-99828604D01*
X135540568Y-99865145D01*
X135522569Y-99898820D01*
X135498341Y-99928341D01*
X135468820Y-99952569D01*
X135435145Y-99970568D01*
X135398604Y-99981653D01*
X135354462Y-99986000D01*
X134405538Y-99986000D01*
X134361396Y-99981653D01*
X134324855Y-99970568D01*
X134291180Y-99952569D01*
X134261659Y-99928341D01*
X134237431Y-99898820D01*
X134219432Y-99865145D01*
X134208347Y-99828604D01*
X134204000Y-99784462D01*
X134204000Y-98335538D01*
X134208347Y-98291396D01*
X134219432Y-98254855D01*
X134237431Y-98221180D01*
X134261659Y-98191659D01*
X134291180Y-98167431D01*
X134324855Y-98149432D01*
X134361396Y-98138347D01*
X134405538Y-98134000D01*
X135354462Y-98134000D01*
X135398604Y-98138347D01*
X135398604Y-98138347D01*
G37*
G36*
X132598604Y-98138347D02*
X132635145Y-98149432D01*
X132668820Y-98167431D01*
X132698341Y-98191659D01*
X132722569Y-98221180D01*
X132740568Y-98254855D01*
X132751653Y-98291396D01*
X132756000Y-98335538D01*
X132756000Y-99784462D01*
X132751653Y-99828604D01*
X132740568Y-99865145D01*
X132722569Y-99898820D01*
X132698341Y-99928341D01*
X132668820Y-99952569D01*
X132635145Y-99970568D01*
X132598604Y-99981653D01*
X132554462Y-99986000D01*
X131605538Y-99986000D01*
X131561396Y-99981653D01*
X131524855Y-99970568D01*
X131491180Y-99952569D01*
X131461659Y-99928341D01*
X131437431Y-99898820D01*
X131419432Y-99865145D01*
X131408347Y-99828604D01*
X131404000Y-99784462D01*
X131404000Y-98335538D01*
X131408347Y-98291396D01*
X131419432Y-98254855D01*
X131437431Y-98221180D01*
X131461659Y-98191659D01*
X131491180Y-98167431D01*
X131524855Y-98149432D01*
X131561396Y-98138347D01*
X131605538Y-98134000D01*
X132554462Y-98134000D01*
X132598604Y-98138347D01*
X132598604Y-98138347D01*
G37*
G36*
X175842527Y-96628736D02*
X175942410Y-96648604D01*
X176224674Y-96765521D01*
X176478705Y-96935259D01*
X176694741Y-97151295D01*
X176864479Y-97405326D01*
X176954716Y-97623179D01*
X176981396Y-97687591D01*
X177041000Y-97987238D01*
X177041000Y-98292762D01*
X177010598Y-98445600D01*
X176981396Y-98592410D01*
X176864479Y-98874674D01*
X176694741Y-99128705D01*
X176478705Y-99344741D01*
X176224674Y-99514479D01*
X175942410Y-99631396D01*
X175842527Y-99651264D01*
X175642762Y-99691000D01*
X175337238Y-99691000D01*
X175137473Y-99651264D01*
X175037590Y-99631396D01*
X174755326Y-99514479D01*
X174501295Y-99344741D01*
X174285259Y-99128705D01*
X174115521Y-98874674D01*
X173998604Y-98592410D01*
X173969402Y-98445600D01*
X173939000Y-98292762D01*
X173939000Y-97987238D01*
X173998604Y-97687591D01*
X174025284Y-97623179D01*
X174115521Y-97405326D01*
X174285259Y-97151295D01*
X174501295Y-96935259D01*
X174755326Y-96765521D01*
X175037590Y-96648604D01*
X175137473Y-96628736D01*
X175337238Y-96589000D01*
X175642762Y-96589000D01*
X175842527Y-96628736D01*
X175842527Y-96628736D01*
G37*
G36*
X90461000Y-99616000D02*
X84799000Y-99616000D01*
X84799000Y-96914000D01*
X90461000Y-96914000D01*
X90461000Y-99616000D01*
X90461000Y-99616000D01*
G37*
G36*
X163619485Y-96938996D02*
X163619487Y-96938997D01*
X163619488Y-96938997D01*
X163728555Y-96984174D01*
X163856255Y-97037069D01*
X164069342Y-97179449D01*
X164250551Y-97360658D01*
X164285237Y-97412569D01*
X164392931Y-97573745D01*
X164482507Y-97790000D01*
X164491004Y-97810515D01*
X164541000Y-98061861D01*
X164541000Y-98318139D01*
X164501949Y-98514462D01*
X164491003Y-98569488D01*
X164436708Y-98700568D01*
X164392931Y-98806255D01*
X164250551Y-99019342D01*
X164069342Y-99200551D01*
X164069339Y-99200553D01*
X163856255Y-99342931D01*
X163619488Y-99441003D01*
X163619487Y-99441003D01*
X163619485Y-99441004D01*
X163368139Y-99491000D01*
X163111861Y-99491000D01*
X162860515Y-99441004D01*
X162860513Y-99441003D01*
X162860512Y-99441003D01*
X162623745Y-99342931D01*
X162410661Y-99200553D01*
X162410658Y-99200551D01*
X162229449Y-99019342D01*
X162087069Y-98806255D01*
X162043292Y-98700568D01*
X161988997Y-98569488D01*
X161978052Y-98514462D01*
X161939000Y-98318139D01*
X161939000Y-98061861D01*
X161988996Y-97810515D01*
X161997494Y-97790000D01*
X162087069Y-97573745D01*
X162194763Y-97412569D01*
X162229449Y-97360658D01*
X162410658Y-97179449D01*
X162623745Y-97037069D01*
X162751445Y-96984174D01*
X162860512Y-96938997D01*
X162860513Y-96938997D01*
X162860515Y-96938996D01*
X163111861Y-96889000D01*
X163368139Y-96889000D01*
X163619485Y-96938996D01*
X163619485Y-96938996D01*
G37*
G36*
X101561000Y-98776000D02*
X99959000Y-98776000D01*
X99959000Y-98074000D01*
X101561000Y-98074000D01*
X101561000Y-98776000D01*
X101561000Y-98776000D01*
G37*
G36*
X127986000Y-98776000D02*
X126334000Y-98776000D01*
X126334000Y-98074000D01*
X127986000Y-98074000D01*
X127986000Y-98776000D01*
X127986000Y-98776000D01*
G37*
G36*
X122586000Y-98776000D02*
X120934000Y-98776000D01*
X120934000Y-98074000D01*
X122586000Y-98074000D01*
X122586000Y-98776000D01*
X122586000Y-98776000D01*
G37*
G36*
X110861000Y-98776000D02*
X109259000Y-98776000D01*
X109259000Y-98074000D01*
X110861000Y-98074000D01*
X110861000Y-98776000D01*
X110861000Y-98776000D01*
G37*
G36*
X142758604Y-96868347D02*
X142795145Y-96879432D01*
X142828820Y-96897431D01*
X142858341Y-96921659D01*
X142882569Y-96951180D01*
X142900568Y-96984855D01*
X142911653Y-97021396D01*
X142916000Y-97065538D01*
X142916000Y-98514462D01*
X142911653Y-98558604D01*
X142900568Y-98595145D01*
X142882569Y-98628820D01*
X142858341Y-98658341D01*
X142828820Y-98682569D01*
X142795145Y-98700568D01*
X142758604Y-98711653D01*
X142714462Y-98716000D01*
X141765538Y-98716000D01*
X141721396Y-98711653D01*
X141684855Y-98700568D01*
X141651180Y-98682569D01*
X141621659Y-98658341D01*
X141597431Y-98628820D01*
X141579432Y-98595145D01*
X141568347Y-98558604D01*
X141564000Y-98514462D01*
X141564000Y-97065538D01*
X141568347Y-97021396D01*
X141579432Y-96984855D01*
X141597431Y-96951180D01*
X141621659Y-96921659D01*
X141651180Y-96897431D01*
X141684855Y-96879432D01*
X141721396Y-96868347D01*
X141765538Y-96864000D01*
X142714462Y-96864000D01*
X142758604Y-96868347D01*
X142758604Y-96868347D01*
G37*
G36*
X139958604Y-96868347D02*
X139995145Y-96879432D01*
X140028820Y-96897431D01*
X140058341Y-96921659D01*
X140082569Y-96951180D01*
X140100568Y-96984855D01*
X140111653Y-97021396D01*
X140116000Y-97065538D01*
X140116000Y-98514462D01*
X140111653Y-98558604D01*
X140100568Y-98595145D01*
X140082569Y-98628820D01*
X140058341Y-98658341D01*
X140028820Y-98682569D01*
X139995145Y-98700568D01*
X139958604Y-98711653D01*
X139914462Y-98716000D01*
X138965538Y-98716000D01*
X138921396Y-98711653D01*
X138884855Y-98700568D01*
X138851180Y-98682569D01*
X138821659Y-98658341D01*
X138797431Y-98628820D01*
X138779432Y-98595145D01*
X138768347Y-98558604D01*
X138764000Y-98514462D01*
X138764000Y-97065538D01*
X138768347Y-97021396D01*
X138779432Y-96984855D01*
X138797431Y-96951180D01*
X138821659Y-96921659D01*
X138851180Y-96897431D01*
X138884855Y-96879432D01*
X138921396Y-96868347D01*
X138965538Y-96864000D01*
X139914462Y-96864000D01*
X139958604Y-96868347D01*
X139958604Y-96868347D01*
G37*
G36*
X153836821Y-96951313D02*
X153836824Y-96951314D01*
X153836825Y-96951314D01*
X153997239Y-96999975D01*
X153997241Y-96999976D01*
X153997244Y-96999977D01*
X154145078Y-97078995D01*
X154274659Y-97185341D01*
X154381005Y-97314922D01*
X154460023Y-97462756D01*
X154460024Y-97462759D01*
X154460025Y-97462761D01*
X154508686Y-97623175D01*
X154508687Y-97623179D01*
X154525117Y-97790000D01*
X154508687Y-97956821D01*
X154508686Y-97956824D01*
X154508686Y-97956825D01*
X154476824Y-98061861D01*
X154460023Y-98117244D01*
X154381005Y-98265078D01*
X154274659Y-98394659D01*
X154145078Y-98501005D01*
X153997244Y-98580023D01*
X153997241Y-98580024D01*
X153997239Y-98580025D01*
X153836825Y-98628686D01*
X153836824Y-98628686D01*
X153836821Y-98628687D01*
X153711804Y-98641000D01*
X153628196Y-98641000D01*
X153503179Y-98628687D01*
X153503176Y-98628686D01*
X153503175Y-98628686D01*
X153342761Y-98580025D01*
X153342759Y-98580024D01*
X153342756Y-98580023D01*
X153194922Y-98501005D01*
X153065341Y-98394659D01*
X152958995Y-98265078D01*
X152879977Y-98117244D01*
X152863177Y-98061861D01*
X152831314Y-97956825D01*
X152831314Y-97956824D01*
X152831313Y-97956821D01*
X152814883Y-97790000D01*
X152831313Y-97623179D01*
X152831314Y-97623175D01*
X152879975Y-97462761D01*
X152879976Y-97462759D01*
X152879977Y-97462756D01*
X152958995Y-97314922D01*
X153065341Y-97185341D01*
X153194922Y-97078995D01*
X153342756Y-96999977D01*
X153342759Y-96999976D01*
X153342761Y-96999975D01*
X153503175Y-96951314D01*
X153503176Y-96951314D01*
X153503179Y-96951313D01*
X153628196Y-96939000D01*
X153711804Y-96939000D01*
X153836821Y-96951313D01*
X153836821Y-96951313D01*
G37*
G36*
X146901000Y-98641000D02*
X145199000Y-98641000D01*
X145199000Y-96939000D01*
X146901000Y-96939000D01*
X146901000Y-98641000D01*
X146901000Y-98641000D01*
G37*
G36*
X127986000Y-97506000D02*
X126334000Y-97506000D01*
X126334000Y-96804000D01*
X127986000Y-96804000D01*
X127986000Y-97506000D01*
X127986000Y-97506000D01*
G37*
G36*
X122586000Y-97506000D02*
X120934000Y-97506000D01*
X120934000Y-96804000D01*
X122586000Y-96804000D01*
X122586000Y-97506000D01*
X122586000Y-97506000D01*
G37*
G36*
X101561000Y-97506000D02*
X99959000Y-97506000D01*
X99959000Y-96804000D01*
X101561000Y-96804000D01*
X101561000Y-97506000D01*
X101561000Y-97506000D01*
G37*
G36*
X110861000Y-97506000D02*
X109259000Y-97506000D01*
X109259000Y-96804000D01*
X110861000Y-96804000D01*
X110861000Y-97506000D01*
X110861000Y-97506000D01*
G37*
G36*
X132468604Y-95598347D02*
X132505145Y-95609432D01*
X132538820Y-95627431D01*
X132568341Y-95651659D01*
X132592569Y-95681180D01*
X132610568Y-95714855D01*
X132621653Y-95751396D01*
X132626000Y-95795538D01*
X132626000Y-97244462D01*
X132621653Y-97288604D01*
X132610568Y-97325145D01*
X132592569Y-97358820D01*
X132568341Y-97388341D01*
X132538820Y-97412569D01*
X132505145Y-97430568D01*
X132468604Y-97441653D01*
X132424462Y-97446000D01*
X131475538Y-97446000D01*
X131431396Y-97441653D01*
X131394855Y-97430568D01*
X131361180Y-97412569D01*
X131331659Y-97388341D01*
X131307431Y-97358820D01*
X131289432Y-97325145D01*
X131278347Y-97288604D01*
X131274000Y-97244462D01*
X131274000Y-95795538D01*
X131278347Y-95751396D01*
X131289432Y-95714855D01*
X131307431Y-95681180D01*
X131331659Y-95651659D01*
X131361180Y-95627431D01*
X131394855Y-95609432D01*
X131431396Y-95598347D01*
X131475538Y-95594000D01*
X132424462Y-95594000D01*
X132468604Y-95598347D01*
X132468604Y-95598347D01*
G37*
G36*
X135268604Y-95598347D02*
X135305145Y-95609432D01*
X135338820Y-95627431D01*
X135368341Y-95651659D01*
X135392569Y-95681180D01*
X135410568Y-95714855D01*
X135421653Y-95751396D01*
X135426000Y-95795538D01*
X135426000Y-97244462D01*
X135421653Y-97288604D01*
X135410568Y-97325145D01*
X135392569Y-97358820D01*
X135368341Y-97388341D01*
X135338820Y-97412569D01*
X135305145Y-97430568D01*
X135268604Y-97441653D01*
X135224462Y-97446000D01*
X134275538Y-97446000D01*
X134231396Y-97441653D01*
X134194855Y-97430568D01*
X134161180Y-97412569D01*
X134131659Y-97388341D01*
X134107431Y-97358820D01*
X134089432Y-97325145D01*
X134078347Y-97288604D01*
X134074000Y-97244462D01*
X134074000Y-95795538D01*
X134078347Y-95751396D01*
X134089432Y-95714855D01*
X134107431Y-95681180D01*
X134131659Y-95651659D01*
X134161180Y-95627431D01*
X134194855Y-95609432D01*
X134231396Y-95598347D01*
X134275538Y-95594000D01*
X135224462Y-95594000D01*
X135268604Y-95598347D01*
X135268604Y-95598347D01*
G37*
G36*
X122586000Y-96236000D02*
X120934000Y-96236000D01*
X120934000Y-95534000D01*
X122586000Y-95534000D01*
X122586000Y-96236000D01*
X122586000Y-96236000D01*
G37*
G36*
X110861000Y-96236000D02*
X109259000Y-96236000D01*
X109259000Y-95534000D01*
X110861000Y-95534000D01*
X110861000Y-96236000D01*
X110861000Y-96236000D01*
G37*
G36*
X101561000Y-96236000D02*
X99959000Y-96236000D01*
X99959000Y-95534000D01*
X101561000Y-95534000D01*
X101561000Y-96236000D01*
X101561000Y-96236000D01*
G37*
G36*
X127986000Y-96236000D02*
X126334000Y-96236000D01*
X126334000Y-95534000D01*
X127986000Y-95534000D01*
X127986000Y-96236000D01*
X127986000Y-96236000D01*
G37*
G36*
X175792527Y-92168736D02*
X175892410Y-92188604D01*
X176174674Y-92305521D01*
X176428705Y-92475259D01*
X176644741Y-92691295D01*
X176814479Y-92945326D01*
X176931396Y-93227590D01*
X176991000Y-93527240D01*
X176991000Y-93832760D01*
X176931396Y-94132410D01*
X176814479Y-94414674D01*
X176644741Y-94668705D01*
X176428705Y-94884741D01*
X176174674Y-95054479D01*
X175892410Y-95171396D01*
X175792527Y-95191264D01*
X175592762Y-95231000D01*
X175287238Y-95231000D01*
X175087473Y-95191264D01*
X174987590Y-95171396D01*
X174705326Y-95054479D01*
X174451295Y-94884741D01*
X174235259Y-94668705D01*
X174065521Y-94414674D01*
X173948604Y-94132410D01*
X173889000Y-93832760D01*
X173889000Y-93527240D01*
X173948604Y-93227590D01*
X174065521Y-92945326D01*
X174235259Y-92691295D01*
X174451295Y-92475259D01*
X174705326Y-92305521D01*
X174987590Y-92188604D01*
X175087473Y-92168736D01*
X175287238Y-92129000D01*
X175592762Y-92129000D01*
X175792527Y-92168736D01*
X175792527Y-92168736D01*
G37*
G36*
X114571000Y-95211000D02*
X113569000Y-95211000D01*
X113569000Y-94209000D01*
X114571000Y-94209000D01*
X114571000Y-95211000D01*
X114571000Y-95211000D01*
G37*
G36*
X117571000Y-95211000D02*
X116569000Y-95211000D01*
X116569000Y-94209000D01*
X117571000Y-94209000D01*
X117571000Y-95211000D01*
X117571000Y-95211000D01*
G37*
G36*
X163619485Y-92428996D02*
X163619487Y-92428997D01*
X163619488Y-92428997D01*
X163856255Y-92527069D01*
X164069342Y-92669449D01*
X164250551Y-92850658D01*
X164250553Y-92850661D01*
X164392931Y-93063745D01*
X164453098Y-93209000D01*
X164491004Y-93300515D01*
X164541000Y-93551861D01*
X164541000Y-93808139D01*
X164491004Y-94059485D01*
X164392931Y-94296255D01*
X164250551Y-94509342D01*
X164069342Y-94690551D01*
X164069339Y-94690553D01*
X163856255Y-94832931D01*
X163619488Y-94931003D01*
X163619487Y-94931003D01*
X163619485Y-94931004D01*
X163368139Y-94981000D01*
X163111861Y-94981000D01*
X162860515Y-94931004D01*
X162860513Y-94931003D01*
X162860512Y-94931003D01*
X162623745Y-94832931D01*
X162410661Y-94690553D01*
X162410658Y-94690551D01*
X162229449Y-94509342D01*
X162087069Y-94296255D01*
X161988996Y-94059485D01*
X161939000Y-93808139D01*
X161939000Y-93551861D01*
X161988996Y-93300515D01*
X162026903Y-93209000D01*
X162087069Y-93063745D01*
X162229447Y-92850661D01*
X162229449Y-92850658D01*
X162410658Y-92669449D01*
X162623745Y-92527069D01*
X162860512Y-92428997D01*
X162860513Y-92428997D01*
X162860515Y-92428996D01*
X163111861Y-92379000D01*
X163368139Y-92379000D01*
X163619485Y-92428996D01*
X163619485Y-92428996D01*
G37*
G36*
X127986000Y-94966000D02*
X126334000Y-94966000D01*
X126334000Y-94264000D01*
X127986000Y-94264000D01*
X127986000Y-94966000D01*
X127986000Y-94966000D01*
G37*
G36*
X101561000Y-94966000D02*
X99959000Y-94966000D01*
X99959000Y-94264000D01*
X101561000Y-94264000D01*
X101561000Y-94966000D01*
X101561000Y-94966000D01*
G37*
G36*
X110861000Y-94966000D02*
X109259000Y-94966000D01*
X109259000Y-94264000D01*
X110861000Y-94264000D01*
X110861000Y-94966000D01*
X110861000Y-94966000D01*
G37*
G36*
X122586000Y-94966000D02*
X120934000Y-94966000D01*
X120934000Y-94264000D01*
X122586000Y-94264000D01*
X122586000Y-94966000D01*
X122586000Y-94966000D01*
G37*
G36*
X132468604Y-93058347D02*
X132505145Y-93069432D01*
X132538820Y-93087431D01*
X132568341Y-93111659D01*
X132592569Y-93141180D01*
X132610568Y-93174855D01*
X132621653Y-93211396D01*
X132626000Y-93255538D01*
X132626000Y-94704462D01*
X132621653Y-94748604D01*
X132610568Y-94785145D01*
X132592569Y-94818820D01*
X132568341Y-94848341D01*
X132538820Y-94872569D01*
X132505145Y-94890568D01*
X132468604Y-94901653D01*
X132424462Y-94906000D01*
X131475538Y-94906000D01*
X131431396Y-94901653D01*
X131394855Y-94890568D01*
X131361180Y-94872569D01*
X131331659Y-94848341D01*
X131307431Y-94818820D01*
X131289432Y-94785145D01*
X131278347Y-94748604D01*
X131274000Y-94704462D01*
X131274000Y-93255538D01*
X131278347Y-93211396D01*
X131289432Y-93174855D01*
X131307431Y-93141180D01*
X131331659Y-93111659D01*
X131361180Y-93087431D01*
X131394855Y-93069432D01*
X131431396Y-93058347D01*
X131475538Y-93054000D01*
X132424462Y-93054000D01*
X132468604Y-93058347D01*
X132468604Y-93058347D01*
G37*
G36*
X135268604Y-93058347D02*
X135305145Y-93069432D01*
X135338820Y-93087431D01*
X135368341Y-93111659D01*
X135392569Y-93141180D01*
X135410568Y-93174855D01*
X135421653Y-93211396D01*
X135426000Y-93255538D01*
X135426000Y-94704462D01*
X135421653Y-94748604D01*
X135410568Y-94785145D01*
X135392569Y-94818820D01*
X135368341Y-94848341D01*
X135338820Y-94872569D01*
X135305145Y-94890568D01*
X135268604Y-94901653D01*
X135224462Y-94906000D01*
X134275538Y-94906000D01*
X134231396Y-94901653D01*
X134194855Y-94890568D01*
X134161180Y-94872569D01*
X134131659Y-94848341D01*
X134107431Y-94818820D01*
X134089432Y-94785145D01*
X134078347Y-94748604D01*
X134074000Y-94704462D01*
X134074000Y-93255538D01*
X134078347Y-93211396D01*
X134089432Y-93174855D01*
X134107431Y-93141180D01*
X134131659Y-93111659D01*
X134161180Y-93087431D01*
X134194855Y-93069432D01*
X134231396Y-93058347D01*
X134275538Y-93054000D01*
X135224462Y-93054000D01*
X135268604Y-93058347D01*
X135268604Y-93058347D01*
G37*
G36*
X150631000Y-94111000D02*
X149629000Y-94111000D01*
X149629000Y-93209000D01*
X150631000Y-93209000D01*
X150631000Y-94111000D01*
X150631000Y-94111000D01*
G37*
G36*
X117571000Y-93871000D02*
X116569000Y-93871000D01*
X116569000Y-92869000D01*
X117571000Y-92869000D01*
X117571000Y-93871000D01*
X117571000Y-93871000D01*
G37*
G36*
X114571000Y-93871000D02*
X113569000Y-93871000D01*
X113569000Y-92869000D01*
X114571000Y-92869000D01*
X114571000Y-93871000D01*
X114571000Y-93871000D01*
G37*
G36*
X189356000Y-93751000D02*
X185294000Y-93751000D01*
X185294000Y-91669000D01*
X189356000Y-91669000D01*
X189356000Y-93751000D01*
X189356000Y-93751000D01*
G37*
G36*
X101561000Y-93696000D02*
X99959000Y-93696000D01*
X99959000Y-92994000D01*
X101561000Y-92994000D01*
X101561000Y-93696000D01*
X101561000Y-93696000D01*
G37*
G36*
X110861000Y-93696000D02*
X109259000Y-93696000D01*
X109259000Y-92994000D01*
X110861000Y-92994000D01*
X110861000Y-93696000D01*
X110861000Y-93696000D01*
G37*
G36*
X152631000Y-93161000D02*
X151629000Y-93161000D01*
X151629000Y-92259000D01*
X152631000Y-92259000D01*
X152631000Y-93161000D01*
X152631000Y-93161000D01*
G37*
G36*
X114571000Y-92551000D02*
X113569000Y-92551000D01*
X113569000Y-91549000D01*
X114571000Y-91549000D01*
X114571000Y-92551000D01*
X114571000Y-92551000D01*
G37*
G36*
X117571000Y-92551000D02*
X116569000Y-92551000D01*
X116569000Y-91549000D01*
X117571000Y-91549000D01*
X117571000Y-92551000D01*
X117571000Y-92551000D01*
G37*
G36*
X110861000Y-92426000D02*
X109259000Y-92426000D01*
X109259000Y-91724000D01*
X110861000Y-91724000D01*
X110861000Y-92426000D01*
X110861000Y-92426000D01*
G37*
G36*
X101561000Y-92426000D02*
X99959000Y-92426000D01*
X99959000Y-91724000D01*
X101561000Y-91724000D01*
X101561000Y-92426000D01*
X101561000Y-92426000D01*
G37*
G36*
X150631000Y-92211000D02*
X149629000Y-92211000D01*
X149629000Y-91309000D01*
X150631000Y-91309000D01*
X150631000Y-92211000D01*
X150631000Y-92211000D01*
G37*
G36*
X132041000Y-92171000D02*
X131039000Y-92171000D01*
X131039000Y-91169000D01*
X132041000Y-91169000D01*
X132041000Y-92171000D01*
X132041000Y-92171000D01*
G37*
G36*
X130701000Y-92171000D02*
X129699000Y-92171000D01*
X129699000Y-91169000D01*
X130701000Y-91169000D01*
X130701000Y-92171000D01*
X130701000Y-92171000D01*
G37*
G36*
X129381000Y-92171000D02*
X128379000Y-92171000D01*
X128379000Y-91169000D01*
X129381000Y-91169000D01*
X129381000Y-92171000D01*
X129381000Y-92171000D01*
G37*
G36*
X128041000Y-92171000D02*
X127039000Y-92171000D01*
X127039000Y-91169000D01*
X128041000Y-91169000D01*
X128041000Y-92171000D01*
X128041000Y-92171000D01*
G37*
G36*
X117571000Y-91211000D02*
X116569000Y-91211000D01*
X116569000Y-90209000D01*
X117571000Y-90209000D01*
X117571000Y-91211000D01*
X117571000Y-91211000D01*
G37*
G36*
X114571000Y-91211000D02*
X113569000Y-91211000D01*
X113569000Y-90209000D01*
X114571000Y-90209000D01*
X114571000Y-91211000D01*
X114571000Y-91211000D01*
G37*
G36*
X110861000Y-91156000D02*
X109259000Y-91156000D01*
X109259000Y-90454000D01*
X110861000Y-90454000D01*
X110861000Y-91156000D01*
X110861000Y-91156000D01*
G37*
G36*
X101561000Y-91156000D02*
X99959000Y-91156000D01*
X99959000Y-90454000D01*
X101561000Y-90454000D01*
X101561000Y-91156000D01*
X101561000Y-91156000D01*
G37*
G36*
X90461000Y-90411000D02*
X84799000Y-90411000D01*
X84799000Y-82309000D01*
X90461000Y-82309000D01*
X90461000Y-90411000D01*
X90461000Y-90411000D01*
G37*
G36*
X150118604Y-87978347D02*
X150155145Y-87989432D01*
X150188820Y-88007431D01*
X150218341Y-88031659D01*
X150242569Y-88061180D01*
X150260568Y-88094855D01*
X150271653Y-88131396D01*
X150276000Y-88175538D01*
X150276000Y-89624462D01*
X150271653Y-89668604D01*
X150260568Y-89705145D01*
X150242569Y-89738820D01*
X150218341Y-89768341D01*
X150188820Y-89792569D01*
X150155145Y-89810568D01*
X150118604Y-89821653D01*
X150074462Y-89826000D01*
X149125538Y-89826000D01*
X149081396Y-89821653D01*
X149044855Y-89810568D01*
X149011180Y-89792569D01*
X148981659Y-89768341D01*
X148957431Y-89738820D01*
X148939432Y-89705145D01*
X148928347Y-89668604D01*
X148924000Y-89624462D01*
X148924000Y-88175538D01*
X148928347Y-88131396D01*
X148939432Y-88094855D01*
X148957431Y-88061180D01*
X148981659Y-88031659D01*
X149011180Y-88007431D01*
X149044855Y-87989432D01*
X149081396Y-87978347D01*
X149125538Y-87974000D01*
X150074462Y-87974000D01*
X150118604Y-87978347D01*
X150118604Y-87978347D01*
G37*
G36*
X152918604Y-87978347D02*
X152955145Y-87989432D01*
X152988820Y-88007431D01*
X153018341Y-88031659D01*
X153042569Y-88061180D01*
X153060568Y-88094855D01*
X153071653Y-88131396D01*
X153076000Y-88175538D01*
X153076000Y-89624462D01*
X153071653Y-89668604D01*
X153060568Y-89705145D01*
X153042569Y-89738820D01*
X153018341Y-89768341D01*
X152988820Y-89792569D01*
X152955145Y-89810568D01*
X152918604Y-89821653D01*
X152874462Y-89826000D01*
X151925538Y-89826000D01*
X151881396Y-89821653D01*
X151844855Y-89810568D01*
X151811180Y-89792569D01*
X151781659Y-89768341D01*
X151757431Y-89738820D01*
X151739432Y-89705145D01*
X151728347Y-89668604D01*
X151724000Y-89624462D01*
X151724000Y-88175538D01*
X151728347Y-88131396D01*
X151739432Y-88094855D01*
X151757431Y-88061180D01*
X151781659Y-88031659D01*
X151811180Y-88007431D01*
X151844855Y-87989432D01*
X151881396Y-87978347D01*
X151925538Y-87974000D01*
X152874462Y-87974000D01*
X152918604Y-87978347D01*
X152918604Y-87978347D01*
G37*
G36*
X161642527Y-86118736D02*
X161742410Y-86138604D01*
X162024674Y-86255521D01*
X162278705Y-86425259D01*
X162494741Y-86641295D01*
X162664479Y-86895326D01*
X162761208Y-87128852D01*
X162781396Y-87177591D01*
X162841000Y-87477238D01*
X162841000Y-87782762D01*
X162802960Y-87974000D01*
X162781396Y-88082410D01*
X162664479Y-88364674D01*
X162494741Y-88618705D01*
X162278705Y-88834741D01*
X162024674Y-89004479D01*
X161742410Y-89121396D01*
X161642527Y-89141264D01*
X161442762Y-89181000D01*
X161137238Y-89181000D01*
X160937473Y-89141264D01*
X160837590Y-89121396D01*
X160555326Y-89004479D01*
X160301295Y-88834741D01*
X160085259Y-88618705D01*
X159915521Y-88364674D01*
X159798604Y-88082410D01*
X159777040Y-87974000D01*
X159739000Y-87782762D01*
X159739000Y-87477238D01*
X159798604Y-87177591D01*
X159818792Y-87128852D01*
X159915521Y-86895326D01*
X160085259Y-86641295D01*
X160301295Y-86425259D01*
X160555326Y-86255521D01*
X160837590Y-86138604D01*
X160937473Y-86118736D01*
X161137238Y-86079000D01*
X161442762Y-86079000D01*
X161642527Y-86118736D01*
X161642527Y-86118736D01*
G37*
G36*
X128041000Y-89171000D02*
X127039000Y-89171000D01*
X127039000Y-88169000D01*
X128041000Y-88169000D01*
X128041000Y-89171000D01*
X128041000Y-89171000D01*
G37*
G36*
X129381000Y-89171000D02*
X128379000Y-89171000D01*
X128379000Y-88169000D01*
X129381000Y-88169000D01*
X129381000Y-89171000D01*
X129381000Y-89171000D01*
G37*
G36*
X130701000Y-89171000D02*
X129699000Y-89171000D01*
X129699000Y-88169000D01*
X130701000Y-88169000D01*
X130701000Y-89171000D01*
X130701000Y-89171000D01*
G37*
G36*
X132041000Y-89171000D02*
X131039000Y-89171000D01*
X131039000Y-88169000D01*
X132041000Y-88169000D01*
X132041000Y-89171000D01*
X132041000Y-89171000D01*
G37*
G36*
X188417112Y-86674021D02*
X188519072Y-86684063D01*
X188649891Y-86723747D01*
X188715302Y-86743589D01*
X188896148Y-86840254D01*
X189054659Y-86970341D01*
X189184746Y-87128852D01*
X189281411Y-87309698D01*
X189281411Y-87309699D01*
X189340937Y-87505928D01*
X189361036Y-87710000D01*
X189340937Y-87914072D01*
X189308934Y-88019571D01*
X189281411Y-88110302D01*
X189184746Y-88291148D01*
X189054659Y-88449659D01*
X188896148Y-88579746D01*
X188715302Y-88676411D01*
X188649891Y-88696253D01*
X188519072Y-88735937D01*
X188417112Y-88745979D01*
X188366133Y-88751000D01*
X186283867Y-88751000D01*
X186232888Y-88745979D01*
X186130928Y-88735937D01*
X186000109Y-88696253D01*
X185934698Y-88676411D01*
X185753852Y-88579746D01*
X185595341Y-88449659D01*
X185465254Y-88291148D01*
X185368589Y-88110302D01*
X185341066Y-88019571D01*
X185309063Y-87914072D01*
X185288964Y-87710000D01*
X185309063Y-87505928D01*
X185368589Y-87309699D01*
X185368589Y-87309698D01*
X185465254Y-87128852D01*
X185595341Y-86970341D01*
X185753852Y-86840254D01*
X185934698Y-86743589D01*
X186000109Y-86723747D01*
X186130928Y-86684063D01*
X186232888Y-86674021D01*
X186283867Y-86669000D01*
X188366133Y-86669000D01*
X188417112Y-86674021D01*
X188417112Y-86674021D01*
G37*
G36*
X117976000Y-86506000D02*
X116974000Y-86506000D01*
X116974000Y-84404000D01*
X117976000Y-84404000D01*
X117976000Y-86506000D01*
X117976000Y-86506000D01*
G37*
G36*
X115436000Y-86506000D02*
X114434000Y-86506000D01*
X114434000Y-84404000D01*
X115436000Y-84404000D01*
X115436000Y-86506000D01*
X115436000Y-86506000D01*
G37*
G36*
X114166000Y-86506000D02*
X113164000Y-86506000D01*
X113164000Y-84404000D01*
X114166000Y-84404000D01*
X114166000Y-86506000D01*
X114166000Y-86506000D01*
G37*
G36*
X112896000Y-86506000D02*
X111894000Y-86506000D01*
X111894000Y-84404000D01*
X112896000Y-84404000D01*
X112896000Y-86506000D01*
X112896000Y-86506000D01*
G37*
G36*
X116706000Y-86506000D02*
X115704000Y-86506000D01*
X115704000Y-84404000D01*
X116706000Y-84404000D01*
X116706000Y-86506000D01*
X116706000Y-86506000D01*
G37*
G36*
X120516000Y-86506000D02*
X119514000Y-86506000D01*
X119514000Y-84404000D01*
X120516000Y-84404000D01*
X120516000Y-86506000D01*
X120516000Y-86506000D01*
G37*
G36*
X119246000Y-86506000D02*
X118244000Y-86506000D01*
X118244000Y-84404000D01*
X119246000Y-84404000D01*
X119246000Y-86506000D01*
X119246000Y-86506000D01*
G37*
G36*
X124326000Y-86506000D02*
X123324000Y-86506000D01*
X123324000Y-84404000D01*
X124326000Y-84404000D01*
X124326000Y-86506000D01*
X124326000Y-86506000D01*
G37*
G36*
X121786000Y-86506000D02*
X120784000Y-86506000D01*
X120784000Y-84404000D01*
X121786000Y-84404000D01*
X121786000Y-86506000D01*
X121786000Y-86506000D01*
G37*
G36*
X123056000Y-86506000D02*
X122054000Y-86506000D01*
X122054000Y-84404000D01*
X123056000Y-84404000D01*
X123056000Y-86506000D01*
X123056000Y-86506000D01*
G37*
G36*
X110661000Y-84956000D02*
X108559000Y-84956000D01*
X108559000Y-83954000D01*
X110661000Y-83954000D01*
X110661000Y-84956000D01*
X110661000Y-84956000D01*
G37*
G36*
X127661000Y-84956000D02*
X125559000Y-84956000D01*
X125559000Y-83954000D01*
X127661000Y-83954000D01*
X127661000Y-84956000D01*
X127661000Y-84956000D01*
G37*
G36*
X146216821Y-82981313D02*
X146216824Y-82981314D01*
X146216825Y-82981314D01*
X146377239Y-83029975D01*
X146377241Y-83029976D01*
X146377244Y-83029977D01*
X146525078Y-83108995D01*
X146654659Y-83215341D01*
X146761005Y-83344922D01*
X146840023Y-83492756D01*
X146840024Y-83492759D01*
X146840025Y-83492761D01*
X146866412Y-83579747D01*
X146888687Y-83653179D01*
X146905117Y-83820000D01*
X146888687Y-83986821D01*
X146840023Y-84147244D01*
X146761005Y-84295078D01*
X146654659Y-84424659D01*
X146525078Y-84531005D01*
X146377244Y-84610023D01*
X146377241Y-84610024D01*
X146377239Y-84610025D01*
X146216825Y-84658686D01*
X146216824Y-84658686D01*
X146216821Y-84658687D01*
X146091804Y-84671000D01*
X146008196Y-84671000D01*
X145883179Y-84658687D01*
X145883176Y-84658686D01*
X145883175Y-84658686D01*
X145722761Y-84610025D01*
X145722759Y-84610024D01*
X145722756Y-84610023D01*
X145574922Y-84531005D01*
X145445341Y-84424659D01*
X145338995Y-84295078D01*
X145259977Y-84147244D01*
X145211313Y-83986821D01*
X145194883Y-83820000D01*
X145211313Y-83653179D01*
X145233588Y-83579747D01*
X145259975Y-83492761D01*
X145259976Y-83492759D01*
X145259977Y-83492756D01*
X145338995Y-83344922D01*
X145445341Y-83215341D01*
X145574922Y-83108995D01*
X145722756Y-83029977D01*
X145722759Y-83029976D01*
X145722761Y-83029975D01*
X145883175Y-82981314D01*
X145883176Y-82981314D01*
X145883179Y-82981313D01*
X146008196Y-82969000D01*
X146091804Y-82969000D01*
X146216821Y-82981313D01*
X146216821Y-82981313D01*
G37*
G36*
X153836821Y-82981313D02*
X153836824Y-82981314D01*
X153836825Y-82981314D01*
X153997239Y-83029975D01*
X153997241Y-83029976D01*
X153997244Y-83029977D01*
X154145078Y-83108995D01*
X154274659Y-83215341D01*
X154381005Y-83344922D01*
X154460023Y-83492756D01*
X154460024Y-83492759D01*
X154460025Y-83492761D01*
X154486412Y-83579747D01*
X154508687Y-83653179D01*
X154525117Y-83820000D01*
X154508687Y-83986821D01*
X154460023Y-84147244D01*
X154381005Y-84295078D01*
X154274659Y-84424659D01*
X154145078Y-84531005D01*
X153997244Y-84610023D01*
X153997241Y-84610024D01*
X153997239Y-84610025D01*
X153836825Y-84658686D01*
X153836824Y-84658686D01*
X153836821Y-84658687D01*
X153711804Y-84671000D01*
X153628196Y-84671000D01*
X153503179Y-84658687D01*
X153503176Y-84658686D01*
X153503175Y-84658686D01*
X153342761Y-84610025D01*
X153342759Y-84610024D01*
X153342756Y-84610023D01*
X153194922Y-84531005D01*
X153065341Y-84424659D01*
X152958995Y-84295078D01*
X152879977Y-84147244D01*
X152831313Y-83986821D01*
X152814883Y-83820000D01*
X152831313Y-83653179D01*
X152853588Y-83579747D01*
X152879975Y-83492761D01*
X152879976Y-83492759D01*
X152879977Y-83492756D01*
X152958995Y-83344922D01*
X153065341Y-83215341D01*
X153194922Y-83108995D01*
X153342756Y-83029977D01*
X153342759Y-83029976D01*
X153342761Y-83029975D01*
X153503175Y-82981314D01*
X153503176Y-82981314D01*
X153503179Y-82981313D01*
X153628196Y-82969000D01*
X153711804Y-82969000D01*
X153836821Y-82981313D01*
X153836821Y-82981313D01*
G37*
G36*
X188417112Y-81674021D02*
X188519072Y-81684063D01*
X188649891Y-81723747D01*
X188715302Y-81743589D01*
X188896148Y-81840254D01*
X189054659Y-81970341D01*
X189184746Y-82128852D01*
X189281411Y-82309698D01*
X189281411Y-82309699D01*
X189340937Y-82505928D01*
X189361036Y-82710000D01*
X189340937Y-82914072D01*
X189320634Y-82981000D01*
X189281411Y-83110302D01*
X189184746Y-83291148D01*
X189054659Y-83449659D01*
X188896148Y-83579746D01*
X188715302Y-83676411D01*
X188683691Y-83686000D01*
X188519072Y-83735937D01*
X188417112Y-83745979D01*
X188366133Y-83751000D01*
X186283867Y-83751000D01*
X186232888Y-83745979D01*
X186130928Y-83735937D01*
X185966309Y-83686000D01*
X185934698Y-83676411D01*
X185753852Y-83579746D01*
X185595341Y-83449659D01*
X185465254Y-83291148D01*
X185368589Y-83110302D01*
X185329366Y-82981000D01*
X185309063Y-82914072D01*
X185288964Y-82710000D01*
X185309063Y-82505928D01*
X185368589Y-82309699D01*
X185368589Y-82309698D01*
X185465254Y-82128852D01*
X185595341Y-81970341D01*
X185753852Y-81840254D01*
X185934698Y-81743589D01*
X186000109Y-81723747D01*
X186130928Y-81684063D01*
X186232888Y-81674021D01*
X186283867Y-81669000D01*
X188366133Y-81669000D01*
X188417112Y-81674021D01*
X188417112Y-81674021D01*
G37*
G36*
X110661000Y-83686000D02*
X108559000Y-83686000D01*
X108559000Y-82684000D01*
X110661000Y-82684000D01*
X110661000Y-83686000D01*
X110661000Y-83686000D01*
G37*
G36*
X127661000Y-83686000D02*
X125559000Y-83686000D01*
X125559000Y-82684000D01*
X127661000Y-82684000D01*
X127661000Y-83686000D01*
X127661000Y-83686000D01*
G37*
G36*
X175842527Y-80118736D02*
X175942410Y-80138604D01*
X176224674Y-80255521D01*
X176478705Y-80425259D01*
X176694741Y-80641295D01*
X176864479Y-80895326D01*
X176954716Y-81113179D01*
X176981396Y-81177591D01*
X177041000Y-81477238D01*
X177041000Y-81782762D01*
X177035952Y-81808139D01*
X176981396Y-82082410D01*
X176864479Y-82364674D01*
X176694741Y-82618705D01*
X176478705Y-82834741D01*
X176224674Y-83004479D01*
X175942410Y-83121396D01*
X175842527Y-83141264D01*
X175642762Y-83181000D01*
X175337238Y-83181000D01*
X175137473Y-83141264D01*
X175037590Y-83121396D01*
X174755326Y-83004479D01*
X174501295Y-82834741D01*
X174285259Y-82618705D01*
X174115521Y-82364674D01*
X173998604Y-82082410D01*
X173944048Y-81808139D01*
X173939000Y-81782762D01*
X173939000Y-81477238D01*
X173998604Y-81177591D01*
X174025284Y-81113179D01*
X174115521Y-80895326D01*
X174285259Y-80641295D01*
X174501295Y-80425259D01*
X174755326Y-80255521D01*
X175037590Y-80138604D01*
X175137473Y-80118736D01*
X175337238Y-80079000D01*
X175642762Y-80079000D01*
X175842527Y-80118736D01*
X175842527Y-80118736D01*
G37*
G36*
X163619485Y-80428996D02*
X163619487Y-80428997D01*
X163619488Y-80428997D01*
X163725868Y-80473061D01*
X163856255Y-80527069D01*
X164069342Y-80669449D01*
X164250551Y-80850658D01*
X164282159Y-80897963D01*
X164392931Y-81063745D01*
X164482507Y-81280000D01*
X164491004Y-81300515D01*
X164541000Y-81551861D01*
X164541000Y-81808139D01*
X164494756Y-82040624D01*
X164491003Y-82059488D01*
X164438762Y-82185608D01*
X164392931Y-82296255D01*
X164250551Y-82509342D01*
X164069342Y-82690551D01*
X164069339Y-82690553D01*
X163856255Y-82832931D01*
X163619488Y-82931003D01*
X163619487Y-82931003D01*
X163619485Y-82931004D01*
X163368139Y-82981000D01*
X163111861Y-82981000D01*
X162860515Y-82931004D01*
X162860513Y-82931003D01*
X162860512Y-82931003D01*
X162623745Y-82832931D01*
X162410661Y-82690553D01*
X162410658Y-82690551D01*
X162229449Y-82509342D01*
X162087069Y-82296255D01*
X162041238Y-82185608D01*
X161988997Y-82059488D01*
X161985245Y-82040624D01*
X161939000Y-81808139D01*
X161939000Y-81551861D01*
X161988996Y-81300515D01*
X161997494Y-81280000D01*
X162087069Y-81063745D01*
X162197841Y-80897963D01*
X162229449Y-80850658D01*
X162410658Y-80669449D01*
X162623745Y-80527069D01*
X162754132Y-80473061D01*
X162860512Y-80428997D01*
X162860513Y-80428997D01*
X162860515Y-80428996D01*
X163111861Y-80379000D01*
X163368139Y-80379000D01*
X163619485Y-80428996D01*
X163619485Y-80428996D01*
G37*
G36*
X127661000Y-82416000D02*
X125559000Y-82416000D01*
X125559000Y-81414000D01*
X127661000Y-81414000D01*
X127661000Y-82416000D01*
X127661000Y-82416000D01*
G37*
G36*
X110661000Y-82416000D02*
X108559000Y-82416000D01*
X108559000Y-81414000D01*
X110661000Y-81414000D01*
X110661000Y-82416000D01*
X110661000Y-82416000D01*
G37*
G36*
X142758604Y-80358347D02*
X142795145Y-80369432D01*
X142828820Y-80387431D01*
X142858341Y-80411659D01*
X142882569Y-80441180D01*
X142900568Y-80474855D01*
X142911653Y-80511396D01*
X142916000Y-80555538D01*
X142916000Y-82004462D01*
X142911653Y-82048604D01*
X142900568Y-82085145D01*
X142882569Y-82118820D01*
X142858341Y-82148341D01*
X142828820Y-82172569D01*
X142795145Y-82190568D01*
X142758604Y-82201653D01*
X142714462Y-82206000D01*
X141765538Y-82206000D01*
X141721396Y-82201653D01*
X141684855Y-82190568D01*
X141651180Y-82172569D01*
X141621659Y-82148341D01*
X141597431Y-82118820D01*
X141579432Y-82085145D01*
X141568347Y-82048604D01*
X141564000Y-82004462D01*
X141564000Y-80555538D01*
X141568347Y-80511396D01*
X141579432Y-80474855D01*
X141597431Y-80441180D01*
X141621659Y-80411659D01*
X141651180Y-80387431D01*
X141684855Y-80369432D01*
X141721396Y-80358347D01*
X141765538Y-80354000D01*
X142714462Y-80354000D01*
X142758604Y-80358347D01*
X142758604Y-80358347D01*
G37*
G36*
X105188062Y-80358181D02*
X105222977Y-80368773D01*
X105255165Y-80385978D01*
X105283373Y-80409127D01*
X105306522Y-80437335D01*
X105323727Y-80469523D01*
X105334319Y-80504438D01*
X105338500Y-80546895D01*
X105338500Y-82013105D01*
X105334319Y-82055562D01*
X105323727Y-82090477D01*
X105306522Y-82122665D01*
X105283373Y-82150873D01*
X105255165Y-82174022D01*
X105222977Y-82191227D01*
X105188062Y-82201819D01*
X105145605Y-82206000D01*
X104004395Y-82206000D01*
X103961938Y-82201819D01*
X103927023Y-82191227D01*
X103894835Y-82174022D01*
X103866627Y-82150873D01*
X103843478Y-82122665D01*
X103826273Y-82090477D01*
X103815681Y-82055562D01*
X103811500Y-82013105D01*
X103811500Y-80546895D01*
X103815681Y-80504438D01*
X103826273Y-80469523D01*
X103843478Y-80437335D01*
X103866627Y-80409127D01*
X103894835Y-80385978D01*
X103927023Y-80368773D01*
X103961938Y-80358181D01*
X104004395Y-80354000D01*
X105145605Y-80354000D01*
X105188062Y-80358181D01*
X105188062Y-80358181D01*
G37*
G36*
X139958604Y-80358347D02*
X139995145Y-80369432D01*
X140028820Y-80387431D01*
X140058341Y-80411659D01*
X140082569Y-80441180D01*
X140100568Y-80474855D01*
X140111653Y-80511396D01*
X140116000Y-80555538D01*
X140116000Y-82004462D01*
X140111653Y-82048604D01*
X140100568Y-82085145D01*
X140082569Y-82118820D01*
X140058341Y-82148341D01*
X140028820Y-82172569D01*
X139995145Y-82190568D01*
X139958604Y-82201653D01*
X139914462Y-82206000D01*
X138965538Y-82206000D01*
X138921396Y-82201653D01*
X138884855Y-82190568D01*
X138851180Y-82172569D01*
X138821659Y-82148341D01*
X138797431Y-82118820D01*
X138779432Y-82085145D01*
X138768347Y-82048604D01*
X138764000Y-82004462D01*
X138764000Y-80555538D01*
X138768347Y-80511396D01*
X138779432Y-80474855D01*
X138797431Y-80441180D01*
X138821659Y-80411659D01*
X138851180Y-80387431D01*
X138884855Y-80369432D01*
X138921396Y-80358347D01*
X138965538Y-80354000D01*
X139914462Y-80354000D01*
X139958604Y-80358347D01*
X139958604Y-80358347D01*
G37*
G36*
X102213062Y-80358181D02*
X102247977Y-80368773D01*
X102280165Y-80385978D01*
X102308373Y-80409127D01*
X102331522Y-80437335D01*
X102348727Y-80469523D01*
X102359319Y-80504438D01*
X102363500Y-80546895D01*
X102363500Y-82013105D01*
X102359319Y-82055562D01*
X102348727Y-82090477D01*
X102331522Y-82122665D01*
X102308373Y-82150873D01*
X102280165Y-82174022D01*
X102247977Y-82191227D01*
X102213062Y-82201819D01*
X102170605Y-82206000D01*
X101029395Y-82206000D01*
X100986938Y-82201819D01*
X100952023Y-82191227D01*
X100919835Y-82174022D01*
X100891627Y-82150873D01*
X100868478Y-82122665D01*
X100851273Y-82090477D01*
X100840681Y-82055562D01*
X100836500Y-82013105D01*
X100836500Y-80546895D01*
X100840681Y-80504438D01*
X100851273Y-80469523D01*
X100868478Y-80437335D01*
X100891627Y-80409127D01*
X100919835Y-80385978D01*
X100952023Y-80368773D01*
X100986938Y-80358181D01*
X101029395Y-80354000D01*
X102170605Y-80354000D01*
X102213062Y-80358181D01*
X102213062Y-80358181D01*
G37*
G36*
X153836821Y-80441313D02*
X153836824Y-80441314D01*
X153836825Y-80441314D01*
X153997239Y-80489975D01*
X153997241Y-80489976D01*
X153997244Y-80489977D01*
X154145078Y-80568995D01*
X154274659Y-80675341D01*
X154381005Y-80804922D01*
X154460023Y-80952756D01*
X154460024Y-80952759D01*
X154460025Y-80952761D01*
X154508686Y-81113175D01*
X154508687Y-81113179D01*
X154525117Y-81280000D01*
X154508687Y-81446821D01*
X154508686Y-81446824D01*
X154508686Y-81446825D01*
X154476824Y-81551861D01*
X154460023Y-81607244D01*
X154381005Y-81755078D01*
X154274659Y-81884659D01*
X154145078Y-81991005D01*
X153997244Y-82070023D01*
X153997241Y-82070024D01*
X153997239Y-82070025D01*
X153836825Y-82118686D01*
X153836824Y-82118686D01*
X153836821Y-82118687D01*
X153711804Y-82131000D01*
X153628196Y-82131000D01*
X153503179Y-82118687D01*
X153503176Y-82118686D01*
X153503175Y-82118686D01*
X153342761Y-82070025D01*
X153342759Y-82070024D01*
X153342756Y-82070023D01*
X153194922Y-81991005D01*
X153065341Y-81884659D01*
X152958995Y-81755078D01*
X152879977Y-81607244D01*
X152863177Y-81551861D01*
X152831314Y-81446825D01*
X152831314Y-81446824D01*
X152831313Y-81446821D01*
X152814883Y-81280000D01*
X152831313Y-81113179D01*
X152831314Y-81113175D01*
X152879975Y-80952761D01*
X152879976Y-80952759D01*
X152879977Y-80952756D01*
X152958995Y-80804922D01*
X153065341Y-80675341D01*
X153194922Y-80568995D01*
X153342756Y-80489977D01*
X153342759Y-80489976D01*
X153342761Y-80489975D01*
X153503175Y-80441314D01*
X153503176Y-80441314D01*
X153503179Y-80441313D01*
X153628196Y-80429000D01*
X153711804Y-80429000D01*
X153836821Y-80441313D01*
X153836821Y-80441313D01*
G37*
G36*
X146901000Y-82131000D02*
X145199000Y-82131000D01*
X145199000Y-80429000D01*
X146901000Y-80429000D01*
X146901000Y-82131000D01*
X146901000Y-82131000D01*
G37*
G36*
X127661000Y-81146000D02*
X125559000Y-81146000D01*
X125559000Y-80144000D01*
X127661000Y-80144000D01*
X127661000Y-81146000D01*
X127661000Y-81146000D01*
G37*
G36*
X110661000Y-81146000D02*
X108559000Y-81146000D01*
X108559000Y-80144000D01*
X110661000Y-80144000D01*
X110661000Y-81146000D01*
X110661000Y-81146000D01*
G37*
G36*
X136000443Y-79115519D02*
X136066627Y-79122037D01*
X136179853Y-79156384D01*
X136236467Y-79173557D01*
X136375087Y-79247652D01*
X136392991Y-79257222D01*
X136428729Y-79286552D01*
X136530186Y-79369814D01*
X136613448Y-79471271D01*
X136642778Y-79507009D01*
X136642779Y-79507011D01*
X136726443Y-79663533D01*
X136726443Y-79663534D01*
X136777963Y-79833373D01*
X136795359Y-80010000D01*
X136777963Y-80186627D01*
X136757064Y-80255521D01*
X136726443Y-80356467D01*
X136666012Y-80469523D01*
X136642778Y-80512991D01*
X136613448Y-80548729D01*
X136530186Y-80650186D01*
X136428729Y-80733448D01*
X136392991Y-80762778D01*
X136392989Y-80762779D01*
X136236467Y-80846443D01*
X136179853Y-80863616D01*
X136066627Y-80897963D01*
X136000442Y-80904482D01*
X135934260Y-80911000D01*
X135845740Y-80911000D01*
X135779558Y-80904482D01*
X135713373Y-80897963D01*
X135600147Y-80863616D01*
X135543533Y-80846443D01*
X135387011Y-80762779D01*
X135387009Y-80762778D01*
X135351271Y-80733448D01*
X135249814Y-80650186D01*
X135166552Y-80548729D01*
X135137222Y-80512991D01*
X135113988Y-80469523D01*
X135053557Y-80356467D01*
X135022936Y-80255521D01*
X135002037Y-80186627D01*
X134984641Y-80010000D01*
X135002037Y-79833373D01*
X135053557Y-79663534D01*
X135053557Y-79663533D01*
X135137221Y-79507011D01*
X135137222Y-79507009D01*
X135166552Y-79471271D01*
X135249814Y-79369814D01*
X135351271Y-79286552D01*
X135387009Y-79257222D01*
X135404913Y-79247652D01*
X135543533Y-79173557D01*
X135600147Y-79156384D01*
X135713373Y-79122037D01*
X135779557Y-79115519D01*
X135845740Y-79109000D01*
X135934260Y-79109000D01*
X136000443Y-79115519D01*
X136000443Y-79115519D01*
G37*
G36*
X127661000Y-79876000D02*
X125559000Y-79876000D01*
X125559000Y-78874000D01*
X127661000Y-78874000D01*
X127661000Y-79876000D01*
X127661000Y-79876000D01*
G37*
G36*
X110661000Y-79876000D02*
X108559000Y-79876000D01*
X108559000Y-78874000D01*
X110661000Y-78874000D01*
X110661000Y-79876000D01*
X110661000Y-79876000D01*
G37*
G36*
X175792527Y-75658736D02*
X175892410Y-75678604D01*
X176174674Y-75795521D01*
X176428705Y-75965259D01*
X176644741Y-76181295D01*
X176814479Y-76435326D01*
X176931396Y-76717590D01*
X176931396Y-76717591D01*
X176991000Y-77017238D01*
X176991000Y-77322762D01*
X176961712Y-77470000D01*
X176931396Y-77622410D01*
X176814479Y-77904674D01*
X176644741Y-78158705D01*
X176428705Y-78374741D01*
X176174674Y-78544479D01*
X175892410Y-78661396D01*
X175792527Y-78681264D01*
X175592762Y-78721000D01*
X175287238Y-78721000D01*
X175087473Y-78681264D01*
X174987590Y-78661396D01*
X174705326Y-78544479D01*
X174451295Y-78374741D01*
X174235259Y-78158705D01*
X174065521Y-77904674D01*
X173948604Y-77622410D01*
X173918288Y-77470000D01*
X173889000Y-77322762D01*
X173889000Y-77017238D01*
X173948604Y-76717591D01*
X173948604Y-76717590D01*
X174065521Y-76435326D01*
X174235259Y-76181295D01*
X174451295Y-75965259D01*
X174705326Y-75795521D01*
X174987590Y-75678604D01*
X175087473Y-75658736D01*
X175287238Y-75619000D01*
X175592762Y-75619000D01*
X175792527Y-75658736D01*
X175792527Y-75658736D01*
G37*
G36*
X110661000Y-78606000D02*
X108559000Y-78606000D01*
X108559000Y-77604000D01*
X110661000Y-77604000D01*
X110661000Y-78606000D01*
X110661000Y-78606000D01*
G37*
G36*
X127661000Y-78606000D02*
X125559000Y-78606000D01*
X125559000Y-77604000D01*
X127661000Y-77604000D01*
X127661000Y-78606000D01*
X127661000Y-78606000D01*
G37*
G36*
X163619485Y-75918996D02*
X163619487Y-75918997D01*
X163619488Y-75918997D01*
X163856255Y-76017069D01*
X164069342Y-76159449D01*
X164250551Y-76340658D01*
X164250553Y-76340661D01*
X164392931Y-76553745D01*
X164478212Y-76759631D01*
X164491004Y-76790515D01*
X164541000Y-77041861D01*
X164541000Y-77298139D01*
X164506815Y-77470000D01*
X164491003Y-77549488D01*
X164450767Y-77646627D01*
X164392931Y-77786255D01*
X164250551Y-77999342D01*
X164069342Y-78180551D01*
X164069339Y-78180553D01*
X163856255Y-78322931D01*
X163619488Y-78421003D01*
X163619487Y-78421003D01*
X163619485Y-78421004D01*
X163368139Y-78471000D01*
X163111861Y-78471000D01*
X162860515Y-78421004D01*
X162860513Y-78421003D01*
X162860512Y-78421003D01*
X162623745Y-78322931D01*
X162410661Y-78180553D01*
X162410658Y-78180551D01*
X162229449Y-77999342D01*
X162087069Y-77786255D01*
X162029233Y-77646627D01*
X161988997Y-77549488D01*
X161973186Y-77470000D01*
X161939000Y-77298139D01*
X161939000Y-77041861D01*
X161988996Y-76790515D01*
X162001789Y-76759631D01*
X162087069Y-76553745D01*
X162229447Y-76340661D01*
X162229449Y-76340658D01*
X162410658Y-76159449D01*
X162623745Y-76017069D01*
X162860512Y-75918997D01*
X162860513Y-75918997D01*
X162860515Y-75918996D01*
X163111861Y-75869000D01*
X163368139Y-75869000D01*
X163619485Y-75918996D01*
X163619485Y-75918996D01*
G37*
G36*
X102213062Y-76548181D02*
X102247977Y-76558773D01*
X102280165Y-76575978D01*
X102308373Y-76599127D01*
X102331522Y-76627335D01*
X102348727Y-76659523D01*
X102359319Y-76694438D01*
X102363500Y-76736895D01*
X102363500Y-78203105D01*
X102359319Y-78245562D01*
X102348727Y-78280477D01*
X102331522Y-78312665D01*
X102308373Y-78340873D01*
X102280165Y-78364022D01*
X102247977Y-78381227D01*
X102213062Y-78391819D01*
X102170605Y-78396000D01*
X101029395Y-78396000D01*
X100986938Y-78391819D01*
X100952023Y-78381227D01*
X100919835Y-78364022D01*
X100891627Y-78340873D01*
X100868478Y-78312665D01*
X100851273Y-78280477D01*
X100840681Y-78245562D01*
X100836500Y-78203105D01*
X100836500Y-76736895D01*
X100840681Y-76694438D01*
X100851273Y-76659523D01*
X100868478Y-76627335D01*
X100891627Y-76599127D01*
X100919835Y-76575978D01*
X100952023Y-76558773D01*
X100986938Y-76548181D01*
X101029395Y-76544000D01*
X102170605Y-76544000D01*
X102213062Y-76548181D01*
X102213062Y-76548181D01*
G37*
G36*
X105188062Y-76548181D02*
X105222977Y-76558773D01*
X105255165Y-76575978D01*
X105283373Y-76599127D01*
X105306522Y-76627335D01*
X105323727Y-76659523D01*
X105334319Y-76694438D01*
X105338500Y-76736895D01*
X105338500Y-78203105D01*
X105334319Y-78245562D01*
X105323727Y-78280477D01*
X105306522Y-78312665D01*
X105283373Y-78340873D01*
X105255165Y-78364022D01*
X105222977Y-78381227D01*
X105188062Y-78391819D01*
X105145605Y-78396000D01*
X104004395Y-78396000D01*
X103961938Y-78391819D01*
X103927023Y-78381227D01*
X103894835Y-78364022D01*
X103866627Y-78340873D01*
X103843478Y-78312665D01*
X103826273Y-78280477D01*
X103815681Y-78245562D01*
X103811500Y-78203105D01*
X103811500Y-76736895D01*
X103815681Y-76694438D01*
X103826273Y-76659523D01*
X103843478Y-76627335D01*
X103866627Y-76599127D01*
X103894835Y-76575978D01*
X103927023Y-76558773D01*
X103961938Y-76548181D01*
X104004395Y-76544000D01*
X105145605Y-76544000D01*
X105188062Y-76548181D01*
X105188062Y-76548181D01*
G37*
G36*
X136000443Y-76575519D02*
X136066627Y-76582037D01*
X136179853Y-76616384D01*
X136236467Y-76633557D01*
X136358900Y-76699000D01*
X136392991Y-76717222D01*
X136416962Y-76736895D01*
X136530186Y-76829814D01*
X136613448Y-76931271D01*
X136642778Y-76967009D01*
X136642779Y-76967011D01*
X136726443Y-77123533D01*
X136726443Y-77123534D01*
X136777963Y-77293373D01*
X136795359Y-77470000D01*
X136777963Y-77646627D01*
X136743616Y-77759853D01*
X136726443Y-77816467D01*
X136652348Y-77955087D01*
X136642778Y-77972991D01*
X136621152Y-77999342D01*
X136530186Y-78110186D01*
X136444442Y-78180553D01*
X136392991Y-78222778D01*
X136392989Y-78222779D01*
X136236467Y-78306443D01*
X136215955Y-78312665D01*
X136066627Y-78357963D01*
X136005108Y-78364022D01*
X135934260Y-78371000D01*
X135845740Y-78371000D01*
X135774892Y-78364022D01*
X135713373Y-78357963D01*
X135564045Y-78312665D01*
X135543533Y-78306443D01*
X135387011Y-78222779D01*
X135387009Y-78222778D01*
X135335558Y-78180553D01*
X135249814Y-78110186D01*
X135158848Y-77999342D01*
X135137222Y-77972991D01*
X135127652Y-77955087D01*
X135053557Y-77816467D01*
X135036384Y-77759853D01*
X135002037Y-77646627D01*
X134984641Y-77470000D01*
X135002037Y-77293373D01*
X135053557Y-77123534D01*
X135053557Y-77123533D01*
X135137221Y-76967011D01*
X135137222Y-76967009D01*
X135166552Y-76931271D01*
X135249814Y-76829814D01*
X135363038Y-76736895D01*
X135387009Y-76717222D01*
X135421100Y-76699000D01*
X135543533Y-76633557D01*
X135600147Y-76616384D01*
X135713373Y-76582037D01*
X135779557Y-76575519D01*
X135845740Y-76569000D01*
X135934260Y-76569000D01*
X136000443Y-76575519D01*
X136000443Y-76575519D01*
G37*
G36*
X119661000Y-77996000D02*
X114559000Y-77996000D01*
X114559000Y-72894000D01*
X119661000Y-72894000D01*
X119661000Y-77996000D01*
X119661000Y-77996000D01*
G37*
G36*
X150631000Y-77601000D02*
X149629000Y-77601000D01*
X149629000Y-76699000D01*
X150631000Y-76699000D01*
X150631000Y-77601000D01*
X150631000Y-77601000D01*
G37*
G36*
X127661000Y-77336000D02*
X125559000Y-77336000D01*
X125559000Y-76334000D01*
X127661000Y-76334000D01*
X127661000Y-77336000D01*
X127661000Y-77336000D01*
G37*
G36*
X110661000Y-77336000D02*
X108559000Y-77336000D01*
X108559000Y-76334000D01*
X110661000Y-76334000D01*
X110661000Y-77336000D01*
X110661000Y-77336000D01*
G37*
G36*
X189356000Y-77161000D02*
X185294000Y-77161000D01*
X185294000Y-75079000D01*
X189356000Y-75079000D01*
X189356000Y-77161000D01*
X189356000Y-77161000D01*
G37*
G36*
X152631000Y-76651000D02*
X151629000Y-76651000D01*
X151629000Y-75749000D01*
X152631000Y-75749000D01*
X152631000Y-76651000D01*
X152631000Y-76651000D01*
G37*
G36*
X127661000Y-76066000D02*
X125559000Y-76066000D01*
X125559000Y-75064000D01*
X127661000Y-75064000D01*
X127661000Y-76066000D01*
X127661000Y-76066000D01*
G37*
G36*
X110661000Y-76066000D02*
X108559000Y-76066000D01*
X108559000Y-75064000D01*
X110661000Y-75064000D01*
X110661000Y-76066000D01*
X110661000Y-76066000D01*
G37*
G36*
X136000442Y-74035518D02*
X136066627Y-74042037D01*
X136179853Y-74076384D01*
X136236467Y-74093557D01*
X136375087Y-74167652D01*
X136392991Y-74177222D01*
X136428729Y-74206552D01*
X136530186Y-74289814D01*
X136613448Y-74391271D01*
X136642778Y-74427009D01*
X136642779Y-74427011D01*
X136726443Y-74583533D01*
X136726443Y-74583534D01*
X136777963Y-74753373D01*
X136795359Y-74930000D01*
X136777963Y-75106627D01*
X136743616Y-75219853D01*
X136726443Y-75276467D01*
X136652348Y-75415087D01*
X136642778Y-75432991D01*
X136613448Y-75468729D01*
X136530186Y-75570186D01*
X136428729Y-75653448D01*
X136392991Y-75682778D01*
X136392989Y-75682779D01*
X136236467Y-75766443D01*
X136179853Y-75783616D01*
X136066627Y-75817963D01*
X136000442Y-75824482D01*
X135934260Y-75831000D01*
X135845740Y-75831000D01*
X135779558Y-75824482D01*
X135713373Y-75817963D01*
X135600147Y-75783616D01*
X135543533Y-75766443D01*
X135387011Y-75682779D01*
X135387009Y-75682778D01*
X135351271Y-75653448D01*
X135249814Y-75570186D01*
X135166552Y-75468729D01*
X135137222Y-75432991D01*
X135127652Y-75415087D01*
X135053557Y-75276467D01*
X135036384Y-75219853D01*
X135002037Y-75106627D01*
X134984641Y-74930000D01*
X135002037Y-74753373D01*
X135053557Y-74583534D01*
X135053557Y-74583533D01*
X135137221Y-74427011D01*
X135137222Y-74427009D01*
X135166552Y-74391271D01*
X135249814Y-74289814D01*
X135351271Y-74206552D01*
X135387009Y-74177222D01*
X135404913Y-74167652D01*
X135543533Y-74093557D01*
X135600147Y-74076384D01*
X135713373Y-74042037D01*
X135779558Y-74035518D01*
X135845740Y-74029000D01*
X135934260Y-74029000D01*
X136000442Y-74035518D01*
X136000442Y-74035518D01*
G37*
G36*
X90461000Y-75806000D02*
X84799000Y-75806000D01*
X84799000Y-73104000D01*
X90461000Y-73104000D01*
X90461000Y-75806000D01*
X90461000Y-75806000D01*
G37*
G36*
X150631000Y-75701000D02*
X149629000Y-75701000D01*
X149629000Y-74799000D01*
X150631000Y-74799000D01*
X150631000Y-75701000D01*
X150631000Y-75701000D01*
G37*
G36*
X127661000Y-74796000D02*
X125559000Y-74796000D01*
X125559000Y-73794000D01*
X127661000Y-73794000D01*
X127661000Y-74796000D01*
X127661000Y-74796000D01*
G37*
G36*
X110661000Y-74796000D02*
X108559000Y-74796000D01*
X108559000Y-73794000D01*
X110661000Y-73794000D01*
X110661000Y-74796000D01*
X110661000Y-74796000D01*
G37*
G36*
X96961000Y-74221000D02*
X94859000Y-74221000D01*
X94859000Y-72619000D01*
X96961000Y-72619000D01*
X96961000Y-74221000D01*
X96961000Y-74221000D01*
G37*
G36*
X127661000Y-73526000D02*
X125559000Y-73526000D01*
X125559000Y-72524000D01*
X127661000Y-72524000D01*
X127661000Y-73526000D01*
X127661000Y-73526000D01*
G37*
G36*
X110661000Y-73526000D02*
X108559000Y-73526000D01*
X108559000Y-72524000D01*
X110661000Y-72524000D01*
X110661000Y-73526000D01*
X110661000Y-73526000D01*
G37*
G36*
X150118604Y-71468347D02*
X150155145Y-71479432D01*
X150188820Y-71497431D01*
X150218341Y-71521659D01*
X150242569Y-71551180D01*
X150260568Y-71584855D01*
X150271653Y-71621396D01*
X150276000Y-71665538D01*
X150276000Y-73114462D01*
X150271653Y-73158604D01*
X150260568Y-73195145D01*
X150242569Y-73228820D01*
X150218341Y-73258341D01*
X150188820Y-73282569D01*
X150155145Y-73300568D01*
X150118604Y-73311653D01*
X150074462Y-73316000D01*
X149125538Y-73316000D01*
X149081396Y-73311653D01*
X149044855Y-73300568D01*
X149011180Y-73282569D01*
X148981659Y-73258341D01*
X148957431Y-73228820D01*
X148939432Y-73195145D01*
X148928347Y-73158604D01*
X148924000Y-73114462D01*
X148924000Y-71665538D01*
X148928347Y-71621396D01*
X148939432Y-71584855D01*
X148957431Y-71551180D01*
X148981659Y-71521659D01*
X149011180Y-71497431D01*
X149044855Y-71479432D01*
X149081396Y-71468347D01*
X149125538Y-71464000D01*
X150074462Y-71464000D01*
X150118604Y-71468347D01*
X150118604Y-71468347D01*
G37*
G36*
X152918604Y-71468347D02*
X152955145Y-71479432D01*
X152988820Y-71497431D01*
X153018341Y-71521659D01*
X153042569Y-71551180D01*
X153060568Y-71584855D01*
X153071653Y-71621396D01*
X153076000Y-71665538D01*
X153076000Y-73114462D01*
X153071653Y-73158604D01*
X153060568Y-73195145D01*
X153042569Y-73228820D01*
X153018341Y-73258341D01*
X152988820Y-73282569D01*
X152955145Y-73300568D01*
X152918604Y-73311653D01*
X152874462Y-73316000D01*
X151925538Y-73316000D01*
X151881396Y-73311653D01*
X151844855Y-73300568D01*
X151811180Y-73282569D01*
X151781659Y-73258341D01*
X151757431Y-73228820D01*
X151739432Y-73195145D01*
X151728347Y-73158604D01*
X151724000Y-73114462D01*
X151724000Y-71665538D01*
X151728347Y-71621396D01*
X151739432Y-71584855D01*
X151757431Y-71551180D01*
X151781659Y-71521659D01*
X151811180Y-71497431D01*
X151844855Y-71479432D01*
X151881396Y-71468347D01*
X151925538Y-71464000D01*
X152874462Y-71464000D01*
X152918604Y-71468347D01*
X152918604Y-71468347D01*
G37*
G36*
X136791000Y-73291000D02*
X134989000Y-73291000D01*
X134989000Y-71489000D01*
X136791000Y-71489000D01*
X136791000Y-73291000D01*
X136791000Y-73291000D01*
G37*
G36*
X103261000Y-73071000D02*
X101159000Y-73071000D01*
X101159000Y-69169000D01*
X103261000Y-69169000D01*
X103261000Y-73071000D01*
X103261000Y-73071000D01*
G37*
G36*
X161642527Y-69608736D02*
X161742410Y-69628604D01*
X162024674Y-69745521D01*
X162278705Y-69915259D01*
X162494741Y-70131295D01*
X162664479Y-70385326D01*
X162781396Y-70667590D01*
X162781396Y-70667591D01*
X162841000Y-70967238D01*
X162841000Y-71272762D01*
X162802960Y-71464000D01*
X162781396Y-71572410D01*
X162664479Y-71854674D01*
X162494741Y-72108705D01*
X162278705Y-72324741D01*
X162024674Y-72494479D01*
X161742410Y-72611396D01*
X161642527Y-72631264D01*
X161442762Y-72671000D01*
X161137238Y-72671000D01*
X160937473Y-72631264D01*
X160837590Y-72611396D01*
X160555326Y-72494479D01*
X160301295Y-72324741D01*
X160085259Y-72108705D01*
X159915521Y-71854674D01*
X159798604Y-71572410D01*
X159777040Y-71464000D01*
X159739000Y-71272762D01*
X159739000Y-70967238D01*
X159798604Y-70667591D01*
X159798604Y-70667590D01*
X159915521Y-70385326D01*
X160085259Y-70131295D01*
X160301295Y-69915259D01*
X160555326Y-69745521D01*
X160837590Y-69628604D01*
X160937473Y-69608736D01*
X161137238Y-69569000D01*
X161442762Y-69569000D01*
X161642527Y-69608736D01*
X161642527Y-69608736D01*
G37*
G36*
X127661000Y-72256000D02*
X125559000Y-72256000D01*
X125559000Y-71254000D01*
X127661000Y-71254000D01*
X127661000Y-72256000D01*
X127661000Y-72256000D01*
G37*
G36*
X110661000Y-72256000D02*
X108559000Y-72256000D01*
X108559000Y-71254000D01*
X110661000Y-71254000D01*
X110661000Y-72256000D01*
X110661000Y-72256000D01*
G37*
G36*
X188417112Y-70084021D02*
X188519072Y-70094063D01*
X188641802Y-70131293D01*
X188715302Y-70153589D01*
X188896148Y-70250254D01*
X189054659Y-70380341D01*
X189184746Y-70538852D01*
X189281411Y-70719698D01*
X189281411Y-70719699D01*
X189340937Y-70915928D01*
X189361036Y-71120000D01*
X189340937Y-71324072D01*
X189301253Y-71454891D01*
X189281411Y-71520302D01*
X189184746Y-71701148D01*
X189054659Y-71859659D01*
X188896148Y-71989746D01*
X188715302Y-72086411D01*
X188649891Y-72106253D01*
X188519072Y-72145937D01*
X188417112Y-72155979D01*
X188366133Y-72161000D01*
X186283867Y-72161000D01*
X186232888Y-72155979D01*
X186130928Y-72145937D01*
X186000109Y-72106253D01*
X185934698Y-72086411D01*
X185753852Y-71989746D01*
X185595341Y-71859659D01*
X185465254Y-71701148D01*
X185368589Y-71520302D01*
X185348747Y-71454891D01*
X185309063Y-71324072D01*
X185288964Y-71120000D01*
X185309063Y-70915928D01*
X185368589Y-70719699D01*
X185368589Y-70719698D01*
X185465254Y-70538852D01*
X185595341Y-70380341D01*
X185753852Y-70250254D01*
X185934698Y-70153589D01*
X186008198Y-70131293D01*
X186130928Y-70094063D01*
X186232888Y-70084021D01*
X186283867Y-70079000D01*
X188366133Y-70079000D01*
X188417112Y-70084021D01*
X188417112Y-70084021D01*
G37*
G36*
X96961000Y-71921000D02*
X94859000Y-71921000D01*
X94859000Y-70319000D01*
X96961000Y-70319000D01*
X96961000Y-71921000D01*
X96961000Y-71921000D01*
G37*
G36*
X127661000Y-70986000D02*
X125559000Y-70986000D01*
X125559000Y-69984000D01*
X127661000Y-69984000D01*
X127661000Y-70986000D01*
X127661000Y-70986000D01*
G37*
G36*
X110661000Y-70986000D02*
X108559000Y-70986000D01*
X108559000Y-69984000D01*
X110661000Y-69984000D01*
X110661000Y-70986000D01*
X110661000Y-70986000D01*
G37*
G36*
X127661000Y-69716000D02*
X125559000Y-69716000D01*
X125559000Y-68714000D01*
X127661000Y-68714000D01*
X127661000Y-69716000D01*
X127661000Y-69716000D01*
G37*
G36*
X110661000Y-69716000D02*
X108559000Y-69716000D01*
X108559000Y-68714000D01*
X110661000Y-68714000D01*
X110661000Y-69716000D01*
X110661000Y-69716000D01*
G37*
G36*
X96961000Y-69621000D02*
X94859000Y-69621000D01*
X94859000Y-68019000D01*
X96961000Y-68019000D01*
X96961000Y-69621000D01*
X96961000Y-69621000D01*
G37*
G36*
X127661000Y-68446000D02*
X125559000Y-68446000D01*
X125559000Y-67444000D01*
X127661000Y-67444000D01*
X127661000Y-68446000D01*
X127661000Y-68446000D01*
G37*
G36*
X110661000Y-68446000D02*
X108559000Y-68446000D01*
X108559000Y-67444000D01*
X110661000Y-67444000D01*
X110661000Y-68446000D01*
X110661000Y-68446000D01*
G37*
G36*
X153836821Y-66471313D02*
X153836824Y-66471314D01*
X153836825Y-66471314D01*
X153997239Y-66519975D01*
X153997241Y-66519976D01*
X153997244Y-66519977D01*
X154145078Y-66598995D01*
X154274659Y-66705341D01*
X154381005Y-66834922D01*
X154460023Y-66982756D01*
X154460024Y-66982759D01*
X154460025Y-66982761D01*
X154462144Y-66989747D01*
X154508687Y-67143179D01*
X154525117Y-67310000D01*
X154508687Y-67476821D01*
X154460023Y-67637244D01*
X154381005Y-67785078D01*
X154274659Y-67914659D01*
X154145078Y-68021005D01*
X153997244Y-68100023D01*
X153997241Y-68100024D01*
X153997239Y-68100025D01*
X153836825Y-68148686D01*
X153836824Y-68148686D01*
X153836821Y-68148687D01*
X153711804Y-68161000D01*
X153628196Y-68161000D01*
X153503179Y-68148687D01*
X153503176Y-68148686D01*
X153503175Y-68148686D01*
X153342761Y-68100025D01*
X153342759Y-68100024D01*
X153342756Y-68100023D01*
X153194922Y-68021005D01*
X153065341Y-67914659D01*
X152958995Y-67785078D01*
X152879977Y-67637244D01*
X152831313Y-67476821D01*
X152814883Y-67310000D01*
X152831313Y-67143179D01*
X152877856Y-66989747D01*
X152879975Y-66982761D01*
X152879976Y-66982759D01*
X152879977Y-66982756D01*
X152958995Y-66834922D01*
X153065341Y-66705341D01*
X153194922Y-66598995D01*
X153342756Y-66519977D01*
X153342759Y-66519976D01*
X153342761Y-66519975D01*
X153503175Y-66471314D01*
X153503176Y-66471314D01*
X153503179Y-66471313D01*
X153628196Y-66459000D01*
X153711804Y-66459000D01*
X153836821Y-66471313D01*
X153836821Y-66471313D01*
G37*
G36*
X146216821Y-66471313D02*
X146216824Y-66471314D01*
X146216825Y-66471314D01*
X146377239Y-66519975D01*
X146377241Y-66519976D01*
X146377244Y-66519977D01*
X146525078Y-66598995D01*
X146654659Y-66705341D01*
X146761005Y-66834922D01*
X146840023Y-66982756D01*
X146840024Y-66982759D01*
X146840025Y-66982761D01*
X146842144Y-66989747D01*
X146888687Y-67143179D01*
X146905117Y-67310000D01*
X146888687Y-67476821D01*
X146840023Y-67637244D01*
X146761005Y-67785078D01*
X146654659Y-67914659D01*
X146525078Y-68021005D01*
X146377244Y-68100023D01*
X146377241Y-68100024D01*
X146377239Y-68100025D01*
X146216825Y-68148686D01*
X146216824Y-68148686D01*
X146216821Y-68148687D01*
X146091804Y-68161000D01*
X146008196Y-68161000D01*
X145883179Y-68148687D01*
X145883176Y-68148686D01*
X145883175Y-68148686D01*
X145722761Y-68100025D01*
X145722759Y-68100024D01*
X145722756Y-68100023D01*
X145574922Y-68021005D01*
X145445341Y-67914659D01*
X145338995Y-67785078D01*
X145259977Y-67637244D01*
X145211313Y-67476821D01*
X145194883Y-67310000D01*
X145211313Y-67143179D01*
X145257856Y-66989747D01*
X145259975Y-66982761D01*
X145259976Y-66982759D01*
X145259977Y-66982756D01*
X145338995Y-66834922D01*
X145445341Y-66705341D01*
X145574922Y-66598995D01*
X145722756Y-66519977D01*
X145722759Y-66519976D01*
X145722761Y-66519975D01*
X145883175Y-66471314D01*
X145883176Y-66471314D01*
X145883179Y-66471313D01*
X146008196Y-66459000D01*
X146091804Y-66459000D01*
X146216821Y-66471313D01*
X146216821Y-66471313D01*
G37*
G36*
X188417112Y-65084021D02*
X188519072Y-65094063D01*
X188649891Y-65133747D01*
X188715302Y-65153589D01*
X188896148Y-65250254D01*
X189054659Y-65380341D01*
X189184746Y-65538852D01*
X189281411Y-65719698D01*
X189281411Y-65719699D01*
X189340937Y-65915928D01*
X189361036Y-66120000D01*
X189340937Y-66324072D01*
X189311533Y-66421003D01*
X189281411Y-66520302D01*
X189184746Y-66701148D01*
X189054659Y-66859659D01*
X188896148Y-66989746D01*
X188715302Y-67086411D01*
X188649891Y-67106253D01*
X188519072Y-67145937D01*
X188417112Y-67155979D01*
X188366133Y-67161000D01*
X186283867Y-67161000D01*
X186232888Y-67155979D01*
X186130928Y-67145937D01*
X186000109Y-67106253D01*
X185934698Y-67086411D01*
X185753852Y-66989746D01*
X185595341Y-66859659D01*
X185465254Y-66701148D01*
X185368589Y-66520302D01*
X185338467Y-66421003D01*
X185309063Y-66324072D01*
X185288964Y-66120000D01*
X185309063Y-65915928D01*
X185368589Y-65719699D01*
X185368589Y-65719698D01*
X185465254Y-65538852D01*
X185595341Y-65380341D01*
X185753852Y-65250254D01*
X185934698Y-65153589D01*
X186000109Y-65133747D01*
X186130928Y-65094063D01*
X186232888Y-65084021D01*
X186283867Y-65079000D01*
X188366133Y-65079000D01*
X188417112Y-65084021D01*
X188417112Y-65084021D01*
G37*
G36*
X175842527Y-63608736D02*
X175942410Y-63628604D01*
X176224674Y-63745521D01*
X176478705Y-63915259D01*
X176694741Y-64131295D01*
X176864479Y-64385326D01*
X176954716Y-64603179D01*
X176981396Y-64667591D01*
X177041000Y-64967238D01*
X177041000Y-65272762D01*
X177035952Y-65298139D01*
X176981396Y-65572410D01*
X176864479Y-65854674D01*
X176694741Y-66108705D01*
X176478705Y-66324741D01*
X176224674Y-66494479D01*
X175942410Y-66611396D01*
X175842527Y-66631264D01*
X175642762Y-66671000D01*
X175337238Y-66671000D01*
X175137473Y-66631264D01*
X175037590Y-66611396D01*
X174755326Y-66494479D01*
X174501295Y-66324741D01*
X174285259Y-66108705D01*
X174115521Y-65854674D01*
X173998604Y-65572410D01*
X173944048Y-65298139D01*
X173939000Y-65272762D01*
X173939000Y-64967238D01*
X173998604Y-64667591D01*
X174025284Y-64603179D01*
X174115521Y-64385326D01*
X174285259Y-64131295D01*
X174501295Y-63915259D01*
X174755326Y-63745521D01*
X175037590Y-63628604D01*
X175137473Y-63608736D01*
X175337238Y-63569000D01*
X175642762Y-63569000D01*
X175842527Y-63608736D01*
X175842527Y-63608736D01*
G37*
G36*
X163619485Y-63918996D02*
X163619487Y-63918997D01*
X163619488Y-63918997D01*
X163725868Y-63963061D01*
X163856255Y-64017069D01*
X164069342Y-64159449D01*
X164250551Y-64340658D01*
X164318771Y-64442756D01*
X164392931Y-64553745D01*
X164482507Y-64770000D01*
X164491004Y-64790515D01*
X164541000Y-65041861D01*
X164541000Y-65298139D01*
X164493119Y-65538854D01*
X164491003Y-65549488D01*
X164438762Y-65675608D01*
X164392931Y-65786255D01*
X164250551Y-65999342D01*
X164069342Y-66180551D01*
X164069339Y-66180553D01*
X163856255Y-66322931D01*
X163619488Y-66421003D01*
X163619487Y-66421003D01*
X163619485Y-66421004D01*
X163368139Y-66471000D01*
X163111861Y-66471000D01*
X162860515Y-66421004D01*
X162860513Y-66421003D01*
X162860512Y-66421003D01*
X162623745Y-66322931D01*
X162410661Y-66180553D01*
X162410658Y-66180551D01*
X162229449Y-65999342D01*
X162087069Y-65786255D01*
X162041238Y-65675608D01*
X161988997Y-65549488D01*
X161986882Y-65538854D01*
X161939000Y-65298139D01*
X161939000Y-65041861D01*
X161988996Y-64790515D01*
X161997494Y-64770000D01*
X162087069Y-64553745D01*
X162161229Y-64442756D01*
X162229449Y-64340658D01*
X162410658Y-64159449D01*
X162623745Y-64017069D01*
X162754132Y-63963061D01*
X162860512Y-63918997D01*
X162860513Y-63918997D01*
X162860515Y-63918996D01*
X163111861Y-63869000D01*
X163368139Y-63869000D01*
X163619485Y-63918996D01*
X163619485Y-63918996D01*
G37*
G36*
X139958604Y-63848347D02*
X139995145Y-63859432D01*
X140028820Y-63877431D01*
X140058341Y-63901659D01*
X140082569Y-63931180D01*
X140100568Y-63964855D01*
X140111653Y-64001396D01*
X140116000Y-64045538D01*
X140116000Y-65494462D01*
X140111653Y-65538604D01*
X140100568Y-65575145D01*
X140082569Y-65608820D01*
X140058341Y-65638341D01*
X140028820Y-65662569D01*
X139995145Y-65680568D01*
X139958604Y-65691653D01*
X139914462Y-65696000D01*
X138965538Y-65696000D01*
X138921396Y-65691653D01*
X138884855Y-65680568D01*
X138851180Y-65662569D01*
X138821659Y-65638341D01*
X138797431Y-65608820D01*
X138779432Y-65575145D01*
X138768347Y-65538604D01*
X138764000Y-65494462D01*
X138764000Y-64045538D01*
X138768347Y-64001396D01*
X138779432Y-63964855D01*
X138797431Y-63931180D01*
X138821659Y-63901659D01*
X138851180Y-63877431D01*
X138884855Y-63859432D01*
X138921396Y-63848347D01*
X138965538Y-63844000D01*
X139914462Y-63844000D01*
X139958604Y-63848347D01*
X139958604Y-63848347D01*
G37*
G36*
X142758604Y-63848347D02*
X142795145Y-63859432D01*
X142828820Y-63877431D01*
X142858341Y-63901659D01*
X142882569Y-63931180D01*
X142900568Y-63964855D01*
X142911653Y-64001396D01*
X142916000Y-64045538D01*
X142916000Y-65494462D01*
X142911653Y-65538604D01*
X142900568Y-65575145D01*
X142882569Y-65608820D01*
X142858341Y-65638341D01*
X142828820Y-65662569D01*
X142795145Y-65680568D01*
X142758604Y-65691653D01*
X142714462Y-65696000D01*
X141765538Y-65696000D01*
X141721396Y-65691653D01*
X141684855Y-65680568D01*
X141651180Y-65662569D01*
X141621659Y-65638341D01*
X141597431Y-65608820D01*
X141579432Y-65575145D01*
X141568347Y-65538604D01*
X141564000Y-65494462D01*
X141564000Y-64045538D01*
X141568347Y-64001396D01*
X141579432Y-63964855D01*
X141597431Y-63931180D01*
X141621659Y-63901659D01*
X141651180Y-63877431D01*
X141684855Y-63859432D01*
X141721396Y-63848347D01*
X141765538Y-63844000D01*
X142714462Y-63844000D01*
X142758604Y-63848347D01*
X142758604Y-63848347D01*
G37*
G36*
X97350562Y-63848181D02*
X97385477Y-63858773D01*
X97417665Y-63875978D01*
X97445873Y-63899127D01*
X97469022Y-63927335D01*
X97486227Y-63959523D01*
X97496819Y-63994438D01*
X97501000Y-64036895D01*
X97501000Y-65503105D01*
X97496819Y-65545562D01*
X97486227Y-65580477D01*
X97469022Y-65612665D01*
X97445873Y-65640873D01*
X97417665Y-65664022D01*
X97385477Y-65681227D01*
X97350562Y-65691819D01*
X97308105Y-65696000D01*
X96166895Y-65696000D01*
X96124438Y-65691819D01*
X96089523Y-65681227D01*
X96057335Y-65664022D01*
X96029127Y-65640873D01*
X96005978Y-65612665D01*
X95988773Y-65580477D01*
X95978181Y-65545562D01*
X95974000Y-65503105D01*
X95974000Y-64036895D01*
X95978181Y-63994438D01*
X95988773Y-63959523D01*
X96005978Y-63927335D01*
X96029127Y-63899127D01*
X96057335Y-63875978D01*
X96089523Y-63858773D01*
X96124438Y-63848181D01*
X96166895Y-63844000D01*
X97308105Y-63844000D01*
X97350562Y-63848181D01*
X97350562Y-63848181D01*
G37*
G36*
X94375562Y-63848181D02*
X94410477Y-63858773D01*
X94442665Y-63875978D01*
X94470873Y-63899127D01*
X94494022Y-63927335D01*
X94511227Y-63959523D01*
X94521819Y-63994438D01*
X94526000Y-64036895D01*
X94526000Y-65503105D01*
X94521819Y-65545562D01*
X94511227Y-65580477D01*
X94494022Y-65612665D01*
X94470873Y-65640873D01*
X94442665Y-65664022D01*
X94410477Y-65681227D01*
X94375562Y-65691819D01*
X94333105Y-65696000D01*
X93191895Y-65696000D01*
X93149438Y-65691819D01*
X93114523Y-65681227D01*
X93082335Y-65664022D01*
X93054127Y-65640873D01*
X93030978Y-65612665D01*
X93013773Y-65580477D01*
X93003181Y-65545562D01*
X92999000Y-65503105D01*
X92999000Y-64036895D01*
X93003181Y-63994438D01*
X93013773Y-63959523D01*
X93030978Y-63927335D01*
X93054127Y-63899127D01*
X93082335Y-63875978D01*
X93114523Y-63858773D01*
X93149438Y-63848181D01*
X93191895Y-63844000D01*
X94333105Y-63844000D01*
X94375562Y-63848181D01*
X94375562Y-63848181D01*
G37*
G36*
X153836821Y-63931313D02*
X153836824Y-63931314D01*
X153836825Y-63931314D01*
X153997239Y-63979975D01*
X153997241Y-63979976D01*
X153997244Y-63979977D01*
X154145078Y-64058995D01*
X154274659Y-64165341D01*
X154381005Y-64294922D01*
X154460023Y-64442756D01*
X154460024Y-64442759D01*
X154460025Y-64442761D01*
X154508686Y-64603175D01*
X154508687Y-64603179D01*
X154525117Y-64770000D01*
X154508687Y-64936821D01*
X154508686Y-64936824D01*
X154508686Y-64936825D01*
X154465558Y-65079000D01*
X154460023Y-65097244D01*
X154381005Y-65245078D01*
X154274659Y-65374659D01*
X154145078Y-65481005D01*
X153997244Y-65560023D01*
X153997241Y-65560024D01*
X153997239Y-65560025D01*
X153836825Y-65608686D01*
X153836824Y-65608686D01*
X153836821Y-65608687D01*
X153711804Y-65621000D01*
X153628196Y-65621000D01*
X153503179Y-65608687D01*
X153503176Y-65608686D01*
X153503175Y-65608686D01*
X153342761Y-65560025D01*
X153342759Y-65560024D01*
X153342756Y-65560023D01*
X153194922Y-65481005D01*
X153065341Y-65374659D01*
X152958995Y-65245078D01*
X152879977Y-65097244D01*
X152874443Y-65079000D01*
X152831314Y-64936825D01*
X152831314Y-64936824D01*
X152831313Y-64936821D01*
X152814883Y-64770000D01*
X152831313Y-64603179D01*
X152831314Y-64603175D01*
X152879975Y-64442761D01*
X152879976Y-64442759D01*
X152879977Y-64442756D01*
X152958995Y-64294922D01*
X153065341Y-64165341D01*
X153194922Y-64058995D01*
X153342756Y-63979977D01*
X153342759Y-63979976D01*
X153342761Y-63979975D01*
X153503175Y-63931314D01*
X153503176Y-63931314D01*
X153503179Y-63931313D01*
X153628196Y-63919000D01*
X153711804Y-63919000D01*
X153836821Y-63931313D01*
X153836821Y-63931313D01*
G37*
G36*
X146901000Y-65621000D02*
X145199000Y-65621000D01*
X145199000Y-63919000D01*
X146901000Y-63919000D01*
X146901000Y-65621000D01*
X146901000Y-65621000D01*
G37*
G36*
X175792527Y-59148736D02*
X175892410Y-59168604D01*
X176174674Y-59285521D01*
X176428705Y-59455259D01*
X176644741Y-59671295D01*
X176814479Y-59925326D01*
X176931396Y-60207590D01*
X176991000Y-60507240D01*
X176991000Y-60812760D01*
X176931396Y-61112410D01*
X176814479Y-61394674D01*
X176644741Y-61648705D01*
X176428705Y-61864741D01*
X176174674Y-62034479D01*
X175892410Y-62151396D01*
X175792527Y-62171264D01*
X175592762Y-62211000D01*
X175287238Y-62211000D01*
X175087473Y-62171264D01*
X174987590Y-62151396D01*
X174705326Y-62034479D01*
X174451295Y-61864741D01*
X174235259Y-61648705D01*
X174065521Y-61394674D01*
X173948604Y-61112410D01*
X173889000Y-60812760D01*
X173889000Y-60507240D01*
X173948604Y-60207590D01*
X174065521Y-59925326D01*
X174235259Y-59671295D01*
X174451295Y-59455259D01*
X174705326Y-59285521D01*
X174987590Y-59168604D01*
X175087473Y-59148736D01*
X175287238Y-59109000D01*
X175592762Y-59109000D01*
X175792527Y-59148736D01*
X175792527Y-59148736D01*
G37*
G36*
X163619485Y-59408996D02*
X163619487Y-59408997D01*
X163619488Y-59408997D01*
X163856255Y-59507069D01*
X164069342Y-59649449D01*
X164250551Y-59830658D01*
X164250553Y-59830661D01*
X164392931Y-60043745D01*
X164478212Y-60249631D01*
X164491004Y-60280515D01*
X164541000Y-60531861D01*
X164541000Y-60788139D01*
X164491004Y-61039485D01*
X164392931Y-61276255D01*
X164250551Y-61489342D01*
X164069342Y-61670551D01*
X164069339Y-61670553D01*
X163856255Y-61812931D01*
X163619488Y-61911003D01*
X163619487Y-61911003D01*
X163619485Y-61911004D01*
X163368139Y-61961000D01*
X163111861Y-61961000D01*
X162860515Y-61911004D01*
X162860513Y-61911003D01*
X162860512Y-61911003D01*
X162623745Y-61812931D01*
X162410661Y-61670553D01*
X162410658Y-61670551D01*
X162229449Y-61489342D01*
X162087069Y-61276255D01*
X161988996Y-61039485D01*
X161939000Y-60788139D01*
X161939000Y-60531861D01*
X161988996Y-60280515D01*
X162001789Y-60249631D01*
X162087069Y-60043745D01*
X162229447Y-59830661D01*
X162229449Y-59830658D01*
X162410658Y-59649449D01*
X162623745Y-59507069D01*
X162860512Y-59408997D01*
X162860513Y-59408997D01*
X162860515Y-59408996D01*
X163111861Y-59359000D01*
X163368139Y-59359000D01*
X163619485Y-59408996D01*
X163619485Y-59408996D01*
G37*
G36*
X94375562Y-60038181D02*
X94410477Y-60048773D01*
X94442665Y-60065978D01*
X94470873Y-60089127D01*
X94494022Y-60117335D01*
X94511227Y-60149523D01*
X94521819Y-60184438D01*
X94526000Y-60226895D01*
X94526000Y-61693105D01*
X94521819Y-61735562D01*
X94511227Y-61770477D01*
X94494022Y-61802665D01*
X94470873Y-61830873D01*
X94442665Y-61854022D01*
X94410477Y-61871227D01*
X94375562Y-61881819D01*
X94333105Y-61886000D01*
X93191895Y-61886000D01*
X93149438Y-61881819D01*
X93114523Y-61871227D01*
X93082335Y-61854022D01*
X93054127Y-61830873D01*
X93030978Y-61802665D01*
X93013773Y-61770477D01*
X93003181Y-61735562D01*
X92999000Y-61693105D01*
X92999000Y-60226895D01*
X93003181Y-60184438D01*
X93013773Y-60149523D01*
X93030978Y-60117335D01*
X93054127Y-60089127D01*
X93082335Y-60065978D01*
X93114523Y-60048773D01*
X93149438Y-60038181D01*
X93191895Y-60034000D01*
X94333105Y-60034000D01*
X94375562Y-60038181D01*
X94375562Y-60038181D01*
G37*
G36*
X97350562Y-60038181D02*
X97385477Y-60048773D01*
X97417665Y-60065978D01*
X97445873Y-60089127D01*
X97469022Y-60117335D01*
X97486227Y-60149523D01*
X97496819Y-60184438D01*
X97501000Y-60226895D01*
X97501000Y-61693105D01*
X97496819Y-61735562D01*
X97486227Y-61770477D01*
X97469022Y-61802665D01*
X97445873Y-61830873D01*
X97417665Y-61854022D01*
X97385477Y-61871227D01*
X97350562Y-61881819D01*
X97308105Y-61886000D01*
X96166895Y-61886000D01*
X96124438Y-61881819D01*
X96089523Y-61871227D01*
X96057335Y-61854022D01*
X96029127Y-61830873D01*
X96005978Y-61802665D01*
X95988773Y-61770477D01*
X95978181Y-61735562D01*
X95974000Y-61693105D01*
X95974000Y-60226895D01*
X95978181Y-60184438D01*
X95988773Y-60149523D01*
X96005978Y-60117335D01*
X96029127Y-60089127D01*
X96057335Y-60065978D01*
X96089523Y-60048773D01*
X96124438Y-60038181D01*
X96166895Y-60034000D01*
X97308105Y-60034000D01*
X97350562Y-60038181D01*
X97350562Y-60038181D01*
G37*
G36*
X150631000Y-61091000D02*
X149629000Y-61091000D01*
X149629000Y-60189000D01*
X150631000Y-60189000D01*
X150631000Y-61091000D01*
X150631000Y-61091000D01*
G37*
G36*
X189356000Y-60651000D02*
X185294000Y-60651000D01*
X185294000Y-58569000D01*
X189356000Y-58569000D01*
X189356000Y-60651000D01*
X189356000Y-60651000D01*
G37*
G36*
X152631000Y-60141000D02*
X151629000Y-60141000D01*
X151629000Y-59239000D01*
X152631000Y-59239000D01*
X152631000Y-60141000D01*
X152631000Y-60141000D01*
G37*
G36*
X150631000Y-59191000D02*
X149629000Y-59191000D01*
X149629000Y-58289000D01*
X150631000Y-58289000D01*
X150631000Y-59191000D01*
X150631000Y-59191000D01*
G37*
G36*
X153048604Y-54958347D02*
X153085145Y-54969432D01*
X153118820Y-54987431D01*
X153148341Y-55011659D01*
X153172569Y-55041180D01*
X153190568Y-55074855D01*
X153201653Y-55111396D01*
X153206000Y-55155538D01*
X153206000Y-56604462D01*
X153201653Y-56648604D01*
X153190568Y-56685145D01*
X153172569Y-56718820D01*
X153148341Y-56748341D01*
X153118820Y-56772569D01*
X153085145Y-56790568D01*
X153048604Y-56801653D01*
X153004462Y-56806000D01*
X152055538Y-56806000D01*
X152011396Y-56801653D01*
X151974855Y-56790568D01*
X151941180Y-56772569D01*
X151911659Y-56748341D01*
X151887431Y-56718820D01*
X151869432Y-56685145D01*
X151858347Y-56648604D01*
X151854000Y-56604462D01*
X151854000Y-55155538D01*
X151858347Y-55111396D01*
X151869432Y-55074855D01*
X151887431Y-55041180D01*
X151911659Y-55011659D01*
X151941180Y-54987431D01*
X151974855Y-54969432D01*
X152011396Y-54958347D01*
X152055538Y-54954000D01*
X153004462Y-54954000D01*
X153048604Y-54958347D01*
X153048604Y-54958347D01*
G37*
G36*
X150248604Y-54958347D02*
X150285145Y-54969432D01*
X150318820Y-54987431D01*
X150348341Y-55011659D01*
X150372569Y-55041180D01*
X150390568Y-55074855D01*
X150401653Y-55111396D01*
X150406000Y-55155538D01*
X150406000Y-56604462D01*
X150401653Y-56648604D01*
X150390568Y-56685145D01*
X150372569Y-56718820D01*
X150348341Y-56748341D01*
X150318820Y-56772569D01*
X150285145Y-56790568D01*
X150248604Y-56801653D01*
X150204462Y-56806000D01*
X149255538Y-56806000D01*
X149211396Y-56801653D01*
X149174855Y-56790568D01*
X149141180Y-56772569D01*
X149111659Y-56748341D01*
X149087431Y-56718820D01*
X149069432Y-56685145D01*
X149058347Y-56648604D01*
X149054000Y-56604462D01*
X149054000Y-55155538D01*
X149058347Y-55111396D01*
X149069432Y-55074855D01*
X149087431Y-55041180D01*
X149111659Y-55011659D01*
X149141180Y-54987431D01*
X149174855Y-54969432D01*
X149211396Y-54958347D01*
X149255538Y-54954000D01*
X150204462Y-54954000D01*
X150248604Y-54958347D01*
X150248604Y-54958347D01*
G37*
G36*
X161642527Y-53098736D02*
X161742410Y-53118604D01*
X162024674Y-53235521D01*
X162278705Y-53405259D01*
X162494741Y-53621295D01*
X162664479Y-53875326D01*
X162781396Y-54157590D01*
X162781396Y-54157591D01*
X162841000Y-54457238D01*
X162841000Y-54762762D01*
X162802960Y-54954000D01*
X162781396Y-55062410D01*
X162664479Y-55344674D01*
X162494741Y-55598705D01*
X162278705Y-55814741D01*
X162024674Y-55984479D01*
X161742410Y-56101396D01*
X161642527Y-56121264D01*
X161442762Y-56161000D01*
X161137238Y-56161000D01*
X160937473Y-56121264D01*
X160837590Y-56101396D01*
X160555326Y-55984479D01*
X160301295Y-55814741D01*
X160085259Y-55598705D01*
X159915521Y-55344674D01*
X159798604Y-55062410D01*
X159777040Y-54954000D01*
X159739000Y-54762762D01*
X159739000Y-54457238D01*
X159798604Y-54157591D01*
X159798604Y-54157590D01*
X159915521Y-53875326D01*
X160085259Y-53621295D01*
X160301295Y-53405259D01*
X160555326Y-53235521D01*
X160837590Y-53118604D01*
X160937473Y-53098736D01*
X161137238Y-53059000D01*
X161442762Y-53059000D01*
X161642527Y-53098736D01*
X161642527Y-53098736D01*
G37*
G36*
X188417112Y-53574021D02*
X188519072Y-53584063D01*
X188641802Y-53621293D01*
X188715302Y-53643589D01*
X188896148Y-53740254D01*
X189054659Y-53870341D01*
X189184746Y-54028852D01*
X189281411Y-54209698D01*
X189281411Y-54209699D01*
X189340937Y-54405928D01*
X189361036Y-54610000D01*
X189340937Y-54814072D01*
X189301253Y-54944891D01*
X189281411Y-55010302D01*
X189184746Y-55191148D01*
X189054659Y-55349659D01*
X188896148Y-55479746D01*
X188715302Y-55576411D01*
X188649891Y-55596253D01*
X188519072Y-55635937D01*
X188417112Y-55645979D01*
X188366133Y-55651000D01*
X186283867Y-55651000D01*
X186232888Y-55645979D01*
X186130928Y-55635937D01*
X186000109Y-55596253D01*
X185934698Y-55576411D01*
X185753852Y-55479746D01*
X185595341Y-55349659D01*
X185465254Y-55191148D01*
X185368589Y-55010302D01*
X185348747Y-54944891D01*
X185309063Y-54814072D01*
X185288964Y-54610000D01*
X185309063Y-54405928D01*
X185368589Y-54209699D01*
X185368589Y-54209698D01*
X185465254Y-54028852D01*
X185595341Y-53870341D01*
X185753852Y-53740254D01*
X185934698Y-53643589D01*
X186008198Y-53621293D01*
X186130928Y-53584063D01*
X186232888Y-53574021D01*
X186283867Y-53569000D01*
X188366133Y-53569000D01*
X188417112Y-53574021D01*
X188417112Y-53574021D01*
G37*
G36*
X153836821Y-49961313D02*
X153836824Y-49961314D01*
X153836825Y-49961314D01*
X153997239Y-50009975D01*
X153997241Y-50009976D01*
X153997244Y-50009977D01*
X154145078Y-50088995D01*
X154274659Y-50195341D01*
X154381005Y-50324922D01*
X154460023Y-50472756D01*
X154460024Y-50472759D01*
X154460025Y-50472761D01*
X154462144Y-50479747D01*
X154508687Y-50633179D01*
X154525117Y-50800000D01*
X154508687Y-50966821D01*
X154460023Y-51127244D01*
X154381005Y-51275078D01*
X154274659Y-51404659D01*
X154145078Y-51511005D01*
X153997244Y-51590023D01*
X153997241Y-51590024D01*
X153997239Y-51590025D01*
X153836825Y-51638686D01*
X153836824Y-51638686D01*
X153836821Y-51638687D01*
X153711804Y-51651000D01*
X153628196Y-51651000D01*
X153503179Y-51638687D01*
X153503176Y-51638686D01*
X153503175Y-51638686D01*
X153342761Y-51590025D01*
X153342759Y-51590024D01*
X153342756Y-51590023D01*
X153194922Y-51511005D01*
X153065341Y-51404659D01*
X152958995Y-51275078D01*
X152879977Y-51127244D01*
X152831313Y-50966821D01*
X152814883Y-50800000D01*
X152831313Y-50633179D01*
X152877856Y-50479747D01*
X152879975Y-50472761D01*
X152879976Y-50472759D01*
X152879977Y-50472756D01*
X152958995Y-50324922D01*
X153065341Y-50195341D01*
X153194922Y-50088995D01*
X153342756Y-50009977D01*
X153342759Y-50009976D01*
X153342761Y-50009975D01*
X153503175Y-49961314D01*
X153503176Y-49961314D01*
X153503179Y-49961313D01*
X153628196Y-49949000D01*
X153711804Y-49949000D01*
X153836821Y-49961313D01*
X153836821Y-49961313D01*
G37*
G36*
X146216821Y-49961313D02*
X146216824Y-49961314D01*
X146216825Y-49961314D01*
X146377239Y-50009975D01*
X146377241Y-50009976D01*
X146377244Y-50009977D01*
X146525078Y-50088995D01*
X146654659Y-50195341D01*
X146761005Y-50324922D01*
X146840023Y-50472756D01*
X146840024Y-50472759D01*
X146840025Y-50472761D01*
X146842144Y-50479747D01*
X146888687Y-50633179D01*
X146905117Y-50800000D01*
X146888687Y-50966821D01*
X146840023Y-51127244D01*
X146761005Y-51275078D01*
X146654659Y-51404659D01*
X146525078Y-51511005D01*
X146377244Y-51590023D01*
X146377241Y-51590024D01*
X146377239Y-51590025D01*
X146216825Y-51638686D01*
X146216824Y-51638686D01*
X146216821Y-51638687D01*
X146091804Y-51651000D01*
X146008196Y-51651000D01*
X145883179Y-51638687D01*
X145883176Y-51638686D01*
X145883175Y-51638686D01*
X145722761Y-51590025D01*
X145722759Y-51590024D01*
X145722756Y-51590023D01*
X145574922Y-51511005D01*
X145445341Y-51404659D01*
X145338995Y-51275078D01*
X145259977Y-51127244D01*
X145211313Y-50966821D01*
X145194883Y-50800000D01*
X145211313Y-50633179D01*
X145257856Y-50479747D01*
X145259975Y-50472761D01*
X145259976Y-50472759D01*
X145259977Y-50472756D01*
X145338995Y-50324922D01*
X145445341Y-50195341D01*
X145574922Y-50088995D01*
X145722756Y-50009977D01*
X145722759Y-50009976D01*
X145722761Y-50009975D01*
X145883175Y-49961314D01*
X145883176Y-49961314D01*
X145883179Y-49961313D01*
X146008196Y-49949000D01*
X146091804Y-49949000D01*
X146216821Y-49961313D01*
X146216821Y-49961313D01*
G37*
G36*
X188417112Y-48574021D02*
X188519072Y-48584063D01*
X188649891Y-48623747D01*
X188715302Y-48643589D01*
X188896148Y-48740254D01*
X189054659Y-48870341D01*
X189184746Y-49028852D01*
X189281411Y-49209698D01*
X189281411Y-49209699D01*
X189340937Y-49405928D01*
X189361036Y-49610000D01*
X189340937Y-49814072D01*
X189311533Y-49911003D01*
X189281411Y-50010302D01*
X189184746Y-50191148D01*
X189054659Y-50349659D01*
X188896148Y-50479746D01*
X188715302Y-50576411D01*
X188649891Y-50596253D01*
X188519072Y-50635937D01*
X188417112Y-50645979D01*
X188366133Y-50651000D01*
X186283867Y-50651000D01*
X186232888Y-50645979D01*
X186130928Y-50635937D01*
X186000109Y-50596253D01*
X185934698Y-50576411D01*
X185753852Y-50479746D01*
X185595341Y-50349659D01*
X185465254Y-50191148D01*
X185368589Y-50010302D01*
X185338467Y-49911003D01*
X185309063Y-49814072D01*
X185288964Y-49610000D01*
X185309063Y-49405928D01*
X185368589Y-49209699D01*
X185368589Y-49209698D01*
X185465254Y-49028852D01*
X185595341Y-48870341D01*
X185753852Y-48740254D01*
X185934698Y-48643589D01*
X186000109Y-48623747D01*
X186130928Y-48584063D01*
X186232888Y-48574021D01*
X186283867Y-48569000D01*
X188366133Y-48569000D01*
X188417112Y-48574021D01*
X188417112Y-48574021D01*
G37*
G36*
X175842527Y-47098736D02*
X175942410Y-47118604D01*
X176224674Y-47235521D01*
X176478705Y-47405259D01*
X176694741Y-47621295D01*
X176864479Y-47875326D01*
X176954716Y-48093179D01*
X176981396Y-48157591D01*
X177041000Y-48457238D01*
X177041000Y-48762762D01*
X177035952Y-48788139D01*
X176981396Y-49062410D01*
X176864479Y-49344674D01*
X176694741Y-49598705D01*
X176478705Y-49814741D01*
X176224674Y-49984479D01*
X175942410Y-50101396D01*
X175842527Y-50121264D01*
X175642762Y-50161000D01*
X175337238Y-50161000D01*
X175137473Y-50121264D01*
X175037590Y-50101396D01*
X174755326Y-49984479D01*
X174501295Y-49814741D01*
X174285259Y-49598705D01*
X174115521Y-49344674D01*
X173998604Y-49062410D01*
X173944048Y-48788139D01*
X173939000Y-48762762D01*
X173939000Y-48457238D01*
X173998604Y-48157591D01*
X174025284Y-48093179D01*
X174115521Y-47875326D01*
X174285259Y-47621295D01*
X174501295Y-47405259D01*
X174755326Y-47235521D01*
X175037590Y-47118604D01*
X175137473Y-47098736D01*
X175337238Y-47059000D01*
X175642762Y-47059000D01*
X175842527Y-47098736D01*
X175842527Y-47098736D01*
G37*
G36*
X163619485Y-47408996D02*
X163619487Y-47408997D01*
X163619488Y-47408997D01*
X163728555Y-47454174D01*
X163856255Y-47507069D01*
X164069342Y-47649449D01*
X164250551Y-47830658D01*
X164282159Y-47877963D01*
X164392931Y-48043745D01*
X164482507Y-48260000D01*
X164491004Y-48280515D01*
X164541000Y-48531861D01*
X164541000Y-48788139D01*
X164493119Y-49028854D01*
X164491003Y-49039488D01*
X164436708Y-49170568D01*
X164392931Y-49276255D01*
X164250551Y-49489342D01*
X164069342Y-49670551D01*
X164069339Y-49670553D01*
X163856255Y-49812931D01*
X163619488Y-49911003D01*
X163619487Y-49911003D01*
X163619485Y-49911004D01*
X163368139Y-49961000D01*
X163111861Y-49961000D01*
X162860515Y-49911004D01*
X162860513Y-49911003D01*
X162860512Y-49911003D01*
X162623745Y-49812931D01*
X162410661Y-49670553D01*
X162410658Y-49670551D01*
X162229449Y-49489342D01*
X162087069Y-49276255D01*
X162043292Y-49170568D01*
X161988997Y-49039488D01*
X161986882Y-49028854D01*
X161939000Y-48788139D01*
X161939000Y-48531861D01*
X161988996Y-48280515D01*
X161997494Y-48260000D01*
X162087069Y-48043745D01*
X162197841Y-47877963D01*
X162229449Y-47830658D01*
X162410658Y-47649449D01*
X162623745Y-47507069D01*
X162751445Y-47454174D01*
X162860512Y-47408997D01*
X162860513Y-47408997D01*
X162860515Y-47408996D01*
X163111861Y-47359000D01*
X163368139Y-47359000D01*
X163619485Y-47408996D01*
X163619485Y-47408996D01*
G37*
G36*
X139958604Y-47338347D02*
X139995145Y-47349432D01*
X140028820Y-47367431D01*
X140058341Y-47391659D01*
X140082569Y-47421180D01*
X140100568Y-47454855D01*
X140111653Y-47491396D01*
X140116000Y-47535538D01*
X140116000Y-48984462D01*
X140111653Y-49028604D01*
X140100568Y-49065145D01*
X140082569Y-49098820D01*
X140058341Y-49128341D01*
X140028820Y-49152569D01*
X139995145Y-49170568D01*
X139958604Y-49181653D01*
X139914462Y-49186000D01*
X138965538Y-49186000D01*
X138921396Y-49181653D01*
X138884855Y-49170568D01*
X138851180Y-49152569D01*
X138821659Y-49128341D01*
X138797431Y-49098820D01*
X138779432Y-49065145D01*
X138768347Y-49028604D01*
X138764000Y-48984462D01*
X138764000Y-47535538D01*
X138768347Y-47491396D01*
X138779432Y-47454855D01*
X138797431Y-47421180D01*
X138821659Y-47391659D01*
X138851180Y-47367431D01*
X138884855Y-47349432D01*
X138921396Y-47338347D01*
X138965538Y-47334000D01*
X139914462Y-47334000D01*
X139958604Y-47338347D01*
X139958604Y-47338347D01*
G37*
G36*
X142758604Y-47338347D02*
X142795145Y-47349432D01*
X142828820Y-47367431D01*
X142858341Y-47391659D01*
X142882569Y-47421180D01*
X142900568Y-47454855D01*
X142911653Y-47491396D01*
X142916000Y-47535538D01*
X142916000Y-48984462D01*
X142911653Y-49028604D01*
X142900568Y-49065145D01*
X142882569Y-49098820D01*
X142858341Y-49128341D01*
X142828820Y-49152569D01*
X142795145Y-49170568D01*
X142758604Y-49181653D01*
X142714462Y-49186000D01*
X141765538Y-49186000D01*
X141721396Y-49181653D01*
X141684855Y-49170568D01*
X141651180Y-49152569D01*
X141621659Y-49128341D01*
X141597431Y-49098820D01*
X141579432Y-49065145D01*
X141568347Y-49028604D01*
X141564000Y-48984462D01*
X141564000Y-47535538D01*
X141568347Y-47491396D01*
X141579432Y-47454855D01*
X141597431Y-47421180D01*
X141621659Y-47391659D01*
X141651180Y-47367431D01*
X141684855Y-47349432D01*
X141721396Y-47338347D01*
X141765538Y-47334000D01*
X142714462Y-47334000D01*
X142758604Y-47338347D01*
X142758604Y-47338347D01*
G37*
G36*
X153836821Y-47421313D02*
X153836824Y-47421314D01*
X153836825Y-47421314D01*
X153997239Y-47469975D01*
X153997241Y-47469976D01*
X153997244Y-47469977D01*
X154145078Y-47548995D01*
X154274659Y-47655341D01*
X154381005Y-47784922D01*
X154460023Y-47932756D01*
X154460024Y-47932759D01*
X154460025Y-47932761D01*
X154508686Y-48093175D01*
X154508687Y-48093179D01*
X154525117Y-48260000D01*
X154508687Y-48426821D01*
X154508686Y-48426824D01*
X154508686Y-48426825D01*
X154465558Y-48569000D01*
X154460023Y-48587244D01*
X154381005Y-48735078D01*
X154274659Y-48864659D01*
X154145078Y-48971005D01*
X153997244Y-49050023D01*
X153997241Y-49050024D01*
X153997239Y-49050025D01*
X153836825Y-49098686D01*
X153836824Y-49098686D01*
X153836821Y-49098687D01*
X153711804Y-49111000D01*
X153628196Y-49111000D01*
X153503179Y-49098687D01*
X153503176Y-49098686D01*
X153503175Y-49098686D01*
X153342761Y-49050025D01*
X153342759Y-49050024D01*
X153342756Y-49050023D01*
X153194922Y-48971005D01*
X153065341Y-48864659D01*
X152958995Y-48735078D01*
X152879977Y-48587244D01*
X152874443Y-48569000D01*
X152831314Y-48426825D01*
X152831314Y-48426824D01*
X152831313Y-48426821D01*
X152814883Y-48260000D01*
X152831313Y-48093179D01*
X152831314Y-48093175D01*
X152879975Y-47932761D01*
X152879976Y-47932759D01*
X152879977Y-47932756D01*
X152958995Y-47784922D01*
X153065341Y-47655341D01*
X153194922Y-47548995D01*
X153342756Y-47469977D01*
X153342759Y-47469976D01*
X153342761Y-47469975D01*
X153503175Y-47421314D01*
X153503176Y-47421314D01*
X153503179Y-47421313D01*
X153628196Y-47409000D01*
X153711804Y-47409000D01*
X153836821Y-47421313D01*
X153836821Y-47421313D01*
G37*
G36*
X146901000Y-49111000D02*
X145199000Y-49111000D01*
X145199000Y-47409000D01*
X146901000Y-47409000D01*
X146901000Y-49111000D01*
X146901000Y-49111000D01*
G37*
G36*
X132981000Y-47891000D02*
X131179000Y-47891000D01*
X131179000Y-46089000D01*
X132981000Y-46089000D01*
X132981000Y-47891000D01*
X132981000Y-47891000D01*
G37*
G36*
X124570442Y-46095518D02*
X124636627Y-46102037D01*
X124749853Y-46136384D01*
X124806467Y-46153557D01*
X124945087Y-46227652D01*
X124962991Y-46237222D01*
X124998729Y-46266552D01*
X125100186Y-46349814D01*
X125183448Y-46451271D01*
X125212778Y-46487009D01*
X125212779Y-46487011D01*
X125296443Y-46643533D01*
X125296443Y-46643534D01*
X125347963Y-46813373D01*
X125365359Y-46990000D01*
X125347963Y-47166627D01*
X125327064Y-47235521D01*
X125296443Y-47336467D01*
X125233526Y-47454174D01*
X125212778Y-47492991D01*
X125206269Y-47500922D01*
X125100186Y-47630186D01*
X124998729Y-47713448D01*
X124962991Y-47742778D01*
X124962989Y-47742779D01*
X124806467Y-47826443D01*
X124749853Y-47843616D01*
X124636627Y-47877963D01*
X124570443Y-47884481D01*
X124504260Y-47891000D01*
X124415740Y-47891000D01*
X124349557Y-47884481D01*
X124283373Y-47877963D01*
X124170147Y-47843616D01*
X124113533Y-47826443D01*
X123957011Y-47742779D01*
X123957009Y-47742778D01*
X123921271Y-47713448D01*
X123819814Y-47630186D01*
X123713731Y-47500922D01*
X123707222Y-47492991D01*
X123686474Y-47454174D01*
X123623557Y-47336467D01*
X123592936Y-47235521D01*
X123572037Y-47166627D01*
X123554641Y-46990000D01*
X123572037Y-46813373D01*
X123623557Y-46643534D01*
X123623557Y-46643533D01*
X123707221Y-46487011D01*
X123707222Y-46487009D01*
X123736552Y-46451271D01*
X123819814Y-46349814D01*
X123921271Y-46266552D01*
X123957009Y-46237222D01*
X123974913Y-46227652D01*
X124113533Y-46153557D01*
X124170147Y-46136384D01*
X124283373Y-46102037D01*
X124349558Y-46095518D01*
X124415740Y-46089000D01*
X124504260Y-46089000D01*
X124570442Y-46095518D01*
X124570442Y-46095518D01*
G37*
G36*
X127110442Y-46095518D02*
X127176627Y-46102037D01*
X127289853Y-46136384D01*
X127346467Y-46153557D01*
X127485087Y-46227652D01*
X127502991Y-46237222D01*
X127538729Y-46266552D01*
X127640186Y-46349814D01*
X127723448Y-46451271D01*
X127752778Y-46487009D01*
X127752779Y-46487011D01*
X127836443Y-46643533D01*
X127836443Y-46643534D01*
X127887963Y-46813373D01*
X127905359Y-46990000D01*
X127887963Y-47166627D01*
X127867064Y-47235521D01*
X127836443Y-47336467D01*
X127773526Y-47454174D01*
X127752778Y-47492991D01*
X127746269Y-47500922D01*
X127640186Y-47630186D01*
X127538729Y-47713448D01*
X127502991Y-47742778D01*
X127502989Y-47742779D01*
X127346467Y-47826443D01*
X127289853Y-47843616D01*
X127176627Y-47877963D01*
X127110443Y-47884481D01*
X127044260Y-47891000D01*
X126955740Y-47891000D01*
X126889557Y-47884481D01*
X126823373Y-47877963D01*
X126710147Y-47843616D01*
X126653533Y-47826443D01*
X126497011Y-47742779D01*
X126497009Y-47742778D01*
X126461271Y-47713448D01*
X126359814Y-47630186D01*
X126253731Y-47500922D01*
X126247222Y-47492991D01*
X126226474Y-47454174D01*
X126163557Y-47336467D01*
X126132936Y-47235521D01*
X126112037Y-47166627D01*
X126094641Y-46990000D01*
X126112037Y-46813373D01*
X126163557Y-46643534D01*
X126163557Y-46643533D01*
X126247221Y-46487011D01*
X126247222Y-46487009D01*
X126276552Y-46451271D01*
X126359814Y-46349814D01*
X126461271Y-46266552D01*
X126497009Y-46237222D01*
X126514913Y-46227652D01*
X126653533Y-46153557D01*
X126710147Y-46136384D01*
X126823373Y-46102037D01*
X126889558Y-46095518D01*
X126955740Y-46089000D01*
X127044260Y-46089000D01*
X127110442Y-46095518D01*
X127110442Y-46095518D01*
G37*
G36*
X129650442Y-46095518D02*
X129716627Y-46102037D01*
X129829853Y-46136384D01*
X129886467Y-46153557D01*
X130025087Y-46227652D01*
X130042991Y-46237222D01*
X130078729Y-46266552D01*
X130180186Y-46349814D01*
X130263448Y-46451271D01*
X130292778Y-46487009D01*
X130292779Y-46487011D01*
X130376443Y-46643533D01*
X130376443Y-46643534D01*
X130427963Y-46813373D01*
X130445359Y-46990000D01*
X130427963Y-47166627D01*
X130407064Y-47235521D01*
X130376443Y-47336467D01*
X130313526Y-47454174D01*
X130292778Y-47492991D01*
X130286269Y-47500922D01*
X130180186Y-47630186D01*
X130078729Y-47713448D01*
X130042991Y-47742778D01*
X130042989Y-47742779D01*
X129886467Y-47826443D01*
X129829853Y-47843616D01*
X129716627Y-47877963D01*
X129650443Y-47884481D01*
X129584260Y-47891000D01*
X129495740Y-47891000D01*
X129429557Y-47884481D01*
X129363373Y-47877963D01*
X129250147Y-47843616D01*
X129193533Y-47826443D01*
X129037011Y-47742779D01*
X129037009Y-47742778D01*
X129001271Y-47713448D01*
X128899814Y-47630186D01*
X128793731Y-47500922D01*
X128787222Y-47492991D01*
X128766474Y-47454174D01*
X128703557Y-47336467D01*
X128672936Y-47235521D01*
X128652037Y-47166627D01*
X128634641Y-46990000D01*
X128652037Y-46813373D01*
X128703557Y-46643534D01*
X128703557Y-46643533D01*
X128787221Y-46487011D01*
X128787222Y-46487009D01*
X128816552Y-46451271D01*
X128899814Y-46349814D01*
X129001271Y-46266552D01*
X129037009Y-46237222D01*
X129054913Y-46227652D01*
X129193533Y-46153557D01*
X129250147Y-46136384D01*
X129363373Y-46102037D01*
X129429558Y-46095518D01*
X129495740Y-46089000D01*
X129584260Y-46089000D01*
X129650442Y-46095518D01*
X129650442Y-46095518D01*
G37*
G36*
X152031000Y-45351000D02*
X150229000Y-45351000D01*
X150229000Y-43549000D01*
X152031000Y-43549000D01*
X152031000Y-45351000D01*
X152031000Y-45351000D01*
G37*
G36*
X153780443Y-43555519D02*
X153846627Y-43562037D01*
X153959853Y-43596384D01*
X154016467Y-43613557D01*
X154155087Y-43687652D01*
X154172991Y-43697222D01*
X154208729Y-43726552D01*
X154310186Y-43809814D01*
X154393448Y-43911271D01*
X154422778Y-43947009D01*
X154422779Y-43947011D01*
X154506443Y-44103533D01*
X154506443Y-44103534D01*
X154557963Y-44273373D01*
X154575359Y-44450000D01*
X154557963Y-44626627D01*
X154523616Y-44739853D01*
X154506443Y-44796467D01*
X154432348Y-44935087D01*
X154422778Y-44952991D01*
X154393448Y-44988729D01*
X154310186Y-45090186D01*
X154208729Y-45173448D01*
X154172991Y-45202778D01*
X154172989Y-45202779D01*
X154016467Y-45286443D01*
X153959853Y-45303616D01*
X153846627Y-45337963D01*
X153780442Y-45344482D01*
X153714260Y-45351000D01*
X153625740Y-45351000D01*
X153559558Y-45344482D01*
X153493373Y-45337963D01*
X153380147Y-45303616D01*
X153323533Y-45286443D01*
X153167011Y-45202779D01*
X153167009Y-45202778D01*
X153131271Y-45173448D01*
X153029814Y-45090186D01*
X152946552Y-44988729D01*
X152917222Y-44952991D01*
X152907652Y-44935087D01*
X152833557Y-44796467D01*
X152816384Y-44739853D01*
X152782037Y-44626627D01*
X152764641Y-44450000D01*
X152782037Y-44273373D01*
X152833557Y-44103534D01*
X152833557Y-44103533D01*
X152917221Y-43947011D01*
X152917222Y-43947009D01*
X152946552Y-43911271D01*
X153029814Y-43809814D01*
X153131271Y-43726552D01*
X153167009Y-43697222D01*
X153184913Y-43687652D01*
X153323533Y-43613557D01*
X153380147Y-43596384D01*
X153493373Y-43562037D01*
X153559558Y-43555518D01*
X153625740Y-43549000D01*
X153714260Y-43549000D01*
X153780443Y-43555519D01*
X153780443Y-43555519D01*
G37*
G36*
X181523567Y-32964959D02*
X181654072Y-32990918D01*
X181899939Y-33092759D01*
X182120464Y-33240110D01*
X182121215Y-33240612D01*
X182309388Y-33428785D01*
X182309390Y-33428788D01*
X182457241Y-33650061D01*
X182559082Y-33895928D01*
X182611000Y-34156938D01*
X182611000Y-34423062D01*
X182559082Y-34684072D01*
X182457241Y-34929939D01*
X182309890Y-35150464D01*
X182309388Y-35151215D01*
X182121215Y-35339388D01*
X182121212Y-35339390D01*
X181899939Y-35487241D01*
X181654072Y-35589082D01*
X181523567Y-35615041D01*
X181393063Y-35641000D01*
X181126937Y-35641000D01*
X180996433Y-35615041D01*
X180865928Y-35589082D01*
X180620061Y-35487241D01*
X180398788Y-35339390D01*
X180398785Y-35339388D01*
X180210612Y-35151215D01*
X180210110Y-35150464D01*
X180062759Y-34929939D01*
X179960918Y-34684072D01*
X179909000Y-34423062D01*
X179909000Y-34156938D01*
X179960918Y-33895928D01*
X180062759Y-33650061D01*
X180210610Y-33428788D01*
X180210612Y-33428785D01*
X180398785Y-33240612D01*
X180399536Y-33240110D01*
X180620061Y-33092759D01*
X180865928Y-32990918D01*
X180996433Y-32964959D01*
X181126937Y-32939000D01*
X181393063Y-32939000D01*
X181523567Y-32964959D01*
X181523567Y-32964959D01*
G37*
G36*
X176611000Y-35641000D02*
X173909000Y-35641000D01*
X173909000Y-32939000D01*
X176611000Y-32939000D01*
X176611000Y-35641000D01*
X176611000Y-35641000D01*
G37*
G36*
X167018604Y-33368347D02*
X167055145Y-33379432D01*
X167088820Y-33397431D01*
X167118341Y-33421659D01*
X167142569Y-33451180D01*
X167160568Y-33484855D01*
X167171653Y-33521396D01*
X167176000Y-33565538D01*
X167176000Y-35014462D01*
X167171653Y-35058604D01*
X167160568Y-35095145D01*
X167142569Y-35128820D01*
X167118341Y-35158341D01*
X167088820Y-35182569D01*
X167055145Y-35200568D01*
X167018604Y-35211653D01*
X166974462Y-35216000D01*
X166025538Y-35216000D01*
X165981396Y-35211653D01*
X165944855Y-35200568D01*
X165911180Y-35182569D01*
X165881659Y-35158341D01*
X165857431Y-35128820D01*
X165839432Y-35095145D01*
X165828347Y-35058604D01*
X165824000Y-35014462D01*
X165824000Y-33565538D01*
X165828347Y-33521396D01*
X165839432Y-33484855D01*
X165857431Y-33451180D01*
X165881659Y-33421659D01*
X165911180Y-33397431D01*
X165944855Y-33379432D01*
X165981396Y-33368347D01*
X166025538Y-33364000D01*
X166974462Y-33364000D01*
X167018604Y-33368347D01*
X167018604Y-33368347D01*
G37*
G36*
X164218604Y-33368347D02*
X164255145Y-33379432D01*
X164288820Y-33397431D01*
X164318341Y-33421659D01*
X164342569Y-33451180D01*
X164360568Y-33484855D01*
X164371653Y-33521396D01*
X164376000Y-33565538D01*
X164376000Y-35014462D01*
X164371653Y-35058604D01*
X164360568Y-35095145D01*
X164342569Y-35128820D01*
X164318341Y-35158341D01*
X164288820Y-35182569D01*
X164255145Y-35200568D01*
X164218604Y-35211653D01*
X164174462Y-35216000D01*
X163225538Y-35216000D01*
X163181396Y-35211653D01*
X163144855Y-35200568D01*
X163111180Y-35182569D01*
X163081659Y-35158341D01*
X163057431Y-35128820D01*
X163039432Y-35095145D01*
X163028347Y-35058604D01*
X163024000Y-35014462D01*
X163024000Y-33565538D01*
X163028347Y-33521396D01*
X163039432Y-33484855D01*
X163057431Y-33451180D01*
X163081659Y-33421659D01*
X163111180Y-33397431D01*
X163144855Y-33379432D01*
X163181396Y-33368347D01*
X163225538Y-33364000D01*
X164174462Y-33364000D01*
X164218604Y-33368347D01*
X164218604Y-33368347D01*
G37*
G36*
X178523567Y-28264959D02*
X178654072Y-28290918D01*
X178899939Y-28392759D01*
X179120464Y-28540110D01*
X179121215Y-28540612D01*
X179309388Y-28728785D01*
X179309390Y-28728788D01*
X179457241Y-28950061D01*
X179559082Y-29195928D01*
X179611000Y-29456938D01*
X179611000Y-29723062D01*
X179559082Y-29984072D01*
X179457241Y-30229939D01*
X179309890Y-30450464D01*
X179309388Y-30451215D01*
X179121215Y-30639388D01*
X179121212Y-30639390D01*
X178899939Y-30787241D01*
X178654072Y-30889082D01*
X178523567Y-30915041D01*
X178393063Y-30941000D01*
X178126937Y-30941000D01*
X177996433Y-30915041D01*
X177865928Y-30889082D01*
X177620061Y-30787241D01*
X177398788Y-30639390D01*
X177398785Y-30639388D01*
X177210612Y-30451215D01*
X177210110Y-30450464D01*
X177062759Y-30229939D01*
X176960918Y-29984072D01*
X176909000Y-29723062D01*
X176909000Y-29456938D01*
X176960918Y-29195928D01*
X177062759Y-28950061D01*
X177210610Y-28728788D01*
X177210612Y-28728785D01*
X177398785Y-28540612D01*
X177399536Y-28540110D01*
X177620061Y-28392759D01*
X177865928Y-28290918D01*
X177996433Y-28264959D01*
X178126937Y-28239000D01*
X178393063Y-28239000D01*
X178523567Y-28264959D01*
X178523567Y-28264959D01*
G37*
M02*
