G04 #@! TF.GenerationSoftware,KiCad,Pcbnew,5.0.2+dfsg1-1*
G04 #@! TF.CreationDate,2020-05-31T01:45:13+07:00*
G04 #@! TF.ProjectId,GatiHomeLampController,47617469-486f-46d6-954c-616d70436f6e,rev?*
G04 #@! TF.SameCoordinates,Original*
G04 #@! TF.FileFunction,Paste,Top*
G04 #@! TF.FilePolarity,Positive*
%FSLAX46Y46*%
G04 Gerber Fmt 4.6, Leading zero omitted, Abs format (unit mm)*
G04 Created by KiCad (PCBNEW 5.0.2+dfsg1-1) date Sun 31 May 2020 01:45:13 AM WIB*
%MOMM*%
%LPD*%
G01*
G04 APERTURE LIST*
%ADD10R,5.560000X8.000000*%
%ADD11R,5.560000X2.600000*%
%ADD12C,0.100000*%
%ADD13C,1.425000*%
%ADD14R,0.900000X1.200000*%
%ADD15C,1.250000*%
%ADD16R,0.900000X0.800000*%
%ADD17R,0.900000X0.900000*%
%ADD18R,5.000000X5.000000*%
%ADD19R,2.000000X0.900000*%
%ADD20R,0.900000X2.000000*%
%ADD21R,1.550000X0.600000*%
%ADD22R,1.500000X0.600000*%
%ADD23R,2.000000X3.800000*%
%ADD24R,2.000000X1.500000*%
G04 APERTURE END LIST*
D10*
G04 #@! TO.C,BT1*
X87630000Y-86360000D03*
D11*
X87630000Y-74455000D03*
X87630000Y-98265000D03*
G04 #@! TD*
D12*
G04 #@! TO.C,C1*
G36*
X91709504Y-101996204D02*
X91733773Y-101999804D01*
X91757571Y-102005765D01*
X91780671Y-102014030D01*
X91802849Y-102024520D01*
X91823893Y-102037133D01*
X91843598Y-102051747D01*
X91861777Y-102068223D01*
X91878253Y-102086402D01*
X91892867Y-102106107D01*
X91905480Y-102127151D01*
X91915970Y-102149329D01*
X91924235Y-102172429D01*
X91930196Y-102196227D01*
X91933796Y-102220496D01*
X91935000Y-102245000D01*
X91935000Y-103495000D01*
X91933796Y-103519504D01*
X91930196Y-103543773D01*
X91924235Y-103567571D01*
X91915970Y-103590671D01*
X91905480Y-103612849D01*
X91892867Y-103633893D01*
X91878253Y-103653598D01*
X91861777Y-103671777D01*
X91843598Y-103688253D01*
X91823893Y-103702867D01*
X91802849Y-103715480D01*
X91780671Y-103725970D01*
X91757571Y-103734235D01*
X91733773Y-103740196D01*
X91709504Y-103743796D01*
X91685000Y-103745000D01*
X90760000Y-103745000D01*
X90735496Y-103743796D01*
X90711227Y-103740196D01*
X90687429Y-103734235D01*
X90664329Y-103725970D01*
X90642151Y-103715480D01*
X90621107Y-103702867D01*
X90601402Y-103688253D01*
X90583223Y-103671777D01*
X90566747Y-103653598D01*
X90552133Y-103633893D01*
X90539520Y-103612849D01*
X90529030Y-103590671D01*
X90520765Y-103567571D01*
X90514804Y-103543773D01*
X90511204Y-103519504D01*
X90510000Y-103495000D01*
X90510000Y-102245000D01*
X90511204Y-102220496D01*
X90514804Y-102196227D01*
X90520765Y-102172429D01*
X90529030Y-102149329D01*
X90539520Y-102127151D01*
X90552133Y-102106107D01*
X90566747Y-102086402D01*
X90583223Y-102068223D01*
X90601402Y-102051747D01*
X90621107Y-102037133D01*
X90642151Y-102024520D01*
X90664329Y-102014030D01*
X90687429Y-102005765D01*
X90711227Y-101999804D01*
X90735496Y-101996204D01*
X90760000Y-101995000D01*
X91685000Y-101995000D01*
X91709504Y-101996204D01*
X91709504Y-101996204D01*
G37*
D13*
X91222500Y-102870000D03*
D12*
G36*
X94684504Y-101996204D02*
X94708773Y-101999804D01*
X94732571Y-102005765D01*
X94755671Y-102014030D01*
X94777849Y-102024520D01*
X94798893Y-102037133D01*
X94818598Y-102051747D01*
X94836777Y-102068223D01*
X94853253Y-102086402D01*
X94867867Y-102106107D01*
X94880480Y-102127151D01*
X94890970Y-102149329D01*
X94899235Y-102172429D01*
X94905196Y-102196227D01*
X94908796Y-102220496D01*
X94910000Y-102245000D01*
X94910000Y-103495000D01*
X94908796Y-103519504D01*
X94905196Y-103543773D01*
X94899235Y-103567571D01*
X94890970Y-103590671D01*
X94880480Y-103612849D01*
X94867867Y-103633893D01*
X94853253Y-103653598D01*
X94836777Y-103671777D01*
X94818598Y-103688253D01*
X94798893Y-103702867D01*
X94777849Y-103715480D01*
X94755671Y-103725970D01*
X94732571Y-103734235D01*
X94708773Y-103740196D01*
X94684504Y-103743796D01*
X94660000Y-103745000D01*
X93735000Y-103745000D01*
X93710496Y-103743796D01*
X93686227Y-103740196D01*
X93662429Y-103734235D01*
X93639329Y-103725970D01*
X93617151Y-103715480D01*
X93596107Y-103702867D01*
X93576402Y-103688253D01*
X93558223Y-103671777D01*
X93541747Y-103653598D01*
X93527133Y-103633893D01*
X93514520Y-103612849D01*
X93504030Y-103590671D01*
X93495765Y-103567571D01*
X93489804Y-103543773D01*
X93486204Y-103519504D01*
X93485000Y-103495000D01*
X93485000Y-102245000D01*
X93486204Y-102220496D01*
X93489804Y-102196227D01*
X93495765Y-102172429D01*
X93504030Y-102149329D01*
X93514520Y-102127151D01*
X93527133Y-102106107D01*
X93541747Y-102086402D01*
X93558223Y-102068223D01*
X93576402Y-102051747D01*
X93596107Y-102037133D01*
X93617151Y-102024520D01*
X93639329Y-102014030D01*
X93662429Y-102005765D01*
X93686227Y-101999804D01*
X93710496Y-101996204D01*
X93735000Y-101995000D01*
X94660000Y-101995000D01*
X94684504Y-101996204D01*
X94684504Y-101996204D01*
G37*
D13*
X94197500Y-102870000D03*
G04 #@! TD*
D12*
G04 #@! TO.C,C2*
G36*
X126217004Y-100726204D02*
X126241273Y-100729804D01*
X126265071Y-100735765D01*
X126288171Y-100744030D01*
X126310349Y-100754520D01*
X126331393Y-100767133D01*
X126351098Y-100781747D01*
X126369277Y-100798223D01*
X126385753Y-100816402D01*
X126400367Y-100836107D01*
X126412980Y-100857151D01*
X126423470Y-100879329D01*
X126431735Y-100902429D01*
X126437696Y-100926227D01*
X126441296Y-100950496D01*
X126442500Y-100975000D01*
X126442500Y-102225000D01*
X126441296Y-102249504D01*
X126437696Y-102273773D01*
X126431735Y-102297571D01*
X126423470Y-102320671D01*
X126412980Y-102342849D01*
X126400367Y-102363893D01*
X126385753Y-102383598D01*
X126369277Y-102401777D01*
X126351098Y-102418253D01*
X126331393Y-102432867D01*
X126310349Y-102445480D01*
X126288171Y-102455970D01*
X126265071Y-102464235D01*
X126241273Y-102470196D01*
X126217004Y-102473796D01*
X126192500Y-102475000D01*
X125267500Y-102475000D01*
X125242996Y-102473796D01*
X125218727Y-102470196D01*
X125194929Y-102464235D01*
X125171829Y-102455970D01*
X125149651Y-102445480D01*
X125128607Y-102432867D01*
X125108902Y-102418253D01*
X125090723Y-102401777D01*
X125074247Y-102383598D01*
X125059633Y-102363893D01*
X125047020Y-102342849D01*
X125036530Y-102320671D01*
X125028265Y-102297571D01*
X125022304Y-102273773D01*
X125018704Y-102249504D01*
X125017500Y-102225000D01*
X125017500Y-100975000D01*
X125018704Y-100950496D01*
X125022304Y-100926227D01*
X125028265Y-100902429D01*
X125036530Y-100879329D01*
X125047020Y-100857151D01*
X125059633Y-100836107D01*
X125074247Y-100816402D01*
X125090723Y-100798223D01*
X125108902Y-100781747D01*
X125128607Y-100767133D01*
X125149651Y-100754520D01*
X125171829Y-100744030D01*
X125194929Y-100735765D01*
X125218727Y-100729804D01*
X125242996Y-100726204D01*
X125267500Y-100725000D01*
X126192500Y-100725000D01*
X126217004Y-100726204D01*
X126217004Y-100726204D01*
G37*
D13*
X125730000Y-101600000D03*
D12*
G36*
X123242004Y-100726204D02*
X123266273Y-100729804D01*
X123290071Y-100735765D01*
X123313171Y-100744030D01*
X123335349Y-100754520D01*
X123356393Y-100767133D01*
X123376098Y-100781747D01*
X123394277Y-100798223D01*
X123410753Y-100816402D01*
X123425367Y-100836107D01*
X123437980Y-100857151D01*
X123448470Y-100879329D01*
X123456735Y-100902429D01*
X123462696Y-100926227D01*
X123466296Y-100950496D01*
X123467500Y-100975000D01*
X123467500Y-102225000D01*
X123466296Y-102249504D01*
X123462696Y-102273773D01*
X123456735Y-102297571D01*
X123448470Y-102320671D01*
X123437980Y-102342849D01*
X123425367Y-102363893D01*
X123410753Y-102383598D01*
X123394277Y-102401777D01*
X123376098Y-102418253D01*
X123356393Y-102432867D01*
X123335349Y-102445480D01*
X123313171Y-102455970D01*
X123290071Y-102464235D01*
X123266273Y-102470196D01*
X123242004Y-102473796D01*
X123217500Y-102475000D01*
X122292500Y-102475000D01*
X122267996Y-102473796D01*
X122243727Y-102470196D01*
X122219929Y-102464235D01*
X122196829Y-102455970D01*
X122174651Y-102445480D01*
X122153607Y-102432867D01*
X122133902Y-102418253D01*
X122115723Y-102401777D01*
X122099247Y-102383598D01*
X122084633Y-102363893D01*
X122072020Y-102342849D01*
X122061530Y-102320671D01*
X122053265Y-102297571D01*
X122047304Y-102273773D01*
X122043704Y-102249504D01*
X122042500Y-102225000D01*
X122042500Y-100975000D01*
X122043704Y-100950496D01*
X122047304Y-100926227D01*
X122053265Y-100902429D01*
X122061530Y-100879329D01*
X122072020Y-100857151D01*
X122084633Y-100836107D01*
X122099247Y-100816402D01*
X122115723Y-100798223D01*
X122133902Y-100781747D01*
X122153607Y-100767133D01*
X122174651Y-100754520D01*
X122196829Y-100744030D01*
X122219929Y-100735765D01*
X122243727Y-100729804D01*
X122267996Y-100726204D01*
X122292500Y-100725000D01*
X123217500Y-100725000D01*
X123242004Y-100726204D01*
X123242004Y-100726204D01*
G37*
D13*
X122755000Y-101600000D03*
G04 #@! TD*
D12*
G04 #@! TO.C,C3*
G36*
X97224504Y-63896204D02*
X97248773Y-63899804D01*
X97272571Y-63905765D01*
X97295671Y-63914030D01*
X97317849Y-63924520D01*
X97338893Y-63937133D01*
X97358598Y-63951747D01*
X97376777Y-63968223D01*
X97393253Y-63986402D01*
X97407867Y-64006107D01*
X97420480Y-64027151D01*
X97430970Y-64049329D01*
X97439235Y-64072429D01*
X97445196Y-64096227D01*
X97448796Y-64120496D01*
X97450000Y-64145000D01*
X97450000Y-65395000D01*
X97448796Y-65419504D01*
X97445196Y-65443773D01*
X97439235Y-65467571D01*
X97430970Y-65490671D01*
X97420480Y-65512849D01*
X97407867Y-65533893D01*
X97393253Y-65553598D01*
X97376777Y-65571777D01*
X97358598Y-65588253D01*
X97338893Y-65602867D01*
X97317849Y-65615480D01*
X97295671Y-65625970D01*
X97272571Y-65634235D01*
X97248773Y-65640196D01*
X97224504Y-65643796D01*
X97200000Y-65645000D01*
X96275000Y-65645000D01*
X96250496Y-65643796D01*
X96226227Y-65640196D01*
X96202429Y-65634235D01*
X96179329Y-65625970D01*
X96157151Y-65615480D01*
X96136107Y-65602867D01*
X96116402Y-65588253D01*
X96098223Y-65571777D01*
X96081747Y-65553598D01*
X96067133Y-65533893D01*
X96054520Y-65512849D01*
X96044030Y-65490671D01*
X96035765Y-65467571D01*
X96029804Y-65443773D01*
X96026204Y-65419504D01*
X96025000Y-65395000D01*
X96025000Y-64145000D01*
X96026204Y-64120496D01*
X96029804Y-64096227D01*
X96035765Y-64072429D01*
X96044030Y-64049329D01*
X96054520Y-64027151D01*
X96067133Y-64006107D01*
X96081747Y-63986402D01*
X96098223Y-63968223D01*
X96116402Y-63951747D01*
X96136107Y-63937133D01*
X96157151Y-63924520D01*
X96179329Y-63914030D01*
X96202429Y-63905765D01*
X96226227Y-63899804D01*
X96250496Y-63896204D01*
X96275000Y-63895000D01*
X97200000Y-63895000D01*
X97224504Y-63896204D01*
X97224504Y-63896204D01*
G37*
D13*
X96737500Y-64770000D03*
D12*
G36*
X94249504Y-63896204D02*
X94273773Y-63899804D01*
X94297571Y-63905765D01*
X94320671Y-63914030D01*
X94342849Y-63924520D01*
X94363893Y-63937133D01*
X94383598Y-63951747D01*
X94401777Y-63968223D01*
X94418253Y-63986402D01*
X94432867Y-64006107D01*
X94445480Y-64027151D01*
X94455970Y-64049329D01*
X94464235Y-64072429D01*
X94470196Y-64096227D01*
X94473796Y-64120496D01*
X94475000Y-64145000D01*
X94475000Y-65395000D01*
X94473796Y-65419504D01*
X94470196Y-65443773D01*
X94464235Y-65467571D01*
X94455970Y-65490671D01*
X94445480Y-65512849D01*
X94432867Y-65533893D01*
X94418253Y-65553598D01*
X94401777Y-65571777D01*
X94383598Y-65588253D01*
X94363893Y-65602867D01*
X94342849Y-65615480D01*
X94320671Y-65625970D01*
X94297571Y-65634235D01*
X94273773Y-65640196D01*
X94249504Y-65643796D01*
X94225000Y-65645000D01*
X93300000Y-65645000D01*
X93275496Y-65643796D01*
X93251227Y-65640196D01*
X93227429Y-65634235D01*
X93204329Y-65625970D01*
X93182151Y-65615480D01*
X93161107Y-65602867D01*
X93141402Y-65588253D01*
X93123223Y-65571777D01*
X93106747Y-65553598D01*
X93092133Y-65533893D01*
X93079520Y-65512849D01*
X93069030Y-65490671D01*
X93060765Y-65467571D01*
X93054804Y-65443773D01*
X93051204Y-65419504D01*
X93050000Y-65395000D01*
X93050000Y-64145000D01*
X93051204Y-64120496D01*
X93054804Y-64096227D01*
X93060765Y-64072429D01*
X93069030Y-64049329D01*
X93079520Y-64027151D01*
X93092133Y-64006107D01*
X93106747Y-63986402D01*
X93123223Y-63968223D01*
X93141402Y-63951747D01*
X93161107Y-63937133D01*
X93182151Y-63924520D01*
X93204329Y-63914030D01*
X93227429Y-63905765D01*
X93251227Y-63899804D01*
X93275496Y-63896204D01*
X93300000Y-63895000D01*
X94225000Y-63895000D01*
X94249504Y-63896204D01*
X94249504Y-63896204D01*
G37*
D13*
X93762500Y-64770000D03*
G04 #@! TD*
D12*
G04 #@! TO.C,C4*
G36*
X94249504Y-60086204D02*
X94273773Y-60089804D01*
X94297571Y-60095765D01*
X94320671Y-60104030D01*
X94342849Y-60114520D01*
X94363893Y-60127133D01*
X94383598Y-60141747D01*
X94401777Y-60158223D01*
X94418253Y-60176402D01*
X94432867Y-60196107D01*
X94445480Y-60217151D01*
X94455970Y-60239329D01*
X94464235Y-60262429D01*
X94470196Y-60286227D01*
X94473796Y-60310496D01*
X94475000Y-60335000D01*
X94475000Y-61585000D01*
X94473796Y-61609504D01*
X94470196Y-61633773D01*
X94464235Y-61657571D01*
X94455970Y-61680671D01*
X94445480Y-61702849D01*
X94432867Y-61723893D01*
X94418253Y-61743598D01*
X94401777Y-61761777D01*
X94383598Y-61778253D01*
X94363893Y-61792867D01*
X94342849Y-61805480D01*
X94320671Y-61815970D01*
X94297571Y-61824235D01*
X94273773Y-61830196D01*
X94249504Y-61833796D01*
X94225000Y-61835000D01*
X93300000Y-61835000D01*
X93275496Y-61833796D01*
X93251227Y-61830196D01*
X93227429Y-61824235D01*
X93204329Y-61815970D01*
X93182151Y-61805480D01*
X93161107Y-61792867D01*
X93141402Y-61778253D01*
X93123223Y-61761777D01*
X93106747Y-61743598D01*
X93092133Y-61723893D01*
X93079520Y-61702849D01*
X93069030Y-61680671D01*
X93060765Y-61657571D01*
X93054804Y-61633773D01*
X93051204Y-61609504D01*
X93050000Y-61585000D01*
X93050000Y-60335000D01*
X93051204Y-60310496D01*
X93054804Y-60286227D01*
X93060765Y-60262429D01*
X93069030Y-60239329D01*
X93079520Y-60217151D01*
X93092133Y-60196107D01*
X93106747Y-60176402D01*
X93123223Y-60158223D01*
X93141402Y-60141747D01*
X93161107Y-60127133D01*
X93182151Y-60114520D01*
X93204329Y-60104030D01*
X93227429Y-60095765D01*
X93251227Y-60089804D01*
X93275496Y-60086204D01*
X93300000Y-60085000D01*
X94225000Y-60085000D01*
X94249504Y-60086204D01*
X94249504Y-60086204D01*
G37*
D13*
X93762500Y-60960000D03*
D12*
G36*
X97224504Y-60086204D02*
X97248773Y-60089804D01*
X97272571Y-60095765D01*
X97295671Y-60104030D01*
X97317849Y-60114520D01*
X97338893Y-60127133D01*
X97358598Y-60141747D01*
X97376777Y-60158223D01*
X97393253Y-60176402D01*
X97407867Y-60196107D01*
X97420480Y-60217151D01*
X97430970Y-60239329D01*
X97439235Y-60262429D01*
X97445196Y-60286227D01*
X97448796Y-60310496D01*
X97450000Y-60335000D01*
X97450000Y-61585000D01*
X97448796Y-61609504D01*
X97445196Y-61633773D01*
X97439235Y-61657571D01*
X97430970Y-61680671D01*
X97420480Y-61702849D01*
X97407867Y-61723893D01*
X97393253Y-61743598D01*
X97376777Y-61761777D01*
X97358598Y-61778253D01*
X97338893Y-61792867D01*
X97317849Y-61805480D01*
X97295671Y-61815970D01*
X97272571Y-61824235D01*
X97248773Y-61830196D01*
X97224504Y-61833796D01*
X97200000Y-61835000D01*
X96275000Y-61835000D01*
X96250496Y-61833796D01*
X96226227Y-61830196D01*
X96202429Y-61824235D01*
X96179329Y-61815970D01*
X96157151Y-61805480D01*
X96136107Y-61792867D01*
X96116402Y-61778253D01*
X96098223Y-61761777D01*
X96081747Y-61743598D01*
X96067133Y-61723893D01*
X96054520Y-61702849D01*
X96044030Y-61680671D01*
X96035765Y-61657571D01*
X96029804Y-61633773D01*
X96026204Y-61609504D01*
X96025000Y-61585000D01*
X96025000Y-60335000D01*
X96026204Y-60310496D01*
X96029804Y-60286227D01*
X96035765Y-60262429D01*
X96044030Y-60239329D01*
X96054520Y-60217151D01*
X96067133Y-60196107D01*
X96081747Y-60176402D01*
X96098223Y-60158223D01*
X96116402Y-60141747D01*
X96136107Y-60127133D01*
X96157151Y-60114520D01*
X96179329Y-60104030D01*
X96202429Y-60095765D01*
X96226227Y-60089804D01*
X96250496Y-60086204D01*
X96275000Y-60085000D01*
X97200000Y-60085000D01*
X97224504Y-60086204D01*
X97224504Y-60086204D01*
G37*
D13*
X96737500Y-60960000D03*
G04 #@! TD*
D12*
G04 #@! TO.C,C5*
G36*
X102087004Y-76596204D02*
X102111273Y-76599804D01*
X102135071Y-76605765D01*
X102158171Y-76614030D01*
X102180349Y-76624520D01*
X102201393Y-76637133D01*
X102221098Y-76651747D01*
X102239277Y-76668223D01*
X102255753Y-76686402D01*
X102270367Y-76706107D01*
X102282980Y-76727151D01*
X102293470Y-76749329D01*
X102301735Y-76772429D01*
X102307696Y-76796227D01*
X102311296Y-76820496D01*
X102312500Y-76845000D01*
X102312500Y-78095000D01*
X102311296Y-78119504D01*
X102307696Y-78143773D01*
X102301735Y-78167571D01*
X102293470Y-78190671D01*
X102282980Y-78212849D01*
X102270367Y-78233893D01*
X102255753Y-78253598D01*
X102239277Y-78271777D01*
X102221098Y-78288253D01*
X102201393Y-78302867D01*
X102180349Y-78315480D01*
X102158171Y-78325970D01*
X102135071Y-78334235D01*
X102111273Y-78340196D01*
X102087004Y-78343796D01*
X102062500Y-78345000D01*
X101137500Y-78345000D01*
X101112996Y-78343796D01*
X101088727Y-78340196D01*
X101064929Y-78334235D01*
X101041829Y-78325970D01*
X101019651Y-78315480D01*
X100998607Y-78302867D01*
X100978902Y-78288253D01*
X100960723Y-78271777D01*
X100944247Y-78253598D01*
X100929633Y-78233893D01*
X100917020Y-78212849D01*
X100906530Y-78190671D01*
X100898265Y-78167571D01*
X100892304Y-78143773D01*
X100888704Y-78119504D01*
X100887500Y-78095000D01*
X100887500Y-76845000D01*
X100888704Y-76820496D01*
X100892304Y-76796227D01*
X100898265Y-76772429D01*
X100906530Y-76749329D01*
X100917020Y-76727151D01*
X100929633Y-76706107D01*
X100944247Y-76686402D01*
X100960723Y-76668223D01*
X100978902Y-76651747D01*
X100998607Y-76637133D01*
X101019651Y-76624520D01*
X101041829Y-76614030D01*
X101064929Y-76605765D01*
X101088727Y-76599804D01*
X101112996Y-76596204D01*
X101137500Y-76595000D01*
X102062500Y-76595000D01*
X102087004Y-76596204D01*
X102087004Y-76596204D01*
G37*
D13*
X101600000Y-77470000D03*
D12*
G36*
X105062004Y-76596204D02*
X105086273Y-76599804D01*
X105110071Y-76605765D01*
X105133171Y-76614030D01*
X105155349Y-76624520D01*
X105176393Y-76637133D01*
X105196098Y-76651747D01*
X105214277Y-76668223D01*
X105230753Y-76686402D01*
X105245367Y-76706107D01*
X105257980Y-76727151D01*
X105268470Y-76749329D01*
X105276735Y-76772429D01*
X105282696Y-76796227D01*
X105286296Y-76820496D01*
X105287500Y-76845000D01*
X105287500Y-78095000D01*
X105286296Y-78119504D01*
X105282696Y-78143773D01*
X105276735Y-78167571D01*
X105268470Y-78190671D01*
X105257980Y-78212849D01*
X105245367Y-78233893D01*
X105230753Y-78253598D01*
X105214277Y-78271777D01*
X105196098Y-78288253D01*
X105176393Y-78302867D01*
X105155349Y-78315480D01*
X105133171Y-78325970D01*
X105110071Y-78334235D01*
X105086273Y-78340196D01*
X105062004Y-78343796D01*
X105037500Y-78345000D01*
X104112500Y-78345000D01*
X104087996Y-78343796D01*
X104063727Y-78340196D01*
X104039929Y-78334235D01*
X104016829Y-78325970D01*
X103994651Y-78315480D01*
X103973607Y-78302867D01*
X103953902Y-78288253D01*
X103935723Y-78271777D01*
X103919247Y-78253598D01*
X103904633Y-78233893D01*
X103892020Y-78212849D01*
X103881530Y-78190671D01*
X103873265Y-78167571D01*
X103867304Y-78143773D01*
X103863704Y-78119504D01*
X103862500Y-78095000D01*
X103862500Y-76845000D01*
X103863704Y-76820496D01*
X103867304Y-76796227D01*
X103873265Y-76772429D01*
X103881530Y-76749329D01*
X103892020Y-76727151D01*
X103904633Y-76706107D01*
X103919247Y-76686402D01*
X103935723Y-76668223D01*
X103953902Y-76651747D01*
X103973607Y-76637133D01*
X103994651Y-76624520D01*
X104016829Y-76614030D01*
X104039929Y-76605765D01*
X104063727Y-76599804D01*
X104087996Y-76596204D01*
X104112500Y-76595000D01*
X105037500Y-76595000D01*
X105062004Y-76596204D01*
X105062004Y-76596204D01*
G37*
D13*
X104575000Y-77470000D03*
G04 #@! TD*
D12*
G04 #@! TO.C,C6*
G36*
X105062004Y-80406204D02*
X105086273Y-80409804D01*
X105110071Y-80415765D01*
X105133171Y-80424030D01*
X105155349Y-80434520D01*
X105176393Y-80447133D01*
X105196098Y-80461747D01*
X105214277Y-80478223D01*
X105230753Y-80496402D01*
X105245367Y-80516107D01*
X105257980Y-80537151D01*
X105268470Y-80559329D01*
X105276735Y-80582429D01*
X105282696Y-80606227D01*
X105286296Y-80630496D01*
X105287500Y-80655000D01*
X105287500Y-81905000D01*
X105286296Y-81929504D01*
X105282696Y-81953773D01*
X105276735Y-81977571D01*
X105268470Y-82000671D01*
X105257980Y-82022849D01*
X105245367Y-82043893D01*
X105230753Y-82063598D01*
X105214277Y-82081777D01*
X105196098Y-82098253D01*
X105176393Y-82112867D01*
X105155349Y-82125480D01*
X105133171Y-82135970D01*
X105110071Y-82144235D01*
X105086273Y-82150196D01*
X105062004Y-82153796D01*
X105037500Y-82155000D01*
X104112500Y-82155000D01*
X104087996Y-82153796D01*
X104063727Y-82150196D01*
X104039929Y-82144235D01*
X104016829Y-82135970D01*
X103994651Y-82125480D01*
X103973607Y-82112867D01*
X103953902Y-82098253D01*
X103935723Y-82081777D01*
X103919247Y-82063598D01*
X103904633Y-82043893D01*
X103892020Y-82022849D01*
X103881530Y-82000671D01*
X103873265Y-81977571D01*
X103867304Y-81953773D01*
X103863704Y-81929504D01*
X103862500Y-81905000D01*
X103862500Y-80655000D01*
X103863704Y-80630496D01*
X103867304Y-80606227D01*
X103873265Y-80582429D01*
X103881530Y-80559329D01*
X103892020Y-80537151D01*
X103904633Y-80516107D01*
X103919247Y-80496402D01*
X103935723Y-80478223D01*
X103953902Y-80461747D01*
X103973607Y-80447133D01*
X103994651Y-80434520D01*
X104016829Y-80424030D01*
X104039929Y-80415765D01*
X104063727Y-80409804D01*
X104087996Y-80406204D01*
X104112500Y-80405000D01*
X105037500Y-80405000D01*
X105062004Y-80406204D01*
X105062004Y-80406204D01*
G37*
D13*
X104575000Y-81280000D03*
D12*
G36*
X102087004Y-80406204D02*
X102111273Y-80409804D01*
X102135071Y-80415765D01*
X102158171Y-80424030D01*
X102180349Y-80434520D01*
X102201393Y-80447133D01*
X102221098Y-80461747D01*
X102239277Y-80478223D01*
X102255753Y-80496402D01*
X102270367Y-80516107D01*
X102282980Y-80537151D01*
X102293470Y-80559329D01*
X102301735Y-80582429D01*
X102307696Y-80606227D01*
X102311296Y-80630496D01*
X102312500Y-80655000D01*
X102312500Y-81905000D01*
X102311296Y-81929504D01*
X102307696Y-81953773D01*
X102301735Y-81977571D01*
X102293470Y-82000671D01*
X102282980Y-82022849D01*
X102270367Y-82043893D01*
X102255753Y-82063598D01*
X102239277Y-82081777D01*
X102221098Y-82098253D01*
X102201393Y-82112867D01*
X102180349Y-82125480D01*
X102158171Y-82135970D01*
X102135071Y-82144235D01*
X102111273Y-82150196D01*
X102087004Y-82153796D01*
X102062500Y-82155000D01*
X101137500Y-82155000D01*
X101112996Y-82153796D01*
X101088727Y-82150196D01*
X101064929Y-82144235D01*
X101041829Y-82135970D01*
X101019651Y-82125480D01*
X100998607Y-82112867D01*
X100978902Y-82098253D01*
X100960723Y-82081777D01*
X100944247Y-82063598D01*
X100929633Y-82043893D01*
X100917020Y-82022849D01*
X100906530Y-82000671D01*
X100898265Y-81977571D01*
X100892304Y-81953773D01*
X100888704Y-81929504D01*
X100887500Y-81905000D01*
X100887500Y-80655000D01*
X100888704Y-80630496D01*
X100892304Y-80606227D01*
X100898265Y-80582429D01*
X100906530Y-80559329D01*
X100917020Y-80537151D01*
X100929633Y-80516107D01*
X100944247Y-80496402D01*
X100960723Y-80478223D01*
X100978902Y-80461747D01*
X100998607Y-80447133D01*
X101019651Y-80434520D01*
X101041829Y-80424030D01*
X101064929Y-80415765D01*
X101088727Y-80409804D01*
X101112996Y-80406204D01*
X101137500Y-80405000D01*
X102062500Y-80405000D01*
X102087004Y-80406204D01*
X102087004Y-80406204D01*
G37*
D13*
X101600000Y-81280000D03*
G04 #@! TD*
D14*
G04 #@! TO.C,D1*
X107060000Y-102870000D03*
X103760000Y-102870000D03*
G04 #@! TD*
D12*
G04 #@! TO.C,F1*
G36*
X164099504Y-33416204D02*
X164123773Y-33419804D01*
X164147571Y-33425765D01*
X164170671Y-33434030D01*
X164192849Y-33444520D01*
X164213893Y-33457133D01*
X164233598Y-33471747D01*
X164251777Y-33488223D01*
X164268253Y-33506402D01*
X164282867Y-33526107D01*
X164295480Y-33547151D01*
X164305970Y-33569329D01*
X164314235Y-33592429D01*
X164320196Y-33616227D01*
X164323796Y-33640496D01*
X164325000Y-33665000D01*
X164325000Y-34915000D01*
X164323796Y-34939504D01*
X164320196Y-34963773D01*
X164314235Y-34987571D01*
X164305970Y-35010671D01*
X164295480Y-35032849D01*
X164282867Y-35053893D01*
X164268253Y-35073598D01*
X164251777Y-35091777D01*
X164233598Y-35108253D01*
X164213893Y-35122867D01*
X164192849Y-35135480D01*
X164170671Y-35145970D01*
X164147571Y-35154235D01*
X164123773Y-35160196D01*
X164099504Y-35163796D01*
X164075000Y-35165000D01*
X163325000Y-35165000D01*
X163300496Y-35163796D01*
X163276227Y-35160196D01*
X163252429Y-35154235D01*
X163229329Y-35145970D01*
X163207151Y-35135480D01*
X163186107Y-35122867D01*
X163166402Y-35108253D01*
X163148223Y-35091777D01*
X163131747Y-35073598D01*
X163117133Y-35053893D01*
X163104520Y-35032849D01*
X163094030Y-35010671D01*
X163085765Y-34987571D01*
X163079804Y-34963773D01*
X163076204Y-34939504D01*
X163075000Y-34915000D01*
X163075000Y-33665000D01*
X163076204Y-33640496D01*
X163079804Y-33616227D01*
X163085765Y-33592429D01*
X163094030Y-33569329D01*
X163104520Y-33547151D01*
X163117133Y-33526107D01*
X163131747Y-33506402D01*
X163148223Y-33488223D01*
X163166402Y-33471747D01*
X163186107Y-33457133D01*
X163207151Y-33444520D01*
X163229329Y-33434030D01*
X163252429Y-33425765D01*
X163276227Y-33419804D01*
X163300496Y-33416204D01*
X163325000Y-33415000D01*
X164075000Y-33415000D01*
X164099504Y-33416204D01*
X164099504Y-33416204D01*
G37*
D15*
X163700000Y-34290000D03*
D12*
G36*
X166899504Y-33416204D02*
X166923773Y-33419804D01*
X166947571Y-33425765D01*
X166970671Y-33434030D01*
X166992849Y-33444520D01*
X167013893Y-33457133D01*
X167033598Y-33471747D01*
X167051777Y-33488223D01*
X167068253Y-33506402D01*
X167082867Y-33526107D01*
X167095480Y-33547151D01*
X167105970Y-33569329D01*
X167114235Y-33592429D01*
X167120196Y-33616227D01*
X167123796Y-33640496D01*
X167125000Y-33665000D01*
X167125000Y-34915000D01*
X167123796Y-34939504D01*
X167120196Y-34963773D01*
X167114235Y-34987571D01*
X167105970Y-35010671D01*
X167095480Y-35032849D01*
X167082867Y-35053893D01*
X167068253Y-35073598D01*
X167051777Y-35091777D01*
X167033598Y-35108253D01*
X167013893Y-35122867D01*
X166992849Y-35135480D01*
X166970671Y-35145970D01*
X166947571Y-35154235D01*
X166923773Y-35160196D01*
X166899504Y-35163796D01*
X166875000Y-35165000D01*
X166125000Y-35165000D01*
X166100496Y-35163796D01*
X166076227Y-35160196D01*
X166052429Y-35154235D01*
X166029329Y-35145970D01*
X166007151Y-35135480D01*
X165986107Y-35122867D01*
X165966402Y-35108253D01*
X165948223Y-35091777D01*
X165931747Y-35073598D01*
X165917133Y-35053893D01*
X165904520Y-35032849D01*
X165894030Y-35010671D01*
X165885765Y-34987571D01*
X165879804Y-34963773D01*
X165876204Y-34939504D01*
X165875000Y-34915000D01*
X165875000Y-33665000D01*
X165876204Y-33640496D01*
X165879804Y-33616227D01*
X165885765Y-33592429D01*
X165894030Y-33569329D01*
X165904520Y-33547151D01*
X165917133Y-33526107D01*
X165931747Y-33506402D01*
X165948223Y-33488223D01*
X165966402Y-33471747D01*
X165986107Y-33457133D01*
X166007151Y-33444520D01*
X166029329Y-33434030D01*
X166052429Y-33425765D01*
X166076227Y-33419804D01*
X166100496Y-33416204D01*
X166125000Y-33415000D01*
X166875000Y-33415000D01*
X166899504Y-33416204D01*
X166899504Y-33416204D01*
G37*
D15*
X166500000Y-34290000D03*
G04 #@! TD*
D16*
G04 #@! TO.C,Q1*
X150130000Y-75250000D03*
X150130000Y-77150000D03*
X152130000Y-76200000D03*
G04 #@! TD*
G04 #@! TO.C,Q2*
X152130000Y-92710000D03*
X150130000Y-93660000D03*
X150130000Y-91760000D03*
G04 #@! TD*
G04 #@! TO.C,Q3*
X150130000Y-108270000D03*
X150130000Y-110170000D03*
X152130000Y-109220000D03*
G04 #@! TD*
G04 #@! TO.C,Q4*
X152130000Y-59690000D03*
X150130000Y-60640000D03*
X150130000Y-58740000D03*
G04 #@! TD*
D12*
G04 #@! TO.C,R1*
G36*
X135279504Y-98186204D02*
X135303773Y-98189804D01*
X135327571Y-98195765D01*
X135350671Y-98204030D01*
X135372849Y-98214520D01*
X135393893Y-98227133D01*
X135413598Y-98241747D01*
X135431777Y-98258223D01*
X135448253Y-98276402D01*
X135462867Y-98296107D01*
X135475480Y-98317151D01*
X135485970Y-98339329D01*
X135494235Y-98362429D01*
X135500196Y-98386227D01*
X135503796Y-98410496D01*
X135505000Y-98435000D01*
X135505000Y-99685000D01*
X135503796Y-99709504D01*
X135500196Y-99733773D01*
X135494235Y-99757571D01*
X135485970Y-99780671D01*
X135475480Y-99802849D01*
X135462867Y-99823893D01*
X135448253Y-99843598D01*
X135431777Y-99861777D01*
X135413598Y-99878253D01*
X135393893Y-99892867D01*
X135372849Y-99905480D01*
X135350671Y-99915970D01*
X135327571Y-99924235D01*
X135303773Y-99930196D01*
X135279504Y-99933796D01*
X135255000Y-99935000D01*
X134505000Y-99935000D01*
X134480496Y-99933796D01*
X134456227Y-99930196D01*
X134432429Y-99924235D01*
X134409329Y-99915970D01*
X134387151Y-99905480D01*
X134366107Y-99892867D01*
X134346402Y-99878253D01*
X134328223Y-99861777D01*
X134311747Y-99843598D01*
X134297133Y-99823893D01*
X134284520Y-99802849D01*
X134274030Y-99780671D01*
X134265765Y-99757571D01*
X134259804Y-99733773D01*
X134256204Y-99709504D01*
X134255000Y-99685000D01*
X134255000Y-98435000D01*
X134256204Y-98410496D01*
X134259804Y-98386227D01*
X134265765Y-98362429D01*
X134274030Y-98339329D01*
X134284520Y-98317151D01*
X134297133Y-98296107D01*
X134311747Y-98276402D01*
X134328223Y-98258223D01*
X134346402Y-98241747D01*
X134366107Y-98227133D01*
X134387151Y-98214520D01*
X134409329Y-98204030D01*
X134432429Y-98195765D01*
X134456227Y-98189804D01*
X134480496Y-98186204D01*
X134505000Y-98185000D01*
X135255000Y-98185000D01*
X135279504Y-98186204D01*
X135279504Y-98186204D01*
G37*
D15*
X134880000Y-99060000D03*
D12*
G36*
X132479504Y-98186204D02*
X132503773Y-98189804D01*
X132527571Y-98195765D01*
X132550671Y-98204030D01*
X132572849Y-98214520D01*
X132593893Y-98227133D01*
X132613598Y-98241747D01*
X132631777Y-98258223D01*
X132648253Y-98276402D01*
X132662867Y-98296107D01*
X132675480Y-98317151D01*
X132685970Y-98339329D01*
X132694235Y-98362429D01*
X132700196Y-98386227D01*
X132703796Y-98410496D01*
X132705000Y-98435000D01*
X132705000Y-99685000D01*
X132703796Y-99709504D01*
X132700196Y-99733773D01*
X132694235Y-99757571D01*
X132685970Y-99780671D01*
X132675480Y-99802849D01*
X132662867Y-99823893D01*
X132648253Y-99843598D01*
X132631777Y-99861777D01*
X132613598Y-99878253D01*
X132593893Y-99892867D01*
X132572849Y-99905480D01*
X132550671Y-99915970D01*
X132527571Y-99924235D01*
X132503773Y-99930196D01*
X132479504Y-99933796D01*
X132455000Y-99935000D01*
X131705000Y-99935000D01*
X131680496Y-99933796D01*
X131656227Y-99930196D01*
X131632429Y-99924235D01*
X131609329Y-99915970D01*
X131587151Y-99905480D01*
X131566107Y-99892867D01*
X131546402Y-99878253D01*
X131528223Y-99861777D01*
X131511747Y-99843598D01*
X131497133Y-99823893D01*
X131484520Y-99802849D01*
X131474030Y-99780671D01*
X131465765Y-99757571D01*
X131459804Y-99733773D01*
X131456204Y-99709504D01*
X131455000Y-99685000D01*
X131455000Y-98435000D01*
X131456204Y-98410496D01*
X131459804Y-98386227D01*
X131465765Y-98362429D01*
X131474030Y-98339329D01*
X131484520Y-98317151D01*
X131497133Y-98296107D01*
X131511747Y-98276402D01*
X131528223Y-98258223D01*
X131546402Y-98241747D01*
X131566107Y-98227133D01*
X131587151Y-98214520D01*
X131609329Y-98204030D01*
X131632429Y-98195765D01*
X131656227Y-98189804D01*
X131680496Y-98186204D01*
X131705000Y-98185000D01*
X132455000Y-98185000D01*
X132479504Y-98186204D01*
X132479504Y-98186204D01*
G37*
D15*
X132080000Y-99060000D03*
G04 #@! TD*
D12*
G04 #@! TO.C,R2*
G36*
X132349504Y-95646204D02*
X132373773Y-95649804D01*
X132397571Y-95655765D01*
X132420671Y-95664030D01*
X132442849Y-95674520D01*
X132463893Y-95687133D01*
X132483598Y-95701747D01*
X132501777Y-95718223D01*
X132518253Y-95736402D01*
X132532867Y-95756107D01*
X132545480Y-95777151D01*
X132555970Y-95799329D01*
X132564235Y-95822429D01*
X132570196Y-95846227D01*
X132573796Y-95870496D01*
X132575000Y-95895000D01*
X132575000Y-97145000D01*
X132573796Y-97169504D01*
X132570196Y-97193773D01*
X132564235Y-97217571D01*
X132555970Y-97240671D01*
X132545480Y-97262849D01*
X132532867Y-97283893D01*
X132518253Y-97303598D01*
X132501777Y-97321777D01*
X132483598Y-97338253D01*
X132463893Y-97352867D01*
X132442849Y-97365480D01*
X132420671Y-97375970D01*
X132397571Y-97384235D01*
X132373773Y-97390196D01*
X132349504Y-97393796D01*
X132325000Y-97395000D01*
X131575000Y-97395000D01*
X131550496Y-97393796D01*
X131526227Y-97390196D01*
X131502429Y-97384235D01*
X131479329Y-97375970D01*
X131457151Y-97365480D01*
X131436107Y-97352867D01*
X131416402Y-97338253D01*
X131398223Y-97321777D01*
X131381747Y-97303598D01*
X131367133Y-97283893D01*
X131354520Y-97262849D01*
X131344030Y-97240671D01*
X131335765Y-97217571D01*
X131329804Y-97193773D01*
X131326204Y-97169504D01*
X131325000Y-97145000D01*
X131325000Y-95895000D01*
X131326204Y-95870496D01*
X131329804Y-95846227D01*
X131335765Y-95822429D01*
X131344030Y-95799329D01*
X131354520Y-95777151D01*
X131367133Y-95756107D01*
X131381747Y-95736402D01*
X131398223Y-95718223D01*
X131416402Y-95701747D01*
X131436107Y-95687133D01*
X131457151Y-95674520D01*
X131479329Y-95664030D01*
X131502429Y-95655765D01*
X131526227Y-95649804D01*
X131550496Y-95646204D01*
X131575000Y-95645000D01*
X132325000Y-95645000D01*
X132349504Y-95646204D01*
X132349504Y-95646204D01*
G37*
D15*
X131950000Y-96520000D03*
D12*
G36*
X135149504Y-95646204D02*
X135173773Y-95649804D01*
X135197571Y-95655765D01*
X135220671Y-95664030D01*
X135242849Y-95674520D01*
X135263893Y-95687133D01*
X135283598Y-95701747D01*
X135301777Y-95718223D01*
X135318253Y-95736402D01*
X135332867Y-95756107D01*
X135345480Y-95777151D01*
X135355970Y-95799329D01*
X135364235Y-95822429D01*
X135370196Y-95846227D01*
X135373796Y-95870496D01*
X135375000Y-95895000D01*
X135375000Y-97145000D01*
X135373796Y-97169504D01*
X135370196Y-97193773D01*
X135364235Y-97217571D01*
X135355970Y-97240671D01*
X135345480Y-97262849D01*
X135332867Y-97283893D01*
X135318253Y-97303598D01*
X135301777Y-97321777D01*
X135283598Y-97338253D01*
X135263893Y-97352867D01*
X135242849Y-97365480D01*
X135220671Y-97375970D01*
X135197571Y-97384235D01*
X135173773Y-97390196D01*
X135149504Y-97393796D01*
X135125000Y-97395000D01*
X134375000Y-97395000D01*
X134350496Y-97393796D01*
X134326227Y-97390196D01*
X134302429Y-97384235D01*
X134279329Y-97375970D01*
X134257151Y-97365480D01*
X134236107Y-97352867D01*
X134216402Y-97338253D01*
X134198223Y-97321777D01*
X134181747Y-97303598D01*
X134167133Y-97283893D01*
X134154520Y-97262849D01*
X134144030Y-97240671D01*
X134135765Y-97217571D01*
X134129804Y-97193773D01*
X134126204Y-97169504D01*
X134125000Y-97145000D01*
X134125000Y-95895000D01*
X134126204Y-95870496D01*
X134129804Y-95846227D01*
X134135765Y-95822429D01*
X134144030Y-95799329D01*
X134154520Y-95777151D01*
X134167133Y-95756107D01*
X134181747Y-95736402D01*
X134198223Y-95718223D01*
X134216402Y-95701747D01*
X134236107Y-95687133D01*
X134257151Y-95674520D01*
X134279329Y-95664030D01*
X134302429Y-95655765D01*
X134326227Y-95649804D01*
X134350496Y-95646204D01*
X134375000Y-95645000D01*
X135125000Y-95645000D01*
X135149504Y-95646204D01*
X135149504Y-95646204D01*
G37*
D15*
X134750000Y-96520000D03*
G04 #@! TD*
D12*
G04 #@! TO.C,R3*
G36*
X135149504Y-93106204D02*
X135173773Y-93109804D01*
X135197571Y-93115765D01*
X135220671Y-93124030D01*
X135242849Y-93134520D01*
X135263893Y-93147133D01*
X135283598Y-93161747D01*
X135301777Y-93178223D01*
X135318253Y-93196402D01*
X135332867Y-93216107D01*
X135345480Y-93237151D01*
X135355970Y-93259329D01*
X135364235Y-93282429D01*
X135370196Y-93306227D01*
X135373796Y-93330496D01*
X135375000Y-93355000D01*
X135375000Y-94605000D01*
X135373796Y-94629504D01*
X135370196Y-94653773D01*
X135364235Y-94677571D01*
X135355970Y-94700671D01*
X135345480Y-94722849D01*
X135332867Y-94743893D01*
X135318253Y-94763598D01*
X135301777Y-94781777D01*
X135283598Y-94798253D01*
X135263893Y-94812867D01*
X135242849Y-94825480D01*
X135220671Y-94835970D01*
X135197571Y-94844235D01*
X135173773Y-94850196D01*
X135149504Y-94853796D01*
X135125000Y-94855000D01*
X134375000Y-94855000D01*
X134350496Y-94853796D01*
X134326227Y-94850196D01*
X134302429Y-94844235D01*
X134279329Y-94835970D01*
X134257151Y-94825480D01*
X134236107Y-94812867D01*
X134216402Y-94798253D01*
X134198223Y-94781777D01*
X134181747Y-94763598D01*
X134167133Y-94743893D01*
X134154520Y-94722849D01*
X134144030Y-94700671D01*
X134135765Y-94677571D01*
X134129804Y-94653773D01*
X134126204Y-94629504D01*
X134125000Y-94605000D01*
X134125000Y-93355000D01*
X134126204Y-93330496D01*
X134129804Y-93306227D01*
X134135765Y-93282429D01*
X134144030Y-93259329D01*
X134154520Y-93237151D01*
X134167133Y-93216107D01*
X134181747Y-93196402D01*
X134198223Y-93178223D01*
X134216402Y-93161747D01*
X134236107Y-93147133D01*
X134257151Y-93134520D01*
X134279329Y-93124030D01*
X134302429Y-93115765D01*
X134326227Y-93109804D01*
X134350496Y-93106204D01*
X134375000Y-93105000D01*
X135125000Y-93105000D01*
X135149504Y-93106204D01*
X135149504Y-93106204D01*
G37*
D15*
X134750000Y-93980000D03*
D12*
G36*
X132349504Y-93106204D02*
X132373773Y-93109804D01*
X132397571Y-93115765D01*
X132420671Y-93124030D01*
X132442849Y-93134520D01*
X132463893Y-93147133D01*
X132483598Y-93161747D01*
X132501777Y-93178223D01*
X132518253Y-93196402D01*
X132532867Y-93216107D01*
X132545480Y-93237151D01*
X132555970Y-93259329D01*
X132564235Y-93282429D01*
X132570196Y-93306227D01*
X132573796Y-93330496D01*
X132575000Y-93355000D01*
X132575000Y-94605000D01*
X132573796Y-94629504D01*
X132570196Y-94653773D01*
X132564235Y-94677571D01*
X132555970Y-94700671D01*
X132545480Y-94722849D01*
X132532867Y-94743893D01*
X132518253Y-94763598D01*
X132501777Y-94781777D01*
X132483598Y-94798253D01*
X132463893Y-94812867D01*
X132442849Y-94825480D01*
X132420671Y-94835970D01*
X132397571Y-94844235D01*
X132373773Y-94850196D01*
X132349504Y-94853796D01*
X132325000Y-94855000D01*
X131575000Y-94855000D01*
X131550496Y-94853796D01*
X131526227Y-94850196D01*
X131502429Y-94844235D01*
X131479329Y-94835970D01*
X131457151Y-94825480D01*
X131436107Y-94812867D01*
X131416402Y-94798253D01*
X131398223Y-94781777D01*
X131381747Y-94763598D01*
X131367133Y-94743893D01*
X131354520Y-94722849D01*
X131344030Y-94700671D01*
X131335765Y-94677571D01*
X131329804Y-94653773D01*
X131326204Y-94629504D01*
X131325000Y-94605000D01*
X131325000Y-93355000D01*
X131326204Y-93330496D01*
X131329804Y-93306227D01*
X131335765Y-93282429D01*
X131344030Y-93259329D01*
X131354520Y-93237151D01*
X131367133Y-93216107D01*
X131381747Y-93196402D01*
X131398223Y-93178223D01*
X131416402Y-93161747D01*
X131436107Y-93147133D01*
X131457151Y-93134520D01*
X131479329Y-93124030D01*
X131502429Y-93115765D01*
X131526227Y-93109804D01*
X131550496Y-93106204D01*
X131575000Y-93105000D01*
X132325000Y-93105000D01*
X132349504Y-93106204D01*
X132349504Y-93106204D01*
G37*
D15*
X131950000Y-93980000D03*
G04 #@! TD*
D12*
G04 #@! TO.C,R4*
G36*
X96919504Y-101996204D02*
X96943773Y-101999804D01*
X96967571Y-102005765D01*
X96990671Y-102014030D01*
X97012849Y-102024520D01*
X97033893Y-102037133D01*
X97053598Y-102051747D01*
X97071777Y-102068223D01*
X97088253Y-102086402D01*
X97102867Y-102106107D01*
X97115480Y-102127151D01*
X97125970Y-102149329D01*
X97134235Y-102172429D01*
X97140196Y-102196227D01*
X97143796Y-102220496D01*
X97145000Y-102245000D01*
X97145000Y-103495000D01*
X97143796Y-103519504D01*
X97140196Y-103543773D01*
X97134235Y-103567571D01*
X97125970Y-103590671D01*
X97115480Y-103612849D01*
X97102867Y-103633893D01*
X97088253Y-103653598D01*
X97071777Y-103671777D01*
X97053598Y-103688253D01*
X97033893Y-103702867D01*
X97012849Y-103715480D01*
X96990671Y-103725970D01*
X96967571Y-103734235D01*
X96943773Y-103740196D01*
X96919504Y-103743796D01*
X96895000Y-103745000D01*
X96145000Y-103745000D01*
X96120496Y-103743796D01*
X96096227Y-103740196D01*
X96072429Y-103734235D01*
X96049329Y-103725970D01*
X96027151Y-103715480D01*
X96006107Y-103702867D01*
X95986402Y-103688253D01*
X95968223Y-103671777D01*
X95951747Y-103653598D01*
X95937133Y-103633893D01*
X95924520Y-103612849D01*
X95914030Y-103590671D01*
X95905765Y-103567571D01*
X95899804Y-103543773D01*
X95896204Y-103519504D01*
X95895000Y-103495000D01*
X95895000Y-102245000D01*
X95896204Y-102220496D01*
X95899804Y-102196227D01*
X95905765Y-102172429D01*
X95914030Y-102149329D01*
X95924520Y-102127151D01*
X95937133Y-102106107D01*
X95951747Y-102086402D01*
X95968223Y-102068223D01*
X95986402Y-102051747D01*
X96006107Y-102037133D01*
X96027151Y-102024520D01*
X96049329Y-102014030D01*
X96072429Y-102005765D01*
X96096227Y-101999804D01*
X96120496Y-101996204D01*
X96145000Y-101995000D01*
X96895000Y-101995000D01*
X96919504Y-101996204D01*
X96919504Y-101996204D01*
G37*
D15*
X96520000Y-102870000D03*
D12*
G36*
X99719504Y-101996204D02*
X99743773Y-101999804D01*
X99767571Y-102005765D01*
X99790671Y-102014030D01*
X99812849Y-102024520D01*
X99833893Y-102037133D01*
X99853598Y-102051747D01*
X99871777Y-102068223D01*
X99888253Y-102086402D01*
X99902867Y-102106107D01*
X99915480Y-102127151D01*
X99925970Y-102149329D01*
X99934235Y-102172429D01*
X99940196Y-102196227D01*
X99943796Y-102220496D01*
X99945000Y-102245000D01*
X99945000Y-103495000D01*
X99943796Y-103519504D01*
X99940196Y-103543773D01*
X99934235Y-103567571D01*
X99925970Y-103590671D01*
X99915480Y-103612849D01*
X99902867Y-103633893D01*
X99888253Y-103653598D01*
X99871777Y-103671777D01*
X99853598Y-103688253D01*
X99833893Y-103702867D01*
X99812849Y-103715480D01*
X99790671Y-103725970D01*
X99767571Y-103734235D01*
X99743773Y-103740196D01*
X99719504Y-103743796D01*
X99695000Y-103745000D01*
X98945000Y-103745000D01*
X98920496Y-103743796D01*
X98896227Y-103740196D01*
X98872429Y-103734235D01*
X98849329Y-103725970D01*
X98827151Y-103715480D01*
X98806107Y-103702867D01*
X98786402Y-103688253D01*
X98768223Y-103671777D01*
X98751747Y-103653598D01*
X98737133Y-103633893D01*
X98724520Y-103612849D01*
X98714030Y-103590671D01*
X98705765Y-103567571D01*
X98699804Y-103543773D01*
X98696204Y-103519504D01*
X98695000Y-103495000D01*
X98695000Y-102245000D01*
X98696204Y-102220496D01*
X98699804Y-102196227D01*
X98705765Y-102172429D01*
X98714030Y-102149329D01*
X98724520Y-102127151D01*
X98737133Y-102106107D01*
X98751747Y-102086402D01*
X98768223Y-102068223D01*
X98786402Y-102051747D01*
X98806107Y-102037133D01*
X98827151Y-102024520D01*
X98849329Y-102014030D01*
X98872429Y-102005765D01*
X98896227Y-101999804D01*
X98920496Y-101996204D01*
X98945000Y-101995000D01*
X99695000Y-101995000D01*
X99719504Y-101996204D01*
X99719504Y-101996204D01*
G37*
D15*
X99320000Y-102870000D03*
G04 #@! TD*
D12*
G04 #@! TO.C,R5*
G36*
X142639504Y-47386204D02*
X142663773Y-47389804D01*
X142687571Y-47395765D01*
X142710671Y-47404030D01*
X142732849Y-47414520D01*
X142753893Y-47427133D01*
X142773598Y-47441747D01*
X142791777Y-47458223D01*
X142808253Y-47476402D01*
X142822867Y-47496107D01*
X142835480Y-47517151D01*
X142845970Y-47539329D01*
X142854235Y-47562429D01*
X142860196Y-47586227D01*
X142863796Y-47610496D01*
X142865000Y-47635000D01*
X142865000Y-48885000D01*
X142863796Y-48909504D01*
X142860196Y-48933773D01*
X142854235Y-48957571D01*
X142845970Y-48980671D01*
X142835480Y-49002849D01*
X142822867Y-49023893D01*
X142808253Y-49043598D01*
X142791777Y-49061777D01*
X142773598Y-49078253D01*
X142753893Y-49092867D01*
X142732849Y-49105480D01*
X142710671Y-49115970D01*
X142687571Y-49124235D01*
X142663773Y-49130196D01*
X142639504Y-49133796D01*
X142615000Y-49135000D01*
X141865000Y-49135000D01*
X141840496Y-49133796D01*
X141816227Y-49130196D01*
X141792429Y-49124235D01*
X141769329Y-49115970D01*
X141747151Y-49105480D01*
X141726107Y-49092867D01*
X141706402Y-49078253D01*
X141688223Y-49061777D01*
X141671747Y-49043598D01*
X141657133Y-49023893D01*
X141644520Y-49002849D01*
X141634030Y-48980671D01*
X141625765Y-48957571D01*
X141619804Y-48933773D01*
X141616204Y-48909504D01*
X141615000Y-48885000D01*
X141615000Y-47635000D01*
X141616204Y-47610496D01*
X141619804Y-47586227D01*
X141625765Y-47562429D01*
X141634030Y-47539329D01*
X141644520Y-47517151D01*
X141657133Y-47496107D01*
X141671747Y-47476402D01*
X141688223Y-47458223D01*
X141706402Y-47441747D01*
X141726107Y-47427133D01*
X141747151Y-47414520D01*
X141769329Y-47404030D01*
X141792429Y-47395765D01*
X141816227Y-47389804D01*
X141840496Y-47386204D01*
X141865000Y-47385000D01*
X142615000Y-47385000D01*
X142639504Y-47386204D01*
X142639504Y-47386204D01*
G37*
D15*
X142240000Y-48260000D03*
D12*
G36*
X139839504Y-47386204D02*
X139863773Y-47389804D01*
X139887571Y-47395765D01*
X139910671Y-47404030D01*
X139932849Y-47414520D01*
X139953893Y-47427133D01*
X139973598Y-47441747D01*
X139991777Y-47458223D01*
X140008253Y-47476402D01*
X140022867Y-47496107D01*
X140035480Y-47517151D01*
X140045970Y-47539329D01*
X140054235Y-47562429D01*
X140060196Y-47586227D01*
X140063796Y-47610496D01*
X140065000Y-47635000D01*
X140065000Y-48885000D01*
X140063796Y-48909504D01*
X140060196Y-48933773D01*
X140054235Y-48957571D01*
X140045970Y-48980671D01*
X140035480Y-49002849D01*
X140022867Y-49023893D01*
X140008253Y-49043598D01*
X139991777Y-49061777D01*
X139973598Y-49078253D01*
X139953893Y-49092867D01*
X139932849Y-49105480D01*
X139910671Y-49115970D01*
X139887571Y-49124235D01*
X139863773Y-49130196D01*
X139839504Y-49133796D01*
X139815000Y-49135000D01*
X139065000Y-49135000D01*
X139040496Y-49133796D01*
X139016227Y-49130196D01*
X138992429Y-49124235D01*
X138969329Y-49115970D01*
X138947151Y-49105480D01*
X138926107Y-49092867D01*
X138906402Y-49078253D01*
X138888223Y-49061777D01*
X138871747Y-49043598D01*
X138857133Y-49023893D01*
X138844520Y-49002849D01*
X138834030Y-48980671D01*
X138825765Y-48957571D01*
X138819804Y-48933773D01*
X138816204Y-48909504D01*
X138815000Y-48885000D01*
X138815000Y-47635000D01*
X138816204Y-47610496D01*
X138819804Y-47586227D01*
X138825765Y-47562429D01*
X138834030Y-47539329D01*
X138844520Y-47517151D01*
X138857133Y-47496107D01*
X138871747Y-47476402D01*
X138888223Y-47458223D01*
X138906402Y-47441747D01*
X138926107Y-47427133D01*
X138947151Y-47414520D01*
X138969329Y-47404030D01*
X138992429Y-47395765D01*
X139016227Y-47389804D01*
X139040496Y-47386204D01*
X139065000Y-47385000D01*
X139815000Y-47385000D01*
X139839504Y-47386204D01*
X139839504Y-47386204D01*
G37*
D15*
X139440000Y-48260000D03*
G04 #@! TD*
D12*
G04 #@! TO.C,R6*
G36*
X139839504Y-63896204D02*
X139863773Y-63899804D01*
X139887571Y-63905765D01*
X139910671Y-63914030D01*
X139932849Y-63924520D01*
X139953893Y-63937133D01*
X139973598Y-63951747D01*
X139991777Y-63968223D01*
X140008253Y-63986402D01*
X140022867Y-64006107D01*
X140035480Y-64027151D01*
X140045970Y-64049329D01*
X140054235Y-64072429D01*
X140060196Y-64096227D01*
X140063796Y-64120496D01*
X140065000Y-64145000D01*
X140065000Y-65395000D01*
X140063796Y-65419504D01*
X140060196Y-65443773D01*
X140054235Y-65467571D01*
X140045970Y-65490671D01*
X140035480Y-65512849D01*
X140022867Y-65533893D01*
X140008253Y-65553598D01*
X139991777Y-65571777D01*
X139973598Y-65588253D01*
X139953893Y-65602867D01*
X139932849Y-65615480D01*
X139910671Y-65625970D01*
X139887571Y-65634235D01*
X139863773Y-65640196D01*
X139839504Y-65643796D01*
X139815000Y-65645000D01*
X139065000Y-65645000D01*
X139040496Y-65643796D01*
X139016227Y-65640196D01*
X138992429Y-65634235D01*
X138969329Y-65625970D01*
X138947151Y-65615480D01*
X138926107Y-65602867D01*
X138906402Y-65588253D01*
X138888223Y-65571777D01*
X138871747Y-65553598D01*
X138857133Y-65533893D01*
X138844520Y-65512849D01*
X138834030Y-65490671D01*
X138825765Y-65467571D01*
X138819804Y-65443773D01*
X138816204Y-65419504D01*
X138815000Y-65395000D01*
X138815000Y-64145000D01*
X138816204Y-64120496D01*
X138819804Y-64096227D01*
X138825765Y-64072429D01*
X138834030Y-64049329D01*
X138844520Y-64027151D01*
X138857133Y-64006107D01*
X138871747Y-63986402D01*
X138888223Y-63968223D01*
X138906402Y-63951747D01*
X138926107Y-63937133D01*
X138947151Y-63924520D01*
X138969329Y-63914030D01*
X138992429Y-63905765D01*
X139016227Y-63899804D01*
X139040496Y-63896204D01*
X139065000Y-63895000D01*
X139815000Y-63895000D01*
X139839504Y-63896204D01*
X139839504Y-63896204D01*
G37*
D15*
X139440000Y-64770000D03*
D12*
G36*
X142639504Y-63896204D02*
X142663773Y-63899804D01*
X142687571Y-63905765D01*
X142710671Y-63914030D01*
X142732849Y-63924520D01*
X142753893Y-63937133D01*
X142773598Y-63951747D01*
X142791777Y-63968223D01*
X142808253Y-63986402D01*
X142822867Y-64006107D01*
X142835480Y-64027151D01*
X142845970Y-64049329D01*
X142854235Y-64072429D01*
X142860196Y-64096227D01*
X142863796Y-64120496D01*
X142865000Y-64145000D01*
X142865000Y-65395000D01*
X142863796Y-65419504D01*
X142860196Y-65443773D01*
X142854235Y-65467571D01*
X142845970Y-65490671D01*
X142835480Y-65512849D01*
X142822867Y-65533893D01*
X142808253Y-65553598D01*
X142791777Y-65571777D01*
X142773598Y-65588253D01*
X142753893Y-65602867D01*
X142732849Y-65615480D01*
X142710671Y-65625970D01*
X142687571Y-65634235D01*
X142663773Y-65640196D01*
X142639504Y-65643796D01*
X142615000Y-65645000D01*
X141865000Y-65645000D01*
X141840496Y-65643796D01*
X141816227Y-65640196D01*
X141792429Y-65634235D01*
X141769329Y-65625970D01*
X141747151Y-65615480D01*
X141726107Y-65602867D01*
X141706402Y-65588253D01*
X141688223Y-65571777D01*
X141671747Y-65553598D01*
X141657133Y-65533893D01*
X141644520Y-65512849D01*
X141634030Y-65490671D01*
X141625765Y-65467571D01*
X141619804Y-65443773D01*
X141616204Y-65419504D01*
X141615000Y-65395000D01*
X141615000Y-64145000D01*
X141616204Y-64120496D01*
X141619804Y-64096227D01*
X141625765Y-64072429D01*
X141634030Y-64049329D01*
X141644520Y-64027151D01*
X141657133Y-64006107D01*
X141671747Y-63986402D01*
X141688223Y-63968223D01*
X141706402Y-63951747D01*
X141726107Y-63937133D01*
X141747151Y-63924520D01*
X141769329Y-63914030D01*
X141792429Y-63905765D01*
X141816227Y-63899804D01*
X141840496Y-63896204D01*
X141865000Y-63895000D01*
X142615000Y-63895000D01*
X142639504Y-63896204D01*
X142639504Y-63896204D01*
G37*
D15*
X142240000Y-64770000D03*
G04 #@! TD*
D12*
G04 #@! TO.C,R7*
G36*
X139839504Y-80406204D02*
X139863773Y-80409804D01*
X139887571Y-80415765D01*
X139910671Y-80424030D01*
X139932849Y-80434520D01*
X139953893Y-80447133D01*
X139973598Y-80461747D01*
X139991777Y-80478223D01*
X140008253Y-80496402D01*
X140022867Y-80516107D01*
X140035480Y-80537151D01*
X140045970Y-80559329D01*
X140054235Y-80582429D01*
X140060196Y-80606227D01*
X140063796Y-80630496D01*
X140065000Y-80655000D01*
X140065000Y-81905000D01*
X140063796Y-81929504D01*
X140060196Y-81953773D01*
X140054235Y-81977571D01*
X140045970Y-82000671D01*
X140035480Y-82022849D01*
X140022867Y-82043893D01*
X140008253Y-82063598D01*
X139991777Y-82081777D01*
X139973598Y-82098253D01*
X139953893Y-82112867D01*
X139932849Y-82125480D01*
X139910671Y-82135970D01*
X139887571Y-82144235D01*
X139863773Y-82150196D01*
X139839504Y-82153796D01*
X139815000Y-82155000D01*
X139065000Y-82155000D01*
X139040496Y-82153796D01*
X139016227Y-82150196D01*
X138992429Y-82144235D01*
X138969329Y-82135970D01*
X138947151Y-82125480D01*
X138926107Y-82112867D01*
X138906402Y-82098253D01*
X138888223Y-82081777D01*
X138871747Y-82063598D01*
X138857133Y-82043893D01*
X138844520Y-82022849D01*
X138834030Y-82000671D01*
X138825765Y-81977571D01*
X138819804Y-81953773D01*
X138816204Y-81929504D01*
X138815000Y-81905000D01*
X138815000Y-80655000D01*
X138816204Y-80630496D01*
X138819804Y-80606227D01*
X138825765Y-80582429D01*
X138834030Y-80559329D01*
X138844520Y-80537151D01*
X138857133Y-80516107D01*
X138871747Y-80496402D01*
X138888223Y-80478223D01*
X138906402Y-80461747D01*
X138926107Y-80447133D01*
X138947151Y-80434520D01*
X138969329Y-80424030D01*
X138992429Y-80415765D01*
X139016227Y-80409804D01*
X139040496Y-80406204D01*
X139065000Y-80405000D01*
X139815000Y-80405000D01*
X139839504Y-80406204D01*
X139839504Y-80406204D01*
G37*
D15*
X139440000Y-81280000D03*
D12*
G36*
X142639504Y-80406204D02*
X142663773Y-80409804D01*
X142687571Y-80415765D01*
X142710671Y-80424030D01*
X142732849Y-80434520D01*
X142753893Y-80447133D01*
X142773598Y-80461747D01*
X142791777Y-80478223D01*
X142808253Y-80496402D01*
X142822867Y-80516107D01*
X142835480Y-80537151D01*
X142845970Y-80559329D01*
X142854235Y-80582429D01*
X142860196Y-80606227D01*
X142863796Y-80630496D01*
X142865000Y-80655000D01*
X142865000Y-81905000D01*
X142863796Y-81929504D01*
X142860196Y-81953773D01*
X142854235Y-81977571D01*
X142845970Y-82000671D01*
X142835480Y-82022849D01*
X142822867Y-82043893D01*
X142808253Y-82063598D01*
X142791777Y-82081777D01*
X142773598Y-82098253D01*
X142753893Y-82112867D01*
X142732849Y-82125480D01*
X142710671Y-82135970D01*
X142687571Y-82144235D01*
X142663773Y-82150196D01*
X142639504Y-82153796D01*
X142615000Y-82155000D01*
X141865000Y-82155000D01*
X141840496Y-82153796D01*
X141816227Y-82150196D01*
X141792429Y-82144235D01*
X141769329Y-82135970D01*
X141747151Y-82125480D01*
X141726107Y-82112867D01*
X141706402Y-82098253D01*
X141688223Y-82081777D01*
X141671747Y-82063598D01*
X141657133Y-82043893D01*
X141644520Y-82022849D01*
X141634030Y-82000671D01*
X141625765Y-81977571D01*
X141619804Y-81953773D01*
X141616204Y-81929504D01*
X141615000Y-81905000D01*
X141615000Y-80655000D01*
X141616204Y-80630496D01*
X141619804Y-80606227D01*
X141625765Y-80582429D01*
X141634030Y-80559329D01*
X141644520Y-80537151D01*
X141657133Y-80516107D01*
X141671747Y-80496402D01*
X141688223Y-80478223D01*
X141706402Y-80461747D01*
X141726107Y-80447133D01*
X141747151Y-80434520D01*
X141769329Y-80424030D01*
X141792429Y-80415765D01*
X141816227Y-80409804D01*
X141840496Y-80406204D01*
X141865000Y-80405000D01*
X142615000Y-80405000D01*
X142639504Y-80406204D01*
X142639504Y-80406204D01*
G37*
D15*
X142240000Y-81280000D03*
G04 #@! TD*
D12*
G04 #@! TO.C,R8*
G36*
X142639504Y-96916204D02*
X142663773Y-96919804D01*
X142687571Y-96925765D01*
X142710671Y-96934030D01*
X142732849Y-96944520D01*
X142753893Y-96957133D01*
X142773598Y-96971747D01*
X142791777Y-96988223D01*
X142808253Y-97006402D01*
X142822867Y-97026107D01*
X142835480Y-97047151D01*
X142845970Y-97069329D01*
X142854235Y-97092429D01*
X142860196Y-97116227D01*
X142863796Y-97140496D01*
X142865000Y-97165000D01*
X142865000Y-98415000D01*
X142863796Y-98439504D01*
X142860196Y-98463773D01*
X142854235Y-98487571D01*
X142845970Y-98510671D01*
X142835480Y-98532849D01*
X142822867Y-98553893D01*
X142808253Y-98573598D01*
X142791777Y-98591777D01*
X142773598Y-98608253D01*
X142753893Y-98622867D01*
X142732849Y-98635480D01*
X142710671Y-98645970D01*
X142687571Y-98654235D01*
X142663773Y-98660196D01*
X142639504Y-98663796D01*
X142615000Y-98665000D01*
X141865000Y-98665000D01*
X141840496Y-98663796D01*
X141816227Y-98660196D01*
X141792429Y-98654235D01*
X141769329Y-98645970D01*
X141747151Y-98635480D01*
X141726107Y-98622867D01*
X141706402Y-98608253D01*
X141688223Y-98591777D01*
X141671747Y-98573598D01*
X141657133Y-98553893D01*
X141644520Y-98532849D01*
X141634030Y-98510671D01*
X141625765Y-98487571D01*
X141619804Y-98463773D01*
X141616204Y-98439504D01*
X141615000Y-98415000D01*
X141615000Y-97165000D01*
X141616204Y-97140496D01*
X141619804Y-97116227D01*
X141625765Y-97092429D01*
X141634030Y-97069329D01*
X141644520Y-97047151D01*
X141657133Y-97026107D01*
X141671747Y-97006402D01*
X141688223Y-96988223D01*
X141706402Y-96971747D01*
X141726107Y-96957133D01*
X141747151Y-96944520D01*
X141769329Y-96934030D01*
X141792429Y-96925765D01*
X141816227Y-96919804D01*
X141840496Y-96916204D01*
X141865000Y-96915000D01*
X142615000Y-96915000D01*
X142639504Y-96916204D01*
X142639504Y-96916204D01*
G37*
D15*
X142240000Y-97790000D03*
D12*
G36*
X139839504Y-96916204D02*
X139863773Y-96919804D01*
X139887571Y-96925765D01*
X139910671Y-96934030D01*
X139932849Y-96944520D01*
X139953893Y-96957133D01*
X139973598Y-96971747D01*
X139991777Y-96988223D01*
X140008253Y-97006402D01*
X140022867Y-97026107D01*
X140035480Y-97047151D01*
X140045970Y-97069329D01*
X140054235Y-97092429D01*
X140060196Y-97116227D01*
X140063796Y-97140496D01*
X140065000Y-97165000D01*
X140065000Y-98415000D01*
X140063796Y-98439504D01*
X140060196Y-98463773D01*
X140054235Y-98487571D01*
X140045970Y-98510671D01*
X140035480Y-98532849D01*
X140022867Y-98553893D01*
X140008253Y-98573598D01*
X139991777Y-98591777D01*
X139973598Y-98608253D01*
X139953893Y-98622867D01*
X139932849Y-98635480D01*
X139910671Y-98645970D01*
X139887571Y-98654235D01*
X139863773Y-98660196D01*
X139839504Y-98663796D01*
X139815000Y-98665000D01*
X139065000Y-98665000D01*
X139040496Y-98663796D01*
X139016227Y-98660196D01*
X138992429Y-98654235D01*
X138969329Y-98645970D01*
X138947151Y-98635480D01*
X138926107Y-98622867D01*
X138906402Y-98608253D01*
X138888223Y-98591777D01*
X138871747Y-98573598D01*
X138857133Y-98553893D01*
X138844520Y-98532849D01*
X138834030Y-98510671D01*
X138825765Y-98487571D01*
X138819804Y-98463773D01*
X138816204Y-98439504D01*
X138815000Y-98415000D01*
X138815000Y-97165000D01*
X138816204Y-97140496D01*
X138819804Y-97116227D01*
X138825765Y-97092429D01*
X138834030Y-97069329D01*
X138844520Y-97047151D01*
X138857133Y-97026107D01*
X138871747Y-97006402D01*
X138888223Y-96988223D01*
X138906402Y-96971747D01*
X138926107Y-96957133D01*
X138947151Y-96944520D01*
X138969329Y-96934030D01*
X138992429Y-96925765D01*
X139016227Y-96919804D01*
X139040496Y-96916204D01*
X139065000Y-96915000D01*
X139815000Y-96915000D01*
X139839504Y-96916204D01*
X139839504Y-96916204D01*
G37*
D15*
X139440000Y-97790000D03*
G04 #@! TD*
D12*
G04 #@! TO.C,R9*
G36*
X149999504Y-71516204D02*
X150023773Y-71519804D01*
X150047571Y-71525765D01*
X150070671Y-71534030D01*
X150092849Y-71544520D01*
X150113893Y-71557133D01*
X150133598Y-71571747D01*
X150151777Y-71588223D01*
X150168253Y-71606402D01*
X150182867Y-71626107D01*
X150195480Y-71647151D01*
X150205970Y-71669329D01*
X150214235Y-71692429D01*
X150220196Y-71716227D01*
X150223796Y-71740496D01*
X150225000Y-71765000D01*
X150225000Y-73015000D01*
X150223796Y-73039504D01*
X150220196Y-73063773D01*
X150214235Y-73087571D01*
X150205970Y-73110671D01*
X150195480Y-73132849D01*
X150182867Y-73153893D01*
X150168253Y-73173598D01*
X150151777Y-73191777D01*
X150133598Y-73208253D01*
X150113893Y-73222867D01*
X150092849Y-73235480D01*
X150070671Y-73245970D01*
X150047571Y-73254235D01*
X150023773Y-73260196D01*
X149999504Y-73263796D01*
X149975000Y-73265000D01*
X149225000Y-73265000D01*
X149200496Y-73263796D01*
X149176227Y-73260196D01*
X149152429Y-73254235D01*
X149129329Y-73245970D01*
X149107151Y-73235480D01*
X149086107Y-73222867D01*
X149066402Y-73208253D01*
X149048223Y-73191777D01*
X149031747Y-73173598D01*
X149017133Y-73153893D01*
X149004520Y-73132849D01*
X148994030Y-73110671D01*
X148985765Y-73087571D01*
X148979804Y-73063773D01*
X148976204Y-73039504D01*
X148975000Y-73015000D01*
X148975000Y-71765000D01*
X148976204Y-71740496D01*
X148979804Y-71716227D01*
X148985765Y-71692429D01*
X148994030Y-71669329D01*
X149004520Y-71647151D01*
X149017133Y-71626107D01*
X149031747Y-71606402D01*
X149048223Y-71588223D01*
X149066402Y-71571747D01*
X149086107Y-71557133D01*
X149107151Y-71544520D01*
X149129329Y-71534030D01*
X149152429Y-71525765D01*
X149176227Y-71519804D01*
X149200496Y-71516204D01*
X149225000Y-71515000D01*
X149975000Y-71515000D01*
X149999504Y-71516204D01*
X149999504Y-71516204D01*
G37*
D15*
X149600000Y-72390000D03*
D12*
G36*
X152799504Y-71516204D02*
X152823773Y-71519804D01*
X152847571Y-71525765D01*
X152870671Y-71534030D01*
X152892849Y-71544520D01*
X152913893Y-71557133D01*
X152933598Y-71571747D01*
X152951777Y-71588223D01*
X152968253Y-71606402D01*
X152982867Y-71626107D01*
X152995480Y-71647151D01*
X153005970Y-71669329D01*
X153014235Y-71692429D01*
X153020196Y-71716227D01*
X153023796Y-71740496D01*
X153025000Y-71765000D01*
X153025000Y-73015000D01*
X153023796Y-73039504D01*
X153020196Y-73063773D01*
X153014235Y-73087571D01*
X153005970Y-73110671D01*
X152995480Y-73132849D01*
X152982867Y-73153893D01*
X152968253Y-73173598D01*
X152951777Y-73191777D01*
X152933598Y-73208253D01*
X152913893Y-73222867D01*
X152892849Y-73235480D01*
X152870671Y-73245970D01*
X152847571Y-73254235D01*
X152823773Y-73260196D01*
X152799504Y-73263796D01*
X152775000Y-73265000D01*
X152025000Y-73265000D01*
X152000496Y-73263796D01*
X151976227Y-73260196D01*
X151952429Y-73254235D01*
X151929329Y-73245970D01*
X151907151Y-73235480D01*
X151886107Y-73222867D01*
X151866402Y-73208253D01*
X151848223Y-73191777D01*
X151831747Y-73173598D01*
X151817133Y-73153893D01*
X151804520Y-73132849D01*
X151794030Y-73110671D01*
X151785765Y-73087571D01*
X151779804Y-73063773D01*
X151776204Y-73039504D01*
X151775000Y-73015000D01*
X151775000Y-71765000D01*
X151776204Y-71740496D01*
X151779804Y-71716227D01*
X151785765Y-71692429D01*
X151794030Y-71669329D01*
X151804520Y-71647151D01*
X151817133Y-71626107D01*
X151831747Y-71606402D01*
X151848223Y-71588223D01*
X151866402Y-71571747D01*
X151886107Y-71557133D01*
X151907151Y-71544520D01*
X151929329Y-71534030D01*
X151952429Y-71525765D01*
X151976227Y-71519804D01*
X152000496Y-71516204D01*
X152025000Y-71515000D01*
X152775000Y-71515000D01*
X152799504Y-71516204D01*
X152799504Y-71516204D01*
G37*
D15*
X152400000Y-72390000D03*
G04 #@! TD*
D12*
G04 #@! TO.C,R10*
G36*
X149999504Y-88026204D02*
X150023773Y-88029804D01*
X150047571Y-88035765D01*
X150070671Y-88044030D01*
X150092849Y-88054520D01*
X150113893Y-88067133D01*
X150133598Y-88081747D01*
X150151777Y-88098223D01*
X150168253Y-88116402D01*
X150182867Y-88136107D01*
X150195480Y-88157151D01*
X150205970Y-88179329D01*
X150214235Y-88202429D01*
X150220196Y-88226227D01*
X150223796Y-88250496D01*
X150225000Y-88275000D01*
X150225000Y-89525000D01*
X150223796Y-89549504D01*
X150220196Y-89573773D01*
X150214235Y-89597571D01*
X150205970Y-89620671D01*
X150195480Y-89642849D01*
X150182867Y-89663893D01*
X150168253Y-89683598D01*
X150151777Y-89701777D01*
X150133598Y-89718253D01*
X150113893Y-89732867D01*
X150092849Y-89745480D01*
X150070671Y-89755970D01*
X150047571Y-89764235D01*
X150023773Y-89770196D01*
X149999504Y-89773796D01*
X149975000Y-89775000D01*
X149225000Y-89775000D01*
X149200496Y-89773796D01*
X149176227Y-89770196D01*
X149152429Y-89764235D01*
X149129329Y-89755970D01*
X149107151Y-89745480D01*
X149086107Y-89732867D01*
X149066402Y-89718253D01*
X149048223Y-89701777D01*
X149031747Y-89683598D01*
X149017133Y-89663893D01*
X149004520Y-89642849D01*
X148994030Y-89620671D01*
X148985765Y-89597571D01*
X148979804Y-89573773D01*
X148976204Y-89549504D01*
X148975000Y-89525000D01*
X148975000Y-88275000D01*
X148976204Y-88250496D01*
X148979804Y-88226227D01*
X148985765Y-88202429D01*
X148994030Y-88179329D01*
X149004520Y-88157151D01*
X149017133Y-88136107D01*
X149031747Y-88116402D01*
X149048223Y-88098223D01*
X149066402Y-88081747D01*
X149086107Y-88067133D01*
X149107151Y-88054520D01*
X149129329Y-88044030D01*
X149152429Y-88035765D01*
X149176227Y-88029804D01*
X149200496Y-88026204D01*
X149225000Y-88025000D01*
X149975000Y-88025000D01*
X149999504Y-88026204D01*
X149999504Y-88026204D01*
G37*
D15*
X149600000Y-88900000D03*
D12*
G36*
X152799504Y-88026204D02*
X152823773Y-88029804D01*
X152847571Y-88035765D01*
X152870671Y-88044030D01*
X152892849Y-88054520D01*
X152913893Y-88067133D01*
X152933598Y-88081747D01*
X152951777Y-88098223D01*
X152968253Y-88116402D01*
X152982867Y-88136107D01*
X152995480Y-88157151D01*
X153005970Y-88179329D01*
X153014235Y-88202429D01*
X153020196Y-88226227D01*
X153023796Y-88250496D01*
X153025000Y-88275000D01*
X153025000Y-89525000D01*
X153023796Y-89549504D01*
X153020196Y-89573773D01*
X153014235Y-89597571D01*
X153005970Y-89620671D01*
X152995480Y-89642849D01*
X152982867Y-89663893D01*
X152968253Y-89683598D01*
X152951777Y-89701777D01*
X152933598Y-89718253D01*
X152913893Y-89732867D01*
X152892849Y-89745480D01*
X152870671Y-89755970D01*
X152847571Y-89764235D01*
X152823773Y-89770196D01*
X152799504Y-89773796D01*
X152775000Y-89775000D01*
X152025000Y-89775000D01*
X152000496Y-89773796D01*
X151976227Y-89770196D01*
X151952429Y-89764235D01*
X151929329Y-89755970D01*
X151907151Y-89745480D01*
X151886107Y-89732867D01*
X151866402Y-89718253D01*
X151848223Y-89701777D01*
X151831747Y-89683598D01*
X151817133Y-89663893D01*
X151804520Y-89642849D01*
X151794030Y-89620671D01*
X151785765Y-89597571D01*
X151779804Y-89573773D01*
X151776204Y-89549504D01*
X151775000Y-89525000D01*
X151775000Y-88275000D01*
X151776204Y-88250496D01*
X151779804Y-88226227D01*
X151785765Y-88202429D01*
X151794030Y-88179329D01*
X151804520Y-88157151D01*
X151817133Y-88136107D01*
X151831747Y-88116402D01*
X151848223Y-88098223D01*
X151866402Y-88081747D01*
X151886107Y-88067133D01*
X151907151Y-88054520D01*
X151929329Y-88044030D01*
X151952429Y-88035765D01*
X151976227Y-88029804D01*
X152000496Y-88026204D01*
X152025000Y-88025000D01*
X152775000Y-88025000D01*
X152799504Y-88026204D01*
X152799504Y-88026204D01*
G37*
D15*
X152400000Y-88900000D03*
G04 #@! TD*
D12*
G04 #@! TO.C,R11*
G36*
X153059504Y-104536204D02*
X153083773Y-104539804D01*
X153107571Y-104545765D01*
X153130671Y-104554030D01*
X153152849Y-104564520D01*
X153173893Y-104577133D01*
X153193598Y-104591747D01*
X153211777Y-104608223D01*
X153228253Y-104626402D01*
X153242867Y-104646107D01*
X153255480Y-104667151D01*
X153265970Y-104689329D01*
X153274235Y-104712429D01*
X153280196Y-104736227D01*
X153283796Y-104760496D01*
X153285000Y-104785000D01*
X153285000Y-106035000D01*
X153283796Y-106059504D01*
X153280196Y-106083773D01*
X153274235Y-106107571D01*
X153265970Y-106130671D01*
X153255480Y-106152849D01*
X153242867Y-106173893D01*
X153228253Y-106193598D01*
X153211777Y-106211777D01*
X153193598Y-106228253D01*
X153173893Y-106242867D01*
X153152849Y-106255480D01*
X153130671Y-106265970D01*
X153107571Y-106274235D01*
X153083773Y-106280196D01*
X153059504Y-106283796D01*
X153035000Y-106285000D01*
X152285000Y-106285000D01*
X152260496Y-106283796D01*
X152236227Y-106280196D01*
X152212429Y-106274235D01*
X152189329Y-106265970D01*
X152167151Y-106255480D01*
X152146107Y-106242867D01*
X152126402Y-106228253D01*
X152108223Y-106211777D01*
X152091747Y-106193598D01*
X152077133Y-106173893D01*
X152064520Y-106152849D01*
X152054030Y-106130671D01*
X152045765Y-106107571D01*
X152039804Y-106083773D01*
X152036204Y-106059504D01*
X152035000Y-106035000D01*
X152035000Y-104785000D01*
X152036204Y-104760496D01*
X152039804Y-104736227D01*
X152045765Y-104712429D01*
X152054030Y-104689329D01*
X152064520Y-104667151D01*
X152077133Y-104646107D01*
X152091747Y-104626402D01*
X152108223Y-104608223D01*
X152126402Y-104591747D01*
X152146107Y-104577133D01*
X152167151Y-104564520D01*
X152189329Y-104554030D01*
X152212429Y-104545765D01*
X152236227Y-104539804D01*
X152260496Y-104536204D01*
X152285000Y-104535000D01*
X153035000Y-104535000D01*
X153059504Y-104536204D01*
X153059504Y-104536204D01*
G37*
D15*
X152660000Y-105410000D03*
D12*
G36*
X150259504Y-104536204D02*
X150283773Y-104539804D01*
X150307571Y-104545765D01*
X150330671Y-104554030D01*
X150352849Y-104564520D01*
X150373893Y-104577133D01*
X150393598Y-104591747D01*
X150411777Y-104608223D01*
X150428253Y-104626402D01*
X150442867Y-104646107D01*
X150455480Y-104667151D01*
X150465970Y-104689329D01*
X150474235Y-104712429D01*
X150480196Y-104736227D01*
X150483796Y-104760496D01*
X150485000Y-104785000D01*
X150485000Y-106035000D01*
X150483796Y-106059504D01*
X150480196Y-106083773D01*
X150474235Y-106107571D01*
X150465970Y-106130671D01*
X150455480Y-106152849D01*
X150442867Y-106173893D01*
X150428253Y-106193598D01*
X150411777Y-106211777D01*
X150393598Y-106228253D01*
X150373893Y-106242867D01*
X150352849Y-106255480D01*
X150330671Y-106265970D01*
X150307571Y-106274235D01*
X150283773Y-106280196D01*
X150259504Y-106283796D01*
X150235000Y-106285000D01*
X149485000Y-106285000D01*
X149460496Y-106283796D01*
X149436227Y-106280196D01*
X149412429Y-106274235D01*
X149389329Y-106265970D01*
X149367151Y-106255480D01*
X149346107Y-106242867D01*
X149326402Y-106228253D01*
X149308223Y-106211777D01*
X149291747Y-106193598D01*
X149277133Y-106173893D01*
X149264520Y-106152849D01*
X149254030Y-106130671D01*
X149245765Y-106107571D01*
X149239804Y-106083773D01*
X149236204Y-106059504D01*
X149235000Y-106035000D01*
X149235000Y-104785000D01*
X149236204Y-104760496D01*
X149239804Y-104736227D01*
X149245765Y-104712429D01*
X149254030Y-104689329D01*
X149264520Y-104667151D01*
X149277133Y-104646107D01*
X149291747Y-104626402D01*
X149308223Y-104608223D01*
X149326402Y-104591747D01*
X149346107Y-104577133D01*
X149367151Y-104564520D01*
X149389329Y-104554030D01*
X149412429Y-104545765D01*
X149436227Y-104539804D01*
X149460496Y-104536204D01*
X149485000Y-104535000D01*
X150235000Y-104535000D01*
X150259504Y-104536204D01*
X150259504Y-104536204D01*
G37*
D15*
X149860000Y-105410000D03*
G04 #@! TD*
D12*
G04 #@! TO.C,R12*
G36*
X150129504Y-55006204D02*
X150153773Y-55009804D01*
X150177571Y-55015765D01*
X150200671Y-55024030D01*
X150222849Y-55034520D01*
X150243893Y-55047133D01*
X150263598Y-55061747D01*
X150281777Y-55078223D01*
X150298253Y-55096402D01*
X150312867Y-55116107D01*
X150325480Y-55137151D01*
X150335970Y-55159329D01*
X150344235Y-55182429D01*
X150350196Y-55206227D01*
X150353796Y-55230496D01*
X150355000Y-55255000D01*
X150355000Y-56505000D01*
X150353796Y-56529504D01*
X150350196Y-56553773D01*
X150344235Y-56577571D01*
X150335970Y-56600671D01*
X150325480Y-56622849D01*
X150312867Y-56643893D01*
X150298253Y-56663598D01*
X150281777Y-56681777D01*
X150263598Y-56698253D01*
X150243893Y-56712867D01*
X150222849Y-56725480D01*
X150200671Y-56735970D01*
X150177571Y-56744235D01*
X150153773Y-56750196D01*
X150129504Y-56753796D01*
X150105000Y-56755000D01*
X149355000Y-56755000D01*
X149330496Y-56753796D01*
X149306227Y-56750196D01*
X149282429Y-56744235D01*
X149259329Y-56735970D01*
X149237151Y-56725480D01*
X149216107Y-56712867D01*
X149196402Y-56698253D01*
X149178223Y-56681777D01*
X149161747Y-56663598D01*
X149147133Y-56643893D01*
X149134520Y-56622849D01*
X149124030Y-56600671D01*
X149115765Y-56577571D01*
X149109804Y-56553773D01*
X149106204Y-56529504D01*
X149105000Y-56505000D01*
X149105000Y-55255000D01*
X149106204Y-55230496D01*
X149109804Y-55206227D01*
X149115765Y-55182429D01*
X149124030Y-55159329D01*
X149134520Y-55137151D01*
X149147133Y-55116107D01*
X149161747Y-55096402D01*
X149178223Y-55078223D01*
X149196402Y-55061747D01*
X149216107Y-55047133D01*
X149237151Y-55034520D01*
X149259329Y-55024030D01*
X149282429Y-55015765D01*
X149306227Y-55009804D01*
X149330496Y-55006204D01*
X149355000Y-55005000D01*
X150105000Y-55005000D01*
X150129504Y-55006204D01*
X150129504Y-55006204D01*
G37*
D15*
X149730000Y-55880000D03*
D12*
G36*
X152929504Y-55006204D02*
X152953773Y-55009804D01*
X152977571Y-55015765D01*
X153000671Y-55024030D01*
X153022849Y-55034520D01*
X153043893Y-55047133D01*
X153063598Y-55061747D01*
X153081777Y-55078223D01*
X153098253Y-55096402D01*
X153112867Y-55116107D01*
X153125480Y-55137151D01*
X153135970Y-55159329D01*
X153144235Y-55182429D01*
X153150196Y-55206227D01*
X153153796Y-55230496D01*
X153155000Y-55255000D01*
X153155000Y-56505000D01*
X153153796Y-56529504D01*
X153150196Y-56553773D01*
X153144235Y-56577571D01*
X153135970Y-56600671D01*
X153125480Y-56622849D01*
X153112867Y-56643893D01*
X153098253Y-56663598D01*
X153081777Y-56681777D01*
X153063598Y-56698253D01*
X153043893Y-56712867D01*
X153022849Y-56725480D01*
X153000671Y-56735970D01*
X152977571Y-56744235D01*
X152953773Y-56750196D01*
X152929504Y-56753796D01*
X152905000Y-56755000D01*
X152155000Y-56755000D01*
X152130496Y-56753796D01*
X152106227Y-56750196D01*
X152082429Y-56744235D01*
X152059329Y-56735970D01*
X152037151Y-56725480D01*
X152016107Y-56712867D01*
X151996402Y-56698253D01*
X151978223Y-56681777D01*
X151961747Y-56663598D01*
X151947133Y-56643893D01*
X151934520Y-56622849D01*
X151924030Y-56600671D01*
X151915765Y-56577571D01*
X151909804Y-56553773D01*
X151906204Y-56529504D01*
X151905000Y-56505000D01*
X151905000Y-55255000D01*
X151906204Y-55230496D01*
X151909804Y-55206227D01*
X151915765Y-55182429D01*
X151924030Y-55159329D01*
X151934520Y-55137151D01*
X151947133Y-55116107D01*
X151961747Y-55096402D01*
X151978223Y-55078223D01*
X151996402Y-55061747D01*
X152016107Y-55047133D01*
X152037151Y-55034520D01*
X152059329Y-55024030D01*
X152082429Y-55015765D01*
X152106227Y-55009804D01*
X152130496Y-55006204D01*
X152155000Y-55005000D01*
X152905000Y-55005000D01*
X152929504Y-55006204D01*
X152929504Y-55006204D01*
G37*
D15*
X152530000Y-55880000D03*
G04 #@! TD*
D17*
G04 #@! TO.C,RN1*
X114070000Y-92050000D03*
X114070000Y-90710000D03*
X114070000Y-94710000D03*
X114070000Y-93370000D03*
X117070000Y-92050000D03*
X117070000Y-93370000D03*
X117070000Y-90710000D03*
X117070000Y-94710000D03*
G04 #@! TD*
G04 #@! TO.C,RN2*
X131540000Y-88670000D03*
X127540000Y-88670000D03*
X130200000Y-88670000D03*
X128880000Y-88670000D03*
X130200000Y-91670000D03*
X131540000Y-91670000D03*
X127540000Y-91670000D03*
X128880000Y-91670000D03*
G04 #@! TD*
D18*
G04 #@! TO.C,U1*
X117110000Y-75445000D03*
D19*
X109610000Y-67945000D03*
X109610000Y-69215000D03*
X109610000Y-70485000D03*
X109610000Y-71755000D03*
X109610000Y-73025000D03*
X109610000Y-74295000D03*
X109610000Y-75565000D03*
X109610000Y-76835000D03*
X109610000Y-78105000D03*
X109610000Y-79375000D03*
X109610000Y-80645000D03*
X109610000Y-81915000D03*
X109610000Y-83185000D03*
X109610000Y-84455000D03*
D20*
X112395000Y-85455000D03*
X113665000Y-85455000D03*
X114935000Y-85455000D03*
X116205000Y-85455000D03*
X117475000Y-85455000D03*
X118745000Y-85455000D03*
X120015000Y-85455000D03*
X121285000Y-85455000D03*
X122555000Y-85455000D03*
X123825000Y-85455000D03*
D19*
X126610000Y-84455000D03*
X126610000Y-83185000D03*
X126610000Y-81915000D03*
X126610000Y-80645000D03*
X126610000Y-79375000D03*
X126610000Y-78105000D03*
X126610000Y-76835000D03*
X126610000Y-75565000D03*
X126610000Y-74295000D03*
X126610000Y-73025000D03*
X126610000Y-71755000D03*
X126610000Y-70485000D03*
X126610000Y-69215000D03*
X126610000Y-67945000D03*
G04 #@! TD*
D21*
G04 #@! TO.C,U2*
X127160000Y-98425000D03*
X127160000Y-97155000D03*
X127160000Y-95885000D03*
X127160000Y-94615000D03*
X121760000Y-94615000D03*
X121760000Y-95885000D03*
X121760000Y-97155000D03*
X121760000Y-98425000D03*
G04 #@! TD*
D22*
G04 #@! TO.C,U3*
X100760000Y-90805000D03*
X100760000Y-92075000D03*
X100760000Y-93345000D03*
X100760000Y-94615000D03*
X100760000Y-95885000D03*
X100760000Y-97155000D03*
X100760000Y-98425000D03*
X100760000Y-99695000D03*
X110060000Y-99695000D03*
X110060000Y-98425000D03*
X110060000Y-97155000D03*
X110060000Y-95885000D03*
X110060000Y-94615000D03*
X110060000Y-93345000D03*
X110060000Y-92075000D03*
X110060000Y-90805000D03*
G04 #@! TD*
D23*
G04 #@! TO.C,U4*
X102210000Y-71120000D03*
D24*
X95910000Y-71120000D03*
X95910000Y-73420000D03*
X95910000Y-68820000D03*
G04 #@! TD*
M02*
