G04 #@! TF.GenerationSoftware,KiCad,Pcbnew,5.0.2+dfsg1-1*
G04 #@! TF.CreationDate,2020-05-31T01:45:13+07:00*
G04 #@! TF.ProjectId,GatiHomeLampController,47617469-486f-46d6-954c-616d70436f6e,rev?*
G04 #@! TF.SameCoordinates,Original*
G04 #@! TF.FileFunction,Copper,L2,Bot*
G04 #@! TF.FilePolarity,Positive*
%FSLAX46Y46*%
G04 Gerber Fmt 4.6, Leading zero omitted, Abs format (unit mm)*
G04 Created by KiCad (PCBNEW 5.0.2+dfsg1-1) date Sun 31 May 2020 01:45:13 AM WIB*
%MOMM*%
%LPD*%
G01*
G04 APERTURE LIST*
G04 #@! TA.AperFunction,ComponentPad*
%ADD10O,3.960000X1.980000*%
G04 #@! TD*
G04 #@! TA.AperFunction,ComponentPad*
%ADD11R,3.960000X1.980000*%
G04 #@! TD*
G04 #@! TA.AperFunction,ComponentPad*
%ADD12O,1.700000X1.700000*%
G04 #@! TD*
G04 #@! TA.AperFunction,ComponentPad*
%ADD13R,1.700000X1.700000*%
G04 #@! TD*
G04 #@! TA.AperFunction,ComponentPad*
%ADD14R,2.600000X2.600000*%
G04 #@! TD*
G04 #@! TA.AperFunction,ComponentPad*
%ADD15C,2.600000*%
G04 #@! TD*
G04 #@! TA.AperFunction,ComponentPad*
%ADD16C,3.000000*%
G04 #@! TD*
G04 #@! TA.AperFunction,ComponentPad*
%ADD17C,2.500000*%
G04 #@! TD*
G04 #@! TA.AperFunction,ComponentPad*
%ADD18O,3.048000X1.727200*%
G04 #@! TD*
G04 #@! TA.AperFunction,ComponentPad*
%ADD19R,1.600000X1.600000*%
G04 #@! TD*
G04 #@! TA.AperFunction,ComponentPad*
%ADD20O,1.600000X1.600000*%
G04 #@! TD*
G04 #@! TA.AperFunction,ViaPad*
%ADD21C,0.800000*%
G04 #@! TD*
G04 #@! TA.AperFunction,Conductor*
%ADD22C,0.300000*%
G04 #@! TD*
G04 #@! TA.AperFunction,Conductor*
%ADD23C,0.254000*%
G04 #@! TD*
G04 APERTURE END LIST*
D10*
G04 #@! TO.P,J6,3*
G04 #@! TO.N,Net-(J6-Pad3)*
X187325000Y-82710000D03*
G04 #@! TO.P,J6,2*
G04 #@! TO.N,Net-(J6-Pad2)*
X187325000Y-87710000D03*
D11*
G04 #@! TO.P,J6,1*
G04 #@! TO.N,Net-(J6-Pad1)*
X187325000Y-92710000D03*
G04 #@! TD*
G04 #@! TO.P,J5,1*
G04 #@! TO.N,Net-(J5-Pad1)*
X187325000Y-76120000D03*
D10*
G04 #@! TO.P,J5,2*
G04 #@! TO.N,Net-(J5-Pad2)*
X187325000Y-71120000D03*
G04 #@! TO.P,J5,3*
G04 #@! TO.N,Net-(J5-Pad3)*
X187325000Y-66120000D03*
G04 #@! TD*
G04 #@! TO.P,J8,3*
G04 #@! TO.N,Net-(J8-Pad3)*
X187325000Y-49610000D03*
G04 #@! TO.P,J8,2*
G04 #@! TO.N,Net-(J8-Pad2)*
X187325000Y-54610000D03*
D11*
G04 #@! TO.P,J8,1*
G04 #@! TO.N,Net-(J8-Pad1)*
X187325000Y-59610000D03*
G04 #@! TD*
G04 #@! TO.P,J7,1*
G04 #@! TO.N,Net-(J7-Pad1)*
X187325000Y-109220000D03*
D10*
G04 #@! TO.P,J7,2*
G04 #@! TO.N,Net-(J7-Pad2)*
X187325000Y-104220000D03*
G04 #@! TO.P,J7,3*
G04 #@! TO.N,Net-(J7-Pad3)*
X187325000Y-99220000D03*
G04 #@! TD*
D12*
G04 #@! TO.P,J1,4*
G04 #@! TO.N,GND*
X135890000Y-80010000D03*
G04 #@! TO.P,J1,3*
G04 #@! TO.N,SDA*
X135890000Y-77470000D03*
G04 #@! TO.P,J1,2*
G04 #@! TO.N,SCL*
X135890000Y-74930000D03*
D13*
G04 #@! TO.P,J1,1*
G04 #@! TO.N,+5V*
X135890000Y-72390000D03*
G04 #@! TD*
G04 #@! TO.P,J2,1*
G04 #@! TO.N,Net-(J2-Pad1)*
X132080000Y-46990000D03*
D12*
G04 #@! TO.P,J2,2*
G04 #@! TO.N,RX*
X129540000Y-46990000D03*
G04 #@! TO.P,J2,3*
G04 #@! TO.N,TX*
X127000000Y-46990000D03*
G04 #@! TO.P,J2,4*
G04 #@! TO.N,GND*
X124460000Y-46990000D03*
G04 #@! TD*
D14*
G04 #@! TO.P,J3,1*
G04 #@! TO.N,Net-(F1-Pad2)*
X175260000Y-34290000D03*
D15*
G04 #@! TO.P,J3,2*
G04 #@! TO.N,GND*
X181260000Y-34290000D03*
G04 #@! TO.P,J3,3*
X178260000Y-29590000D03*
G04 #@! TD*
D13*
G04 #@! TO.P,J4,1*
G04 #@! TO.N,+5V*
X151130000Y-44450000D03*
D12*
G04 #@! TO.P,J4,2*
G04 #@! TO.N,/JD_VCC*
X153670000Y-44450000D03*
G04 #@! TD*
D16*
G04 #@! TO.P,K1,1*
G04 #@! TO.N,Net-(J8-Pad2)*
X161290000Y-54610000D03*
D17*
G04 #@! TO.P,K1,5*
G04 #@! TO.N,/JD_VCC*
X163240000Y-48660000D03*
D16*
G04 #@! TO.P,K1,4*
G04 #@! TO.N,Net-(J8-Pad3)*
X175490000Y-48610000D03*
G04 #@! TO.P,K1,3*
G04 #@! TO.N,Net-(J8-Pad1)*
X175440000Y-60660000D03*
D17*
G04 #@! TO.P,K1,2*
G04 #@! TO.N,Net-(K1-Pad2)*
X163240000Y-60660000D03*
G04 #@! TD*
G04 #@! TO.P,K2,2*
G04 #@! TO.N,Net-(K2-Pad2)*
X163240000Y-77170000D03*
D16*
G04 #@! TO.P,K2,3*
G04 #@! TO.N,Net-(J5-Pad1)*
X175440000Y-77170000D03*
G04 #@! TO.P,K2,4*
G04 #@! TO.N,Net-(J5-Pad3)*
X175490000Y-65120000D03*
D17*
G04 #@! TO.P,K2,5*
G04 #@! TO.N,/JD_VCC*
X163240000Y-65170000D03*
D16*
G04 #@! TO.P,K2,1*
G04 #@! TO.N,Net-(J5-Pad2)*
X161290000Y-71120000D03*
G04 #@! TD*
G04 #@! TO.P,K3,1*
G04 #@! TO.N,Net-(J6-Pad2)*
X161290000Y-87630000D03*
D17*
G04 #@! TO.P,K3,5*
G04 #@! TO.N,/JD_VCC*
X163240000Y-81680000D03*
D16*
G04 #@! TO.P,K3,4*
G04 #@! TO.N,Net-(J6-Pad3)*
X175490000Y-81630000D03*
G04 #@! TO.P,K3,3*
G04 #@! TO.N,Net-(J6-Pad1)*
X175440000Y-93680000D03*
D17*
G04 #@! TO.P,K3,2*
G04 #@! TO.N,Net-(K3-Pad2)*
X163240000Y-93680000D03*
G04 #@! TD*
G04 #@! TO.P,K4,2*
G04 #@! TO.N,Net-(K4-Pad2)*
X163240000Y-110190000D03*
D16*
G04 #@! TO.P,K4,3*
G04 #@! TO.N,Net-(J7-Pad1)*
X175440000Y-110190000D03*
G04 #@! TO.P,K4,4*
G04 #@! TO.N,Net-(J7-Pad3)*
X175490000Y-98140000D03*
D17*
G04 #@! TO.P,K4,5*
G04 #@! TO.N,/JD_VCC*
X163240000Y-98190000D03*
D16*
G04 #@! TO.P,K4,1*
G04 #@! TO.N,Net-(J7-Pad2)*
X161290000Y-104140000D03*
G04 #@! TD*
D18*
G04 #@! TO.P,SW1,2*
G04 #@! TO.N,GND*
X127000000Y-114220000D03*
G04 #@! TO.P,SW1,1*
G04 #@! TO.N,SW+*
X127000000Y-109220000D03*
G04 #@! TO.P,SW1,2*
G04 #@! TO.N,GND*
X139500000Y-114220000D03*
G04 #@! TO.P,SW1,1*
G04 #@! TO.N,SW+*
X139500000Y-109220000D03*
G04 #@! TD*
G04 #@! TO.P,SW2,1*
G04 #@! TO.N,SWOK*
X120450000Y-109220000D03*
G04 #@! TO.P,SW2,2*
G04 #@! TO.N,GND*
X120450000Y-114220000D03*
G04 #@! TO.P,SW2,1*
G04 #@! TO.N,SWOK*
X107950000Y-109220000D03*
G04 #@! TO.P,SW2,2*
G04 #@! TO.N,GND*
X107950000Y-114220000D03*
G04 #@! TD*
G04 #@! TO.P,SW3,1*
G04 #@! TO.N,SWBack*
X120450000Y-125730000D03*
G04 #@! TO.P,SW3,2*
G04 #@! TO.N,GND*
X120450000Y-130730000D03*
G04 #@! TO.P,SW3,1*
G04 #@! TO.N,SWBack*
X107950000Y-125730000D03*
G04 #@! TO.P,SW3,2*
G04 #@! TO.N,GND*
X107950000Y-130730000D03*
G04 #@! TD*
G04 #@! TO.P,SW4,2*
G04 #@! TO.N,GND*
X88900000Y-114220000D03*
G04 #@! TO.P,SW4,1*
G04 #@! TO.N,SW-*
X88900000Y-109220000D03*
G04 #@! TO.P,SW4,2*
G04 #@! TO.N,GND*
X101400000Y-114220000D03*
G04 #@! TO.P,SW4,1*
G04 #@! TO.N,SW-*
X101400000Y-109220000D03*
G04 #@! TD*
D19*
G04 #@! TO.P,U5,1*
G04 #@! TO.N,Net-(R5-Pad2)*
X146050000Y-48260000D03*
D20*
G04 #@! TO.P,U5,3*
G04 #@! TO.N,Net-(R12-Pad2)*
X153670000Y-50800000D03*
G04 #@! TO.P,U5,2*
G04 #@! TO.N,RL_1*
X146050000Y-50800000D03*
G04 #@! TO.P,U5,4*
G04 #@! TO.N,/JD_VCC*
X153670000Y-48260000D03*
G04 #@! TD*
G04 #@! TO.P,U6,4*
G04 #@! TO.N,/JD_VCC*
X153670000Y-64770000D03*
G04 #@! TO.P,U6,2*
G04 #@! TO.N,RL_2*
X146050000Y-67310000D03*
G04 #@! TO.P,U6,3*
G04 #@! TO.N,Net-(R9-Pad2)*
X153670000Y-67310000D03*
D19*
G04 #@! TO.P,U6,1*
G04 #@! TO.N,Net-(R6-Pad2)*
X146050000Y-64770000D03*
G04 #@! TD*
G04 #@! TO.P,U7,1*
G04 #@! TO.N,Net-(R7-Pad2)*
X146050000Y-81280000D03*
D20*
G04 #@! TO.P,U7,3*
G04 #@! TO.N,Net-(R10-Pad2)*
X153670000Y-83820000D03*
G04 #@! TO.P,U7,2*
G04 #@! TO.N,RL_3*
X146050000Y-83820000D03*
G04 #@! TO.P,U7,4*
G04 #@! TO.N,/JD_VCC*
X153670000Y-81280000D03*
G04 #@! TD*
G04 #@! TO.P,U8,4*
G04 #@! TO.N,/JD_VCC*
X153670000Y-97790000D03*
G04 #@! TO.P,U8,2*
G04 #@! TO.N,RL_4*
X146050000Y-100330000D03*
G04 #@! TO.P,U8,3*
G04 #@! TO.N,Net-(R11-Pad2)*
X153670000Y-100330000D03*
D19*
G04 #@! TO.P,U8,1*
G04 #@! TO.N,Net-(R8-Pad2)*
X146050000Y-97790000D03*
G04 #@! TD*
D21*
G04 #@! TO.N,GND*
X129540000Y-101600000D03*
X129540000Y-93345000D03*
X133350000Y-92075000D03*
G04 #@! TO.N,Net-(BT1-Pad1)*
X96520000Y-95250000D03*
X106680000Y-95250000D03*
G04 #@! TO.N,SDA*
X118745000Y-94615000D03*
X119380000Y-89535000D03*
G04 #@! TO.N,Net-(K1-Pad2)*
X151130000Y-62230000D03*
G04 #@! TO.N,Net-(K2-Pad2)*
X151130000Y-78740000D03*
G04 #@! TO.N,Net-(K3-Pad2)*
X151130000Y-95250000D03*
G04 #@! TO.N,Net-(K4-Pad2)*
X151130000Y-111760000D03*
G04 #@! TO.N,Net-(R2-Pad1)*
X131950000Y-96520000D03*
X125730000Y-90805000D03*
G04 #@! TO.N,Net-(RN1-Pad5)*
X99695000Y-88900000D03*
X112395000Y-89535000D03*
G04 #@! TO.N,SW+*
X115570000Y-80645000D03*
X80645000Y-93345000D03*
X79375000Y-80645000D03*
G04 #@! TO.N,SWOK*
X83185000Y-95885000D03*
X83820000Y-81280000D03*
X115570000Y-83185000D03*
G04 #@! TO.N,SWBack*
X78105000Y-95885000D03*
X79375000Y-78105000D03*
X123190000Y-80010000D03*
G04 #@! TO.N,SW-*
X81280000Y-95250000D03*
X80645000Y-81915000D03*
X116205000Y-81915000D03*
G04 #@! TO.N,RL_3*
X103505000Y-83820000D03*
G04 #@! TO.N,RL_4*
X102235000Y-85090000D03*
G04 #@! TO.N,RL_2*
X129540000Y-81915000D03*
G04 #@! TO.N,RL_1*
X130810000Y-74930000D03*
G04 #@! TD*
D22*
G04 #@! TO.N,Net-(BT1-Pad1)*
X96520000Y-95250000D02*
X97155000Y-94615000D01*
X97155000Y-94615000D02*
X105410000Y-94615000D01*
X105410000Y-94615000D02*
X106045000Y-94615000D01*
X106045000Y-94615000D02*
X106680000Y-95250000D01*
G04 #@! TO.N,SDA*
X118745000Y-94615000D02*
X118745000Y-90170000D01*
X118745000Y-90170000D02*
X119380000Y-89535000D01*
X119380000Y-89535000D02*
X120015000Y-89535000D01*
X120015000Y-89535000D02*
X122555000Y-86995000D01*
X122555000Y-86995000D02*
X128905000Y-86995000D01*
X128905000Y-86995000D02*
X131445000Y-84455000D01*
X131445000Y-84455000D02*
X131445000Y-79375000D01*
X133350000Y-77470000D02*
X135890000Y-77470000D01*
X131445000Y-79375000D02*
X133350000Y-77470000D01*
G04 #@! TO.N,Net-(K1-Pad2)*
X151130000Y-62230000D02*
X151379991Y-62230000D01*
X161472234Y-60660000D02*
X159902234Y-62230000D01*
X163240000Y-60660000D02*
X161472234Y-60660000D01*
X159902234Y-62230000D02*
X154507998Y-62230000D01*
X154507998Y-62230000D02*
X151379991Y-62230000D01*
X151379991Y-62230000D02*
X151880001Y-62230000D01*
G04 #@! TO.N,Net-(K2-Pad2)*
X151130000Y-78740000D02*
X152400000Y-78740000D01*
X163240000Y-77170000D02*
X161670000Y-78740000D01*
X161670000Y-78740000D02*
X152400000Y-78740000D01*
X152400000Y-78740000D02*
X152900010Y-78740000D01*
G04 #@! TO.N,Net-(K3-Pad2)*
X151130000Y-95250000D02*
X151899990Y-95250000D01*
X163240000Y-93680000D02*
X161670000Y-95250000D01*
X161670000Y-95250000D02*
X151899990Y-95250000D01*
X151899990Y-95250000D02*
X152400000Y-95250000D01*
G04 #@! TO.N,Net-(K4-Pad2)*
X151130000Y-111760000D02*
X151899990Y-111760000D01*
X163240000Y-110190000D02*
X161670000Y-111760000D01*
X161670000Y-111760000D02*
X151899990Y-111760000D01*
X151899990Y-111760000D02*
X152400000Y-111760000D01*
G04 #@! TO.N,Net-(R2-Pad1)*
X131254290Y-95824290D02*
X128209290Y-95824290D01*
X131950000Y-96520000D02*
X131254290Y-95824290D01*
X128209290Y-95824290D02*
X125730000Y-93345000D01*
X125730000Y-93345000D02*
X125730000Y-90805000D01*
G04 #@! TO.N,Net-(RN1-Pad5)*
X99695000Y-88900000D02*
X100330000Y-88265000D01*
X100330000Y-88265000D02*
X110490000Y-88265000D01*
X110490000Y-88265000D02*
X111125000Y-88265000D01*
X111125000Y-88265000D02*
X112395000Y-89535000D01*
G04 #@! TO.N,SW+*
X83185000Y-78740000D02*
X113665000Y-78740000D01*
X113665000Y-78740000D02*
X115570000Y-80645000D01*
X127000000Y-110383600D02*
X123825000Y-113558600D01*
X127000000Y-109220000D02*
X127000000Y-110383600D01*
X123825000Y-113558600D02*
X123825000Y-118110000D01*
X123825000Y-118110000D02*
X123190000Y-118745000D01*
X91048297Y-118745000D02*
X79618297Y-107315000D01*
X123190000Y-118745000D02*
X91048297Y-118745000D01*
X79618297Y-107315000D02*
X79618297Y-94371703D01*
X79618297Y-94371703D02*
X80645000Y-93345000D01*
X79375000Y-80645000D02*
X81280000Y-78740000D01*
X81280000Y-78740000D02*
X83185000Y-78740000D01*
G04 #@! TO.N,SWOK*
X107950000Y-109220000D02*
X107289600Y-109220000D01*
X85090000Y-106680000D02*
X82550000Y-104140000D01*
X104749600Y-106680000D02*
X85090000Y-106680000D01*
X82550000Y-96520000D02*
X83185000Y-95885000D01*
X82550000Y-97155000D02*
X82550000Y-96520000D01*
X82550000Y-104140000D02*
X82550000Y-97155000D01*
X107289600Y-109220000D02*
X104749600Y-106680000D01*
X83820000Y-81280000D02*
X111760000Y-81280000D01*
X111760000Y-81280000D02*
X113665000Y-83185000D01*
X113665000Y-83185000D02*
X115570000Y-83185000D01*
G04 #@! TO.N,SWBack*
X107289600Y-125730000D02*
X101574600Y-131445000D01*
X107950000Y-125730000D02*
X107289600Y-125730000D01*
X101574600Y-131445000D02*
X97790000Y-131445000D01*
X97790000Y-131445000D02*
X78105000Y-111760000D01*
X78105000Y-111760000D02*
X78105000Y-95885000D01*
X79375000Y-78105000D02*
X80010000Y-77470000D01*
X80010000Y-77470000D02*
X80645000Y-76835000D01*
X80645000Y-76835000D02*
X112395000Y-76835000D01*
X112395000Y-76835000D02*
X113030000Y-76200000D01*
X113030000Y-76200000D02*
X113030000Y-73660000D01*
X113030000Y-73660000D02*
X113030000Y-72390000D01*
X113030000Y-72390000D02*
X113665000Y-71755000D01*
X113665000Y-71755000D02*
X120650000Y-71755000D01*
X120650000Y-71755000D02*
X121920000Y-73025000D01*
X121920000Y-73025000D02*
X121920000Y-78740000D01*
X121920000Y-78740000D02*
X123190000Y-80010000D01*
G04 #@! TO.N,SW-*
X80645000Y-103505000D02*
X80645000Y-96520000D01*
X80645000Y-96520000D02*
X80645000Y-95885000D01*
X80645000Y-81915000D02*
X82550000Y-80010000D01*
X86360000Y-109220000D02*
X80645000Y-103505000D01*
X88900000Y-109220000D02*
X86360000Y-109220000D01*
X80645000Y-95885000D02*
X81280000Y-95250000D01*
X82550000Y-80010000D02*
X113030000Y-80010000D01*
X113030000Y-80010000D02*
X114935000Y-81915000D01*
X114935000Y-81915000D02*
X116205000Y-81915000D01*
G04 #@! TO.N,RL_3*
X146050000Y-83820000D02*
X149225000Y-86995000D01*
X149225000Y-86995000D02*
X149225000Y-105410000D01*
X149225000Y-105410000D02*
X149225000Y-130810000D01*
X149225000Y-130810000D02*
X145415000Y-134620000D01*
X145415000Y-134620000D02*
X96520000Y-134620000D01*
X96520000Y-134620000D02*
X74930000Y-113030000D01*
X74930000Y-113030000D02*
X74930000Y-90805000D01*
X74930000Y-90805000D02*
X81915000Y-83820000D01*
X81915000Y-83820000D02*
X101600000Y-83820000D01*
X101600000Y-83820000D02*
X103505000Y-83820000D01*
G04 #@! TO.N,RL_4*
X146050000Y-100330000D02*
X147955000Y-102235000D01*
X147955000Y-102235000D02*
X147955000Y-130175000D01*
X147955000Y-130175000D02*
X146186390Y-131943610D01*
X146186390Y-131943610D02*
X144145000Y-133985000D01*
X144145000Y-133985000D02*
X97790000Y-133985000D01*
X97790000Y-133985000D02*
X76200000Y-112395000D01*
X76200000Y-112395000D02*
X76200000Y-91440000D01*
X76200000Y-91440000D02*
X82550000Y-85090000D01*
X82550000Y-85090000D02*
X83185000Y-84455000D01*
X83185000Y-84455000D02*
X101600000Y-84455000D01*
X101600000Y-84455000D02*
X102235000Y-85090000D01*
G04 #@! TO.N,RL_2*
X146050000Y-67310000D02*
X138639998Y-67310000D01*
X138639998Y-67310000D02*
X136525000Y-67310000D01*
X136525000Y-67310000D02*
X132080000Y-71755000D01*
X132080000Y-71755000D02*
X132080000Y-76835000D01*
X132080000Y-76835000D02*
X130175000Y-78740000D01*
X130175000Y-78740000D02*
X130175000Y-81280000D01*
X130175000Y-81280000D02*
X129540000Y-81915000D01*
G04 #@! TO.N,RL_1*
X146050000Y-50800000D02*
X138430000Y-50800000D01*
X138430000Y-50800000D02*
X133350000Y-55880000D01*
X133350000Y-55880000D02*
X133350000Y-68580000D01*
X133350000Y-68580000D02*
X130810000Y-71120000D01*
X130810000Y-71120000D02*
X130810000Y-74930000D01*
G04 #@! TD*
D23*
G04 #@! TO.N,GND*
G36*
X186563000Y-27357606D02*
X186563000Y-41222394D01*
X182155197Y-45630197D01*
X182127667Y-45671399D01*
X182118000Y-45720000D01*
X182118000Y-111072394D01*
X179652394Y-113538000D01*
X152400000Y-113538000D01*
X152351399Y-113547667D01*
X152310197Y-113575197D01*
X152294330Y-113594553D01*
X151024330Y-115499553D01*
X151003000Y-115570000D01*
X151003000Y-130757394D01*
X145362394Y-136398000D01*
X95297586Y-136398000D01*
X70612000Y-114877232D01*
X70612000Y-90805000D01*
X74129622Y-90805000D01*
X74145001Y-90882317D01*
X74145000Y-112952688D01*
X74129622Y-113030000D01*
X74145000Y-113107312D01*
X74145000Y-113107315D01*
X74190546Y-113336291D01*
X74364047Y-113595953D01*
X74429592Y-113639749D01*
X95910253Y-135120411D01*
X95954047Y-135185953D01*
X96019589Y-135229747D01*
X96019591Y-135229749D01*
X96213708Y-135359454D01*
X96442684Y-135405000D01*
X96442688Y-135405000D01*
X96520000Y-135420378D01*
X96597312Y-135405000D01*
X145337688Y-135405000D01*
X145415000Y-135420378D01*
X145492312Y-135405000D01*
X145492316Y-135405000D01*
X145721292Y-135359454D01*
X145980953Y-135185953D01*
X146024749Y-135120408D01*
X149725408Y-131419749D01*
X149790953Y-131375953D01*
X149964454Y-131116292D01*
X150010000Y-130887316D01*
X150010000Y-130887312D01*
X150025378Y-130810000D01*
X150010000Y-130732688D01*
X150010000Y-111554126D01*
X150095000Y-111554126D01*
X150095000Y-111965874D01*
X150252569Y-112346280D01*
X150543720Y-112637431D01*
X150924126Y-112795000D01*
X151335874Y-112795000D01*
X151716280Y-112637431D01*
X151808711Y-112545000D01*
X161592688Y-112545000D01*
X161670000Y-112560378D01*
X161747312Y-112545000D01*
X161747316Y-112545000D01*
X161976292Y-112499454D01*
X162235953Y-112325953D01*
X162279749Y-112260408D01*
X162582283Y-111957874D01*
X162865050Y-112075000D01*
X163614950Y-112075000D01*
X164307767Y-111788026D01*
X164838026Y-111257767D01*
X165125000Y-110564950D01*
X165125000Y-109815050D01*
X165104403Y-109765322D01*
X173305000Y-109765322D01*
X173305000Y-110614678D01*
X173630034Y-111399380D01*
X174230620Y-111999966D01*
X175015322Y-112325000D01*
X175864678Y-112325000D01*
X176649380Y-111999966D01*
X177249966Y-111399380D01*
X177575000Y-110614678D01*
X177575000Y-109765322D01*
X177249966Y-108980620D01*
X176649380Y-108380034D01*
X175864678Y-108055000D01*
X175015322Y-108055000D01*
X174230620Y-108380034D01*
X173630034Y-108980620D01*
X173305000Y-109765322D01*
X165104403Y-109765322D01*
X164838026Y-109122233D01*
X164307767Y-108591974D01*
X163614950Y-108305000D01*
X162865050Y-108305000D01*
X162172233Y-108591974D01*
X161641974Y-109122233D01*
X161355000Y-109815050D01*
X161355000Y-110564950D01*
X161472126Y-110847717D01*
X161344843Y-110975000D01*
X151808711Y-110975000D01*
X151716280Y-110882569D01*
X151335874Y-110725000D01*
X150924126Y-110725000D01*
X150543720Y-110882569D01*
X150252569Y-111173720D01*
X150095000Y-111554126D01*
X150010000Y-111554126D01*
X150010000Y-103715322D01*
X159155000Y-103715322D01*
X159155000Y-104564678D01*
X159480034Y-105349380D01*
X160080620Y-105949966D01*
X160865322Y-106275000D01*
X161714678Y-106275000D01*
X162499380Y-105949966D01*
X163099966Y-105349380D01*
X163425000Y-104564678D01*
X163425000Y-103715322D01*
X163099966Y-102930620D01*
X162499380Y-102330034D01*
X161714678Y-102005000D01*
X160865322Y-102005000D01*
X160080620Y-102330034D01*
X159480034Y-102930620D01*
X159155000Y-103715322D01*
X150010000Y-103715322D01*
X150010000Y-97790000D01*
X152206887Y-97790000D01*
X152318260Y-98349909D01*
X152635423Y-98824577D01*
X152987758Y-99060000D01*
X152635423Y-99295423D01*
X152318260Y-99770091D01*
X152206887Y-100330000D01*
X152318260Y-100889909D01*
X152635423Y-101364577D01*
X153110091Y-101681740D01*
X153528667Y-101765000D01*
X153811333Y-101765000D01*
X154229909Y-101681740D01*
X154704577Y-101364577D01*
X155021740Y-100889909D01*
X155133113Y-100330000D01*
X155021740Y-99770091D01*
X154704577Y-99295423D01*
X154352242Y-99060000D01*
X154704577Y-98824577D01*
X155021740Y-98349909D01*
X155128130Y-97815050D01*
X161355000Y-97815050D01*
X161355000Y-98564950D01*
X161641974Y-99257767D01*
X162172233Y-99788026D01*
X162865050Y-100075000D01*
X163614950Y-100075000D01*
X164307767Y-99788026D01*
X164838026Y-99257767D01*
X165125000Y-98564950D01*
X165125000Y-97815050D01*
X165083692Y-97715322D01*
X173355000Y-97715322D01*
X173355000Y-98564678D01*
X173680034Y-99349380D01*
X174280620Y-99949966D01*
X175065322Y-100275000D01*
X175914678Y-100275000D01*
X176699380Y-99949966D01*
X177299966Y-99349380D01*
X177625000Y-98564678D01*
X177625000Y-97715322D01*
X177299966Y-96930620D01*
X176699380Y-96330034D01*
X175914678Y-96005000D01*
X175065322Y-96005000D01*
X174280620Y-96330034D01*
X173680034Y-96930620D01*
X173355000Y-97715322D01*
X165083692Y-97715322D01*
X164838026Y-97122233D01*
X164307767Y-96591974D01*
X163614950Y-96305000D01*
X162865050Y-96305000D01*
X162172233Y-96591974D01*
X161641974Y-97122233D01*
X161355000Y-97815050D01*
X155128130Y-97815050D01*
X155133113Y-97790000D01*
X155021740Y-97230091D01*
X154704577Y-96755423D01*
X154229909Y-96438260D01*
X153811333Y-96355000D01*
X153528667Y-96355000D01*
X153110091Y-96438260D01*
X152635423Y-96755423D01*
X152318260Y-97230091D01*
X152206887Y-97790000D01*
X150010000Y-97790000D01*
X150010000Y-95044126D01*
X150095000Y-95044126D01*
X150095000Y-95455874D01*
X150252569Y-95836280D01*
X150543720Y-96127431D01*
X150924126Y-96285000D01*
X151335874Y-96285000D01*
X151716280Y-96127431D01*
X151808711Y-96035000D01*
X161592688Y-96035000D01*
X161670000Y-96050378D01*
X161747312Y-96035000D01*
X161747316Y-96035000D01*
X161976292Y-95989454D01*
X162235953Y-95815953D01*
X162279749Y-95750408D01*
X162582283Y-95447874D01*
X162865050Y-95565000D01*
X163614950Y-95565000D01*
X164307767Y-95278026D01*
X164838026Y-94747767D01*
X165125000Y-94054950D01*
X165125000Y-93305050D01*
X165104403Y-93255322D01*
X173305000Y-93255322D01*
X173305000Y-94104678D01*
X173630034Y-94889380D01*
X174230620Y-95489966D01*
X175015322Y-95815000D01*
X175864678Y-95815000D01*
X176649380Y-95489966D01*
X177249966Y-94889380D01*
X177575000Y-94104678D01*
X177575000Y-93255322D01*
X177249966Y-92470620D01*
X176649380Y-91870034D01*
X175864678Y-91545000D01*
X175015322Y-91545000D01*
X174230620Y-91870034D01*
X173630034Y-92470620D01*
X173305000Y-93255322D01*
X165104403Y-93255322D01*
X164838026Y-92612233D01*
X164307767Y-92081974D01*
X163614950Y-91795000D01*
X162865050Y-91795000D01*
X162172233Y-92081974D01*
X161641974Y-92612233D01*
X161355000Y-93305050D01*
X161355000Y-94054950D01*
X161472126Y-94337717D01*
X161344843Y-94465000D01*
X151808711Y-94465000D01*
X151716280Y-94372569D01*
X151335874Y-94215000D01*
X150924126Y-94215000D01*
X150543720Y-94372569D01*
X150252569Y-94663720D01*
X150095000Y-95044126D01*
X150010000Y-95044126D01*
X150010000Y-87205322D01*
X159155000Y-87205322D01*
X159155000Y-88054678D01*
X159480034Y-88839380D01*
X160080620Y-89439966D01*
X160865322Y-89765000D01*
X161714678Y-89765000D01*
X162499380Y-89439966D01*
X163099966Y-88839380D01*
X163425000Y-88054678D01*
X163425000Y-87205322D01*
X163099966Y-86420620D01*
X162499380Y-85820034D01*
X161714678Y-85495000D01*
X160865322Y-85495000D01*
X160080620Y-85820034D01*
X159480034Y-86420620D01*
X159155000Y-87205322D01*
X150010000Y-87205322D01*
X150010000Y-87072311D01*
X150025378Y-86994999D01*
X150010000Y-86917685D01*
X150010000Y-86917684D01*
X149964454Y-86688708D01*
X149834749Y-86494591D01*
X149834747Y-86494589D01*
X149790953Y-86429047D01*
X149725411Y-86385253D01*
X147454554Y-84114397D01*
X147513113Y-83820000D01*
X147401740Y-83260091D01*
X147084577Y-82785423D01*
X146963894Y-82704785D01*
X147097765Y-82678157D01*
X147307809Y-82537809D01*
X147448157Y-82327765D01*
X147497440Y-82080000D01*
X147497440Y-81280000D01*
X152206887Y-81280000D01*
X152318260Y-81839909D01*
X152635423Y-82314577D01*
X152987758Y-82550000D01*
X152635423Y-82785423D01*
X152318260Y-83260091D01*
X152206887Y-83820000D01*
X152318260Y-84379909D01*
X152635423Y-84854577D01*
X153110091Y-85171740D01*
X153528667Y-85255000D01*
X153811333Y-85255000D01*
X154229909Y-85171740D01*
X154704577Y-84854577D01*
X155021740Y-84379909D01*
X155133113Y-83820000D01*
X155021740Y-83260091D01*
X154704577Y-82785423D01*
X154352242Y-82550000D01*
X154704577Y-82314577D01*
X155021740Y-81839909D01*
X155128130Y-81305050D01*
X161355000Y-81305050D01*
X161355000Y-82054950D01*
X161641974Y-82747767D01*
X162172233Y-83278026D01*
X162865050Y-83565000D01*
X163614950Y-83565000D01*
X164307767Y-83278026D01*
X164838026Y-82747767D01*
X165125000Y-82054950D01*
X165125000Y-81305050D01*
X165083692Y-81205322D01*
X173355000Y-81205322D01*
X173355000Y-82054678D01*
X173680034Y-82839380D01*
X174280620Y-83439966D01*
X175065322Y-83765000D01*
X175914678Y-83765000D01*
X176699380Y-83439966D01*
X177299966Y-82839380D01*
X177625000Y-82054678D01*
X177625000Y-81205322D01*
X177299966Y-80420620D01*
X176699380Y-79820034D01*
X175914678Y-79495000D01*
X175065322Y-79495000D01*
X174280620Y-79820034D01*
X173680034Y-80420620D01*
X173355000Y-81205322D01*
X165083692Y-81205322D01*
X164838026Y-80612233D01*
X164307767Y-80081974D01*
X163614950Y-79795000D01*
X162865050Y-79795000D01*
X162172233Y-80081974D01*
X161641974Y-80612233D01*
X161355000Y-81305050D01*
X155128130Y-81305050D01*
X155133113Y-81280000D01*
X155021740Y-80720091D01*
X154704577Y-80245423D01*
X154229909Y-79928260D01*
X153811333Y-79845000D01*
X153528667Y-79845000D01*
X153110091Y-79928260D01*
X152635423Y-80245423D01*
X152318260Y-80720091D01*
X152206887Y-81280000D01*
X147497440Y-81280000D01*
X147497440Y-80480000D01*
X147448157Y-80232235D01*
X147307809Y-80022191D01*
X147097765Y-79881843D01*
X146850000Y-79832560D01*
X145250000Y-79832560D01*
X145002235Y-79881843D01*
X144792191Y-80022191D01*
X144651843Y-80232235D01*
X144602560Y-80480000D01*
X144602560Y-82080000D01*
X144651843Y-82327765D01*
X144792191Y-82537809D01*
X145002235Y-82678157D01*
X145136106Y-82704785D01*
X145015423Y-82785423D01*
X144698260Y-83260091D01*
X144586887Y-83820000D01*
X144698260Y-84379909D01*
X145015423Y-84854577D01*
X145490091Y-85171740D01*
X145908667Y-85255000D01*
X146191333Y-85255000D01*
X146344396Y-85224554D01*
X148440000Y-87320158D01*
X148440001Y-101609843D01*
X147454554Y-100624396D01*
X147513113Y-100330000D01*
X147401740Y-99770091D01*
X147084577Y-99295423D01*
X146963894Y-99214785D01*
X147097765Y-99188157D01*
X147307809Y-99047809D01*
X147448157Y-98837765D01*
X147497440Y-98590000D01*
X147497440Y-96990000D01*
X147448157Y-96742235D01*
X147307809Y-96532191D01*
X147097765Y-96391843D01*
X146850000Y-96342560D01*
X145250000Y-96342560D01*
X145002235Y-96391843D01*
X144792191Y-96532191D01*
X144651843Y-96742235D01*
X144602560Y-96990000D01*
X144602560Y-98590000D01*
X144651843Y-98837765D01*
X144792191Y-99047809D01*
X145002235Y-99188157D01*
X145136106Y-99214785D01*
X145015423Y-99295423D01*
X144698260Y-99770091D01*
X144586887Y-100330000D01*
X144698260Y-100889909D01*
X145015423Y-101364577D01*
X145490091Y-101681740D01*
X145908667Y-101765000D01*
X146191333Y-101765000D01*
X146344396Y-101734554D01*
X147170000Y-102560158D01*
X147170001Y-129849841D01*
X145685984Y-131333859D01*
X145685981Y-131333861D01*
X143819843Y-133200000D01*
X98115158Y-133200000D01*
X76985000Y-112069843D01*
X76985000Y-95679126D01*
X77070000Y-95679126D01*
X77070000Y-96090874D01*
X77227569Y-96471280D01*
X77320001Y-96563712D01*
X77320000Y-111682688D01*
X77304622Y-111760000D01*
X77320000Y-111837312D01*
X77320000Y-111837315D01*
X77345572Y-111965874D01*
X77365546Y-112066291D01*
X77474681Y-112229622D01*
X77539047Y-112325953D01*
X77604592Y-112369749D01*
X97180253Y-131945411D01*
X97224047Y-132010953D01*
X97289589Y-132054747D01*
X97289591Y-132054749D01*
X97413218Y-132137354D01*
X97483708Y-132184454D01*
X97712684Y-132230000D01*
X97712688Y-132230000D01*
X97790000Y-132245378D01*
X97867312Y-132230000D01*
X101497288Y-132230000D01*
X101574600Y-132245378D01*
X101651912Y-132230000D01*
X101651916Y-132230000D01*
X101880892Y-132184454D01*
X102140553Y-132010953D01*
X102184349Y-131945408D01*
X103040731Y-131089026D01*
X105834642Y-131089026D01*
X105856473Y-131186157D01*
X106140127Y-131699868D01*
X106598778Y-132065925D01*
X107162600Y-132228600D01*
X107823000Y-132228600D01*
X107823000Y-130857000D01*
X108077000Y-130857000D01*
X108077000Y-132228600D01*
X108737400Y-132228600D01*
X109301222Y-132065925D01*
X109759873Y-131699868D01*
X110043527Y-131186157D01*
X110065358Y-131089026D01*
X118334642Y-131089026D01*
X118356473Y-131186157D01*
X118640127Y-131699868D01*
X119098778Y-132065925D01*
X119662600Y-132228600D01*
X120323000Y-132228600D01*
X120323000Y-130857000D01*
X120577000Y-130857000D01*
X120577000Y-132228600D01*
X121237400Y-132228600D01*
X121801222Y-132065925D01*
X122259873Y-131699868D01*
X122543527Y-131186157D01*
X122565358Y-131089026D01*
X122444217Y-130857000D01*
X120577000Y-130857000D01*
X120323000Y-130857000D01*
X118455783Y-130857000D01*
X118334642Y-131089026D01*
X110065358Y-131089026D01*
X109944217Y-130857000D01*
X108077000Y-130857000D01*
X107823000Y-130857000D01*
X105955783Y-130857000D01*
X105834642Y-131089026D01*
X103040731Y-131089026D01*
X103758783Y-130370974D01*
X105834642Y-130370974D01*
X105955783Y-130603000D01*
X107823000Y-130603000D01*
X107823000Y-129231400D01*
X108077000Y-129231400D01*
X108077000Y-130603000D01*
X109944217Y-130603000D01*
X110065358Y-130370974D01*
X118334642Y-130370974D01*
X118455783Y-130603000D01*
X120323000Y-130603000D01*
X120323000Y-129231400D01*
X120577000Y-129231400D01*
X120577000Y-130603000D01*
X122444217Y-130603000D01*
X122565358Y-130370974D01*
X122543527Y-130273843D01*
X122259873Y-129760132D01*
X121801222Y-129394075D01*
X121237400Y-129231400D01*
X120577000Y-129231400D01*
X120323000Y-129231400D01*
X119662600Y-129231400D01*
X119098778Y-129394075D01*
X118640127Y-129760132D01*
X118356473Y-130273843D01*
X118334642Y-130370974D01*
X110065358Y-130370974D01*
X110043527Y-130273843D01*
X109759873Y-129760132D01*
X109301222Y-129394075D01*
X108737400Y-129231400D01*
X108077000Y-129231400D01*
X107823000Y-129231400D01*
X107162600Y-129231400D01*
X106598778Y-129394075D01*
X106140127Y-129760132D01*
X105856473Y-130273843D01*
X105834642Y-130370974D01*
X103758783Y-130370974D01*
X106941116Y-127188641D01*
X107142002Y-127228600D01*
X108757998Y-127228600D01*
X109195125Y-127141650D01*
X109690830Y-126810430D01*
X110022050Y-126314725D01*
X110138359Y-125730000D01*
X118261641Y-125730000D01*
X118377950Y-126314725D01*
X118709170Y-126810430D01*
X119204875Y-127141650D01*
X119642002Y-127228600D01*
X121257998Y-127228600D01*
X121695125Y-127141650D01*
X122190830Y-126810430D01*
X122522050Y-126314725D01*
X122638359Y-125730000D01*
X122522050Y-125145275D01*
X122190830Y-124649570D01*
X121695125Y-124318350D01*
X121257998Y-124231400D01*
X119642002Y-124231400D01*
X119204875Y-124318350D01*
X118709170Y-124649570D01*
X118377950Y-125145275D01*
X118261641Y-125730000D01*
X110138359Y-125730000D01*
X110022050Y-125145275D01*
X109690830Y-124649570D01*
X109195125Y-124318350D01*
X108757998Y-124231400D01*
X107142002Y-124231400D01*
X106704875Y-124318350D01*
X106209170Y-124649570D01*
X105877950Y-125145275D01*
X105761641Y-125730000D01*
X105830959Y-126078484D01*
X101249443Y-130660000D01*
X98115158Y-130660000D01*
X78890000Y-111434843D01*
X78890000Y-107637989D01*
X79052344Y-107880953D01*
X79117889Y-107924749D01*
X90438550Y-119245411D01*
X90482344Y-119310953D01*
X90547886Y-119354747D01*
X90547888Y-119354749D01*
X90742005Y-119484454D01*
X90970981Y-119530000D01*
X90970984Y-119530000D01*
X91048296Y-119545378D01*
X91125608Y-119530000D01*
X123112688Y-119530000D01*
X123190000Y-119545378D01*
X123267312Y-119530000D01*
X123267316Y-119530000D01*
X123496292Y-119484454D01*
X123755953Y-119310953D01*
X123799749Y-119245408D01*
X124325408Y-118719749D01*
X124390953Y-118675953D01*
X124564454Y-118416292D01*
X124610000Y-118187316D01*
X124610000Y-118187312D01*
X124625378Y-118110000D01*
X124610000Y-118032688D01*
X124610000Y-114579026D01*
X124884642Y-114579026D01*
X124906473Y-114676157D01*
X125190127Y-115189868D01*
X125648778Y-115555925D01*
X126212600Y-115718600D01*
X126873000Y-115718600D01*
X126873000Y-114347000D01*
X127127000Y-114347000D01*
X127127000Y-115718600D01*
X127787400Y-115718600D01*
X128351222Y-115555925D01*
X128809873Y-115189868D01*
X129093527Y-114676157D01*
X129115358Y-114579026D01*
X137384642Y-114579026D01*
X137406473Y-114676157D01*
X137690127Y-115189868D01*
X138148778Y-115555925D01*
X138712600Y-115718600D01*
X139373000Y-115718600D01*
X139373000Y-114347000D01*
X139627000Y-114347000D01*
X139627000Y-115718600D01*
X140287400Y-115718600D01*
X140851222Y-115555925D01*
X141309873Y-115189868D01*
X141593527Y-114676157D01*
X141615358Y-114579026D01*
X141494217Y-114347000D01*
X139627000Y-114347000D01*
X139373000Y-114347000D01*
X137505783Y-114347000D01*
X137384642Y-114579026D01*
X129115358Y-114579026D01*
X128994217Y-114347000D01*
X127127000Y-114347000D01*
X126873000Y-114347000D01*
X125005783Y-114347000D01*
X124884642Y-114579026D01*
X124610000Y-114579026D01*
X124610000Y-113883757D01*
X125124165Y-113369592D01*
X124906473Y-113763843D01*
X124884642Y-113860974D01*
X125005783Y-114093000D01*
X126873000Y-114093000D01*
X126873000Y-112721400D01*
X127127000Y-112721400D01*
X127127000Y-114093000D01*
X128994217Y-114093000D01*
X129115358Y-113860974D01*
X137384642Y-113860974D01*
X137505783Y-114093000D01*
X139373000Y-114093000D01*
X139373000Y-112721400D01*
X139627000Y-112721400D01*
X139627000Y-114093000D01*
X141494217Y-114093000D01*
X141615358Y-113860974D01*
X141593527Y-113763843D01*
X141309873Y-113250132D01*
X140851222Y-112884075D01*
X140287400Y-112721400D01*
X139627000Y-112721400D01*
X139373000Y-112721400D01*
X138712600Y-112721400D01*
X138148778Y-112884075D01*
X137690127Y-113250132D01*
X137406473Y-113763843D01*
X137384642Y-113860974D01*
X129115358Y-113860974D01*
X129093527Y-113763843D01*
X128809873Y-113250132D01*
X128351222Y-112884075D01*
X127787400Y-112721400D01*
X127127000Y-112721400D01*
X126873000Y-112721400D01*
X126212600Y-112721400D01*
X125648778Y-112884075D01*
X125455123Y-113038634D01*
X127500411Y-110993347D01*
X127565953Y-110949553D01*
X127609747Y-110884011D01*
X127609749Y-110884009D01*
X127720272Y-110718600D01*
X127807998Y-110718600D01*
X128245125Y-110631650D01*
X128740830Y-110300430D01*
X129072050Y-109804725D01*
X129188359Y-109220000D01*
X137311641Y-109220000D01*
X137427950Y-109804725D01*
X137759170Y-110300430D01*
X138254875Y-110631650D01*
X138692002Y-110718600D01*
X140307998Y-110718600D01*
X140745125Y-110631650D01*
X141240830Y-110300430D01*
X141572050Y-109804725D01*
X141688359Y-109220000D01*
X141572050Y-108635275D01*
X141240830Y-108139570D01*
X140745125Y-107808350D01*
X140307998Y-107721400D01*
X138692002Y-107721400D01*
X138254875Y-107808350D01*
X137759170Y-108139570D01*
X137427950Y-108635275D01*
X137311641Y-109220000D01*
X129188359Y-109220000D01*
X129072050Y-108635275D01*
X128740830Y-108139570D01*
X128245125Y-107808350D01*
X127807998Y-107721400D01*
X126192002Y-107721400D01*
X125754875Y-107808350D01*
X125259170Y-108139570D01*
X124927950Y-108635275D01*
X124811641Y-109220000D01*
X124927950Y-109804725D01*
X125259170Y-110300430D01*
X125687087Y-110586355D01*
X123324592Y-112948851D01*
X123259047Y-112992647D01*
X123085546Y-113252309D01*
X123040000Y-113481285D01*
X123040000Y-113481288D01*
X123024622Y-113558600D01*
X123040000Y-113635912D01*
X123040001Y-117784842D01*
X122864843Y-117960000D01*
X91373455Y-117960000D01*
X89132055Y-115718600D01*
X89687400Y-115718600D01*
X90251222Y-115555925D01*
X90709873Y-115189868D01*
X90993527Y-114676157D01*
X91015358Y-114579026D01*
X99284642Y-114579026D01*
X99306473Y-114676157D01*
X99590127Y-115189868D01*
X100048778Y-115555925D01*
X100612600Y-115718600D01*
X101273000Y-115718600D01*
X101273000Y-114347000D01*
X101527000Y-114347000D01*
X101527000Y-115718600D01*
X102187400Y-115718600D01*
X102751222Y-115555925D01*
X103209873Y-115189868D01*
X103493527Y-114676157D01*
X103515358Y-114579026D01*
X105834642Y-114579026D01*
X105856473Y-114676157D01*
X106140127Y-115189868D01*
X106598778Y-115555925D01*
X107162600Y-115718600D01*
X107823000Y-115718600D01*
X107823000Y-114347000D01*
X108077000Y-114347000D01*
X108077000Y-115718600D01*
X108737400Y-115718600D01*
X109301222Y-115555925D01*
X109759873Y-115189868D01*
X110043527Y-114676157D01*
X110065358Y-114579026D01*
X118334642Y-114579026D01*
X118356473Y-114676157D01*
X118640127Y-115189868D01*
X119098778Y-115555925D01*
X119662600Y-115718600D01*
X120323000Y-115718600D01*
X120323000Y-114347000D01*
X120577000Y-114347000D01*
X120577000Y-115718600D01*
X121237400Y-115718600D01*
X121801222Y-115555925D01*
X122259873Y-115189868D01*
X122543527Y-114676157D01*
X122565358Y-114579026D01*
X122444217Y-114347000D01*
X120577000Y-114347000D01*
X120323000Y-114347000D01*
X118455783Y-114347000D01*
X118334642Y-114579026D01*
X110065358Y-114579026D01*
X109944217Y-114347000D01*
X108077000Y-114347000D01*
X107823000Y-114347000D01*
X105955783Y-114347000D01*
X105834642Y-114579026D01*
X103515358Y-114579026D01*
X103394217Y-114347000D01*
X101527000Y-114347000D01*
X101273000Y-114347000D01*
X99405783Y-114347000D01*
X99284642Y-114579026D01*
X91015358Y-114579026D01*
X90894217Y-114347000D01*
X89027000Y-114347000D01*
X89027000Y-114367000D01*
X88773000Y-114367000D01*
X88773000Y-114347000D01*
X88753000Y-114347000D01*
X88753000Y-114093000D01*
X88773000Y-114093000D01*
X88773000Y-112721400D01*
X89027000Y-112721400D01*
X89027000Y-114093000D01*
X90894217Y-114093000D01*
X91015358Y-113860974D01*
X99284642Y-113860974D01*
X99405783Y-114093000D01*
X101273000Y-114093000D01*
X101273000Y-112721400D01*
X101527000Y-112721400D01*
X101527000Y-114093000D01*
X103394217Y-114093000D01*
X103515358Y-113860974D01*
X105834642Y-113860974D01*
X105955783Y-114093000D01*
X107823000Y-114093000D01*
X107823000Y-112721400D01*
X108077000Y-112721400D01*
X108077000Y-114093000D01*
X109944217Y-114093000D01*
X110065358Y-113860974D01*
X118334642Y-113860974D01*
X118455783Y-114093000D01*
X120323000Y-114093000D01*
X120323000Y-112721400D01*
X120577000Y-112721400D01*
X120577000Y-114093000D01*
X122444217Y-114093000D01*
X122565358Y-113860974D01*
X122543527Y-113763843D01*
X122259873Y-113250132D01*
X121801222Y-112884075D01*
X121237400Y-112721400D01*
X120577000Y-112721400D01*
X120323000Y-112721400D01*
X119662600Y-112721400D01*
X119098778Y-112884075D01*
X118640127Y-113250132D01*
X118356473Y-113763843D01*
X118334642Y-113860974D01*
X110065358Y-113860974D01*
X110043527Y-113763843D01*
X109759873Y-113250132D01*
X109301222Y-112884075D01*
X108737400Y-112721400D01*
X108077000Y-112721400D01*
X107823000Y-112721400D01*
X107162600Y-112721400D01*
X106598778Y-112884075D01*
X106140127Y-113250132D01*
X105856473Y-113763843D01*
X105834642Y-113860974D01*
X103515358Y-113860974D01*
X103493527Y-113763843D01*
X103209873Y-113250132D01*
X102751222Y-112884075D01*
X102187400Y-112721400D01*
X101527000Y-112721400D01*
X101273000Y-112721400D01*
X100612600Y-112721400D01*
X100048778Y-112884075D01*
X99590127Y-113250132D01*
X99306473Y-113763843D01*
X99284642Y-113860974D01*
X91015358Y-113860974D01*
X90993527Y-113763843D01*
X90709873Y-113250132D01*
X90251222Y-112884075D01*
X89687400Y-112721400D01*
X89027000Y-112721400D01*
X88773000Y-112721400D01*
X88112600Y-112721400D01*
X87548778Y-112884075D01*
X87090127Y-113250132D01*
X86938390Y-113524935D01*
X80403297Y-106989843D01*
X80403297Y-104373454D01*
X85750251Y-109720408D01*
X85794047Y-109785953D01*
X86053708Y-109959454D01*
X86282684Y-110005000D01*
X86282688Y-110005000D01*
X86360000Y-110020378D01*
X86437312Y-110005000D01*
X86961770Y-110005000D01*
X87159170Y-110300430D01*
X87654875Y-110631650D01*
X88092002Y-110718600D01*
X89707998Y-110718600D01*
X90145125Y-110631650D01*
X90640830Y-110300430D01*
X90972050Y-109804725D01*
X91088359Y-109220000D01*
X99211641Y-109220000D01*
X99327950Y-109804725D01*
X99659170Y-110300430D01*
X100154875Y-110631650D01*
X100592002Y-110718600D01*
X102207998Y-110718600D01*
X102645125Y-110631650D01*
X103140830Y-110300430D01*
X103472050Y-109804725D01*
X103588359Y-109220000D01*
X103472050Y-108635275D01*
X103140830Y-108139570D01*
X102645125Y-107808350D01*
X102207998Y-107721400D01*
X100592002Y-107721400D01*
X100154875Y-107808350D01*
X99659170Y-108139570D01*
X99327950Y-108635275D01*
X99211641Y-109220000D01*
X91088359Y-109220000D01*
X90972050Y-108635275D01*
X90640830Y-108139570D01*
X90145125Y-107808350D01*
X89707998Y-107721400D01*
X88092002Y-107721400D01*
X87654875Y-107808350D01*
X87159170Y-108139570D01*
X86961770Y-108435000D01*
X86685157Y-108435000D01*
X85715157Y-107465000D01*
X104424443Y-107465000D01*
X105830959Y-108871516D01*
X105761641Y-109220000D01*
X105877950Y-109804725D01*
X106209170Y-110300430D01*
X106704875Y-110631650D01*
X107142002Y-110718600D01*
X108757998Y-110718600D01*
X109195125Y-110631650D01*
X109690830Y-110300430D01*
X110022050Y-109804725D01*
X110138359Y-109220000D01*
X118261641Y-109220000D01*
X118377950Y-109804725D01*
X118709170Y-110300430D01*
X119204875Y-110631650D01*
X119642002Y-110718600D01*
X121257998Y-110718600D01*
X121695125Y-110631650D01*
X122190830Y-110300430D01*
X122522050Y-109804725D01*
X122638359Y-109220000D01*
X122522050Y-108635275D01*
X122190830Y-108139570D01*
X121695125Y-107808350D01*
X121257998Y-107721400D01*
X119642002Y-107721400D01*
X119204875Y-107808350D01*
X118709170Y-108139570D01*
X118377950Y-108635275D01*
X118261641Y-109220000D01*
X110138359Y-109220000D01*
X110022050Y-108635275D01*
X109690830Y-108139570D01*
X109195125Y-107808350D01*
X108757998Y-107721400D01*
X107142002Y-107721400D01*
X106941116Y-107761359D01*
X105359348Y-106179591D01*
X105315553Y-106114047D01*
X105055892Y-105940546D01*
X104826916Y-105895000D01*
X104826912Y-105895000D01*
X104749600Y-105879622D01*
X104672288Y-105895000D01*
X85415158Y-105895000D01*
X83335000Y-103814843D01*
X83335000Y-96920000D01*
X83390874Y-96920000D01*
X83771280Y-96762431D01*
X84062431Y-96471280D01*
X84220000Y-96090874D01*
X84220000Y-95679126D01*
X84062431Y-95298720D01*
X83807837Y-95044126D01*
X95485000Y-95044126D01*
X95485000Y-95455874D01*
X95642569Y-95836280D01*
X95933720Y-96127431D01*
X96314126Y-96285000D01*
X96725874Y-96285000D01*
X97106280Y-96127431D01*
X97397431Y-95836280D01*
X97555000Y-95455874D01*
X97555000Y-95400000D01*
X105645000Y-95400000D01*
X105645000Y-95455874D01*
X105802569Y-95836280D01*
X106093720Y-96127431D01*
X106474126Y-96285000D01*
X106885874Y-96285000D01*
X107266280Y-96127431D01*
X107557431Y-95836280D01*
X107715000Y-95455874D01*
X107715000Y-95044126D01*
X107557431Y-94663720D01*
X107302837Y-94409126D01*
X117710000Y-94409126D01*
X117710000Y-94820874D01*
X117867569Y-95201280D01*
X118158720Y-95492431D01*
X118539126Y-95650000D01*
X118950874Y-95650000D01*
X119331280Y-95492431D01*
X119622431Y-95201280D01*
X119780000Y-94820874D01*
X119780000Y-94409126D01*
X119622431Y-94028720D01*
X119530000Y-93936289D01*
X119530000Y-90599126D01*
X124695000Y-90599126D01*
X124695000Y-91010874D01*
X124852569Y-91391280D01*
X124945001Y-91483712D01*
X124945000Y-93267688D01*
X124929622Y-93345000D01*
X124945000Y-93422312D01*
X124945000Y-93422315D01*
X124986758Y-93632249D01*
X124990546Y-93651291D01*
X125099681Y-93814622D01*
X125164047Y-93910953D01*
X125229592Y-93954749D01*
X127599541Y-96324698D01*
X127643337Y-96390243D01*
X127902998Y-96563744D01*
X128131974Y-96609290D01*
X128131978Y-96609290D01*
X128209290Y-96624668D01*
X128286602Y-96609290D01*
X130915000Y-96609290D01*
X130915000Y-96725874D01*
X131072569Y-97106280D01*
X131363720Y-97397431D01*
X131744126Y-97555000D01*
X132155874Y-97555000D01*
X132536280Y-97397431D01*
X132827431Y-97106280D01*
X132985000Y-96725874D01*
X132985000Y-96314126D01*
X132827431Y-95933720D01*
X132536280Y-95642569D01*
X132155874Y-95485000D01*
X132025157Y-95485000D01*
X131864039Y-95323882D01*
X131820243Y-95258337D01*
X131560582Y-95084836D01*
X131331606Y-95039290D01*
X131331602Y-95039290D01*
X131254290Y-95023912D01*
X131176978Y-95039290D01*
X128534447Y-95039290D01*
X126515000Y-93019843D01*
X126515000Y-91483711D01*
X126607431Y-91391280D01*
X126765000Y-91010874D01*
X126765000Y-90599126D01*
X126607431Y-90218720D01*
X126316280Y-89927569D01*
X125935874Y-89770000D01*
X125524126Y-89770000D01*
X125143720Y-89927569D01*
X124852569Y-90218720D01*
X124695000Y-90599126D01*
X119530000Y-90599126D01*
X119530000Y-90570000D01*
X119585874Y-90570000D01*
X119966280Y-90412431D01*
X120050368Y-90328343D01*
X120092312Y-90320000D01*
X120092316Y-90320000D01*
X120321292Y-90274454D01*
X120580953Y-90100953D01*
X120624749Y-90035408D01*
X122880158Y-87780000D01*
X128827688Y-87780000D01*
X128905000Y-87795378D01*
X128982312Y-87780000D01*
X128982316Y-87780000D01*
X129211292Y-87734454D01*
X129470953Y-87560953D01*
X129514749Y-87495408D01*
X131945411Y-85064747D01*
X132010953Y-85020953D01*
X132054747Y-84955411D01*
X132054749Y-84955409D01*
X132184453Y-84761293D01*
X132184454Y-84761292D01*
X132230000Y-84532316D01*
X132230000Y-84532312D01*
X132245378Y-84455001D01*
X132230000Y-84377690D01*
X132230000Y-80366890D01*
X134448524Y-80366890D01*
X134618355Y-80776924D01*
X135008642Y-81205183D01*
X135533108Y-81451486D01*
X135763000Y-81330819D01*
X135763000Y-80137000D01*
X136017000Y-80137000D01*
X136017000Y-81330819D01*
X136246892Y-81451486D01*
X136771358Y-81205183D01*
X137161645Y-80776924D01*
X137331476Y-80366890D01*
X137210155Y-80137000D01*
X136017000Y-80137000D01*
X135763000Y-80137000D01*
X134569845Y-80137000D01*
X134448524Y-80366890D01*
X132230000Y-80366890D01*
X132230000Y-79700157D01*
X133675158Y-78255000D01*
X134628526Y-78255000D01*
X134819375Y-78540625D01*
X135138478Y-78753843D01*
X135008642Y-78814817D01*
X134618355Y-79243076D01*
X134448524Y-79653110D01*
X134569845Y-79883000D01*
X135763000Y-79883000D01*
X135763000Y-79863000D01*
X136017000Y-79863000D01*
X136017000Y-79883000D01*
X137210155Y-79883000D01*
X137331476Y-79653110D01*
X137161645Y-79243076D01*
X136771358Y-78814817D01*
X136641522Y-78753843D01*
X136960625Y-78540625D01*
X136964967Y-78534126D01*
X150095000Y-78534126D01*
X150095000Y-78945874D01*
X150252569Y-79326280D01*
X150543720Y-79617431D01*
X150924126Y-79775000D01*
X151335874Y-79775000D01*
X151716280Y-79617431D01*
X151808711Y-79525000D01*
X161592688Y-79525000D01*
X161670000Y-79540378D01*
X161747312Y-79525000D01*
X161747316Y-79525000D01*
X161976292Y-79479454D01*
X162235953Y-79305953D01*
X162279749Y-79240408D01*
X162582283Y-78937874D01*
X162865050Y-79055000D01*
X163614950Y-79055000D01*
X164307767Y-78768026D01*
X164838026Y-78237767D01*
X165125000Y-77544950D01*
X165125000Y-76795050D01*
X165104403Y-76745322D01*
X173305000Y-76745322D01*
X173305000Y-77594678D01*
X173630034Y-78379380D01*
X174230620Y-78979966D01*
X175015322Y-79305000D01*
X175864678Y-79305000D01*
X176649380Y-78979966D01*
X177249966Y-78379380D01*
X177575000Y-77594678D01*
X177575000Y-76745322D01*
X177249966Y-75960620D01*
X176649380Y-75360034D01*
X175864678Y-75035000D01*
X175015322Y-75035000D01*
X174230620Y-75360034D01*
X173630034Y-75960620D01*
X173305000Y-76745322D01*
X165104403Y-76745322D01*
X164838026Y-76102233D01*
X164307767Y-75571974D01*
X163614950Y-75285000D01*
X162865050Y-75285000D01*
X162172233Y-75571974D01*
X161641974Y-76102233D01*
X161355000Y-76795050D01*
X161355000Y-77544950D01*
X161472126Y-77827717D01*
X161344843Y-77955000D01*
X151808711Y-77955000D01*
X151716280Y-77862569D01*
X151335874Y-77705000D01*
X150924126Y-77705000D01*
X150543720Y-77862569D01*
X150252569Y-78153720D01*
X150095000Y-78534126D01*
X136964967Y-78534126D01*
X137288839Y-78049418D01*
X137404092Y-77470000D01*
X137288839Y-76890582D01*
X136960625Y-76399375D01*
X136662239Y-76200000D01*
X136960625Y-76000625D01*
X137288839Y-75509418D01*
X137404092Y-74930000D01*
X137288839Y-74350582D01*
X136960625Y-73859375D01*
X136942381Y-73847184D01*
X136987765Y-73838157D01*
X137197809Y-73697809D01*
X137338157Y-73487765D01*
X137387440Y-73240000D01*
X137387440Y-71540000D01*
X137338157Y-71292235D01*
X137197809Y-71082191D01*
X136987765Y-70941843D01*
X136740000Y-70892560D01*
X135040000Y-70892560D01*
X134792235Y-70941843D01*
X134582191Y-71082191D01*
X134441843Y-71292235D01*
X134392560Y-71540000D01*
X134392560Y-73240000D01*
X134441843Y-73487765D01*
X134582191Y-73697809D01*
X134792235Y-73838157D01*
X134837619Y-73847184D01*
X134819375Y-73859375D01*
X134491161Y-74350582D01*
X134375908Y-74930000D01*
X134491161Y-75509418D01*
X134819375Y-76000625D01*
X135117761Y-76200000D01*
X134819375Y-76399375D01*
X134628526Y-76685000D01*
X133427312Y-76685000D01*
X133350000Y-76669622D01*
X133272688Y-76685000D01*
X133272684Y-76685000D01*
X133043708Y-76730546D01*
X132879304Y-76840397D01*
X132880378Y-76835000D01*
X132865000Y-76757688D01*
X132865000Y-72080157D01*
X134249835Y-70695322D01*
X159155000Y-70695322D01*
X159155000Y-71544678D01*
X159480034Y-72329380D01*
X160080620Y-72929966D01*
X160865322Y-73255000D01*
X161714678Y-73255000D01*
X162499380Y-72929966D01*
X163099966Y-72329380D01*
X163425000Y-71544678D01*
X163425000Y-70695322D01*
X163099966Y-69910620D01*
X162499380Y-69310034D01*
X161714678Y-68985000D01*
X160865322Y-68985000D01*
X160080620Y-69310034D01*
X159480034Y-69910620D01*
X159155000Y-70695322D01*
X134249835Y-70695322D01*
X136850158Y-68095000D01*
X144848661Y-68095000D01*
X145015423Y-68344577D01*
X145490091Y-68661740D01*
X145908667Y-68745000D01*
X146191333Y-68745000D01*
X146609909Y-68661740D01*
X147084577Y-68344577D01*
X147401740Y-67869909D01*
X147513113Y-67310000D01*
X147401740Y-66750091D01*
X147084577Y-66275423D01*
X146963894Y-66194785D01*
X147097765Y-66168157D01*
X147307809Y-66027809D01*
X147448157Y-65817765D01*
X147497440Y-65570000D01*
X147497440Y-64770000D01*
X152206887Y-64770000D01*
X152318260Y-65329909D01*
X152635423Y-65804577D01*
X152987758Y-66040000D01*
X152635423Y-66275423D01*
X152318260Y-66750091D01*
X152206887Y-67310000D01*
X152318260Y-67869909D01*
X152635423Y-68344577D01*
X153110091Y-68661740D01*
X153528667Y-68745000D01*
X153811333Y-68745000D01*
X154229909Y-68661740D01*
X154704577Y-68344577D01*
X155021740Y-67869909D01*
X155133113Y-67310000D01*
X155021740Y-66750091D01*
X154704577Y-66275423D01*
X154352242Y-66040000D01*
X154704577Y-65804577D01*
X155021740Y-65329909D01*
X155128130Y-64795050D01*
X161355000Y-64795050D01*
X161355000Y-65544950D01*
X161641974Y-66237767D01*
X162172233Y-66768026D01*
X162865050Y-67055000D01*
X163614950Y-67055000D01*
X164307767Y-66768026D01*
X164838026Y-66237767D01*
X165125000Y-65544950D01*
X165125000Y-64795050D01*
X165083692Y-64695322D01*
X173355000Y-64695322D01*
X173355000Y-65544678D01*
X173680034Y-66329380D01*
X174280620Y-66929966D01*
X175065322Y-67255000D01*
X175914678Y-67255000D01*
X176699380Y-66929966D01*
X177299966Y-66329380D01*
X177625000Y-65544678D01*
X177625000Y-64695322D01*
X177299966Y-63910620D01*
X176699380Y-63310034D01*
X175914678Y-62985000D01*
X175065322Y-62985000D01*
X174280620Y-63310034D01*
X173680034Y-63910620D01*
X173355000Y-64695322D01*
X165083692Y-64695322D01*
X164838026Y-64102233D01*
X164307767Y-63571974D01*
X163614950Y-63285000D01*
X162865050Y-63285000D01*
X162172233Y-63571974D01*
X161641974Y-64102233D01*
X161355000Y-64795050D01*
X155128130Y-64795050D01*
X155133113Y-64770000D01*
X155021740Y-64210091D01*
X154704577Y-63735423D01*
X154229909Y-63418260D01*
X153811333Y-63335000D01*
X153528667Y-63335000D01*
X153110091Y-63418260D01*
X152635423Y-63735423D01*
X152318260Y-64210091D01*
X152206887Y-64770000D01*
X147497440Y-64770000D01*
X147497440Y-63970000D01*
X147448157Y-63722235D01*
X147307809Y-63512191D01*
X147097765Y-63371843D01*
X146850000Y-63322560D01*
X145250000Y-63322560D01*
X145002235Y-63371843D01*
X144792191Y-63512191D01*
X144651843Y-63722235D01*
X144602560Y-63970000D01*
X144602560Y-65570000D01*
X144651843Y-65817765D01*
X144792191Y-66027809D01*
X145002235Y-66168157D01*
X145136106Y-66194785D01*
X145015423Y-66275423D01*
X144848661Y-66525000D01*
X136602310Y-66525000D01*
X136524999Y-66509622D01*
X136447688Y-66525000D01*
X136447684Y-66525000D01*
X136218708Y-66570546D01*
X136099625Y-66650115D01*
X136024591Y-66700251D01*
X136024589Y-66700253D01*
X135959047Y-66744047D01*
X135915253Y-66809589D01*
X134149459Y-68575383D01*
X134135000Y-68502690D01*
X134135000Y-62024126D01*
X150095000Y-62024126D01*
X150095000Y-62435874D01*
X150252569Y-62816280D01*
X150543720Y-63107431D01*
X150924126Y-63265000D01*
X151335874Y-63265000D01*
X151716280Y-63107431D01*
X151808711Y-63015000D01*
X159824922Y-63015000D01*
X159902234Y-63030378D01*
X159979546Y-63015000D01*
X159979550Y-63015000D01*
X160208526Y-62969454D01*
X160468187Y-62795953D01*
X160511983Y-62730408D01*
X161604674Y-61637717D01*
X161641974Y-61727767D01*
X162172233Y-62258026D01*
X162865050Y-62545000D01*
X163614950Y-62545000D01*
X164307767Y-62258026D01*
X164838026Y-61727767D01*
X165125000Y-61034950D01*
X165125000Y-60285050D01*
X165104403Y-60235322D01*
X173305000Y-60235322D01*
X173305000Y-61084678D01*
X173630034Y-61869380D01*
X174230620Y-62469966D01*
X175015322Y-62795000D01*
X175864678Y-62795000D01*
X176649380Y-62469966D01*
X177249966Y-61869380D01*
X177575000Y-61084678D01*
X177575000Y-60235322D01*
X177249966Y-59450620D01*
X176649380Y-58850034D01*
X175864678Y-58525000D01*
X175015322Y-58525000D01*
X174230620Y-58850034D01*
X173630034Y-59450620D01*
X173305000Y-60235322D01*
X165104403Y-60235322D01*
X164838026Y-59592233D01*
X164307767Y-59061974D01*
X163614950Y-58775000D01*
X162865050Y-58775000D01*
X162172233Y-59061974D01*
X161641974Y-59592233D01*
X161526728Y-59870462D01*
X161472233Y-59859622D01*
X161394922Y-59875000D01*
X161394918Y-59875000D01*
X161165942Y-59920546D01*
X161046859Y-60000115D01*
X160971825Y-60050251D01*
X160971823Y-60050253D01*
X160906281Y-60094047D01*
X160862487Y-60159589D01*
X159577077Y-61445000D01*
X151808711Y-61445000D01*
X151716280Y-61352569D01*
X151335874Y-61195000D01*
X150924126Y-61195000D01*
X150543720Y-61352569D01*
X150252569Y-61643720D01*
X150095000Y-62024126D01*
X134135000Y-62024126D01*
X134135000Y-56205157D01*
X136154835Y-54185322D01*
X159155000Y-54185322D01*
X159155000Y-55034678D01*
X159480034Y-55819380D01*
X160080620Y-56419966D01*
X160865322Y-56745000D01*
X161714678Y-56745000D01*
X162499380Y-56419966D01*
X163099966Y-55819380D01*
X163425000Y-55034678D01*
X163425000Y-54185322D01*
X163099966Y-53400620D01*
X162499380Y-52800034D01*
X161714678Y-52475000D01*
X160865322Y-52475000D01*
X160080620Y-52800034D01*
X159480034Y-53400620D01*
X159155000Y-54185322D01*
X136154835Y-54185322D01*
X138755158Y-51585000D01*
X144848661Y-51585000D01*
X145015423Y-51834577D01*
X145490091Y-52151740D01*
X145908667Y-52235000D01*
X146191333Y-52235000D01*
X146609909Y-52151740D01*
X147084577Y-51834577D01*
X147401740Y-51359909D01*
X147513113Y-50800000D01*
X147401740Y-50240091D01*
X147084577Y-49765423D01*
X146963894Y-49684785D01*
X147097765Y-49658157D01*
X147307809Y-49517809D01*
X147448157Y-49307765D01*
X147497440Y-49060000D01*
X147497440Y-48260000D01*
X152206887Y-48260000D01*
X152318260Y-48819909D01*
X152635423Y-49294577D01*
X152987758Y-49530000D01*
X152635423Y-49765423D01*
X152318260Y-50240091D01*
X152206887Y-50800000D01*
X152318260Y-51359909D01*
X152635423Y-51834577D01*
X153110091Y-52151740D01*
X153528667Y-52235000D01*
X153811333Y-52235000D01*
X154229909Y-52151740D01*
X154704577Y-51834577D01*
X155021740Y-51359909D01*
X155133113Y-50800000D01*
X155021740Y-50240091D01*
X154704577Y-49765423D01*
X154352242Y-49530000D01*
X154704577Y-49294577D01*
X155021740Y-48819909D01*
X155128130Y-48285050D01*
X161355000Y-48285050D01*
X161355000Y-49034950D01*
X161641974Y-49727767D01*
X162172233Y-50258026D01*
X162865050Y-50545000D01*
X163614950Y-50545000D01*
X164307767Y-50258026D01*
X164838026Y-49727767D01*
X165125000Y-49034950D01*
X165125000Y-48285050D01*
X165083692Y-48185322D01*
X173355000Y-48185322D01*
X173355000Y-49034678D01*
X173680034Y-49819380D01*
X174280620Y-50419966D01*
X175065322Y-50745000D01*
X175914678Y-50745000D01*
X176699380Y-50419966D01*
X177299966Y-49819380D01*
X177625000Y-49034678D01*
X177625000Y-48185322D01*
X177299966Y-47400620D01*
X176699380Y-46800034D01*
X175914678Y-46475000D01*
X175065322Y-46475000D01*
X174280620Y-46800034D01*
X173680034Y-47400620D01*
X173355000Y-48185322D01*
X165083692Y-48185322D01*
X164838026Y-47592233D01*
X164307767Y-47061974D01*
X163614950Y-46775000D01*
X162865050Y-46775000D01*
X162172233Y-47061974D01*
X161641974Y-47592233D01*
X161355000Y-48285050D01*
X155128130Y-48285050D01*
X155133113Y-48260000D01*
X155021740Y-47700091D01*
X154704577Y-47225423D01*
X154229909Y-46908260D01*
X153811333Y-46825000D01*
X153528667Y-46825000D01*
X153110091Y-46908260D01*
X152635423Y-47225423D01*
X152318260Y-47700091D01*
X152206887Y-48260000D01*
X147497440Y-48260000D01*
X147497440Y-47460000D01*
X147448157Y-47212235D01*
X147307809Y-47002191D01*
X147097765Y-46861843D01*
X146850000Y-46812560D01*
X145250000Y-46812560D01*
X145002235Y-46861843D01*
X144792191Y-47002191D01*
X144651843Y-47212235D01*
X144602560Y-47460000D01*
X144602560Y-49060000D01*
X144651843Y-49307765D01*
X144792191Y-49517809D01*
X145002235Y-49658157D01*
X145136106Y-49684785D01*
X145015423Y-49765423D01*
X144848661Y-50015000D01*
X138507312Y-50015000D01*
X138430000Y-49999622D01*
X138352688Y-50015000D01*
X138352684Y-50015000D01*
X138123708Y-50060546D01*
X137929591Y-50190251D01*
X137929589Y-50190253D01*
X137864047Y-50234047D01*
X137820253Y-50299589D01*
X132849592Y-55270251D01*
X132784047Y-55314047D01*
X132740251Y-55379592D01*
X132610547Y-55573708D01*
X132610546Y-55573709D01*
X132565000Y-55802685D01*
X132565000Y-55802688D01*
X132549622Y-55880000D01*
X132565000Y-55957312D01*
X132565001Y-68254841D01*
X130309592Y-70510251D01*
X130244047Y-70554047D01*
X130070546Y-70813709D01*
X130025000Y-71042685D01*
X130025000Y-71042688D01*
X130009622Y-71120000D01*
X130025000Y-71197312D01*
X130025001Y-74251288D01*
X129932569Y-74343720D01*
X129775000Y-74724126D01*
X129775000Y-75135874D01*
X129932569Y-75516280D01*
X130223720Y-75807431D01*
X130604126Y-75965000D01*
X131015874Y-75965000D01*
X131295001Y-75849382D01*
X131295001Y-76509841D01*
X129674592Y-78130251D01*
X129609047Y-78174047D01*
X129565251Y-78239592D01*
X129517622Y-78310874D01*
X129435546Y-78433709D01*
X129390000Y-78662685D01*
X129390000Y-78662688D01*
X129374622Y-78740000D01*
X129390000Y-78817312D01*
X129390001Y-80880000D01*
X129334126Y-80880000D01*
X128953720Y-81037569D01*
X128662569Y-81328720D01*
X128505000Y-81709126D01*
X128505000Y-82120874D01*
X128662569Y-82501280D01*
X128953720Y-82792431D01*
X129334126Y-82950000D01*
X129745874Y-82950000D01*
X130126280Y-82792431D01*
X130417431Y-82501280D01*
X130575000Y-82120874D01*
X130575000Y-81990157D01*
X130660001Y-81905156D01*
X130660000Y-84129842D01*
X128579843Y-86210000D01*
X122632310Y-86210000D01*
X122554999Y-86194622D01*
X122477688Y-86210000D01*
X122477684Y-86210000D01*
X122248708Y-86255546D01*
X122248706Y-86255547D01*
X122248707Y-86255547D01*
X122054591Y-86385251D01*
X122054589Y-86385253D01*
X121989047Y-86429047D01*
X121945253Y-86494589D01*
X119836168Y-88603675D01*
X119585874Y-88500000D01*
X119174126Y-88500000D01*
X118793720Y-88657569D01*
X118502569Y-88948720D01*
X118345000Y-89329126D01*
X118345000Y-89459843D01*
X118244590Y-89560253D01*
X118179048Y-89604047D01*
X118135254Y-89669589D01*
X118135251Y-89669592D01*
X118005546Y-89863709D01*
X117944622Y-90170000D01*
X117960001Y-90247317D01*
X117960000Y-93936289D01*
X117867569Y-94028720D01*
X117710000Y-94409126D01*
X107302837Y-94409126D01*
X107266280Y-94372569D01*
X106885874Y-94215000D01*
X106755157Y-94215000D01*
X106654749Y-94114592D01*
X106610953Y-94049047D01*
X106351292Y-93875546D01*
X106122316Y-93830000D01*
X106122312Y-93830000D01*
X106045000Y-93814622D01*
X105967688Y-93830000D01*
X97232312Y-93830000D01*
X97155000Y-93814622D01*
X97077688Y-93830000D01*
X97077684Y-93830000D01*
X96848708Y-93875546D01*
X96589047Y-94049047D01*
X96545251Y-94114592D01*
X96444843Y-94215000D01*
X96314126Y-94215000D01*
X95933720Y-94372569D01*
X95642569Y-94663720D01*
X95485000Y-95044126D01*
X83807837Y-95044126D01*
X83771280Y-95007569D01*
X83390874Y-94850000D01*
X82979126Y-94850000D01*
X82598720Y-95007569D01*
X82315000Y-95291289D01*
X82315000Y-95044126D01*
X82157431Y-94663720D01*
X81866280Y-94372569D01*
X81485874Y-94215000D01*
X81238711Y-94215000D01*
X81522431Y-93931280D01*
X81680000Y-93550874D01*
X81680000Y-93139126D01*
X81522431Y-92758720D01*
X81231280Y-92467569D01*
X80850874Y-92310000D01*
X80439126Y-92310000D01*
X80058720Y-92467569D01*
X79767569Y-92758720D01*
X79610000Y-93139126D01*
X79610000Y-93269842D01*
X79117887Y-93761956D01*
X79052345Y-93805750D01*
X79008551Y-93871292D01*
X79008548Y-93871295D01*
X78878843Y-94065412D01*
X78817919Y-94371703D01*
X78833298Y-94449020D01*
X78833298Y-95149587D01*
X78691280Y-95007569D01*
X78310874Y-94850000D01*
X77899126Y-94850000D01*
X77518720Y-95007569D01*
X77227569Y-95298720D01*
X77070000Y-95679126D01*
X76985000Y-95679126D01*
X76985000Y-91765157D01*
X80056031Y-88694126D01*
X98660000Y-88694126D01*
X98660000Y-89105874D01*
X98817569Y-89486280D01*
X99108720Y-89777431D01*
X99489126Y-89935000D01*
X99900874Y-89935000D01*
X100281280Y-89777431D01*
X100572431Y-89486280D01*
X100730000Y-89105874D01*
X100730000Y-89050000D01*
X110799843Y-89050000D01*
X111360000Y-89610158D01*
X111360000Y-89740874D01*
X111517569Y-90121280D01*
X111808720Y-90412431D01*
X112189126Y-90570000D01*
X112600874Y-90570000D01*
X112981280Y-90412431D01*
X113272431Y-90121280D01*
X113430000Y-89740874D01*
X113430000Y-89329126D01*
X113272431Y-88948720D01*
X112981280Y-88657569D01*
X112600874Y-88500000D01*
X112470158Y-88500000D01*
X111734749Y-87764592D01*
X111690953Y-87699047D01*
X111431292Y-87525546D01*
X111202316Y-87480000D01*
X111202312Y-87480000D01*
X111125000Y-87464622D01*
X111047688Y-87480000D01*
X100407312Y-87480000D01*
X100330000Y-87464622D01*
X100252688Y-87480000D01*
X100252684Y-87480000D01*
X100023708Y-87525546D01*
X99764047Y-87699047D01*
X99720251Y-87764592D01*
X99619843Y-87865000D01*
X99489126Y-87865000D01*
X99108720Y-88022569D01*
X98817569Y-88313720D01*
X98660000Y-88694126D01*
X80056031Y-88694126D01*
X83159749Y-85590409D01*
X83159751Y-85590406D01*
X83510157Y-85240000D01*
X101200000Y-85240000D01*
X101200000Y-85295874D01*
X101357569Y-85676280D01*
X101648720Y-85967431D01*
X102029126Y-86125000D01*
X102440874Y-86125000D01*
X102821280Y-85967431D01*
X103112431Y-85676280D01*
X103270000Y-85295874D01*
X103270000Y-84884126D01*
X103249405Y-84834405D01*
X103299126Y-84855000D01*
X103710874Y-84855000D01*
X104091280Y-84697431D01*
X104382431Y-84406280D01*
X104540000Y-84025874D01*
X104540000Y-83614126D01*
X104382431Y-83233720D01*
X104091280Y-82942569D01*
X103710874Y-82785000D01*
X103299126Y-82785000D01*
X102918720Y-82942569D01*
X102826289Y-83035000D01*
X81992312Y-83035000D01*
X81915000Y-83019622D01*
X81837688Y-83035000D01*
X81837684Y-83035000D01*
X81608708Y-83080546D01*
X81349047Y-83254047D01*
X81305251Y-83319592D01*
X74429590Y-90195253D01*
X74364048Y-90239047D01*
X74320254Y-90304589D01*
X74320251Y-90304592D01*
X74190546Y-90498709D01*
X74129622Y-90805000D01*
X70612000Y-90805000D01*
X70612000Y-77899126D01*
X78340000Y-77899126D01*
X78340000Y-78310874D01*
X78497569Y-78691280D01*
X78788720Y-78982431D01*
X79169126Y-79140000D01*
X79580874Y-79140000D01*
X79903463Y-79006380D01*
X79299843Y-79610000D01*
X79169126Y-79610000D01*
X78788720Y-79767569D01*
X78497569Y-80058720D01*
X78340000Y-80439126D01*
X78340000Y-80850874D01*
X78497569Y-81231280D01*
X78788720Y-81522431D01*
X79169126Y-81680000D01*
X79580874Y-81680000D01*
X79630595Y-81659405D01*
X79610000Y-81709126D01*
X79610000Y-82120874D01*
X79767569Y-82501280D01*
X80058720Y-82792431D01*
X80439126Y-82950000D01*
X80850874Y-82950000D01*
X81231280Y-82792431D01*
X81522431Y-82501280D01*
X81680000Y-82120874D01*
X81680000Y-81990157D01*
X82875158Y-80795000D01*
X82900618Y-80795000D01*
X82785000Y-81074126D01*
X82785000Y-81485874D01*
X82942569Y-81866280D01*
X83233720Y-82157431D01*
X83614126Y-82315000D01*
X84025874Y-82315000D01*
X84406280Y-82157431D01*
X84498711Y-82065000D01*
X111434843Y-82065000D01*
X113055253Y-83685411D01*
X113099047Y-83750953D01*
X113164589Y-83794747D01*
X113164591Y-83794749D01*
X113294511Y-83881559D01*
X113358708Y-83924454D01*
X113587684Y-83970000D01*
X113587688Y-83970000D01*
X113665000Y-83985378D01*
X113742312Y-83970000D01*
X114891289Y-83970000D01*
X114983720Y-84062431D01*
X115364126Y-84220000D01*
X115775874Y-84220000D01*
X116156280Y-84062431D01*
X116447431Y-83771280D01*
X116605000Y-83390874D01*
X116605000Y-82979126D01*
X116566273Y-82885632D01*
X116791280Y-82792431D01*
X117082431Y-82501280D01*
X117240000Y-82120874D01*
X117240000Y-81709126D01*
X117082431Y-81328720D01*
X116791280Y-81037569D01*
X116566273Y-80944368D01*
X116605000Y-80850874D01*
X116605000Y-80439126D01*
X116447431Y-80058720D01*
X116156280Y-79767569D01*
X115775874Y-79610000D01*
X115645158Y-79610000D01*
X114274749Y-78239592D01*
X114230953Y-78174047D01*
X113971292Y-78000546D01*
X113742316Y-77955000D01*
X113742312Y-77955000D01*
X113665000Y-77939622D01*
X113587688Y-77955000D01*
X81357312Y-77955000D01*
X81280000Y-77939622D01*
X81202688Y-77955000D01*
X81202684Y-77955000D01*
X80973708Y-78000546D01*
X80779591Y-78130251D01*
X80779589Y-78130253D01*
X80714047Y-78174047D01*
X80670253Y-78239589D01*
X80276380Y-78633463D01*
X80410000Y-78310874D01*
X80410000Y-78180157D01*
X80970157Y-77620000D01*
X112317688Y-77620000D01*
X112395000Y-77635378D01*
X112472312Y-77620000D01*
X112472316Y-77620000D01*
X112701292Y-77574454D01*
X112960953Y-77400953D01*
X113004749Y-77335408D01*
X113530408Y-76809749D01*
X113595953Y-76765953D01*
X113769454Y-76506292D01*
X113815000Y-76277316D01*
X113815000Y-76277312D01*
X113830378Y-76200000D01*
X113815000Y-76122688D01*
X113815000Y-72715157D01*
X113990157Y-72540000D01*
X120324843Y-72540000D01*
X121135000Y-73350158D01*
X121135001Y-78662683D01*
X121119622Y-78740000D01*
X121180546Y-79046291D01*
X121310251Y-79240408D01*
X121310254Y-79240411D01*
X121354048Y-79305953D01*
X121419590Y-79349747D01*
X122155000Y-80085158D01*
X122155000Y-80215874D01*
X122312569Y-80596280D01*
X122603720Y-80887431D01*
X122984126Y-81045000D01*
X123395874Y-81045000D01*
X123776280Y-80887431D01*
X124067431Y-80596280D01*
X124225000Y-80215874D01*
X124225000Y-79804126D01*
X124067431Y-79423720D01*
X123776280Y-79132569D01*
X123395874Y-78975000D01*
X123265158Y-78975000D01*
X122705000Y-78414843D01*
X122705000Y-73102310D01*
X122720378Y-73024999D01*
X122705000Y-72947688D01*
X122705000Y-72947684D01*
X122659454Y-72718708D01*
X122550320Y-72555378D01*
X122529749Y-72524591D01*
X122529747Y-72524589D01*
X122485953Y-72459047D01*
X122420411Y-72415253D01*
X121259749Y-71254592D01*
X121215953Y-71189047D01*
X120956292Y-71015546D01*
X120727316Y-70970000D01*
X120727312Y-70970000D01*
X120650000Y-70954622D01*
X120572688Y-70970000D01*
X113742312Y-70970000D01*
X113665000Y-70954622D01*
X113587688Y-70970000D01*
X113587684Y-70970000D01*
X113358708Y-71015546D01*
X113099047Y-71189047D01*
X113055251Y-71254592D01*
X112529590Y-71780253D01*
X112464048Y-71824047D01*
X112420254Y-71889589D01*
X112420251Y-71889592D01*
X112290546Y-72083709D01*
X112229622Y-72390000D01*
X112245001Y-72467316D01*
X112245000Y-73737315D01*
X112245001Y-73737320D01*
X112245000Y-75874843D01*
X112069843Y-76050000D01*
X80722312Y-76050000D01*
X80645000Y-76034622D01*
X80567688Y-76050000D01*
X80567684Y-76050000D01*
X80338708Y-76095546D01*
X80079047Y-76269047D01*
X80035251Y-76334592D01*
X79299843Y-77070000D01*
X79169126Y-77070000D01*
X78788720Y-77227569D01*
X78497569Y-77518720D01*
X78340000Y-77899126D01*
X70612000Y-77899126D01*
X70612000Y-74352992D01*
X89618176Y-57880973D01*
X89648572Y-57841837D01*
X89662000Y-57785000D01*
X89662000Y-47346892D01*
X123018514Y-47346892D01*
X123264817Y-47871358D01*
X123693076Y-48261645D01*
X124103110Y-48431476D01*
X124333000Y-48310155D01*
X124333000Y-47117000D01*
X123139181Y-47117000D01*
X123018514Y-47346892D01*
X89662000Y-47346892D01*
X89662000Y-46633108D01*
X123018514Y-46633108D01*
X123139181Y-46863000D01*
X124333000Y-46863000D01*
X124333000Y-45669845D01*
X124587000Y-45669845D01*
X124587000Y-46863000D01*
X124607000Y-46863000D01*
X124607000Y-47117000D01*
X124587000Y-47117000D01*
X124587000Y-48310155D01*
X124816890Y-48431476D01*
X125226924Y-48261645D01*
X125655183Y-47871358D01*
X125716157Y-47741522D01*
X125929375Y-48060625D01*
X126420582Y-48388839D01*
X126853744Y-48475000D01*
X127146256Y-48475000D01*
X127579418Y-48388839D01*
X128070625Y-48060625D01*
X128270000Y-47762239D01*
X128469375Y-48060625D01*
X128960582Y-48388839D01*
X129393744Y-48475000D01*
X129686256Y-48475000D01*
X130119418Y-48388839D01*
X130610625Y-48060625D01*
X130622816Y-48042381D01*
X130631843Y-48087765D01*
X130772191Y-48297809D01*
X130982235Y-48438157D01*
X131230000Y-48487440D01*
X132930000Y-48487440D01*
X133177765Y-48438157D01*
X133387809Y-48297809D01*
X133528157Y-48087765D01*
X133577440Y-47840000D01*
X133577440Y-46140000D01*
X133528157Y-45892235D01*
X133387809Y-45682191D01*
X133177765Y-45541843D01*
X132930000Y-45492560D01*
X131230000Y-45492560D01*
X130982235Y-45541843D01*
X130772191Y-45682191D01*
X130631843Y-45892235D01*
X130622816Y-45937619D01*
X130610625Y-45919375D01*
X130119418Y-45591161D01*
X129686256Y-45505000D01*
X129393744Y-45505000D01*
X128960582Y-45591161D01*
X128469375Y-45919375D01*
X128270000Y-46217761D01*
X128070625Y-45919375D01*
X127579418Y-45591161D01*
X127146256Y-45505000D01*
X126853744Y-45505000D01*
X126420582Y-45591161D01*
X125929375Y-45919375D01*
X125716157Y-46238478D01*
X125655183Y-46108642D01*
X125226924Y-45718355D01*
X124816890Y-45548524D01*
X124587000Y-45669845D01*
X124333000Y-45669845D01*
X124103110Y-45548524D01*
X123693076Y-45718355D01*
X123264817Y-46108642D01*
X123018514Y-46633108D01*
X89662000Y-46633108D01*
X89662000Y-43600000D01*
X149632560Y-43600000D01*
X149632560Y-45300000D01*
X149681843Y-45547765D01*
X149822191Y-45757809D01*
X150032235Y-45898157D01*
X150280000Y-45947440D01*
X151980000Y-45947440D01*
X152227765Y-45898157D01*
X152437809Y-45757809D01*
X152578157Y-45547765D01*
X152587184Y-45502381D01*
X152599375Y-45520625D01*
X153090582Y-45848839D01*
X153523744Y-45935000D01*
X153816256Y-45935000D01*
X154249418Y-45848839D01*
X154740625Y-45520625D01*
X155068839Y-45029418D01*
X155184092Y-44450000D01*
X155068839Y-43870582D01*
X154740625Y-43379375D01*
X154249418Y-43051161D01*
X153816256Y-42965000D01*
X153523744Y-42965000D01*
X153090582Y-43051161D01*
X152599375Y-43379375D01*
X152587184Y-43397619D01*
X152578157Y-43352235D01*
X152437809Y-43142191D01*
X152227765Y-43001843D01*
X151980000Y-42952560D01*
X150280000Y-42952560D01*
X150032235Y-43001843D01*
X149822191Y-43142191D01*
X149681843Y-43352235D01*
X149632560Y-43600000D01*
X89662000Y-43600000D01*
X89662000Y-36884873D01*
X93800302Y-32990000D01*
X173312560Y-32990000D01*
X173312560Y-35590000D01*
X173361843Y-35837765D01*
X173502191Y-36047809D01*
X173712235Y-36188157D01*
X173960000Y-36237440D01*
X176560000Y-36237440D01*
X176807765Y-36188157D01*
X177017809Y-36047809D01*
X177158157Y-35837765D01*
X177193623Y-35659459D01*
X180070146Y-35659459D01*
X180205504Y-35957455D01*
X180923880Y-36234066D01*
X181693427Y-36214710D01*
X182314496Y-35957455D01*
X182449854Y-35659459D01*
X181260000Y-34469605D01*
X180070146Y-35659459D01*
X177193623Y-35659459D01*
X177207440Y-35590000D01*
X177207440Y-33953880D01*
X179315934Y-33953880D01*
X179335290Y-34723427D01*
X179592545Y-35344496D01*
X179890541Y-35479854D01*
X181080395Y-34290000D01*
X181439605Y-34290000D01*
X182629459Y-35479854D01*
X182927455Y-35344496D01*
X183204066Y-34626120D01*
X183184710Y-33856573D01*
X182927455Y-33235504D01*
X182629459Y-33100146D01*
X181439605Y-34290000D01*
X181080395Y-34290000D01*
X179890541Y-33100146D01*
X179592545Y-33235504D01*
X179315934Y-33953880D01*
X177207440Y-33953880D01*
X177207440Y-32990000D01*
X177193624Y-32920541D01*
X180070146Y-32920541D01*
X181260000Y-34110395D01*
X182449854Y-32920541D01*
X182314496Y-32622545D01*
X181596120Y-32345934D01*
X180826573Y-32365290D01*
X180205504Y-32622545D01*
X180070146Y-32920541D01*
X177193624Y-32920541D01*
X177158157Y-32742235D01*
X177017809Y-32532191D01*
X176807765Y-32391843D01*
X176560000Y-32342560D01*
X173960000Y-32342560D01*
X173712235Y-32391843D01*
X173502191Y-32532191D01*
X173361843Y-32742235D01*
X173312560Y-32990000D01*
X93800302Y-32990000D01*
X95957751Y-30959459D01*
X177070146Y-30959459D01*
X177205504Y-31257455D01*
X177923880Y-31534066D01*
X178693427Y-31514710D01*
X179314496Y-31257455D01*
X179449854Y-30959459D01*
X178260000Y-29769605D01*
X177070146Y-30959459D01*
X95957751Y-30959459D01*
X97769929Y-29253880D01*
X176315934Y-29253880D01*
X176335290Y-30023427D01*
X176592545Y-30644496D01*
X176890541Y-30779854D01*
X178080395Y-29590000D01*
X178439605Y-29590000D01*
X179629459Y-30779854D01*
X179927455Y-30644496D01*
X180204066Y-29926120D01*
X180184710Y-29156573D01*
X179927455Y-28535504D01*
X179629459Y-28400146D01*
X178439605Y-29590000D01*
X178080395Y-29590000D01*
X176890541Y-28400146D01*
X176592545Y-28535504D01*
X176315934Y-29253880D01*
X97769929Y-29253880D01*
X98867852Y-28220541D01*
X177070146Y-28220541D01*
X178260000Y-29410395D01*
X179449854Y-28220541D01*
X179314496Y-27922545D01*
X178596120Y-27645934D01*
X177826573Y-27665290D01*
X177205504Y-27922545D01*
X177070146Y-28220541D01*
X98867852Y-28220541D01*
X100380365Y-26797000D01*
X186002394Y-26797000D01*
X186563000Y-27357606D01*
X186563000Y-27357606D01*
G37*
X186563000Y-27357606D02*
X186563000Y-41222394D01*
X182155197Y-45630197D01*
X182127667Y-45671399D01*
X182118000Y-45720000D01*
X182118000Y-111072394D01*
X179652394Y-113538000D01*
X152400000Y-113538000D01*
X152351399Y-113547667D01*
X152310197Y-113575197D01*
X152294330Y-113594553D01*
X151024330Y-115499553D01*
X151003000Y-115570000D01*
X151003000Y-130757394D01*
X145362394Y-136398000D01*
X95297586Y-136398000D01*
X70612000Y-114877232D01*
X70612000Y-90805000D01*
X74129622Y-90805000D01*
X74145001Y-90882317D01*
X74145000Y-112952688D01*
X74129622Y-113030000D01*
X74145000Y-113107312D01*
X74145000Y-113107315D01*
X74190546Y-113336291D01*
X74364047Y-113595953D01*
X74429592Y-113639749D01*
X95910253Y-135120411D01*
X95954047Y-135185953D01*
X96019589Y-135229747D01*
X96019591Y-135229749D01*
X96213708Y-135359454D01*
X96442684Y-135405000D01*
X96442688Y-135405000D01*
X96520000Y-135420378D01*
X96597312Y-135405000D01*
X145337688Y-135405000D01*
X145415000Y-135420378D01*
X145492312Y-135405000D01*
X145492316Y-135405000D01*
X145721292Y-135359454D01*
X145980953Y-135185953D01*
X146024749Y-135120408D01*
X149725408Y-131419749D01*
X149790953Y-131375953D01*
X149964454Y-131116292D01*
X150010000Y-130887316D01*
X150010000Y-130887312D01*
X150025378Y-130810000D01*
X150010000Y-130732688D01*
X150010000Y-111554126D01*
X150095000Y-111554126D01*
X150095000Y-111965874D01*
X150252569Y-112346280D01*
X150543720Y-112637431D01*
X150924126Y-112795000D01*
X151335874Y-112795000D01*
X151716280Y-112637431D01*
X151808711Y-112545000D01*
X161592688Y-112545000D01*
X161670000Y-112560378D01*
X161747312Y-112545000D01*
X161747316Y-112545000D01*
X161976292Y-112499454D01*
X162235953Y-112325953D01*
X162279749Y-112260408D01*
X162582283Y-111957874D01*
X162865050Y-112075000D01*
X163614950Y-112075000D01*
X164307767Y-111788026D01*
X164838026Y-111257767D01*
X165125000Y-110564950D01*
X165125000Y-109815050D01*
X165104403Y-109765322D01*
X173305000Y-109765322D01*
X173305000Y-110614678D01*
X173630034Y-111399380D01*
X174230620Y-111999966D01*
X175015322Y-112325000D01*
X175864678Y-112325000D01*
X176649380Y-111999966D01*
X177249966Y-111399380D01*
X177575000Y-110614678D01*
X177575000Y-109765322D01*
X177249966Y-108980620D01*
X176649380Y-108380034D01*
X175864678Y-108055000D01*
X175015322Y-108055000D01*
X174230620Y-108380034D01*
X173630034Y-108980620D01*
X173305000Y-109765322D01*
X165104403Y-109765322D01*
X164838026Y-109122233D01*
X164307767Y-108591974D01*
X163614950Y-108305000D01*
X162865050Y-108305000D01*
X162172233Y-108591974D01*
X161641974Y-109122233D01*
X161355000Y-109815050D01*
X161355000Y-110564950D01*
X161472126Y-110847717D01*
X161344843Y-110975000D01*
X151808711Y-110975000D01*
X151716280Y-110882569D01*
X151335874Y-110725000D01*
X150924126Y-110725000D01*
X150543720Y-110882569D01*
X150252569Y-111173720D01*
X150095000Y-111554126D01*
X150010000Y-111554126D01*
X150010000Y-103715322D01*
X159155000Y-103715322D01*
X159155000Y-104564678D01*
X159480034Y-105349380D01*
X160080620Y-105949966D01*
X160865322Y-106275000D01*
X161714678Y-106275000D01*
X162499380Y-105949966D01*
X163099966Y-105349380D01*
X163425000Y-104564678D01*
X163425000Y-103715322D01*
X163099966Y-102930620D01*
X162499380Y-102330034D01*
X161714678Y-102005000D01*
X160865322Y-102005000D01*
X160080620Y-102330034D01*
X159480034Y-102930620D01*
X159155000Y-103715322D01*
X150010000Y-103715322D01*
X150010000Y-97790000D01*
X152206887Y-97790000D01*
X152318260Y-98349909D01*
X152635423Y-98824577D01*
X152987758Y-99060000D01*
X152635423Y-99295423D01*
X152318260Y-99770091D01*
X152206887Y-100330000D01*
X152318260Y-100889909D01*
X152635423Y-101364577D01*
X153110091Y-101681740D01*
X153528667Y-101765000D01*
X153811333Y-101765000D01*
X154229909Y-101681740D01*
X154704577Y-101364577D01*
X155021740Y-100889909D01*
X155133113Y-100330000D01*
X155021740Y-99770091D01*
X154704577Y-99295423D01*
X154352242Y-99060000D01*
X154704577Y-98824577D01*
X155021740Y-98349909D01*
X155128130Y-97815050D01*
X161355000Y-97815050D01*
X161355000Y-98564950D01*
X161641974Y-99257767D01*
X162172233Y-99788026D01*
X162865050Y-100075000D01*
X163614950Y-100075000D01*
X164307767Y-99788026D01*
X164838026Y-99257767D01*
X165125000Y-98564950D01*
X165125000Y-97815050D01*
X165083692Y-97715322D01*
X173355000Y-97715322D01*
X173355000Y-98564678D01*
X173680034Y-99349380D01*
X174280620Y-99949966D01*
X175065322Y-100275000D01*
X175914678Y-100275000D01*
X176699380Y-99949966D01*
X177299966Y-99349380D01*
X177625000Y-98564678D01*
X177625000Y-97715322D01*
X177299966Y-96930620D01*
X176699380Y-96330034D01*
X175914678Y-96005000D01*
X175065322Y-96005000D01*
X174280620Y-96330034D01*
X173680034Y-96930620D01*
X173355000Y-97715322D01*
X165083692Y-97715322D01*
X164838026Y-97122233D01*
X164307767Y-96591974D01*
X163614950Y-96305000D01*
X162865050Y-96305000D01*
X162172233Y-96591974D01*
X161641974Y-97122233D01*
X161355000Y-97815050D01*
X155128130Y-97815050D01*
X155133113Y-97790000D01*
X155021740Y-97230091D01*
X154704577Y-96755423D01*
X154229909Y-96438260D01*
X153811333Y-96355000D01*
X153528667Y-96355000D01*
X153110091Y-96438260D01*
X152635423Y-96755423D01*
X152318260Y-97230091D01*
X152206887Y-97790000D01*
X150010000Y-97790000D01*
X150010000Y-95044126D01*
X150095000Y-95044126D01*
X150095000Y-95455874D01*
X150252569Y-95836280D01*
X150543720Y-96127431D01*
X150924126Y-96285000D01*
X151335874Y-96285000D01*
X151716280Y-96127431D01*
X151808711Y-96035000D01*
X161592688Y-96035000D01*
X161670000Y-96050378D01*
X161747312Y-96035000D01*
X161747316Y-96035000D01*
X161976292Y-95989454D01*
X162235953Y-95815953D01*
X162279749Y-95750408D01*
X162582283Y-95447874D01*
X162865050Y-95565000D01*
X163614950Y-95565000D01*
X164307767Y-95278026D01*
X164838026Y-94747767D01*
X165125000Y-94054950D01*
X165125000Y-93305050D01*
X165104403Y-93255322D01*
X173305000Y-93255322D01*
X173305000Y-94104678D01*
X173630034Y-94889380D01*
X174230620Y-95489966D01*
X175015322Y-95815000D01*
X175864678Y-95815000D01*
X176649380Y-95489966D01*
X177249966Y-94889380D01*
X177575000Y-94104678D01*
X177575000Y-93255322D01*
X177249966Y-92470620D01*
X176649380Y-91870034D01*
X175864678Y-91545000D01*
X175015322Y-91545000D01*
X174230620Y-91870034D01*
X173630034Y-92470620D01*
X173305000Y-93255322D01*
X165104403Y-93255322D01*
X164838026Y-92612233D01*
X164307767Y-92081974D01*
X163614950Y-91795000D01*
X162865050Y-91795000D01*
X162172233Y-92081974D01*
X161641974Y-92612233D01*
X161355000Y-93305050D01*
X161355000Y-94054950D01*
X161472126Y-94337717D01*
X161344843Y-94465000D01*
X151808711Y-94465000D01*
X151716280Y-94372569D01*
X151335874Y-94215000D01*
X150924126Y-94215000D01*
X150543720Y-94372569D01*
X150252569Y-94663720D01*
X150095000Y-95044126D01*
X150010000Y-95044126D01*
X150010000Y-87205322D01*
X159155000Y-87205322D01*
X159155000Y-88054678D01*
X159480034Y-88839380D01*
X160080620Y-89439966D01*
X160865322Y-89765000D01*
X161714678Y-89765000D01*
X162499380Y-89439966D01*
X163099966Y-88839380D01*
X163425000Y-88054678D01*
X163425000Y-87205322D01*
X163099966Y-86420620D01*
X162499380Y-85820034D01*
X161714678Y-85495000D01*
X160865322Y-85495000D01*
X160080620Y-85820034D01*
X159480034Y-86420620D01*
X159155000Y-87205322D01*
X150010000Y-87205322D01*
X150010000Y-87072311D01*
X150025378Y-86994999D01*
X150010000Y-86917685D01*
X150010000Y-86917684D01*
X149964454Y-86688708D01*
X149834749Y-86494591D01*
X149834747Y-86494589D01*
X149790953Y-86429047D01*
X149725411Y-86385253D01*
X147454554Y-84114397D01*
X147513113Y-83820000D01*
X147401740Y-83260091D01*
X147084577Y-82785423D01*
X146963894Y-82704785D01*
X147097765Y-82678157D01*
X147307809Y-82537809D01*
X147448157Y-82327765D01*
X147497440Y-82080000D01*
X147497440Y-81280000D01*
X152206887Y-81280000D01*
X152318260Y-81839909D01*
X152635423Y-82314577D01*
X152987758Y-82550000D01*
X152635423Y-82785423D01*
X152318260Y-83260091D01*
X152206887Y-83820000D01*
X152318260Y-84379909D01*
X152635423Y-84854577D01*
X153110091Y-85171740D01*
X153528667Y-85255000D01*
X153811333Y-85255000D01*
X154229909Y-85171740D01*
X154704577Y-84854577D01*
X155021740Y-84379909D01*
X155133113Y-83820000D01*
X155021740Y-83260091D01*
X154704577Y-82785423D01*
X154352242Y-82550000D01*
X154704577Y-82314577D01*
X155021740Y-81839909D01*
X155128130Y-81305050D01*
X161355000Y-81305050D01*
X161355000Y-82054950D01*
X161641974Y-82747767D01*
X162172233Y-83278026D01*
X162865050Y-83565000D01*
X163614950Y-83565000D01*
X164307767Y-83278026D01*
X164838026Y-82747767D01*
X165125000Y-82054950D01*
X165125000Y-81305050D01*
X165083692Y-81205322D01*
X173355000Y-81205322D01*
X173355000Y-82054678D01*
X173680034Y-82839380D01*
X174280620Y-83439966D01*
X175065322Y-83765000D01*
X175914678Y-83765000D01*
X176699380Y-83439966D01*
X177299966Y-82839380D01*
X177625000Y-82054678D01*
X177625000Y-81205322D01*
X177299966Y-80420620D01*
X176699380Y-79820034D01*
X175914678Y-79495000D01*
X175065322Y-79495000D01*
X174280620Y-79820034D01*
X173680034Y-80420620D01*
X173355000Y-81205322D01*
X165083692Y-81205322D01*
X164838026Y-80612233D01*
X164307767Y-80081974D01*
X163614950Y-79795000D01*
X162865050Y-79795000D01*
X162172233Y-80081974D01*
X161641974Y-80612233D01*
X161355000Y-81305050D01*
X155128130Y-81305050D01*
X155133113Y-81280000D01*
X155021740Y-80720091D01*
X154704577Y-80245423D01*
X154229909Y-79928260D01*
X153811333Y-79845000D01*
X153528667Y-79845000D01*
X153110091Y-79928260D01*
X152635423Y-80245423D01*
X152318260Y-80720091D01*
X152206887Y-81280000D01*
X147497440Y-81280000D01*
X147497440Y-80480000D01*
X147448157Y-80232235D01*
X147307809Y-80022191D01*
X147097765Y-79881843D01*
X146850000Y-79832560D01*
X145250000Y-79832560D01*
X145002235Y-79881843D01*
X144792191Y-80022191D01*
X144651843Y-80232235D01*
X144602560Y-80480000D01*
X144602560Y-82080000D01*
X144651843Y-82327765D01*
X144792191Y-82537809D01*
X145002235Y-82678157D01*
X145136106Y-82704785D01*
X145015423Y-82785423D01*
X144698260Y-83260091D01*
X144586887Y-83820000D01*
X144698260Y-84379909D01*
X145015423Y-84854577D01*
X145490091Y-85171740D01*
X145908667Y-85255000D01*
X146191333Y-85255000D01*
X146344396Y-85224554D01*
X148440000Y-87320158D01*
X148440001Y-101609843D01*
X147454554Y-100624396D01*
X147513113Y-100330000D01*
X147401740Y-99770091D01*
X147084577Y-99295423D01*
X146963894Y-99214785D01*
X147097765Y-99188157D01*
X147307809Y-99047809D01*
X147448157Y-98837765D01*
X147497440Y-98590000D01*
X147497440Y-96990000D01*
X147448157Y-96742235D01*
X147307809Y-96532191D01*
X147097765Y-96391843D01*
X146850000Y-96342560D01*
X145250000Y-96342560D01*
X145002235Y-96391843D01*
X144792191Y-96532191D01*
X144651843Y-96742235D01*
X144602560Y-96990000D01*
X144602560Y-98590000D01*
X144651843Y-98837765D01*
X144792191Y-99047809D01*
X145002235Y-99188157D01*
X145136106Y-99214785D01*
X145015423Y-99295423D01*
X144698260Y-99770091D01*
X144586887Y-100330000D01*
X144698260Y-100889909D01*
X145015423Y-101364577D01*
X145490091Y-101681740D01*
X145908667Y-101765000D01*
X146191333Y-101765000D01*
X146344396Y-101734554D01*
X147170000Y-102560158D01*
X147170001Y-129849841D01*
X145685984Y-131333859D01*
X145685981Y-131333861D01*
X143819843Y-133200000D01*
X98115158Y-133200000D01*
X76985000Y-112069843D01*
X76985000Y-95679126D01*
X77070000Y-95679126D01*
X77070000Y-96090874D01*
X77227569Y-96471280D01*
X77320001Y-96563712D01*
X77320000Y-111682688D01*
X77304622Y-111760000D01*
X77320000Y-111837312D01*
X77320000Y-111837315D01*
X77345572Y-111965874D01*
X77365546Y-112066291D01*
X77474681Y-112229622D01*
X77539047Y-112325953D01*
X77604592Y-112369749D01*
X97180253Y-131945411D01*
X97224047Y-132010953D01*
X97289589Y-132054747D01*
X97289591Y-132054749D01*
X97413218Y-132137354D01*
X97483708Y-132184454D01*
X97712684Y-132230000D01*
X97712688Y-132230000D01*
X97790000Y-132245378D01*
X97867312Y-132230000D01*
X101497288Y-132230000D01*
X101574600Y-132245378D01*
X101651912Y-132230000D01*
X101651916Y-132230000D01*
X101880892Y-132184454D01*
X102140553Y-132010953D01*
X102184349Y-131945408D01*
X103040731Y-131089026D01*
X105834642Y-131089026D01*
X105856473Y-131186157D01*
X106140127Y-131699868D01*
X106598778Y-132065925D01*
X107162600Y-132228600D01*
X107823000Y-132228600D01*
X107823000Y-130857000D01*
X108077000Y-130857000D01*
X108077000Y-132228600D01*
X108737400Y-132228600D01*
X109301222Y-132065925D01*
X109759873Y-131699868D01*
X110043527Y-131186157D01*
X110065358Y-131089026D01*
X118334642Y-131089026D01*
X118356473Y-131186157D01*
X118640127Y-131699868D01*
X119098778Y-132065925D01*
X119662600Y-132228600D01*
X120323000Y-132228600D01*
X120323000Y-130857000D01*
X120577000Y-130857000D01*
X120577000Y-132228600D01*
X121237400Y-132228600D01*
X121801222Y-132065925D01*
X122259873Y-131699868D01*
X122543527Y-131186157D01*
X122565358Y-131089026D01*
X122444217Y-130857000D01*
X120577000Y-130857000D01*
X120323000Y-130857000D01*
X118455783Y-130857000D01*
X118334642Y-131089026D01*
X110065358Y-131089026D01*
X109944217Y-130857000D01*
X108077000Y-130857000D01*
X107823000Y-130857000D01*
X105955783Y-130857000D01*
X105834642Y-131089026D01*
X103040731Y-131089026D01*
X103758783Y-130370974D01*
X105834642Y-130370974D01*
X105955783Y-130603000D01*
X107823000Y-130603000D01*
X107823000Y-129231400D01*
X108077000Y-129231400D01*
X108077000Y-130603000D01*
X109944217Y-130603000D01*
X110065358Y-130370974D01*
X118334642Y-130370974D01*
X118455783Y-130603000D01*
X120323000Y-130603000D01*
X120323000Y-129231400D01*
X120577000Y-129231400D01*
X120577000Y-130603000D01*
X122444217Y-130603000D01*
X122565358Y-130370974D01*
X122543527Y-130273843D01*
X122259873Y-129760132D01*
X121801222Y-129394075D01*
X121237400Y-129231400D01*
X120577000Y-129231400D01*
X120323000Y-129231400D01*
X119662600Y-129231400D01*
X119098778Y-129394075D01*
X118640127Y-129760132D01*
X118356473Y-130273843D01*
X118334642Y-130370974D01*
X110065358Y-130370974D01*
X110043527Y-130273843D01*
X109759873Y-129760132D01*
X109301222Y-129394075D01*
X108737400Y-129231400D01*
X108077000Y-129231400D01*
X107823000Y-129231400D01*
X107162600Y-129231400D01*
X106598778Y-129394075D01*
X106140127Y-129760132D01*
X105856473Y-130273843D01*
X105834642Y-130370974D01*
X103758783Y-130370974D01*
X106941116Y-127188641D01*
X107142002Y-127228600D01*
X108757998Y-127228600D01*
X109195125Y-127141650D01*
X109690830Y-126810430D01*
X110022050Y-126314725D01*
X110138359Y-125730000D01*
X118261641Y-125730000D01*
X118377950Y-126314725D01*
X118709170Y-126810430D01*
X119204875Y-127141650D01*
X119642002Y-127228600D01*
X121257998Y-127228600D01*
X121695125Y-127141650D01*
X122190830Y-126810430D01*
X122522050Y-126314725D01*
X122638359Y-125730000D01*
X122522050Y-125145275D01*
X122190830Y-124649570D01*
X121695125Y-124318350D01*
X121257998Y-124231400D01*
X119642002Y-124231400D01*
X119204875Y-124318350D01*
X118709170Y-124649570D01*
X118377950Y-125145275D01*
X118261641Y-125730000D01*
X110138359Y-125730000D01*
X110022050Y-125145275D01*
X109690830Y-124649570D01*
X109195125Y-124318350D01*
X108757998Y-124231400D01*
X107142002Y-124231400D01*
X106704875Y-124318350D01*
X106209170Y-124649570D01*
X105877950Y-125145275D01*
X105761641Y-125730000D01*
X105830959Y-126078484D01*
X101249443Y-130660000D01*
X98115158Y-130660000D01*
X78890000Y-111434843D01*
X78890000Y-107637989D01*
X79052344Y-107880953D01*
X79117889Y-107924749D01*
X90438550Y-119245411D01*
X90482344Y-119310953D01*
X90547886Y-119354747D01*
X90547888Y-119354749D01*
X90742005Y-119484454D01*
X90970981Y-119530000D01*
X90970984Y-119530000D01*
X91048296Y-119545378D01*
X91125608Y-119530000D01*
X123112688Y-119530000D01*
X123190000Y-119545378D01*
X123267312Y-119530000D01*
X123267316Y-119530000D01*
X123496292Y-119484454D01*
X123755953Y-119310953D01*
X123799749Y-119245408D01*
X124325408Y-118719749D01*
X124390953Y-118675953D01*
X124564454Y-118416292D01*
X124610000Y-118187316D01*
X124610000Y-118187312D01*
X124625378Y-118110000D01*
X124610000Y-118032688D01*
X124610000Y-114579026D01*
X124884642Y-114579026D01*
X124906473Y-114676157D01*
X125190127Y-115189868D01*
X125648778Y-115555925D01*
X126212600Y-115718600D01*
X126873000Y-115718600D01*
X126873000Y-114347000D01*
X127127000Y-114347000D01*
X127127000Y-115718600D01*
X127787400Y-115718600D01*
X128351222Y-115555925D01*
X128809873Y-115189868D01*
X129093527Y-114676157D01*
X129115358Y-114579026D01*
X137384642Y-114579026D01*
X137406473Y-114676157D01*
X137690127Y-115189868D01*
X138148778Y-115555925D01*
X138712600Y-115718600D01*
X139373000Y-115718600D01*
X139373000Y-114347000D01*
X139627000Y-114347000D01*
X139627000Y-115718600D01*
X140287400Y-115718600D01*
X140851222Y-115555925D01*
X141309873Y-115189868D01*
X141593527Y-114676157D01*
X141615358Y-114579026D01*
X141494217Y-114347000D01*
X139627000Y-114347000D01*
X139373000Y-114347000D01*
X137505783Y-114347000D01*
X137384642Y-114579026D01*
X129115358Y-114579026D01*
X128994217Y-114347000D01*
X127127000Y-114347000D01*
X126873000Y-114347000D01*
X125005783Y-114347000D01*
X124884642Y-114579026D01*
X124610000Y-114579026D01*
X124610000Y-113883757D01*
X125124165Y-113369592D01*
X124906473Y-113763843D01*
X124884642Y-113860974D01*
X125005783Y-114093000D01*
X126873000Y-114093000D01*
X126873000Y-112721400D01*
X127127000Y-112721400D01*
X127127000Y-114093000D01*
X128994217Y-114093000D01*
X129115358Y-113860974D01*
X137384642Y-113860974D01*
X137505783Y-114093000D01*
X139373000Y-114093000D01*
X139373000Y-112721400D01*
X139627000Y-112721400D01*
X139627000Y-114093000D01*
X141494217Y-114093000D01*
X141615358Y-113860974D01*
X141593527Y-113763843D01*
X141309873Y-113250132D01*
X140851222Y-112884075D01*
X140287400Y-112721400D01*
X139627000Y-112721400D01*
X139373000Y-112721400D01*
X138712600Y-112721400D01*
X138148778Y-112884075D01*
X137690127Y-113250132D01*
X137406473Y-113763843D01*
X137384642Y-113860974D01*
X129115358Y-113860974D01*
X129093527Y-113763843D01*
X128809873Y-113250132D01*
X128351222Y-112884075D01*
X127787400Y-112721400D01*
X127127000Y-112721400D01*
X126873000Y-112721400D01*
X126212600Y-112721400D01*
X125648778Y-112884075D01*
X125455123Y-113038634D01*
X127500411Y-110993347D01*
X127565953Y-110949553D01*
X127609747Y-110884011D01*
X127609749Y-110884009D01*
X127720272Y-110718600D01*
X127807998Y-110718600D01*
X128245125Y-110631650D01*
X128740830Y-110300430D01*
X129072050Y-109804725D01*
X129188359Y-109220000D01*
X137311641Y-109220000D01*
X137427950Y-109804725D01*
X137759170Y-110300430D01*
X138254875Y-110631650D01*
X138692002Y-110718600D01*
X140307998Y-110718600D01*
X140745125Y-110631650D01*
X141240830Y-110300430D01*
X141572050Y-109804725D01*
X141688359Y-109220000D01*
X141572050Y-108635275D01*
X141240830Y-108139570D01*
X140745125Y-107808350D01*
X140307998Y-107721400D01*
X138692002Y-107721400D01*
X138254875Y-107808350D01*
X137759170Y-108139570D01*
X137427950Y-108635275D01*
X137311641Y-109220000D01*
X129188359Y-109220000D01*
X129072050Y-108635275D01*
X128740830Y-108139570D01*
X128245125Y-107808350D01*
X127807998Y-107721400D01*
X126192002Y-107721400D01*
X125754875Y-107808350D01*
X125259170Y-108139570D01*
X124927950Y-108635275D01*
X124811641Y-109220000D01*
X124927950Y-109804725D01*
X125259170Y-110300430D01*
X125687087Y-110586355D01*
X123324592Y-112948851D01*
X123259047Y-112992647D01*
X123085546Y-113252309D01*
X123040000Y-113481285D01*
X123040000Y-113481288D01*
X123024622Y-113558600D01*
X123040000Y-113635912D01*
X123040001Y-117784842D01*
X122864843Y-117960000D01*
X91373455Y-117960000D01*
X89132055Y-115718600D01*
X89687400Y-115718600D01*
X90251222Y-115555925D01*
X90709873Y-115189868D01*
X90993527Y-114676157D01*
X91015358Y-114579026D01*
X99284642Y-114579026D01*
X99306473Y-114676157D01*
X99590127Y-115189868D01*
X100048778Y-115555925D01*
X100612600Y-115718600D01*
X101273000Y-115718600D01*
X101273000Y-114347000D01*
X101527000Y-114347000D01*
X101527000Y-115718600D01*
X102187400Y-115718600D01*
X102751222Y-115555925D01*
X103209873Y-115189868D01*
X103493527Y-114676157D01*
X103515358Y-114579026D01*
X105834642Y-114579026D01*
X105856473Y-114676157D01*
X106140127Y-115189868D01*
X106598778Y-115555925D01*
X107162600Y-115718600D01*
X107823000Y-115718600D01*
X107823000Y-114347000D01*
X108077000Y-114347000D01*
X108077000Y-115718600D01*
X108737400Y-115718600D01*
X109301222Y-115555925D01*
X109759873Y-115189868D01*
X110043527Y-114676157D01*
X110065358Y-114579026D01*
X118334642Y-114579026D01*
X118356473Y-114676157D01*
X118640127Y-115189868D01*
X119098778Y-115555925D01*
X119662600Y-115718600D01*
X120323000Y-115718600D01*
X120323000Y-114347000D01*
X120577000Y-114347000D01*
X120577000Y-115718600D01*
X121237400Y-115718600D01*
X121801222Y-115555925D01*
X122259873Y-115189868D01*
X122543527Y-114676157D01*
X122565358Y-114579026D01*
X122444217Y-114347000D01*
X120577000Y-114347000D01*
X120323000Y-114347000D01*
X118455783Y-114347000D01*
X118334642Y-114579026D01*
X110065358Y-114579026D01*
X109944217Y-114347000D01*
X108077000Y-114347000D01*
X107823000Y-114347000D01*
X105955783Y-114347000D01*
X105834642Y-114579026D01*
X103515358Y-114579026D01*
X103394217Y-114347000D01*
X101527000Y-114347000D01*
X101273000Y-114347000D01*
X99405783Y-114347000D01*
X99284642Y-114579026D01*
X91015358Y-114579026D01*
X90894217Y-114347000D01*
X89027000Y-114347000D01*
X89027000Y-114367000D01*
X88773000Y-114367000D01*
X88773000Y-114347000D01*
X88753000Y-114347000D01*
X88753000Y-114093000D01*
X88773000Y-114093000D01*
X88773000Y-112721400D01*
X89027000Y-112721400D01*
X89027000Y-114093000D01*
X90894217Y-114093000D01*
X91015358Y-113860974D01*
X99284642Y-113860974D01*
X99405783Y-114093000D01*
X101273000Y-114093000D01*
X101273000Y-112721400D01*
X101527000Y-112721400D01*
X101527000Y-114093000D01*
X103394217Y-114093000D01*
X103515358Y-113860974D01*
X105834642Y-113860974D01*
X105955783Y-114093000D01*
X107823000Y-114093000D01*
X107823000Y-112721400D01*
X108077000Y-112721400D01*
X108077000Y-114093000D01*
X109944217Y-114093000D01*
X110065358Y-113860974D01*
X118334642Y-113860974D01*
X118455783Y-114093000D01*
X120323000Y-114093000D01*
X120323000Y-112721400D01*
X120577000Y-112721400D01*
X120577000Y-114093000D01*
X122444217Y-114093000D01*
X122565358Y-113860974D01*
X122543527Y-113763843D01*
X122259873Y-113250132D01*
X121801222Y-112884075D01*
X121237400Y-112721400D01*
X120577000Y-112721400D01*
X120323000Y-112721400D01*
X119662600Y-112721400D01*
X119098778Y-112884075D01*
X118640127Y-113250132D01*
X118356473Y-113763843D01*
X118334642Y-113860974D01*
X110065358Y-113860974D01*
X110043527Y-113763843D01*
X109759873Y-113250132D01*
X109301222Y-112884075D01*
X108737400Y-112721400D01*
X108077000Y-112721400D01*
X107823000Y-112721400D01*
X107162600Y-112721400D01*
X106598778Y-112884075D01*
X106140127Y-113250132D01*
X105856473Y-113763843D01*
X105834642Y-113860974D01*
X103515358Y-113860974D01*
X103493527Y-113763843D01*
X103209873Y-113250132D01*
X102751222Y-112884075D01*
X102187400Y-112721400D01*
X101527000Y-112721400D01*
X101273000Y-112721400D01*
X100612600Y-112721400D01*
X100048778Y-112884075D01*
X99590127Y-113250132D01*
X99306473Y-113763843D01*
X99284642Y-113860974D01*
X91015358Y-113860974D01*
X90993527Y-113763843D01*
X90709873Y-113250132D01*
X90251222Y-112884075D01*
X89687400Y-112721400D01*
X89027000Y-112721400D01*
X88773000Y-112721400D01*
X88112600Y-112721400D01*
X87548778Y-112884075D01*
X87090127Y-113250132D01*
X86938390Y-113524935D01*
X80403297Y-106989843D01*
X80403297Y-104373454D01*
X85750251Y-109720408D01*
X85794047Y-109785953D01*
X86053708Y-109959454D01*
X86282684Y-110005000D01*
X86282688Y-110005000D01*
X86360000Y-110020378D01*
X86437312Y-110005000D01*
X86961770Y-110005000D01*
X87159170Y-110300430D01*
X87654875Y-110631650D01*
X88092002Y-110718600D01*
X89707998Y-110718600D01*
X90145125Y-110631650D01*
X90640830Y-110300430D01*
X90972050Y-109804725D01*
X91088359Y-109220000D01*
X99211641Y-109220000D01*
X99327950Y-109804725D01*
X99659170Y-110300430D01*
X100154875Y-110631650D01*
X100592002Y-110718600D01*
X102207998Y-110718600D01*
X102645125Y-110631650D01*
X103140830Y-110300430D01*
X103472050Y-109804725D01*
X103588359Y-109220000D01*
X103472050Y-108635275D01*
X103140830Y-108139570D01*
X102645125Y-107808350D01*
X102207998Y-107721400D01*
X100592002Y-107721400D01*
X100154875Y-107808350D01*
X99659170Y-108139570D01*
X99327950Y-108635275D01*
X99211641Y-109220000D01*
X91088359Y-109220000D01*
X90972050Y-108635275D01*
X90640830Y-108139570D01*
X90145125Y-107808350D01*
X89707998Y-107721400D01*
X88092002Y-107721400D01*
X87654875Y-107808350D01*
X87159170Y-108139570D01*
X86961770Y-108435000D01*
X86685157Y-108435000D01*
X85715157Y-107465000D01*
X104424443Y-107465000D01*
X105830959Y-108871516D01*
X105761641Y-109220000D01*
X105877950Y-109804725D01*
X106209170Y-110300430D01*
X106704875Y-110631650D01*
X107142002Y-110718600D01*
X108757998Y-110718600D01*
X109195125Y-110631650D01*
X109690830Y-110300430D01*
X110022050Y-109804725D01*
X110138359Y-109220000D01*
X118261641Y-109220000D01*
X118377950Y-109804725D01*
X118709170Y-110300430D01*
X119204875Y-110631650D01*
X119642002Y-110718600D01*
X121257998Y-110718600D01*
X121695125Y-110631650D01*
X122190830Y-110300430D01*
X122522050Y-109804725D01*
X122638359Y-109220000D01*
X122522050Y-108635275D01*
X122190830Y-108139570D01*
X121695125Y-107808350D01*
X121257998Y-107721400D01*
X119642002Y-107721400D01*
X119204875Y-107808350D01*
X118709170Y-108139570D01*
X118377950Y-108635275D01*
X118261641Y-109220000D01*
X110138359Y-109220000D01*
X110022050Y-108635275D01*
X109690830Y-108139570D01*
X109195125Y-107808350D01*
X108757998Y-107721400D01*
X107142002Y-107721400D01*
X106941116Y-107761359D01*
X105359348Y-106179591D01*
X105315553Y-106114047D01*
X105055892Y-105940546D01*
X104826916Y-105895000D01*
X104826912Y-105895000D01*
X104749600Y-105879622D01*
X104672288Y-105895000D01*
X85415158Y-105895000D01*
X83335000Y-103814843D01*
X83335000Y-96920000D01*
X83390874Y-96920000D01*
X83771280Y-96762431D01*
X84062431Y-96471280D01*
X84220000Y-96090874D01*
X84220000Y-95679126D01*
X84062431Y-95298720D01*
X83807837Y-95044126D01*
X95485000Y-95044126D01*
X95485000Y-95455874D01*
X95642569Y-95836280D01*
X95933720Y-96127431D01*
X96314126Y-96285000D01*
X96725874Y-96285000D01*
X97106280Y-96127431D01*
X97397431Y-95836280D01*
X97555000Y-95455874D01*
X97555000Y-95400000D01*
X105645000Y-95400000D01*
X105645000Y-95455874D01*
X105802569Y-95836280D01*
X106093720Y-96127431D01*
X106474126Y-96285000D01*
X106885874Y-96285000D01*
X107266280Y-96127431D01*
X107557431Y-95836280D01*
X107715000Y-95455874D01*
X107715000Y-95044126D01*
X107557431Y-94663720D01*
X107302837Y-94409126D01*
X117710000Y-94409126D01*
X117710000Y-94820874D01*
X117867569Y-95201280D01*
X118158720Y-95492431D01*
X118539126Y-95650000D01*
X118950874Y-95650000D01*
X119331280Y-95492431D01*
X119622431Y-95201280D01*
X119780000Y-94820874D01*
X119780000Y-94409126D01*
X119622431Y-94028720D01*
X119530000Y-93936289D01*
X119530000Y-90599126D01*
X124695000Y-90599126D01*
X124695000Y-91010874D01*
X124852569Y-91391280D01*
X124945001Y-91483712D01*
X124945000Y-93267688D01*
X124929622Y-93345000D01*
X124945000Y-93422312D01*
X124945000Y-93422315D01*
X124986758Y-93632249D01*
X124990546Y-93651291D01*
X125099681Y-93814622D01*
X125164047Y-93910953D01*
X125229592Y-93954749D01*
X127599541Y-96324698D01*
X127643337Y-96390243D01*
X127902998Y-96563744D01*
X128131974Y-96609290D01*
X128131978Y-96609290D01*
X128209290Y-96624668D01*
X128286602Y-96609290D01*
X130915000Y-96609290D01*
X130915000Y-96725874D01*
X131072569Y-97106280D01*
X131363720Y-97397431D01*
X131744126Y-97555000D01*
X132155874Y-97555000D01*
X132536280Y-97397431D01*
X132827431Y-97106280D01*
X132985000Y-96725874D01*
X132985000Y-96314126D01*
X132827431Y-95933720D01*
X132536280Y-95642569D01*
X132155874Y-95485000D01*
X132025157Y-95485000D01*
X131864039Y-95323882D01*
X131820243Y-95258337D01*
X131560582Y-95084836D01*
X131331606Y-95039290D01*
X131331602Y-95039290D01*
X131254290Y-95023912D01*
X131176978Y-95039290D01*
X128534447Y-95039290D01*
X126515000Y-93019843D01*
X126515000Y-91483711D01*
X126607431Y-91391280D01*
X126765000Y-91010874D01*
X126765000Y-90599126D01*
X126607431Y-90218720D01*
X126316280Y-89927569D01*
X125935874Y-89770000D01*
X125524126Y-89770000D01*
X125143720Y-89927569D01*
X124852569Y-90218720D01*
X124695000Y-90599126D01*
X119530000Y-90599126D01*
X119530000Y-90570000D01*
X119585874Y-90570000D01*
X119966280Y-90412431D01*
X120050368Y-90328343D01*
X120092312Y-90320000D01*
X120092316Y-90320000D01*
X120321292Y-90274454D01*
X120580953Y-90100953D01*
X120624749Y-90035408D01*
X122880158Y-87780000D01*
X128827688Y-87780000D01*
X128905000Y-87795378D01*
X128982312Y-87780000D01*
X128982316Y-87780000D01*
X129211292Y-87734454D01*
X129470953Y-87560953D01*
X129514749Y-87495408D01*
X131945411Y-85064747D01*
X132010953Y-85020953D01*
X132054747Y-84955411D01*
X132054749Y-84955409D01*
X132184453Y-84761293D01*
X132184454Y-84761292D01*
X132230000Y-84532316D01*
X132230000Y-84532312D01*
X132245378Y-84455001D01*
X132230000Y-84377690D01*
X132230000Y-80366890D01*
X134448524Y-80366890D01*
X134618355Y-80776924D01*
X135008642Y-81205183D01*
X135533108Y-81451486D01*
X135763000Y-81330819D01*
X135763000Y-80137000D01*
X136017000Y-80137000D01*
X136017000Y-81330819D01*
X136246892Y-81451486D01*
X136771358Y-81205183D01*
X137161645Y-80776924D01*
X137331476Y-80366890D01*
X137210155Y-80137000D01*
X136017000Y-80137000D01*
X135763000Y-80137000D01*
X134569845Y-80137000D01*
X134448524Y-80366890D01*
X132230000Y-80366890D01*
X132230000Y-79700157D01*
X133675158Y-78255000D01*
X134628526Y-78255000D01*
X134819375Y-78540625D01*
X135138478Y-78753843D01*
X135008642Y-78814817D01*
X134618355Y-79243076D01*
X134448524Y-79653110D01*
X134569845Y-79883000D01*
X135763000Y-79883000D01*
X135763000Y-79863000D01*
X136017000Y-79863000D01*
X136017000Y-79883000D01*
X137210155Y-79883000D01*
X137331476Y-79653110D01*
X137161645Y-79243076D01*
X136771358Y-78814817D01*
X136641522Y-78753843D01*
X136960625Y-78540625D01*
X136964967Y-78534126D01*
X150095000Y-78534126D01*
X150095000Y-78945874D01*
X150252569Y-79326280D01*
X150543720Y-79617431D01*
X150924126Y-79775000D01*
X151335874Y-79775000D01*
X151716280Y-79617431D01*
X151808711Y-79525000D01*
X161592688Y-79525000D01*
X161670000Y-79540378D01*
X161747312Y-79525000D01*
X161747316Y-79525000D01*
X161976292Y-79479454D01*
X162235953Y-79305953D01*
X162279749Y-79240408D01*
X162582283Y-78937874D01*
X162865050Y-79055000D01*
X163614950Y-79055000D01*
X164307767Y-78768026D01*
X164838026Y-78237767D01*
X165125000Y-77544950D01*
X165125000Y-76795050D01*
X165104403Y-76745322D01*
X173305000Y-76745322D01*
X173305000Y-77594678D01*
X173630034Y-78379380D01*
X174230620Y-78979966D01*
X175015322Y-79305000D01*
X175864678Y-79305000D01*
X176649380Y-78979966D01*
X177249966Y-78379380D01*
X177575000Y-77594678D01*
X177575000Y-76745322D01*
X177249966Y-75960620D01*
X176649380Y-75360034D01*
X175864678Y-75035000D01*
X175015322Y-75035000D01*
X174230620Y-75360034D01*
X173630034Y-75960620D01*
X173305000Y-76745322D01*
X165104403Y-76745322D01*
X164838026Y-76102233D01*
X164307767Y-75571974D01*
X163614950Y-75285000D01*
X162865050Y-75285000D01*
X162172233Y-75571974D01*
X161641974Y-76102233D01*
X161355000Y-76795050D01*
X161355000Y-77544950D01*
X161472126Y-77827717D01*
X161344843Y-77955000D01*
X151808711Y-77955000D01*
X151716280Y-77862569D01*
X151335874Y-77705000D01*
X150924126Y-77705000D01*
X150543720Y-77862569D01*
X150252569Y-78153720D01*
X150095000Y-78534126D01*
X136964967Y-78534126D01*
X137288839Y-78049418D01*
X137404092Y-77470000D01*
X137288839Y-76890582D01*
X136960625Y-76399375D01*
X136662239Y-76200000D01*
X136960625Y-76000625D01*
X137288839Y-75509418D01*
X137404092Y-74930000D01*
X137288839Y-74350582D01*
X136960625Y-73859375D01*
X136942381Y-73847184D01*
X136987765Y-73838157D01*
X137197809Y-73697809D01*
X137338157Y-73487765D01*
X137387440Y-73240000D01*
X137387440Y-71540000D01*
X137338157Y-71292235D01*
X137197809Y-71082191D01*
X136987765Y-70941843D01*
X136740000Y-70892560D01*
X135040000Y-70892560D01*
X134792235Y-70941843D01*
X134582191Y-71082191D01*
X134441843Y-71292235D01*
X134392560Y-71540000D01*
X134392560Y-73240000D01*
X134441843Y-73487765D01*
X134582191Y-73697809D01*
X134792235Y-73838157D01*
X134837619Y-73847184D01*
X134819375Y-73859375D01*
X134491161Y-74350582D01*
X134375908Y-74930000D01*
X134491161Y-75509418D01*
X134819375Y-76000625D01*
X135117761Y-76200000D01*
X134819375Y-76399375D01*
X134628526Y-76685000D01*
X133427312Y-76685000D01*
X133350000Y-76669622D01*
X133272688Y-76685000D01*
X133272684Y-76685000D01*
X133043708Y-76730546D01*
X132879304Y-76840397D01*
X132880378Y-76835000D01*
X132865000Y-76757688D01*
X132865000Y-72080157D01*
X134249835Y-70695322D01*
X159155000Y-70695322D01*
X159155000Y-71544678D01*
X159480034Y-72329380D01*
X160080620Y-72929966D01*
X160865322Y-73255000D01*
X161714678Y-73255000D01*
X162499380Y-72929966D01*
X163099966Y-72329380D01*
X163425000Y-71544678D01*
X163425000Y-70695322D01*
X163099966Y-69910620D01*
X162499380Y-69310034D01*
X161714678Y-68985000D01*
X160865322Y-68985000D01*
X160080620Y-69310034D01*
X159480034Y-69910620D01*
X159155000Y-70695322D01*
X134249835Y-70695322D01*
X136850158Y-68095000D01*
X144848661Y-68095000D01*
X145015423Y-68344577D01*
X145490091Y-68661740D01*
X145908667Y-68745000D01*
X146191333Y-68745000D01*
X146609909Y-68661740D01*
X147084577Y-68344577D01*
X147401740Y-67869909D01*
X147513113Y-67310000D01*
X147401740Y-66750091D01*
X147084577Y-66275423D01*
X146963894Y-66194785D01*
X147097765Y-66168157D01*
X147307809Y-66027809D01*
X147448157Y-65817765D01*
X147497440Y-65570000D01*
X147497440Y-64770000D01*
X152206887Y-64770000D01*
X152318260Y-65329909D01*
X152635423Y-65804577D01*
X152987758Y-66040000D01*
X152635423Y-66275423D01*
X152318260Y-66750091D01*
X152206887Y-67310000D01*
X152318260Y-67869909D01*
X152635423Y-68344577D01*
X153110091Y-68661740D01*
X153528667Y-68745000D01*
X153811333Y-68745000D01*
X154229909Y-68661740D01*
X154704577Y-68344577D01*
X155021740Y-67869909D01*
X155133113Y-67310000D01*
X155021740Y-66750091D01*
X154704577Y-66275423D01*
X154352242Y-66040000D01*
X154704577Y-65804577D01*
X155021740Y-65329909D01*
X155128130Y-64795050D01*
X161355000Y-64795050D01*
X161355000Y-65544950D01*
X161641974Y-66237767D01*
X162172233Y-66768026D01*
X162865050Y-67055000D01*
X163614950Y-67055000D01*
X164307767Y-66768026D01*
X164838026Y-66237767D01*
X165125000Y-65544950D01*
X165125000Y-64795050D01*
X165083692Y-64695322D01*
X173355000Y-64695322D01*
X173355000Y-65544678D01*
X173680034Y-66329380D01*
X174280620Y-66929966D01*
X175065322Y-67255000D01*
X175914678Y-67255000D01*
X176699380Y-66929966D01*
X177299966Y-66329380D01*
X177625000Y-65544678D01*
X177625000Y-64695322D01*
X177299966Y-63910620D01*
X176699380Y-63310034D01*
X175914678Y-62985000D01*
X175065322Y-62985000D01*
X174280620Y-63310034D01*
X173680034Y-63910620D01*
X173355000Y-64695322D01*
X165083692Y-64695322D01*
X164838026Y-64102233D01*
X164307767Y-63571974D01*
X163614950Y-63285000D01*
X162865050Y-63285000D01*
X162172233Y-63571974D01*
X161641974Y-64102233D01*
X161355000Y-64795050D01*
X155128130Y-64795050D01*
X155133113Y-64770000D01*
X155021740Y-64210091D01*
X154704577Y-63735423D01*
X154229909Y-63418260D01*
X153811333Y-63335000D01*
X153528667Y-63335000D01*
X153110091Y-63418260D01*
X152635423Y-63735423D01*
X152318260Y-64210091D01*
X152206887Y-64770000D01*
X147497440Y-64770000D01*
X147497440Y-63970000D01*
X147448157Y-63722235D01*
X147307809Y-63512191D01*
X147097765Y-63371843D01*
X146850000Y-63322560D01*
X145250000Y-63322560D01*
X145002235Y-63371843D01*
X144792191Y-63512191D01*
X144651843Y-63722235D01*
X144602560Y-63970000D01*
X144602560Y-65570000D01*
X144651843Y-65817765D01*
X144792191Y-66027809D01*
X145002235Y-66168157D01*
X145136106Y-66194785D01*
X145015423Y-66275423D01*
X144848661Y-66525000D01*
X136602310Y-66525000D01*
X136524999Y-66509622D01*
X136447688Y-66525000D01*
X136447684Y-66525000D01*
X136218708Y-66570546D01*
X136099625Y-66650115D01*
X136024591Y-66700251D01*
X136024589Y-66700253D01*
X135959047Y-66744047D01*
X135915253Y-66809589D01*
X134149459Y-68575383D01*
X134135000Y-68502690D01*
X134135000Y-62024126D01*
X150095000Y-62024126D01*
X150095000Y-62435874D01*
X150252569Y-62816280D01*
X150543720Y-63107431D01*
X150924126Y-63265000D01*
X151335874Y-63265000D01*
X151716280Y-63107431D01*
X151808711Y-63015000D01*
X159824922Y-63015000D01*
X159902234Y-63030378D01*
X159979546Y-63015000D01*
X159979550Y-63015000D01*
X160208526Y-62969454D01*
X160468187Y-62795953D01*
X160511983Y-62730408D01*
X161604674Y-61637717D01*
X161641974Y-61727767D01*
X162172233Y-62258026D01*
X162865050Y-62545000D01*
X163614950Y-62545000D01*
X164307767Y-62258026D01*
X164838026Y-61727767D01*
X165125000Y-61034950D01*
X165125000Y-60285050D01*
X165104403Y-60235322D01*
X173305000Y-60235322D01*
X173305000Y-61084678D01*
X173630034Y-61869380D01*
X174230620Y-62469966D01*
X175015322Y-62795000D01*
X175864678Y-62795000D01*
X176649380Y-62469966D01*
X177249966Y-61869380D01*
X177575000Y-61084678D01*
X177575000Y-60235322D01*
X177249966Y-59450620D01*
X176649380Y-58850034D01*
X175864678Y-58525000D01*
X175015322Y-58525000D01*
X174230620Y-58850034D01*
X173630034Y-59450620D01*
X173305000Y-60235322D01*
X165104403Y-60235322D01*
X164838026Y-59592233D01*
X164307767Y-59061974D01*
X163614950Y-58775000D01*
X162865050Y-58775000D01*
X162172233Y-59061974D01*
X161641974Y-59592233D01*
X161526728Y-59870462D01*
X161472233Y-59859622D01*
X161394922Y-59875000D01*
X161394918Y-59875000D01*
X161165942Y-59920546D01*
X161046859Y-60000115D01*
X160971825Y-60050251D01*
X160971823Y-60050253D01*
X160906281Y-60094047D01*
X160862487Y-60159589D01*
X159577077Y-61445000D01*
X151808711Y-61445000D01*
X151716280Y-61352569D01*
X151335874Y-61195000D01*
X150924126Y-61195000D01*
X150543720Y-61352569D01*
X150252569Y-61643720D01*
X150095000Y-62024126D01*
X134135000Y-62024126D01*
X134135000Y-56205157D01*
X136154835Y-54185322D01*
X159155000Y-54185322D01*
X159155000Y-55034678D01*
X159480034Y-55819380D01*
X160080620Y-56419966D01*
X160865322Y-56745000D01*
X161714678Y-56745000D01*
X162499380Y-56419966D01*
X163099966Y-55819380D01*
X163425000Y-55034678D01*
X163425000Y-54185322D01*
X163099966Y-53400620D01*
X162499380Y-52800034D01*
X161714678Y-52475000D01*
X160865322Y-52475000D01*
X160080620Y-52800034D01*
X159480034Y-53400620D01*
X159155000Y-54185322D01*
X136154835Y-54185322D01*
X138755158Y-51585000D01*
X144848661Y-51585000D01*
X145015423Y-51834577D01*
X145490091Y-52151740D01*
X145908667Y-52235000D01*
X146191333Y-52235000D01*
X146609909Y-52151740D01*
X147084577Y-51834577D01*
X147401740Y-51359909D01*
X147513113Y-50800000D01*
X147401740Y-50240091D01*
X147084577Y-49765423D01*
X146963894Y-49684785D01*
X147097765Y-49658157D01*
X147307809Y-49517809D01*
X147448157Y-49307765D01*
X147497440Y-49060000D01*
X147497440Y-48260000D01*
X152206887Y-48260000D01*
X152318260Y-48819909D01*
X152635423Y-49294577D01*
X152987758Y-49530000D01*
X152635423Y-49765423D01*
X152318260Y-50240091D01*
X152206887Y-50800000D01*
X152318260Y-51359909D01*
X152635423Y-51834577D01*
X153110091Y-52151740D01*
X153528667Y-52235000D01*
X153811333Y-52235000D01*
X154229909Y-52151740D01*
X154704577Y-51834577D01*
X155021740Y-51359909D01*
X155133113Y-50800000D01*
X155021740Y-50240091D01*
X154704577Y-49765423D01*
X154352242Y-49530000D01*
X154704577Y-49294577D01*
X155021740Y-48819909D01*
X155128130Y-48285050D01*
X161355000Y-48285050D01*
X161355000Y-49034950D01*
X161641974Y-49727767D01*
X162172233Y-50258026D01*
X162865050Y-50545000D01*
X163614950Y-50545000D01*
X164307767Y-50258026D01*
X164838026Y-49727767D01*
X165125000Y-49034950D01*
X165125000Y-48285050D01*
X165083692Y-48185322D01*
X173355000Y-48185322D01*
X173355000Y-49034678D01*
X173680034Y-49819380D01*
X174280620Y-50419966D01*
X175065322Y-50745000D01*
X175914678Y-50745000D01*
X176699380Y-50419966D01*
X177299966Y-49819380D01*
X177625000Y-49034678D01*
X177625000Y-48185322D01*
X177299966Y-47400620D01*
X176699380Y-46800034D01*
X175914678Y-46475000D01*
X175065322Y-46475000D01*
X174280620Y-46800034D01*
X173680034Y-47400620D01*
X173355000Y-48185322D01*
X165083692Y-48185322D01*
X164838026Y-47592233D01*
X164307767Y-47061974D01*
X163614950Y-46775000D01*
X162865050Y-46775000D01*
X162172233Y-47061974D01*
X161641974Y-47592233D01*
X161355000Y-48285050D01*
X155128130Y-48285050D01*
X155133113Y-48260000D01*
X155021740Y-47700091D01*
X154704577Y-47225423D01*
X154229909Y-46908260D01*
X153811333Y-46825000D01*
X153528667Y-46825000D01*
X153110091Y-46908260D01*
X152635423Y-47225423D01*
X152318260Y-47700091D01*
X152206887Y-48260000D01*
X147497440Y-48260000D01*
X147497440Y-47460000D01*
X147448157Y-47212235D01*
X147307809Y-47002191D01*
X147097765Y-46861843D01*
X146850000Y-46812560D01*
X145250000Y-46812560D01*
X145002235Y-46861843D01*
X144792191Y-47002191D01*
X144651843Y-47212235D01*
X144602560Y-47460000D01*
X144602560Y-49060000D01*
X144651843Y-49307765D01*
X144792191Y-49517809D01*
X145002235Y-49658157D01*
X145136106Y-49684785D01*
X145015423Y-49765423D01*
X144848661Y-50015000D01*
X138507312Y-50015000D01*
X138430000Y-49999622D01*
X138352688Y-50015000D01*
X138352684Y-50015000D01*
X138123708Y-50060546D01*
X137929591Y-50190251D01*
X137929589Y-50190253D01*
X137864047Y-50234047D01*
X137820253Y-50299589D01*
X132849592Y-55270251D01*
X132784047Y-55314047D01*
X132740251Y-55379592D01*
X132610547Y-55573708D01*
X132610546Y-55573709D01*
X132565000Y-55802685D01*
X132565000Y-55802688D01*
X132549622Y-55880000D01*
X132565000Y-55957312D01*
X132565001Y-68254841D01*
X130309592Y-70510251D01*
X130244047Y-70554047D01*
X130070546Y-70813709D01*
X130025000Y-71042685D01*
X130025000Y-71042688D01*
X130009622Y-71120000D01*
X130025000Y-71197312D01*
X130025001Y-74251288D01*
X129932569Y-74343720D01*
X129775000Y-74724126D01*
X129775000Y-75135874D01*
X129932569Y-75516280D01*
X130223720Y-75807431D01*
X130604126Y-75965000D01*
X131015874Y-75965000D01*
X131295001Y-75849382D01*
X131295001Y-76509841D01*
X129674592Y-78130251D01*
X129609047Y-78174047D01*
X129565251Y-78239592D01*
X129517622Y-78310874D01*
X129435546Y-78433709D01*
X129390000Y-78662685D01*
X129390000Y-78662688D01*
X129374622Y-78740000D01*
X129390000Y-78817312D01*
X129390001Y-80880000D01*
X129334126Y-80880000D01*
X128953720Y-81037569D01*
X128662569Y-81328720D01*
X128505000Y-81709126D01*
X128505000Y-82120874D01*
X128662569Y-82501280D01*
X128953720Y-82792431D01*
X129334126Y-82950000D01*
X129745874Y-82950000D01*
X130126280Y-82792431D01*
X130417431Y-82501280D01*
X130575000Y-82120874D01*
X130575000Y-81990157D01*
X130660001Y-81905156D01*
X130660000Y-84129842D01*
X128579843Y-86210000D01*
X122632310Y-86210000D01*
X122554999Y-86194622D01*
X122477688Y-86210000D01*
X122477684Y-86210000D01*
X122248708Y-86255546D01*
X122248706Y-86255547D01*
X122248707Y-86255547D01*
X122054591Y-86385251D01*
X122054589Y-86385253D01*
X121989047Y-86429047D01*
X121945253Y-86494589D01*
X119836168Y-88603675D01*
X119585874Y-88500000D01*
X119174126Y-88500000D01*
X118793720Y-88657569D01*
X118502569Y-88948720D01*
X118345000Y-89329126D01*
X118345000Y-89459843D01*
X118244590Y-89560253D01*
X118179048Y-89604047D01*
X118135254Y-89669589D01*
X118135251Y-89669592D01*
X118005546Y-89863709D01*
X117944622Y-90170000D01*
X117960001Y-90247317D01*
X117960000Y-93936289D01*
X117867569Y-94028720D01*
X117710000Y-94409126D01*
X107302837Y-94409126D01*
X107266280Y-94372569D01*
X106885874Y-94215000D01*
X106755157Y-94215000D01*
X106654749Y-94114592D01*
X106610953Y-94049047D01*
X106351292Y-93875546D01*
X106122316Y-93830000D01*
X106122312Y-93830000D01*
X106045000Y-93814622D01*
X105967688Y-93830000D01*
X97232312Y-93830000D01*
X97155000Y-93814622D01*
X97077688Y-93830000D01*
X97077684Y-93830000D01*
X96848708Y-93875546D01*
X96589047Y-94049047D01*
X96545251Y-94114592D01*
X96444843Y-94215000D01*
X96314126Y-94215000D01*
X95933720Y-94372569D01*
X95642569Y-94663720D01*
X95485000Y-95044126D01*
X83807837Y-95044126D01*
X83771280Y-95007569D01*
X83390874Y-94850000D01*
X82979126Y-94850000D01*
X82598720Y-95007569D01*
X82315000Y-95291289D01*
X82315000Y-95044126D01*
X82157431Y-94663720D01*
X81866280Y-94372569D01*
X81485874Y-94215000D01*
X81238711Y-94215000D01*
X81522431Y-93931280D01*
X81680000Y-93550874D01*
X81680000Y-93139126D01*
X81522431Y-92758720D01*
X81231280Y-92467569D01*
X80850874Y-92310000D01*
X80439126Y-92310000D01*
X80058720Y-92467569D01*
X79767569Y-92758720D01*
X79610000Y-93139126D01*
X79610000Y-93269842D01*
X79117887Y-93761956D01*
X79052345Y-93805750D01*
X79008551Y-93871292D01*
X79008548Y-93871295D01*
X78878843Y-94065412D01*
X78817919Y-94371703D01*
X78833298Y-94449020D01*
X78833298Y-95149587D01*
X78691280Y-95007569D01*
X78310874Y-94850000D01*
X77899126Y-94850000D01*
X77518720Y-95007569D01*
X77227569Y-95298720D01*
X77070000Y-95679126D01*
X76985000Y-95679126D01*
X76985000Y-91765157D01*
X80056031Y-88694126D01*
X98660000Y-88694126D01*
X98660000Y-89105874D01*
X98817569Y-89486280D01*
X99108720Y-89777431D01*
X99489126Y-89935000D01*
X99900874Y-89935000D01*
X100281280Y-89777431D01*
X100572431Y-89486280D01*
X100730000Y-89105874D01*
X100730000Y-89050000D01*
X110799843Y-89050000D01*
X111360000Y-89610158D01*
X111360000Y-89740874D01*
X111517569Y-90121280D01*
X111808720Y-90412431D01*
X112189126Y-90570000D01*
X112600874Y-90570000D01*
X112981280Y-90412431D01*
X113272431Y-90121280D01*
X113430000Y-89740874D01*
X113430000Y-89329126D01*
X113272431Y-88948720D01*
X112981280Y-88657569D01*
X112600874Y-88500000D01*
X112470158Y-88500000D01*
X111734749Y-87764592D01*
X111690953Y-87699047D01*
X111431292Y-87525546D01*
X111202316Y-87480000D01*
X111202312Y-87480000D01*
X111125000Y-87464622D01*
X111047688Y-87480000D01*
X100407312Y-87480000D01*
X100330000Y-87464622D01*
X100252688Y-87480000D01*
X100252684Y-87480000D01*
X100023708Y-87525546D01*
X99764047Y-87699047D01*
X99720251Y-87764592D01*
X99619843Y-87865000D01*
X99489126Y-87865000D01*
X99108720Y-88022569D01*
X98817569Y-88313720D01*
X98660000Y-88694126D01*
X80056031Y-88694126D01*
X83159749Y-85590409D01*
X83159751Y-85590406D01*
X83510157Y-85240000D01*
X101200000Y-85240000D01*
X101200000Y-85295874D01*
X101357569Y-85676280D01*
X101648720Y-85967431D01*
X102029126Y-86125000D01*
X102440874Y-86125000D01*
X102821280Y-85967431D01*
X103112431Y-85676280D01*
X103270000Y-85295874D01*
X103270000Y-84884126D01*
X103249405Y-84834405D01*
X103299126Y-84855000D01*
X103710874Y-84855000D01*
X104091280Y-84697431D01*
X104382431Y-84406280D01*
X104540000Y-84025874D01*
X104540000Y-83614126D01*
X104382431Y-83233720D01*
X104091280Y-82942569D01*
X103710874Y-82785000D01*
X103299126Y-82785000D01*
X102918720Y-82942569D01*
X102826289Y-83035000D01*
X81992312Y-83035000D01*
X81915000Y-83019622D01*
X81837688Y-83035000D01*
X81837684Y-83035000D01*
X81608708Y-83080546D01*
X81349047Y-83254047D01*
X81305251Y-83319592D01*
X74429590Y-90195253D01*
X74364048Y-90239047D01*
X74320254Y-90304589D01*
X74320251Y-90304592D01*
X74190546Y-90498709D01*
X74129622Y-90805000D01*
X70612000Y-90805000D01*
X70612000Y-77899126D01*
X78340000Y-77899126D01*
X78340000Y-78310874D01*
X78497569Y-78691280D01*
X78788720Y-78982431D01*
X79169126Y-79140000D01*
X79580874Y-79140000D01*
X79903463Y-79006380D01*
X79299843Y-79610000D01*
X79169126Y-79610000D01*
X78788720Y-79767569D01*
X78497569Y-80058720D01*
X78340000Y-80439126D01*
X78340000Y-80850874D01*
X78497569Y-81231280D01*
X78788720Y-81522431D01*
X79169126Y-81680000D01*
X79580874Y-81680000D01*
X79630595Y-81659405D01*
X79610000Y-81709126D01*
X79610000Y-82120874D01*
X79767569Y-82501280D01*
X80058720Y-82792431D01*
X80439126Y-82950000D01*
X80850874Y-82950000D01*
X81231280Y-82792431D01*
X81522431Y-82501280D01*
X81680000Y-82120874D01*
X81680000Y-81990157D01*
X82875158Y-80795000D01*
X82900618Y-80795000D01*
X82785000Y-81074126D01*
X82785000Y-81485874D01*
X82942569Y-81866280D01*
X83233720Y-82157431D01*
X83614126Y-82315000D01*
X84025874Y-82315000D01*
X84406280Y-82157431D01*
X84498711Y-82065000D01*
X111434843Y-82065000D01*
X113055253Y-83685411D01*
X113099047Y-83750953D01*
X113164589Y-83794747D01*
X113164591Y-83794749D01*
X113294511Y-83881559D01*
X113358708Y-83924454D01*
X113587684Y-83970000D01*
X113587688Y-83970000D01*
X113665000Y-83985378D01*
X113742312Y-83970000D01*
X114891289Y-83970000D01*
X114983720Y-84062431D01*
X115364126Y-84220000D01*
X115775874Y-84220000D01*
X116156280Y-84062431D01*
X116447431Y-83771280D01*
X116605000Y-83390874D01*
X116605000Y-82979126D01*
X116566273Y-82885632D01*
X116791280Y-82792431D01*
X117082431Y-82501280D01*
X117240000Y-82120874D01*
X117240000Y-81709126D01*
X117082431Y-81328720D01*
X116791280Y-81037569D01*
X116566273Y-80944368D01*
X116605000Y-80850874D01*
X116605000Y-80439126D01*
X116447431Y-80058720D01*
X116156280Y-79767569D01*
X115775874Y-79610000D01*
X115645158Y-79610000D01*
X114274749Y-78239592D01*
X114230953Y-78174047D01*
X113971292Y-78000546D01*
X113742316Y-77955000D01*
X113742312Y-77955000D01*
X113665000Y-77939622D01*
X113587688Y-77955000D01*
X81357312Y-77955000D01*
X81280000Y-77939622D01*
X81202688Y-77955000D01*
X81202684Y-77955000D01*
X80973708Y-78000546D01*
X80779591Y-78130251D01*
X80779589Y-78130253D01*
X80714047Y-78174047D01*
X80670253Y-78239589D01*
X80276380Y-78633463D01*
X80410000Y-78310874D01*
X80410000Y-78180157D01*
X80970157Y-77620000D01*
X112317688Y-77620000D01*
X112395000Y-77635378D01*
X112472312Y-77620000D01*
X112472316Y-77620000D01*
X112701292Y-77574454D01*
X112960953Y-77400953D01*
X113004749Y-77335408D01*
X113530408Y-76809749D01*
X113595953Y-76765953D01*
X113769454Y-76506292D01*
X113815000Y-76277316D01*
X113815000Y-76277312D01*
X113830378Y-76200000D01*
X113815000Y-76122688D01*
X113815000Y-72715157D01*
X113990157Y-72540000D01*
X120324843Y-72540000D01*
X121135000Y-73350158D01*
X121135001Y-78662683D01*
X121119622Y-78740000D01*
X121180546Y-79046291D01*
X121310251Y-79240408D01*
X121310254Y-79240411D01*
X121354048Y-79305953D01*
X121419590Y-79349747D01*
X122155000Y-80085158D01*
X122155000Y-80215874D01*
X122312569Y-80596280D01*
X122603720Y-80887431D01*
X122984126Y-81045000D01*
X123395874Y-81045000D01*
X123776280Y-80887431D01*
X124067431Y-80596280D01*
X124225000Y-80215874D01*
X124225000Y-79804126D01*
X124067431Y-79423720D01*
X123776280Y-79132569D01*
X123395874Y-78975000D01*
X123265158Y-78975000D01*
X122705000Y-78414843D01*
X122705000Y-73102310D01*
X122720378Y-73024999D01*
X122705000Y-72947688D01*
X122705000Y-72947684D01*
X122659454Y-72718708D01*
X122550320Y-72555378D01*
X122529749Y-72524591D01*
X122529747Y-72524589D01*
X122485953Y-72459047D01*
X122420411Y-72415253D01*
X121259749Y-71254592D01*
X121215953Y-71189047D01*
X120956292Y-71015546D01*
X120727316Y-70970000D01*
X120727312Y-70970000D01*
X120650000Y-70954622D01*
X120572688Y-70970000D01*
X113742312Y-70970000D01*
X113665000Y-70954622D01*
X113587688Y-70970000D01*
X113587684Y-70970000D01*
X113358708Y-71015546D01*
X113099047Y-71189047D01*
X113055251Y-71254592D01*
X112529590Y-71780253D01*
X112464048Y-71824047D01*
X112420254Y-71889589D01*
X112420251Y-71889592D01*
X112290546Y-72083709D01*
X112229622Y-72390000D01*
X112245001Y-72467316D01*
X112245000Y-73737315D01*
X112245001Y-73737320D01*
X112245000Y-75874843D01*
X112069843Y-76050000D01*
X80722312Y-76050000D01*
X80645000Y-76034622D01*
X80567688Y-76050000D01*
X80567684Y-76050000D01*
X80338708Y-76095546D01*
X80079047Y-76269047D01*
X80035251Y-76334592D01*
X79299843Y-77070000D01*
X79169126Y-77070000D01*
X78788720Y-77227569D01*
X78497569Y-77518720D01*
X78340000Y-77899126D01*
X70612000Y-77899126D01*
X70612000Y-74352992D01*
X89618176Y-57880973D01*
X89648572Y-57841837D01*
X89662000Y-57785000D01*
X89662000Y-47346892D01*
X123018514Y-47346892D01*
X123264817Y-47871358D01*
X123693076Y-48261645D01*
X124103110Y-48431476D01*
X124333000Y-48310155D01*
X124333000Y-47117000D01*
X123139181Y-47117000D01*
X123018514Y-47346892D01*
X89662000Y-47346892D01*
X89662000Y-46633108D01*
X123018514Y-46633108D01*
X123139181Y-46863000D01*
X124333000Y-46863000D01*
X124333000Y-45669845D01*
X124587000Y-45669845D01*
X124587000Y-46863000D01*
X124607000Y-46863000D01*
X124607000Y-47117000D01*
X124587000Y-47117000D01*
X124587000Y-48310155D01*
X124816890Y-48431476D01*
X125226924Y-48261645D01*
X125655183Y-47871358D01*
X125716157Y-47741522D01*
X125929375Y-48060625D01*
X126420582Y-48388839D01*
X126853744Y-48475000D01*
X127146256Y-48475000D01*
X127579418Y-48388839D01*
X128070625Y-48060625D01*
X128270000Y-47762239D01*
X128469375Y-48060625D01*
X128960582Y-48388839D01*
X129393744Y-48475000D01*
X129686256Y-48475000D01*
X130119418Y-48388839D01*
X130610625Y-48060625D01*
X130622816Y-48042381D01*
X130631843Y-48087765D01*
X130772191Y-48297809D01*
X130982235Y-48438157D01*
X131230000Y-48487440D01*
X132930000Y-48487440D01*
X133177765Y-48438157D01*
X133387809Y-48297809D01*
X133528157Y-48087765D01*
X133577440Y-47840000D01*
X133577440Y-46140000D01*
X133528157Y-45892235D01*
X133387809Y-45682191D01*
X133177765Y-45541843D01*
X132930000Y-45492560D01*
X131230000Y-45492560D01*
X130982235Y-45541843D01*
X130772191Y-45682191D01*
X130631843Y-45892235D01*
X130622816Y-45937619D01*
X130610625Y-45919375D01*
X130119418Y-45591161D01*
X129686256Y-45505000D01*
X129393744Y-45505000D01*
X128960582Y-45591161D01*
X128469375Y-45919375D01*
X128270000Y-46217761D01*
X128070625Y-45919375D01*
X127579418Y-45591161D01*
X127146256Y-45505000D01*
X126853744Y-45505000D01*
X126420582Y-45591161D01*
X125929375Y-45919375D01*
X125716157Y-46238478D01*
X125655183Y-46108642D01*
X125226924Y-45718355D01*
X124816890Y-45548524D01*
X124587000Y-45669845D01*
X124333000Y-45669845D01*
X124103110Y-45548524D01*
X123693076Y-45718355D01*
X123264817Y-46108642D01*
X123018514Y-46633108D01*
X89662000Y-46633108D01*
X89662000Y-43600000D01*
X149632560Y-43600000D01*
X149632560Y-45300000D01*
X149681843Y-45547765D01*
X149822191Y-45757809D01*
X150032235Y-45898157D01*
X150280000Y-45947440D01*
X151980000Y-45947440D01*
X152227765Y-45898157D01*
X152437809Y-45757809D01*
X152578157Y-45547765D01*
X152587184Y-45502381D01*
X152599375Y-45520625D01*
X153090582Y-45848839D01*
X153523744Y-45935000D01*
X153816256Y-45935000D01*
X154249418Y-45848839D01*
X154740625Y-45520625D01*
X155068839Y-45029418D01*
X155184092Y-44450000D01*
X155068839Y-43870582D01*
X154740625Y-43379375D01*
X154249418Y-43051161D01*
X153816256Y-42965000D01*
X153523744Y-42965000D01*
X153090582Y-43051161D01*
X152599375Y-43379375D01*
X152587184Y-43397619D01*
X152578157Y-43352235D01*
X152437809Y-43142191D01*
X152227765Y-43001843D01*
X151980000Y-42952560D01*
X150280000Y-42952560D01*
X150032235Y-43001843D01*
X149822191Y-43142191D01*
X149681843Y-43352235D01*
X149632560Y-43600000D01*
X89662000Y-43600000D01*
X89662000Y-36884873D01*
X93800302Y-32990000D01*
X173312560Y-32990000D01*
X173312560Y-35590000D01*
X173361843Y-35837765D01*
X173502191Y-36047809D01*
X173712235Y-36188157D01*
X173960000Y-36237440D01*
X176560000Y-36237440D01*
X176807765Y-36188157D01*
X177017809Y-36047809D01*
X177158157Y-35837765D01*
X177193623Y-35659459D01*
X180070146Y-35659459D01*
X180205504Y-35957455D01*
X180923880Y-36234066D01*
X181693427Y-36214710D01*
X182314496Y-35957455D01*
X182449854Y-35659459D01*
X181260000Y-34469605D01*
X180070146Y-35659459D01*
X177193623Y-35659459D01*
X177207440Y-35590000D01*
X177207440Y-33953880D01*
X179315934Y-33953880D01*
X179335290Y-34723427D01*
X179592545Y-35344496D01*
X179890541Y-35479854D01*
X181080395Y-34290000D01*
X181439605Y-34290000D01*
X182629459Y-35479854D01*
X182927455Y-35344496D01*
X183204066Y-34626120D01*
X183184710Y-33856573D01*
X182927455Y-33235504D01*
X182629459Y-33100146D01*
X181439605Y-34290000D01*
X181080395Y-34290000D01*
X179890541Y-33100146D01*
X179592545Y-33235504D01*
X179315934Y-33953880D01*
X177207440Y-33953880D01*
X177207440Y-32990000D01*
X177193624Y-32920541D01*
X180070146Y-32920541D01*
X181260000Y-34110395D01*
X182449854Y-32920541D01*
X182314496Y-32622545D01*
X181596120Y-32345934D01*
X180826573Y-32365290D01*
X180205504Y-32622545D01*
X180070146Y-32920541D01*
X177193624Y-32920541D01*
X177158157Y-32742235D01*
X177017809Y-32532191D01*
X176807765Y-32391843D01*
X176560000Y-32342560D01*
X173960000Y-32342560D01*
X173712235Y-32391843D01*
X173502191Y-32532191D01*
X173361843Y-32742235D01*
X173312560Y-32990000D01*
X93800302Y-32990000D01*
X95957751Y-30959459D01*
X177070146Y-30959459D01*
X177205504Y-31257455D01*
X177923880Y-31534066D01*
X178693427Y-31514710D01*
X179314496Y-31257455D01*
X179449854Y-30959459D01*
X178260000Y-29769605D01*
X177070146Y-30959459D01*
X95957751Y-30959459D01*
X97769929Y-29253880D01*
X176315934Y-29253880D01*
X176335290Y-30023427D01*
X176592545Y-30644496D01*
X176890541Y-30779854D01*
X178080395Y-29590000D01*
X178439605Y-29590000D01*
X179629459Y-30779854D01*
X179927455Y-30644496D01*
X180204066Y-29926120D01*
X180184710Y-29156573D01*
X179927455Y-28535504D01*
X179629459Y-28400146D01*
X178439605Y-29590000D01*
X178080395Y-29590000D01*
X176890541Y-28400146D01*
X176592545Y-28535504D01*
X176315934Y-29253880D01*
X97769929Y-29253880D01*
X98867852Y-28220541D01*
X177070146Y-28220541D01*
X178260000Y-29410395D01*
X179449854Y-28220541D01*
X179314496Y-27922545D01*
X178596120Y-27645934D01*
X177826573Y-27665290D01*
X177205504Y-27922545D01*
X177070146Y-28220541D01*
X98867852Y-28220541D01*
X100380365Y-26797000D01*
X186002394Y-26797000D01*
X186563000Y-27357606D01*
G04 #@! TD*
M02*
